<svg id="Layer_1" data-name="Layer 1" xmlns="http://www.w3.org/2000/svg" viewBox="0 0 861.86 541.24"><defs><style>.cls-1{fill:#0055e1;}</style></defs><path class="cls-1" d="M850,31.65a32.89,32.89,0,0,0-28.48-16.44H562.31a32.92,32.92,0,0,0-28.49,16.44L432.72,206.76,331.62,31.66a32.9,32.9,0,0,0-28.49-16.45H44A32.9,32.9,0,0,0,15.48,64.55L274.65,513.44a32.89,32.89,0,0,0,57,0l101.1-175.1,101.09,175.1a32.9,32.9,0,0,0,57,0L850,64.55A32.89,32.89,0,0,0,850,31.65ZM303.14,431.2,100.94,81h183.2l110.6,191.55Zm259.16,0L470.7,272.55,581.3,81H764.5Z"/></svg>