<svg width="18" height="18" viewBox="0 0 18 18" fill="none" xmlns="http://www.w3.org/2000/svg">
<path d="M8.96366 3C9.35089 3.02859 14.3279 4.96458 14.951 5.23438C15.077 7.18616 14.9112 9.31256 14.9734 11.2852C15.0025 12.2014 14.9932 13.2612 14.9549 14.1699C14.4284 14.3116 13.3211 14.4253 12.7371 14.501C11.5043 14.6677 10.2695 14.8212 9.03299 14.9609C8.76977 14.9699 7.1986 14.7638 6.83573 14.707C5.64603 14.5207 4.17579 14.4193 3.02909 14.1768C2.98033 13.1524 3.0076 11.9431 3.0076 10.9062L3.01151 5.2334C4.83512 4.47234 7.08457 3.68788 8.96366 3ZM10.6551 8.56641C10.6452 9.12842 10.6556 10.2473 10.5965 10.7764C10.122 11.303 9.50171 11.6159 8.89237 11.1172C8.64963 10.9181 8.43511 10.3831 8.23905 10.2803C7.88238 10.4761 7.87481 11.686 6.58768 11.2939C6.15551 11.1619 6.09367 10.4923 5.82889 10.333C5.72205 10.3538 5.66814 10.3523 5.60331 10.4629C5.38922 10.8297 5.2835 11.2339 4.80448 11.3242C4.33519 11.4126 3.81091 11.2617 3.61112 10.793C3.48765 10.9327 3.56022 12.7991 3.56229 13.1523L5.46659 13.3369C6.58006 13.4457 7.80892 13.5821 8.91874 13.6484C9.35262 13.6742 10.5445 13.5309 11.0496 13.4824L14.4217 13.1504C14.4227 12.3518 14.4177 11.545 14.4275 10.7471C13.7849 11.5759 12.6803 11.5571 12.0662 10.709C12.0133 10.0763 12.0141 9.41379 12.0037 8.77734C11.6354 8.72525 10.9834 8.59588 10.6551 8.56641ZM8.95877 5.38477C7.22279 6.02142 5.24552 6.68529 3.55155 7.36328L3.56913 8.26855L7.35038 6.88281C7.59153 6.79461 8.83991 6.32476 9.0369 6.30273L14.4295 8.27734L14.4226 7.35449C13.8666 7.15137 9.14395 5.38327 8.95877 5.38477Z" fill="#282828"/>
</svg>
