<svg width="36" height="36" viewBox="0 0 36 36" fill="none" xmlns="http://www.w3.org/2000/svg">
<rect width="36" height="36" rx="4" fill="#BA9B31"/>
<path d="M18.2683 8.0102C18.3285 8.00416 18.39 8.0014 18.4503 8.00046C21.7815 7.94856 21.3643 12.3457 20.9555 14.5444C20.9197 14.7372 20.8726 14.9679 20.878 15.1604L20.879 15.1878C20.9992 15.3669 21.0273 15.4033 21.2523 15.4116C21.4357 15.4184 21.6586 15.3861 21.8436 15.3674C22.1189 15.339 22.3946 15.3157 22.6707 15.2975C24.588 15.1691 30.4245 14.9564 28.6785 18.3974C28.3294 19.0851 28.1866 18.9285 28.6504 19.6494C29.0154 20.2167 28.9993 21.0855 28.4017 21.5062C27.9527 21.8222 27.5972 21.824 27.8413 22.5286C27.875 22.6367 27.9125 22.9152 27.923 23.0488C27.9429 23.2976 27.9234 23.548 27.8651 23.7907C27.668 24.5906 27.039 24.5866 26.8959 24.8823C26.8029 25.0742 26.8387 25.3863 26.8119 25.6007C26.7892 25.7815 26.7499 25.9646 26.6992 26.1395C26.5454 26.6698 26.264 27.1377 25.7685 27.409C25.2975 27.6286 24.9432 27.5617 24.446 27.5519C24.1235 27.5483 23.801 27.5471 23.4785 27.5481H19.1054L16.8532 27.5504C16.6744 27.5504 15.8294 27.5619 15.7117 27.5263C15.1721 27.3631 14.4757 26.8651 13.9428 26.6204L13.9439 20.8179C13.9439 19.7703 13.9766 18.5226 13.9365 17.4888C14.5173 17.2156 15.4779 16.3244 15.8898 15.8309C17.8184 13.5202 18.2405 10.9344 18.002 8.0314L18.2683 8.0102Z" fill="white"/>
<path d="M7.70989 16.9314C7.94323 16.914 8.35882 16.9249 8.60298 16.9248L10.3226 16.9245L11.8013 16.9248C12.3003 16.925 13.1724 16.8019 13.3029 17.5211C13.3628 17.8511 13.3328 18.3385 13.3329 18.6823L13.3333 20.8631L13.3332 24.7139C13.3331 25.3745 13.3386 26.0349 13.3254 26.6951C13.3167 27.1265 13.0723 27.4007 12.6507 27.4812C11.7516 27.5204 10.6055 27.4892 9.6904 27.4892L8.44322 27.4885C7.92607 27.4881 7.14982 27.5943 7.02695 26.8547C6.97994 26.5719 7.00872 26.1495 7.00872 25.8531L7.00879 23.8039L7.00923 19.7864C7.00929 19.1082 7.00468 18.4304 7.01461 17.7524C7.02146 17.2858 7.25062 17.0132 7.70989 16.9314Z" fill="white"/>
</svg>
