<svg width="18" height="18" viewBox="0 0 18 18" fill="none" xmlns="http://www.w3.org/2000/svg">
<path d="M9.52148 1.28613C9.6079 1.3255 9.92662 1.33819 10.041 1.36035C10.4275 1.43523 10.8193 1.49247 11.1973 1.60742C13.4148 2.27402 15.219 3.89599 16.1172 6.03027C16.3847 6.67322 16.5127 7.21188 16.6279 7.89746C16.6533 8.04871 16.6882 8.44548 16.7129 8.54004V9.46484L16.7119 9.47168C16.6711 9.62595 16.6766 9.81576 16.6475 9.97754C16.5816 10.344 16.5231 10.7285 16.4238 11.0869C15.6442 13.9004 13.2039 16.1234 10.3164 16.5928C10.1878 16.6137 10.0578 16.6458 9.92773 16.6611C9.81832 16.6759 9.56806 16.6779 9.47949 16.7139H8.49121C8.36926 16.6735 8.18403 16.68 8.05176 16.6602C6.98798 16.4974 6.02383 16.199 5.08789 15.6484C3.32522 14.6116 1.99829 12.8545 1.51855 10.8623C1.44419 10.5535 1.39206 10.2289 1.33691 9.91699C1.30719 9.74836 1.32954 9.55777 1.28613 9.39258L1.28516 9.38574V8.58008C1.31261 8.48267 1.34568 8.05012 1.37109 7.89551C1.48183 7.22336 1.64375 6.5708 1.91211 5.94238C2.8151 3.87321 4.57396 2.29894 6.73047 1.63086C7.20468 1.48268 7.71452 1.39415 8.20605 1.32617C8.27998 1.31596 8.3461 1.3176 8.41504 1.28613H9.52148ZM7.80176 13.3037L10.1611 13.3076L10.1621 11.2324L8.6084 11.2314C8.35486 11.2314 8.05377 11.2388 7.80371 11.2305C7.79875 11.9214 7.79802 12.6128 7.80176 13.3037ZM9.06836 4.69336C9.0042 4.69637 8.93639 4.69392 8.87109 4.69727C7.95432 4.74352 7.17491 4.90115 6.53125 5.62207C6.12373 6.07857 5.82331 6.84144 5.81055 7.44922C6.57738 7.53022 7.28498 7.6266 8.04688 7.72754C8.12472 7.33724 8.19607 6.87498 8.55469 6.6377C8.78589 6.48483 9.09471 6.47405 9.35938 6.5293C9.50602 6.56002 9.64339 6.6303 9.72656 6.75879C9.81714 6.89874 9.84158 7.13003 9.80469 7.29004C9.71551 7.67676 8.80444 8.31342 8.47949 8.61816C8.32577 8.75983 8.18987 8.91963 8.07422 9.09375C7.71603 9.66422 7.7352 9.99232 7.74219 10.6562L9.93457 10.6592C9.95493 10.1243 10.0485 9.85098 10.4541 9.4873C11.1862 8.831 12.1546 8.28328 12.1982 7.1875C12.2667 5.46742 10.5846 4.62187 9.06836 4.69336Z" fill="#282828"/>
</svg>
