<svg width="40" height="25" viewBox="0 0 40 25" fill="none" xmlns="http://www.w3.org/2000/svg">
<path d="M19.981 10.6102C20.2751 10.6207 20.6088 10.6764 20.7209 11C20.8166 11.2761 20.6121 11.5386 20.4877 11.7744C20.1929 12.3335 20.1407 12.9675 20.3438 13.5677C20.542 14.1594 20.9707 14.6463 21.5331 14.9182C22.6168 15.4518 23.3493 14.908 24.3129 14.4736C24.616 14.339 24.9719 14.4461 25.0251 14.802C25.4333 17.5342 23.925 19.8107 21.3035 20.5841C21.0099 20.662 20.7263 20.7035 20.4233 20.7276C19.0844 20.8394 17.7566 20.411 16.7362 19.5382C15.7198 18.6691 15.0911 17.4321 14.9887 16.0997C14.8742 14.7406 15.3108 13.3925 16.2005 12.3579C17.243 11.1548 18.448 10.7254 19.981 10.6102Z" fill="white"/>
<path d="M19.1219 6.72574C24.2998 6.48523 29.3734 8.23446 33.3006 11.6134C34.0674 12.2728 36.5081 14.5902 36.7176 15.6623C36.8095 16.1339 35.5224 17.5362 35.1034 17.9923C31.317 22.1146 26.5294 24.2948 21.0038 24.6388C20.9963 24.6396 20.9888 24.64 20.9813 24.6408C14.5481 24.9709 8.23417 22.1115 4.18833 17.1164C3.9448 16.8157 3.31691 16.0862 3.3436 15.7121C3.39495 14.9952 4.33995 14.1108 4.77622 13.5675C8.52634 9.35274 13.5017 7.03854 19.1219 6.72574ZM27.2059 14.7707C26.7024 10.8149 23.0849 8.01486 19.1239 8.5148C15.1589 9.01547 12.3524 12.6331 12.8563 16.5929C13.3604 20.5527 16.9839 23.3538 20.9481 22.8478C24.9084 22.3421 27.7093 18.7265 27.2059 14.7707ZM26.7743 9.74137C28.3856 11.6261 29.183 13.8992 28.9881 16.3849C28.8342 18.3446 28.0455 20.2011 26.7411 21.673C28.205 21.0739 29.2512 20.528 30.575 19.6457C32.1744 18.4949 33.5649 17.257 34.7655 15.6818C32.9031 13.3824 30.9215 11.6786 28.2479 10.3488C27.978 10.2145 27.0434 9.78689 26.7743 9.74137ZM13.1385 9.75895C9.89155 11.1789 7.50311 12.8477 5.29086 15.6808C6.60261 17.2847 7.82558 18.5238 9.5643 19.6935C10.8653 20.547 11.8617 21.0913 13.3211 21.6711C11.6499 19.6538 10.8362 17.4581 11.0877 14.8127C11.2128 13.5244 11.6119 12.277 12.2586 11.1554C12.4736 10.782 12.9092 10.2116 13.1844 9.84195C13.1692 9.8143 13.1536 9.7866 13.1385 9.75895Z" fill="white"/>
<path d="M19.7092 0.0131503C19.8483 0.00428785 20.0796 -0.0110922 20.212 0.0125835C20.4307 0.0510087 20.624 0.177141 20.7472 0.361653C21.0468 0.811472 20.9303 4.37251 20.8654 5.10941C20.8424 5.3707 20.538 5.57929 20.3204 5.71819C19.0003 5.86141 19.0603 4.56021 19.1371 3.59846C19.2275 2.46699 18.765 0.69849 19.7092 0.0131503Z" fill="white"/>
<path d="M0.651239 7.91491C0.810019 7.90134 0.992338 7.89356 1.1458 7.93944C1.59121 8.07253 4.26041 10.7831 4.5104 11.2455C4.6103 11.4305 4.63416 11.6894 4.57094 11.8902C4.47493 12.1951 4.21639 12.3486 3.95071 12.4852C2.96814 12.5424 0.863928 9.95595 0.171879 9.19885C-0.256703 8.72998 0.19693 8.19238 0.651239 7.91491Z" fill="white"/>
<path d="M33.4965 3.58801C34.6414 3.73283 34.5521 4.57129 34.0791 5.34935C33.4297 6.41712 32.8787 7.57815 32.1333 8.58354C32.0566 8.68701 31.8206 8.79131 31.6994 8.84266C30.2477 8.70173 30.6559 7.6729 31.1947 6.79621C31.7826 5.83937 32.318 4.70037 33.0032 3.80419C33.0779 3.70646 33.3716 3.62248 33.4965 3.58801Z" fill="white"/>
<path d="M38.9248 7.90286C40.2212 7.82902 40.2189 9.0021 39.5857 9.59444C38.8039 10.3258 37.4149 12.004 36.5473 12.4869C35.9541 12.4949 35.2012 12.1439 35.507 11.4977C35.9177 10.6296 38.1565 8.34318 38.9248 7.90286Z" fill="white"/>
<path d="M6.18299 3.64126C6.76342 3.55843 7.0501 3.67757 7.3531 4.20225C8.00906 5.33786 8.77116 6.50629 9.32135 7.69466C9.54749 8.18309 9.19588 8.54377 8.79872 8.79435C8.64351 8.81372 8.44474 8.82812 8.28999 8.79849C8.05715 8.75395 7.91197 8.5825 7.78152 8.40016C7.37906 7.83795 5.54088 4.87353 5.65232 4.28826C5.71075 3.98142 5.94346 3.80799 6.18299 3.64126Z" fill="white"/>
<path d="M26.8629 0.899498C27.0202 0.897204 27.1862 0.913769 27.3352 0.965632C27.546 1.03903 27.7079 1.17474 27.8058 1.37537C28.0655 1.90801 27.0681 5.20655 26.809 5.92293C26.6807 6.27769 26.5089 6.37045 26.1841 6.5219C25.669 6.52011 25.0733 6.29266 25.1422 5.66299C25.2267 4.89002 25.5103 4.10107 25.6956 3.34129C25.8465 2.72264 26.0314 2.09176 26.2253 1.48502C26.3381 1.1402 26.5645 1.03349 26.8629 0.899498Z" fill="white"/>
<path d="M12.8216 0.9001C14.2352 0.848875 14.2047 3.24658 14.6283 4.32345C14.9633 5.17523 15.1908 6.03643 14.2923 6.51326C12.7804 6.54869 12.9383 4.18201 12.4471 3.02218C12.1111 2.22877 11.9437 1.35609 12.8216 0.9001Z" fill="white"/>
</svg>
