<svg width="29" height="31" viewBox="0 0 29 31" fill="none" xmlns="http://www.w3.org/2000/svg">
<path d="M12.0859 0C12.4896 0.128238 13.3124 0.510998 13.7266 0.69043L16.7012 1.97852C17.217 2.2006 17.8641 2.49709 18.3838 2.68457C18.3711 4.70528 18.4092 6.75478 18.3838 8.76855C16.8014 9.1232 15.2259 9.53695 13.6377 9.89258L13.6436 29.7217H14.5371L14.541 16.7852C14.54 14.775 14.4961 12.6156 14.5479 10.6221C15.9498 10.1931 17.9361 9.90684 19.2637 9.46387C21.358 10.1424 23.8249 11.0592 25.9062 11.6523L25.9043 20.4678L25.9082 29.7207L28.4521 29.7178L28.4541 30.9971L0 31L0.00585938 29.7178L2.55273 29.7217L2.55371 11.6338L2.54688 3.5791C3.31786 3.33891 4.25953 2.92289 5.04297 2.64648C7.36385 1.82761 9.7685 0.784237 12.0859 0ZM3.64453 4.35449L3.63867 29.7148L5.11328 29.7197V13.6494C5.11324 10.9706 5.17553 7.99862 5.10449 5.35059C5.59152 5.19867 6.11918 4.9884 6.60059 4.80859L6.60352 28.0381L6.60254 29.7158L8.05078 29.7227L8.04883 4.24414C8.52524 4.09444 9.06747 3.87342 9.54004 3.69336L9.53809 29.7197H10.9961L10.9912 1.65137C10.9331 1.60706 10.9644 1.61618 10.8965 1.61328L3.64453 4.35449ZM18.1064 10.9102C17.3058 11.0578 16.4701 11.2888 15.667 11.4619C15.6072 14.865 15.6604 18.4448 15.6611 21.8574V27.0127C15.661 27.3611 15.6139 29.5488 15.7158 29.7109L15.7549 29.7188H18.1904L18.1943 17.4609C18.1943 16.7546 18.2302 11.0103 18.1455 10.9102H18.1064ZM20.2285 28.3525C21.8092 28.4242 23.4209 28.5335 24.998 28.5732V27.5059C23.4981 27.4147 21.7255 27.2976 20.2305 27.2881L20.2285 28.3525ZM20.2285 25.3633C21.8177 25.5016 23.406 25.651 24.9932 25.8115C24.9944 25.4531 25.0033 25.0627 24.9932 24.707L20.2295 24.2607L20.2285 25.3633ZM20.2295 22.3506L23.3174 22.792C23.8169 22.8623 24.527 22.9338 24.9941 23.042L24.9971 21.9434C23.892 21.7557 22.7733 21.6259 21.666 21.457C21.2354 21.3913 20.6386 21.3293 20.2314 21.2432C20.2303 21.6104 20.2258 21.9839 20.2295 22.3506ZM20.2285 19.3477C21.8155 19.6564 23.4041 19.9567 24.9941 20.249L24.9961 19.1396C23.4782 18.9045 21.7538 18.5396 20.2285 18.249V19.3477ZM20.2285 16.3662C21.7287 16.6519 23.487 17.1302 24.9961 17.4854C24.9974 17.1155 25.0043 16.735 25 16.3662L21.834 15.6172C21.4442 15.5247 20.5759 15.3417 20.2373 15.2217L20.2285 16.3662ZM20.2285 13.3574L23.3594 14.2441C23.8407 14.381 24.5432 14.556 24.998 14.7168L25.0029 13.5742C23.449 13.2019 21.7987 12.6304 20.2305 12.2334L20.2285 13.3574Z" fill="#282828"/>
</svg>
