<svg width="48" height="48" viewBox="0 0 48 48" fill="none" xmlns="http://www.w3.org/2000/svg">
<g clip-path="url(#clip0_2360_10263)">
<path d="M37.8069 27.4106C40.7679 27.2643 44.029 27.4286 47.0129 27.436C47.5635 27.4378 48.162 28.326 47.9602 28.7808C47.3289 30.1988 45.3092 31.0751 44.1946 32.1587C43.208 33.0514 42.2373 33.6899 41.3977 34.7563C40.6948 35.5666 39.9041 36.8465 39.1702 37.3364C38.3482 37.4328 36.8751 37.3841 35.9924 37.3804L30.7571 37.3726L24.2815 37.3647C22.7482 37.3621 20.8116 37.4672 19.3538 37.1079C16.6754 36.4476 13.9587 35.8624 11.1907 35.73C8.18821 35.4787 5.56792 35.7339 2.61645 36.2065C2.14673 34.1256 0.655821 32.3222 0.0559075 30.2993C-0.248905 29.2715 0.755951 29.0258 1.53833 29.022C4.1268 29.0093 6.71731 29.0133 9.30688 29.0132L24.5686 29.019L30.1418 29.0239C31.9562 29.0252 33.8803 29.1625 35.5676 28.3862C36.3547 28.0242 36.9304 27.5807 37.8069 27.4106ZM19.761 31.9321C19.4013 31.655 18.9375 31.552 18.4944 31.6509C17.6707 31.8349 17.1514 32.6512 17.3342 33.4751C17.5172 34.2987 18.3326 34.8187 19.1565 34.6372C19.8785 34.4781 20.3832 33.8252 20.3557 33.0864C20.3386 32.6324 20.1208 32.2095 19.761 31.9321ZM31.0247 32.771C30.8234 31.9662 30.017 31.4686 29.2073 31.6489C28.6648 31.7698 28.23 32.1754 28.0725 32.7085C27.915 33.2415 28.059 33.818 28.4485 34.2144C28.8381 34.6108 29.4128 34.765 29.9485 34.6167C30.748 34.3951 31.2257 33.576 31.0247 32.771ZM25.675 32.8345C25.5046 32.0061 24.6914 31.4753 23.8645 31.6528C23.0477 31.8283 22.5245 32.6294 22.6926 33.4478C22.8608 34.2659 23.6571 34.7959 24.4768 34.6353C25.307 34.4723 25.8454 33.6631 25.675 32.8345ZM14.5969 32.1255C14.2301 31.72 13.6732 31.543 13.1399 31.6636C12.3332 31.846 11.822 32.6421 11.9915 33.4517C12.1611 34.2612 12.9488 34.7852 13.761 34.6284C14.2977 34.5247 14.7371 34.14 14.9104 33.6216C15.0836 33.1029 14.9637 32.531 14.5969 32.1255Z" fill="#BA9B31"/>
<path d="M14.2383 21.5465L26.625 21.5436L33.7666 21.5426C34.6965 21.5428 37.1604 21.494 37.9355 21.6862C38.855 21.9144 40.6485 25.475 41.2148 26.4596C39.8217 26.5129 38.1307 26.3283 36.8291 26.7106C35.9823 27.104 35.0086 27.7446 34.1191 27.8698C32.854 28.0478 31.4299 27.9997 30.1406 27.9967L24.4229 27.985L4.08594 27.9948C4.61122 26.3421 5.19852 24.0364 5.96289 22.5085C6.25689 21.9208 6.8138 21.6908 7.43555 21.569C9.57088 21.4808 12.0738 21.5462 14.2383 21.5465ZM16.6025 22.987C16.4419 23.0557 16.3546 23.0533 16.3145 23.236C16.1465 24.0009 16.2063 25.89 16.3428 26.6169C17.1339 26.6735 17.9109 26.6566 18.7031 26.6501C18.8434 26.568 18.9266 26.5571 18.9492 26.3864C19.0775 25.4168 19.0106 24.015 18.9629 23.0544C18.2152 22.9513 17.3595 22.9546 16.6025 22.987ZM12.0781 22.9899C11.837 23.0063 11.4929 22.9965 11.3213 23.1491C11.2166 23.7177 11.2851 25.9413 11.2949 26.6071C12.0263 26.6548 12.6407 26.6574 13.3691 26.654C13.6791 26.6367 13.6615 26.6902 13.8418 26.5231C13.9582 25.8703 13.9264 23.756 13.8672 23.0456C13.246 22.9648 12.7048 22.9599 12.0781 22.9899ZM23.9551 23.0602C23.2629 22.9383 22.4854 22.969 21.7783 22.9889C21.6616 23.0135 21.4727 23.0265 21.4453 23.112C21.2253 23.7994 21.3422 25.9814 21.4023 26.6403C22.1493 26.6505 22.8965 26.6548 23.6436 26.654C23.7682 26.6157 23.8617 26.619 23.8945 26.5046C24.0735 25.8773 24.0308 23.6768 23.9551 23.0602ZM34.0137 23.0251C33.2388 22.9665 32.4606 22.958 31.6846 22.9987C31.5712 23.0384 31.4699 23.0439 31.4492 23.1462C31.2757 24.0082 31.3666 25.7574 31.4111 26.6276C32.2112 26.6555 33.0121 26.6615 33.8125 26.6452C33.9568 26.5362 34.0148 26.4772 34.0225 26.2506C34.0534 25.339 34.0988 23.9038 34.0137 23.0251ZM27.1172 22.9928L26.2988 23.0671C26.2948 24.1121 26.2514 25.6393 26.3643 26.6325C27.0338 26.65 27.7043 26.6565 28.374 26.651C28.7025 26.6268 28.6892 26.6743 28.9346 26.5163C29.0945 25.9987 29.0444 23.63 28.9785 23.0534C28.3335 22.9708 27.7677 22.9603 27.1172 22.9928Z" fill="#BA9B31"/>
<path d="M18.1621 17.7155L29.7891 17.7116C30.299 17.7114 30.8326 17.7001 31.3438 17.7116C34.5461 17.7832 34.6868 17.2417 34.6309 20.5866L33.6641 20.5944L10.6758 20.5915C10.6793 19.8205 10.6841 19.0986 10.7256 18.3268C11.0285 17.9998 11.1338 17.8146 11.5596 17.7302C13.6876 17.6721 16.0177 17.7151 18.1621 17.7155ZM18.0879 18.4274C18.0622 18.9616 18.0371 19.368 18.0781 19.901C18.5234 19.8488 18.634 19.8406 19.0752 19.9089C19.2312 19.3868 19.1903 18.9614 19.1533 18.4245L18.0879 18.4274ZM22.0918 18.4343C22.0881 18.8763 22.0703 19.4205 22.1025 19.8503C22.4541 19.8655 22.8377 19.8736 23.1855 19.8991C23.2432 19.3011 23.2434 19.0199 23.2129 18.4186L22.0918 18.4343ZM30.583 18.4098C30.4528 18.4322 30.2792 18.4271 30.2061 18.5475C29.9914 18.9017 29.9869 19.6043 30.3799 19.8493C30.5465 19.8675 30.7139 19.8833 30.8809 19.8971C30.9852 19.8738 31.1226 19.8747 31.1592 19.7839C31.3381 19.3387 31.4088 18.7216 30.9941 18.4216L30.583 18.4098ZM14.0459 18.4274C14.0487 18.9238 14.0414 19.3802 14.1055 19.8737L15.0996 19.8854C15.1196 19.3952 15.138 18.9291 15.1357 18.4382L14.0459 18.4274ZM26.2031 18.403C26.089 18.7276 26.1379 19.509 26.1514 19.8757L27.2236 19.8552C27.3069 19.4169 27.2749 18.9021 27.2666 18.4509L26.2031 18.403Z" fill="#BA9B31"/>
<path d="M15.274 10C15.4818 10.0166 15.6079 10.0101 15.788 10.1224C15.9246 10.3632 16.3842 15.8425 16.4911 16.739L15.7268 16.7434L14.5234 16.7427C14.5914 15.949 14.7117 14.8466 14.8039 14.0637C14.9139 13.1319 14.9227 10.7386 15.274 10Z" fill="#BA9B31"/>
</g>
<defs>
<clipPath id="clip0_2360_10263">
<rect width="48" height="48" fill="white"/>
</clipPath>
</defs>
</svg>
