<svg width="36" height="36" viewBox="0 0 36 36" fill="none" xmlns="http://www.w3.org/2000/svg">
<path d="M17.638 10.3112C18.9952 10.2267 20.4865 10.5897 21.6832 11.2238C23.4558 12.1694 24.7824 13.7779 25.3735 15.6981C25.4793 16.0474 25.574 16.4238 25.6033 16.7871C25.627 17.0821 25.4636 17.2814 25.1768 17.3435C24.498 17.4904 24.4812 16.7755 24.3718 16.3231C23.9741 14.6824 22.8737 13.2755 21.4459 12.4003C19.9766 11.494 18.2079 11.2081 16.528 11.6055C14.7647 12.0302 13.3052 13.149 12.3648 14.691C12.0451 15.2288 11.8068 15.8109 11.6574 16.4184C11.5257 16.9579 11.4863 17.4723 11.4489 18.0244C11.329 19.6791 11.4249 21.3421 11.7344 22.9719C11.8081 23.3594 11.8946 23.7442 11.9938 24.1258C12.0692 24.4097 12.1551 24.6853 12.2149 24.9721C12.2985 25.3366 12.12 25.6549 11.7286 25.6883C11.2619 25.7303 11.1224 25.2189 11.0227 24.8648C10.4627 22.8771 10.2242 20.7919 10.2715 18.7286C10.2821 18.2627 10.2919 17.8221 10.3507 17.3615C10.5644 15.6838 11.1944 14.101 12.3331 12.8351C13.3812 11.6587 14.7915 10.8268 16.3295 10.4823C16.8054 10.3757 17.1574 10.3437 17.638 10.3112Z" fill="#282828"/>
<path d="M17.8599 15.0724C18.1477 15.0426 18.5602 15.0957 18.8369 15.1691C20.0661 15.495 20.883 16.6074 20.9463 17.8607C20.9676 18.2031 20.918 18.5415 20.8954 18.883C20.8179 20.0495 20.9806 21.2063 21.3378 22.3184C21.6401 23.2729 22.0923 24.1732 22.6773 24.9855C22.8068 25.1625 23.3572 25.7999 23.4015 25.919C23.6573 26.6059 22.924 27.0868 22.3435 26.4019C20.5019 24.2284 19.561 21.4756 19.7901 18.6276C19.8311 18.1157 19.8693 17.7153 19.6546 17.231C19.4679 16.8115 19.123 16.4829 18.695 16.3168C18.2043 16.1308 17.6807 16.1706 17.2075 16.3861C16.9469 16.5196 16.7228 16.7146 16.5545 16.9542C16.1911 17.4702 16.1823 18.0917 16.1506 18.7001C16.0398 20.9695 16.469 23.2329 17.403 25.304C17.5392 25.6124 17.6867 25.9154 17.8455 26.2126C17.9376 26.3826 18.0286 26.5427 18.1269 26.712C18.2565 26.943 18.4962 27.2046 18.5345 27.4711C18.5731 27.7404 18.3185 28.0595 18.0443 28.0728C17.9031 28.0795 17.7068 28.0556 17.6068 27.9486C17.3483 27.6724 17.15 27.2832 16.9672 26.9519C15.8823 24.9994 15.2306 22.8361 15.0564 20.6094C14.995 19.8933 14.9665 19.2346 15.03 18.5187C15.0722 18.0431 15.07 17.625 15.2114 17.1553C15.3285 16.76 15.5263 16.3933 15.7923 16.0783C16.3358 15.4383 17.0373 15.1404 17.8599 15.0724Z" fill="#282828"/>
<path d="M17.6132 12.6817C17.6971 12.6688 17.9538 12.6665 18.0448 12.6659C18.8853 12.66 19.691 12.8765 20.4393 13.2544C22.1428 14.1079 23.2525 15.8153 23.3404 17.7188C23.3627 18.2139 23.3059 18.5921 23.2824 19.0787C23.245 19.9354 23.3578 20.7919 23.6157 21.6095C23.8288 22.257 24.1316 22.8716 24.5152 23.4351C24.6123 23.5781 24.7101 23.7095 24.8128 23.8503C24.9981 24.1046 25.5251 24.5645 25.3066 24.9205C24.8328 25.6927 24.267 24.988 23.9466 24.5872C23.177 23.6241 22.6806 22.5638 22.3776 21.3862C22.1972 20.7103 22.1242 19.912 22.1295 19.2144C22.1209 18.8479 22.2036 18.4631 22.1994 18.1005C22.1828 16.6584 21.5158 15.2691 20.3091 14.4852C19.382 13.8762 18.2501 13.6629 17.165 13.8925C16.0613 14.1326 15.097 14.8548 14.4963 15.8028C14.3517 16.031 14.2349 16.32 13.9359 16.3714C13.6609 16.4188 13.3013 16.2338 13.2764 15.9287C13.2515 15.4571 13.6881 14.9681 13.9522 14.6062C14.8706 13.4803 16.1724 12.8181 17.6132 12.6817Z" fill="#282828"/>
<path d="M17.51 7.93965C17.9159 7.90266 18.4581 7.92752 18.8683 7.95844C21.2908 8.141 23.634 9.27156 25.3105 11.0247C25.6432 11.3705 26.1978 11.922 25.6199 12.3426C25.3134 12.5656 25.0111 12.4053 24.7982 12.1578C23.8825 11.094 22.8377 10.3498 21.5597 9.78233C19.2586 8.78903 16.6453 8.81151 14.3616 9.84425C13.9961 10.0118 13.6763 10.1918 13.3358 10.4053C13.1739 10.5068 12.9513 10.6354 12.7617 10.6629C12.6204 10.6842 12.4767 10.6453 12.3654 10.5558C12.24 10.4556 12.1624 10.3073 12.1516 10.1472C12.1194 9.69522 12.7271 9.41714 13.0673 9.22458C14.4245 8.44805 15.9478 8.00748 17.51 7.93965Z" fill="#282828"/>
<path d="M30.5833 26.8914C31.0397 26.9019 31.5362 26.8925 31.9959 26.8928L31.9958 29.6508C31.9959 30.5918 31.7136 31.2655 30.8598 31.7522C30.368 32.0326 29.8911 31.9969 29.3484 31.9963L28.2444 31.9948L26.8906 31.997L26.8937 30.5801L28.9082 30.5852C29.4564 30.5865 30.461 30.7392 30.5615 29.9792C30.6026 29.6694 30.5822 29.2765 30.5818 28.9581C30.5776 28.2693 30.5781 27.5804 30.5833 26.8914Z" fill="#BA9B31"/>
<path d="M26.8919 4.00428H28.9436C29.3068 4.00414 30.0467 3.98097 30.3671 4.05938C30.746 4.15105 31.0919 4.34605 31.3664 4.6227C31.6413 4.89327 31.8372 5.23377 31.933 5.60748C32.0257 5.97156 31.9945 6.70597 31.9947 7.11054L31.9954 9.11248C31.5773 9.08313 31.0094 9.09953 30.5785 9.10332C30.5915 8.18054 30.5765 7.25034 30.5856 6.32856C30.5962 5.24127 29.7204 5.41427 28.9613 5.41509L26.8943 5.42213C26.8875 4.95361 26.8923 4.47368 26.8919 4.00428Z" fill="#BA9B31"/>
<path d="M5.91103 4.01574C6.20241 3.98903 6.72663 4.00437 7.02914 4.00452L9.11078 4.00663C9.09042 4.2609 9.09102 5.1668 9.11072 5.42384L9.00083 5.42189C8.35677 5.41638 7.71268 5.41438 7.0686 5.41584C5.86099 5.415 5.3193 5.28472 5.41359 6.78669C5.42239 6.92705 5.41469 7.13572 5.41527 7.28409C5.41193 7.89304 5.41542 8.50203 5.42572 9.11091C5.16768 9.08756 4.27476 9.09296 4.00417 9.1133L4.0046 7.07263C4.00386 6.71921 3.98036 6.01039 4.04718 5.69266C4.11497 5.37355 4.25567 5.07447 4.45827 4.8188C4.83046 4.35343 5.3201 4.08156 5.91103 4.01574Z" fill="#BA9B31"/>
<path d="M4.0055 26.8875C4.46003 26.9011 4.96055 26.8911 5.41839 26.8907L5.41584 27.2727L5.41323 29.0142C5.41308 29.2505 5.41163 29.4876 5.41462 29.7232C5.41237 29.9829 5.44917 30.1811 5.64312 30.3719C5.9547 30.6784 6.58355 30.5826 7.002 30.5822C7.70165 30.5853 8.40134 30.584 9.10099 30.5782C9.09738 31.004 9.08059 31.5724 9.10735 31.9862C9.04234 32.0035 8.39019 31.9951 8.27515 31.9948C7.61285 31.9917 6.95052 31.992 6.28819 31.9959C5.61853 31.9971 5.10939 31.8558 4.62 31.3636C4.34603 31.0894 4.15217 30.7455 4.0593 30.369C3.97586 30.0273 4.00494 29.3193 4.00479 28.9367L4.0055 26.8875Z" fill="#BA9B31"/>
<path d="M13.1335 17.8419C13.9819 17.7781 13.7773 18.7349 13.7701 19.286C13.7556 21.2373 14.0864 23.1758 14.7473 25.0118C14.8725 25.3579 15.0085 25.6999 15.1551 26.0374C15.396 26.5842 15.9347 27.3281 15.0856 27.6028C14.5762 27.7189 14.3103 26.9269 14.1521 26.5615C13.881 25.9482 13.6446 25.3199 13.4442 24.6798C12.9895 23.2183 12.7315 21.7029 12.6769 20.1732C12.6584 19.7029 12.6779 19.2211 12.6659 18.7495C12.6556 18.3432 12.6722 17.9714 13.1335 17.8419Z" fill="#282828"/>
<path d="M10.7258 11.2391C11.0186 11.1994 11.3032 11.3191 11.3987 11.6167C11.4393 11.7449 11.4286 11.8837 11.3689 12.0041C11.2889 12.1639 10.9374 12.5892 10.8008 12.7852C10.3872 13.3741 10.0396 14.0068 9.7645 14.6718C9.30944 15.7768 9.07521 16.9602 9.07501 18.1552C9.07561 18.6322 9.18793 19.1246 8.63142 19.2864C7.88316 19.3939 7.92617 18.6043 7.92626 18.1023C7.92037 16.7263 8.20621 15.3648 8.76492 14.1074C9.09788 13.3493 9.51531 12.6353 9.99948 11.964C10.2088 11.6737 10.3784 11.3744 10.7258 11.2391Z" fill="#282828"/>
<path d="M26.6426 13.5351C27.1012 13.5055 27.2699 13.9544 27.4102 14.3079C27.5377 14.6292 27.6448 14.9596 27.7349 15.2933C28.0939 16.6692 28.1717 18.1034 27.9635 19.5101C27.8998 19.9258 27.8655 20.4771 27.3805 20.5877C27.2386 20.5868 27.1519 20.5658 27.0238 20.5034C26.6511 20.3217 26.7413 19.9081 26.8026 19.5652C27.0455 18.2039 26.9866 16.7711 26.5968 15.4419C26.4913 15.0551 26.3219 14.6927 26.188 14.3167C26.0439 13.9121 26.2557 13.6375 26.6426 13.5351Z" fill="#282828"/>
<path d="M17.9494 17.443C18.6455 17.4323 18.5877 17.9588 18.5532 18.4746C18.535 18.7462 18.508 19.0401 18.5071 19.3108C18.5109 19.9462 18.5587 20.5805 18.6499 21.2094C18.7075 21.5885 18.9031 22.221 18.7473 22.5822C18.6776 22.744 18.4571 22.8073 18.296 22.8496C17.8332 22.8372 17.7254 22.4276 17.6484 22.0562C17.4078 20.8682 17.3313 19.6529 17.4213 18.4441C17.456 18.0201 17.4412 17.5466 17.9494 17.443Z" fill="#282828"/>
<path d="M24.9397 18.8999C25.5176 18.8266 25.619 19.2093 25.6502 19.6816C25.6991 20.473 25.916 21.19 26.3241 21.8706C26.5102 22.1806 26.9303 22.6193 26.7555 22.998C26.6778 23.1664 26.5282 23.2542 26.3624 23.3167C26.251 23.3326 26.1641 23.3237 26.0605 23.2775C25.5809 23.0633 25.0938 22.0317 24.9083 21.5395C24.7308 21.069 24.3614 19.6223 24.5737 19.1805C24.6502 19.0216 24.7821 18.9556 24.9397 18.8999Z" fill="#282828"/>
<path d="M19.0446 24.2276C19.5581 24.178 19.6103 24.46 19.8212 24.8575C19.9341 25.073 20.0536 25.2848 20.1794 25.4927C20.3584 25.7821 20.5437 26.0672 20.7357 26.3482C20.8592 26.5268 21.0978 26.8219 21.1733 27.0138C21.3105 27.3627 20.9971 27.623 20.7207 27.7228C20.62 27.7469 20.5251 27.7479 20.4281 27.7056C19.9808 27.5099 18.8202 25.4953 18.636 24.9849C18.5794 24.8281 18.5708 24.6711 18.6478 24.5187C18.7345 24.3471 18.8715 24.2818 19.0446 24.2276Z" fill="#282828"/>
</svg>
