<svg width="36" height="36" viewBox="0 0 36 36" fill="none" xmlns="http://www.w3.org/2000/svg">
<path d="M15.885 12.6482C16.5036 12.6459 17.042 12.7331 17.6444 12.8463C17.722 13.1922 17.827 13.6915 17.8416 14.0463C17.8568 14.1333 17.9219 14.6202 17.8616 14.6616L15.8848 14.6624L15.885 12.6482Z" fill="#282828"/>
<path d="M17.8398 14.0474C17.855 14.1344 17.9201 14.6213 17.8598 14.6627L17.8341 14.644C17.8136 14.5713 17.8225 14.1383 17.8398 14.0474Z" fill="#282828"/>
<path d="M12.9297 15.6076L14.9405 15.6057C14.9513 16.2493 14.9394 16.911 14.9441 17.5579C14.3935 17.5822 13.7024 17.4641 13.1663 17.3593C13.0236 16.7051 12.9652 16.2754 12.9297 15.6076Z" fill="#282828"/>
<path d="M14.7965 12.7066C14.8549 12.6978 14.8765 12.6898 14.9332 12.708C14.9531 12.7721 14.9441 13.2354 14.9439 13.3254L14.9441 14.6624L13.1601 14.6618L12.9297 14.6603C12.9595 14.0462 13.0211 13.6176 13.1387 13.0176C13.709 12.886 14.2177 12.7804 14.7965 12.7066Z" fill="#282828"/>
<path d="M17.8408 15.6097L17.8824 15.622C17.9019 15.7431 17.866 16.0466 17.8521 16.1844C17.8172 16.5212 17.7658 16.8561 17.698 17.1878C17.0718 17.3446 16.5184 17.4358 15.8848 17.5274L15.8872 15.6057C16.5368 15.614 17.19 15.601 17.8408 15.6097Z" fill="#282828"/>
<path d="M17.8401 15.6094L17.8817 15.6217C17.9012 15.7428 17.8653 16.0463 17.8514 16.1841C17.8215 16.1226 17.8095 15.6816 17.8401 15.6094Z" fill="#282828"/>
<path d="M10.5998 13.2207C11.1006 13.4677 11.6103 13.3639 12.1372 13.2568C12.0635 13.6393 12.0274 14.0404 11.9997 14.4287C11.9943 14.5047 11.9962 14.5769 11.9801 14.6519L11.9469 14.6648L10.2617 14.6653C10.2967 14.1561 10.4307 13.6966 10.5998 13.2207Z" fill="#282828"/>
<path d="M18.8405 15.6058L20.5638 15.6057C20.537 16.0697 20.4034 16.54 20.2514 16.9774C20.2051 16.9966 19.9085 16.8566 19.7447 16.8461C19.3605 16.8213 19.0701 16.8815 18.6992 16.952C18.7798 16.5011 18.8114 16.062 18.8405 15.6058Z" fill="#282828"/>
<path d="M17.3809 18.2312C17.3843 18.3073 17.2274 18.6327 17.1865 18.7194C16.8834 19.3628 16.5202 19.8713 15.8882 20.2126C15.8694 19.6595 15.8847 19.0285 15.886 18.468C16.4043 18.4248 16.8732 18.3319 17.3809 18.2312Z" fill="#282828"/>
<path d="M10.7363 17.3613C10.8257 17.3962 11.1381 17.6029 11.2644 17.6682C11.6541 17.8701 11.985 17.991 12.3977 18.1338C12.6437 18.8378 12.7668 19.1409 13.1517 19.7863C13.0218 19.7476 12.7341 19.5688 12.6186 19.4947C11.807 18.9701 11.1557 18.232 10.7363 17.3613Z" fill="#282828"/>
<path d="M14.9175 10.0686C14.9611 10.129 14.9437 11.5473 14.9437 11.742C14.4592 11.7937 13.9777 11.8707 13.5013 11.9728C13.4913 11.971 13.4991 11.9734 13.4707 11.9579C13.4813 11.8676 13.6104 11.6014 13.6532 11.5141C13.9434 10.9223 14.3176 10.3765 14.9175 10.0686Z" fill="#282828"/>
<path d="M19.3427 17.8029C19.4633 17.7797 19.6931 17.746 19.7653 17.8619C19.7706 18.0003 19.6232 18.1564 19.5392 18.2644C19.1233 18.7995 18.5823 19.2916 17.9886 19.6243C17.9038 19.6773 17.764 19.7457 17.6719 19.7941C18.0672 19.1245 18.2461 18.7266 18.4718 17.9784C18.6922 17.9071 19.1156 17.8313 19.3427 17.8029Z" fill="#282828"/>
<path d="M13.4961 18.3901C14.055 18.4642 14.3922 18.4787 14.9418 18.5163L14.9452 20.1975C14.9223 20.1958 14.9247 20.1973 14.8974 20.1847C14.2218 19.8748 13.7571 19.0319 13.4961 18.3901Z" fill="#282828"/>
<path d="M17.6758 10.4871C17.8244 10.5337 18.0539 10.678 18.1879 10.7635C18.9838 11.2708 19.6269 11.9846 20.0486 12.8288C19.9985 12.8074 19.9077 12.7519 19.8595 12.7209C19.3966 12.4244 18.9246 12.2511 18.4068 12.0748C18.2047 11.4514 18.0113 11.0398 17.6758 10.4871Z" fill="#282828"/>
<path d="M18.6875 13.1814C18.9088 13.2719 19.1234 13.3782 19.3296 13.4992C19.7154 13.7286 20.3168 14.2017 20.4326 14.6607C19.9305 14.6768 19.3486 14.6624 18.84 14.6626C18.8289 14.375 18.8055 14.088 18.7701 13.8024C18.7463 13.6248 18.6952 13.3469 18.6875 13.1814Z" fill="#282828"/>
<path d="M13.1134 10.4946L13.1232 10.4966C13.1364 10.5288 13.0041 10.729 12.9768 10.7779C12.7213 11.2361 12.5224 11.727 12.376 12.23C12.0726 12.3287 11.4156 12.4468 11.1103 12.4159C11.0621 12.3961 11.0804 12.4116 11.0527 12.3687C11.0745 12.2847 11.2355 12.0757 11.2941 11.9979C11.7865 11.3445 12.3916 10.8706 13.1134 10.4946Z" fill="#282828"/>
<path d="M15.8882 10.061C16.5775 10.3773 17.0281 11.1509 17.3075 11.8224C16.7917 11.7409 16.4049 11.717 15.8853 11.701C15.8815 11.1768 15.8717 10.5807 15.8882 10.061Z" fill="#282828"/>
<path d="M10.4043 15.6059C10.9272 15.612 11.4586 15.6081 11.9818 15.6057C12.0025 16.0819 12.0537 16.5562 12.1354 17.0257L12.114 17.0186C11.4553 16.7946 10.7163 16.2522 10.4043 15.6059Z" fill="#282828"/>
<path d="M9.96753 5.00886L11.7576 5.00983H20.3904C20.8293 5.00928 21.7564 4.98434 22.1531 5.04206C22.718 5.12555 23.2492 5.36331 23.6882 5.72858C24.3354 6.26289 24.7398 7.03574 24.8093 7.87214C24.8404 8.24825 24.8225 8.85884 24.822 9.24909V27.1739C24.822 27.4804 24.8344 27.9541 24.7996 28.2462C24.7264 28.8509 24.4775 29.4211 24.0837 29.8858C23.5094 30.5584 22.7597 30.9239 21.8826 30.9903C21.5525 31.0026 21.1716 30.9952 20.8376 30.9952H18.9685L13.3015 30.9942H10.3445C9.89702 30.9947 9.03801 31.0203 8.64038 30.9581C8.06959 30.868 7.53492 30.6198 7.09741 30.2423C6.46976 29.7064 6.08082 28.9428 6.01636 28.1202C5.98779 27.7406 6.00524 27.1411 6.00562 26.7491L6.00659 24.2471L6.00562 16.3721V8.75886C6.00572 8.48526 5.99411 8.01444 6.0271 7.753C6.1043 7.13925 6.36056 6.56142 6.76441 6.09284C7.33772 5.43177 8.09024 5.07661 8.95679 5.01472C9.23693 4.98564 9.67693 5.00857 9.96753 5.00886ZM11.1814 26.1407C10.6369 26.1405 9.96005 26.1191 9.43042 26.1446C9.1604 26.2317 9.06353 26.5005 9.15601 26.7569C9.19012 26.8527 9.2638 26.9291 9.35816 26.9669C9.50698 27.0264 11.5206 26.9954 11.8699 26.9952H19.6638C20.2118 26.9952 20.8567 27.012 21.3972 26.9913C21.5056 26.9581 21.5848 26.9173 21.6365 26.8126C21.7744 26.5322 21.6755 26.1448 21.3171 26.1426C20.5471 26.1387 19.78 26.1399 19.0115 26.1397L14.5457 26.1407H11.1814ZM20.1511 24.3966H12.4226C11.4275 24.3966 10.4082 24.3855 9.4148 24.3985C9.30236 24.4445 9.22015 24.496 9.17261 24.6124C9.11885 24.744 9.11982 24.9144 9.17945 25.044C9.21505 25.1213 9.27787 25.1905 9.36011 25.2178C9.55942 25.284 11.0157 25.2436 11.3621 25.2432L15.6101 25.2442H19.447C20.0223 25.2442 20.8708 25.2703 21.4255 25.2393C21.8345 25.0631 21.7231 24.4652 21.4929 24.4288C21.1193 24.3708 20.5514 24.3966 20.1511 24.3966ZM19.0906 22.6485H13.2859L10.7126 22.6475C10.3593 22.6472 9.73016 22.6278 9.39234 22.6553C8.97083 22.8583 9.11574 23.4426 9.3689 23.4747C9.78519 23.527 10.3454 23.5006 10.7781 23.5001L13.6531 23.4991L18.7986 23.5001H20.4656C20.7564 23.5001 21.1295 23.509 21.4148 23.4923C21.5165 23.453 21.6136 23.3934 21.656 23.2872C21.7053 23.1639 21.7021 22.9613 21.6443 22.8438C21.61 22.7736 21.5446 22.7021 21.4695 22.6758C21.2831 22.6114 19.4303 22.6485 19.0906 22.6485ZM15.1365 9.0196C11.7585 9.17451 9.14584 12.0384 9.30152 15.4161C9.45726 18.7937 12.3222 21.4054 15.7 21.2491C19.0766 21.0925 21.6874 18.2289 21.532 14.8526C21.3762 11.4762 18.5131 8.86494 15.1365 9.0196Z" fill="#282828"/>
<path d="M25.2148 6.84692C25.2723 6.86731 25.3243 6.89024 25.3804 6.91405L27.8736 7.98074C28.4109 8.21024 29.3411 8.56475 29.7736 8.88756C30.2361 9.23093 30.5947 9.69552 30.8097 10.23C31.0357 10.7938 31.0947 11.4109 30.9793 12.0073C30.8849 12.4744 30.651 12.9534 30.4617 13.3954L29.7938 14.9573L27.1781 21.0696L25.4872 25.0148L25.4874 13.4003V9.72972L25.4883 8.56388C25.4884 7.82174 25.4845 7.55651 25.2148 6.84692Z" fill="#282828"/>
</svg>
