<svg width="28" height="28" viewBox="0 0 28 28" fill="none" xmlns="http://www.w3.org/2000/svg">
<path d="M13.4806 3.00004C13.793 2.99421 14.7464 3.62887 15.1076 3.8057C17.5034 4.97868 20.157 5.56264 22.8253 5.43168C23.0246 5.43128 23.4723 5.38354 23.6417 5.46391C24.0549 5.66064 24.0029 6.43433 24.0558 6.82817C24.075 6.97142 24.0779 7.15656 24.0861 7.29789C24.2629 10.1502 23.7754 13.0046 22.6623 15.6368C21.2399 18.9606 18.8658 21.7893 15.839 23.7666C15.2486 24.1566 14.2691 24.7388 13.6212 25C13.264 25.0038 11.9895 24.2217 11.6232 23.9903C8.81366 22.2402 6.52916 19.7631 5.01186 16.8213C3.53495 13.9381 2.84994 10.7142 3.02749 7.47953C3.05745 6.92741 3.07327 6.33611 3.20229 5.79887C3.31311 5.3376 3.87939 5.41119 4.25307 5.4307C5.06454 5.47302 5.82373 5.44839 6.63198 5.36234C8.48394 5.16956 10.2867 4.64861 11.9562 3.82426C12.4816 3.56489 12.9603 3.262 13.4806 3.00004ZM13.5119 4.20414C10.4003 6.00021 7.71814 6.55996 4.16811 6.51567C3.66279 11.0758 4.9892 15.65 7.85561 19.2325C9.32215 21.0509 11.1809 22.5769 13.2414 23.6934C13.3417 23.7478 13.4789 23.8335 13.591 23.836C17.8438 21.5372 20.9169 18.097 22.3146 13.4161C22.9717 11.1807 23.1838 8.83756 22.9386 6.52055C19.9481 6.5227 17.3371 6.16758 14.6369 4.76762C14.4597 4.67577 13.6234 4.20756 13.5119 4.20414ZM18.9699 8.55375C19.4321 8.57864 19.8403 9.04819 19.4601 9.44047C19.0862 9.82606 18.6768 10.1993 18.2843 10.5684L16.1242 12.6006L13.9152 14.6739C13.4225 15.1432 12.9385 15.6241 12.4249 16.0704C12.234 16.2363 11.9542 16.3626 11.7257 16.1797C11.3326 15.8648 10.976 15.4877 10.6164 15.1329C9.94196 14.4631 9.26441 13.7966 8.58315 13.1338C8.42229 12.9752 7.98895 12.6057 8.01674 12.4151C8.19755 11.2005 9.01705 12.0208 9.37124 12.3799C10.2597 13.2807 11.1555 14.0993 12.0099 14.9893L16.0089 11.2266C16.4774 10.7844 18.5918 8.72823 18.9699 8.55375Z" fill="#BA9B31"/>
</svg>
