<svg width="48" height="48" viewBox="0 0 48 48" fill="none" xmlns="http://www.w3.org/2000/svg">
<path d="M23.0259 27.0819C23.4838 27.0721 23.9417 27.0679 24.4004 27.0692C26.4282 27.0727 28.1827 27.4877 29.6576 28.9833C31.7835 31.1379 31.5518 33.5539 31.5464 36.3173L25.0923 36.3229L16.5518 36.3157C16.5494 33.6389 16.3278 31.3128 18.2614 29.1782C19.5541 27.7512 21.1502 27.1879 23.0259 27.0819Z" fill="#BA9B31"/>
<path d="M8.59964 22.6793C10.6105 22.636 12.3973 22.6019 14.1263 23.7625C15.8553 24.9232 16.5958 26.3956 17.0105 28.3689C16.0522 29.5499 15.6707 30.5469 15.2537 31.9686C13.7248 32.0258 11.9664 31.9848 10.4205 31.9852C7.67608 31.9866 4.77646 32.0338 2.0444 31.957C2.01815 29.2996 1.77799 26.9759 3.67915 24.8405C5.05599 23.2935 6.6089 22.8079 8.59964 22.6793Z" fill="#BA9B31"/>
<path d="M37.7215 22.6772C38.1524 22.669 38.5833 22.6648 39.0142 22.6647C40.9987 22.6705 42.7663 23.1471 44.1895 24.599C46.3663 26.8216 46.0775 29.1326 46.0636 31.9649C43.9092 32.0014 41.6922 31.9781 39.5323 31.9802C37.3369 31.983 35.0342 32.017 32.8481 31.9533C32.4496 30.5242 32.0427 29.5391 31.0859 28.3732C31.8481 24.7482 34.0466 22.8803 37.7215 22.6772Z" fill="#BA9B31"/>
<path d="M23.6439 16.2919C26.2014 16.0672 28.4586 17.9563 28.6872 20.5138C28.9157 23.0712 27.03 25.3308 24.4732 25.5637C21.9103 25.7969 19.6446 23.9063 19.4153 21.3431C19.186 18.7798 21.0802 16.5171 23.6439 16.2919Z" fill="#BA9B31"/>
<path d="M8.67588 11.9531C10.323 11.6467 12.0079 12.2497 13.0867 13.5319C14.1655 14.8141 14.4713 16.5773 13.8875 18.1479C13.3037 19.7185 11.9207 20.8539 10.2666 21.1204C7.75155 21.5255 5.3778 19.8326 4.94228 17.3226C4.50675 14.8126 6.17085 12.4191 8.67588 11.9531Z" fill="#BA9B31"/>
<path d="M37.734 11.9506C40.253 11.4892 42.6715 13.1501 43.1449 15.6666C43.6182 18.1831 41.9688 20.6092 39.4545 21.0946C36.9232 21.5833 34.4769 19.9204 34.0004 17.3868C33.524 14.8532 35.1981 12.4151 37.734 11.9506Z" fill="#BA9B31"/>
</svg>
