<svg width="64" height="64" viewBox="0 0 64 64" fill="none" xmlns="http://www.w3.org/2000/svg">
<rect width="64" height="64" rx="32" fill="#0B4826"/>
<g clip-path="url(#clip0_1603_5832)">
<path d="M36.2587 31.5167C36.6027 31.6721 36.9835 31.7659 37.3408 31.9034C39.2715 32.6445 41.2255 33.9127 42.1201 35.8497C42.617 36.9258 42.7688 38.4493 42.0947 39.4825C41.8946 39.7891 41.6318 40.0505 41.3242 40.2491C40.5113 40.7817 38.3801 41.4018 37.4238 41.5977C33.1751 42.5606 27.8874 42.3392 23.788 40.794C22.844 40.438 22.1224 40.0809 21.6933 39.1036C21.3191 38.2175 21.434 36.9468 21.79 36.0743C22.6567 33.9503 24.7898 32.5798 26.8691 31.8301C27.146 31.7303 27.4394 31.6515 27.707 31.5342L27.7382 31.5206C27.7699 31.5399 27.8016 31.5803 27.832 31.6084C28.9717 32.665 30.6777 33.2705 32.2187 33.2208C33.5473 33.1778 35.3445 32.5044 36.2587 31.5167ZM44.0937 28.6163C45.9589 29.2056 48.4359 30.704 47.9345 33.128C47.8449 33.5606 47.462 33.8965 47.0849 34.1036C45.8674 34.6763 44.5567 34.9444 43.2304 35.1094C43.1819 35.0069 43.1308 34.9057 43.0771 34.8057C41.9489 32.7464 39.4008 31.0895 37.1914 30.4512C37.3746 30.196 37.4994 29.9247 37.6464 29.6573C37.7962 29.3845 37.9454 28.7968 38.1425 28.625C38.4431 28.6274 38.7765 29.0267 39.1298 29.1924C39.5711 29.4112 40.0378 29.5961 40.5331 29.6514C41.9663 29.8114 42.9764 29.4874 44.0937 28.6163ZM19.8779 28.6319C19.9768 28.6466 20.5888 29.1051 20.7509 29.1915C21.1417 29.3976 21.561 29.5446 21.9951 29.627C22.3115 29.6859 22.476 29.6649 22.7714 29.6758C23.5636 29.7175 24.2607 29.5137 24.958 29.1504C25.177 29.0363 25.82 28.3897 25.9755 28.7764C26.2165 29.3757 26.4794 29.8952 26.7968 30.4561C26.51 30.5287 26.0712 30.7059 25.7968 30.8204C24.348 31.425 23.2094 32.1461 22.1025 33.252C21.4702 33.9084 21.1885 34.3092 20.7744 35.1075C19.4696 34.9766 18.1041 34.65 16.9091 34.0967C15.7617 33.5653 15.8432 32.0827 16.3701 31.127C17.0648 29.8667 18.5335 29.0397 19.8779 28.6319ZM31.8554 22.003C34.4243 21.9261 36.6228 23.8326 36.9091 26.3868C36.9165 26.4515 36.922 26.5171 36.9267 26.5821C36.9444 26.8302 36.9435 27.0792 36.9238 27.3272C36.9184 27.3933 36.9121 27.4596 36.9042 27.5254C36.8963 27.5895 36.888 27.6541 36.8779 27.7178C36.8633 27.8085 36.8458 27.8986 36.8261 27.9883C36.2786 30.4997 33.8952 32.1703 31.3476 31.8292C28.8003 31.4878 26.9409 29.2494 27.0732 26.6827C27.2056 24.1157 29.2862 22.0801 31.8554 22.003ZM22.6513 22.2383C24.1751 22.1576 25.5271 23.2077 25.8251 24.7042C26.1232 26.2006 25.2771 27.689 23.8388 28.1983C22.4005 28.7076 20.8066 28.083 20.0966 26.7325C19.3866 25.3818 19.7756 23.7145 21.0107 22.8184C21.49 22.4707 22.0599 22.2697 22.6513 22.2383ZM41.3574 22.2383C41.9238 22.2688 42.4706 22.4551 42.9374 22.7774C44.0353 23.5356 44.5172 24.9164 44.1308 26.1934C43.7443 27.4702 42.5779 28.3517 41.2441 28.3741C39.91 28.3963 38.714 27.5543 38.2851 26.2911C38.235 26.144 38.197 25.9928 38.1699 25.8399C38.0061 24.9175 38.2728 23.9712 38.8935 23.2696C39.5143 22.5679 40.4219 22.1881 41.3574 22.2383Z" fill="white"/>
</g>
<defs>
<clipPath id="clip0_1603_5832">
<rect width="32" height="32" fill="white" transform="translate(16 16)"/>
</clipPath>
</defs>
</svg>
