<svg width="36" height="36" viewBox="0 0 36 36" fill="none" xmlns="http://www.w3.org/2000/svg">
<path d="M15.0276 12.4982C15.7265 12.4956 16.3346 12.594 17.0152 12.722C17.1029 13.1128 17.2215 13.6769 17.2379 14.0777C17.2551 14.1761 17.3287 14.7262 17.2605 14.7729L15.0273 14.7738L15.0276 12.4982Z" fill="#BA9B31"/>
<path d="M17.2327 14.0793C17.2499 14.1777 17.3235 14.7278 17.2553 14.7745L17.2263 14.7534C17.2031 14.6713 17.2131 14.1821 17.2327 14.0793Z" fill="#BA9B31"/>
<path d="M11.6855 15.8414L13.9571 15.8394C13.9693 16.5665 13.9558 17.3141 13.9611 18.0449C13.3391 18.0723 12.5585 17.939 11.9528 17.8206C11.7916 17.0814 11.7256 16.596 11.6855 15.8414Z" fill="#BA9B31"/>
<path d="M13.7944 12.5643C13.8604 12.5544 13.8848 12.5453 13.9489 12.5658C13.9713 12.6383 13.9612 13.1617 13.9609 13.2634L13.9611 14.7739L11.9458 14.7732L11.6855 14.7715C11.7192 14.0777 11.7888 13.5935 11.9217 12.9156C12.5659 12.7669 13.1406 12.6476 13.7944 12.5643Z" fill="#BA9B31"/>
<path d="M17.237 15.8438L17.284 15.8577C17.306 15.9946 17.2654 16.3374 17.2498 16.4931C17.2104 16.8737 17.1522 17.252 17.0757 17.6268C16.3683 17.8039 15.7432 17.907 15.0273 18.0105L15.0301 15.8394C15.7639 15.8487 16.5018 15.834 17.237 15.8438Z" fill="#BA9B31"/>
<path d="M17.2331 15.8434L17.28 15.8573C17.302 15.9942 17.2615 16.337 17.2458 16.4927C17.212 16.4232 17.1985 15.925 17.2331 15.8434Z" fill="#BA9B31"/>
<path d="M9.05277 13.1454C9.61858 13.4245 10.1943 13.3072 10.7896 13.1862C10.7063 13.6183 10.6655 14.0714 10.6343 14.5101C10.6282 14.5961 10.6303 14.6776 10.6121 14.7624L10.5745 14.7769L8.6709 14.7774C8.71042 14.2022 8.86179 13.6831 9.05277 13.1454Z" fill="#BA9B31"/>
<path d="M18.3646 15.8395L20.3115 15.8394C20.2811 16.3636 20.1303 16.8949 19.9585 17.3891C19.9062 17.4107 19.5712 17.2526 19.3862 17.2407C18.9521 17.2127 18.6241 17.2807 18.2051 17.3604C18.2961 16.851 18.3318 16.3549 18.3646 15.8395Z" fill="#BA9B31"/>
<path d="M16.7163 18.8057C16.7202 18.8916 16.5428 19.2593 16.4967 19.3572C16.1543 20.0842 15.744 20.6587 15.03 21.0443C15.0088 20.4193 15.0261 19.7065 15.0275 19.0732C15.613 19.0243 16.1427 18.9194 16.7163 18.8057Z" fill="#BA9B31"/>
<path d="M9.20508 17.823C9.30603 17.8624 9.65892 18.0959 9.80162 18.1697C10.2419 18.3979 10.6157 18.5344 11.0819 18.6957C11.3598 19.4911 11.4988 19.8336 11.9337 20.5627C11.7869 20.519 11.4619 20.3169 11.3314 20.2333C10.4146 19.6406 9.67884 18.8066 9.20508 17.823Z" fill="#BA9B31"/>
<path d="M13.9304 9.58325C13.9796 9.65147 13.9599 11.2539 13.9599 11.4738C13.4126 11.5322 12.8687 11.6193 12.3304 11.7346C12.3192 11.7326 12.328 11.7352 12.2959 11.7178C12.3079 11.6158 12.4537 11.315 12.5021 11.2164C12.8298 10.5478 13.2526 9.93114 13.9304 9.58325Z" fill="#BA9B31"/>
<path d="M18.9295 18.3214C19.0657 18.2952 19.3253 18.2571 19.4068 18.3881C19.4128 18.5444 19.2463 18.7207 19.1515 18.8428C18.6817 19.4473 18.0705 20.0033 17.3998 20.3792C17.3039 20.4391 17.1461 20.5164 17.042 20.5711C17.4886 19.8146 17.6907 19.365 17.9457 18.5196C18.1947 18.4391 18.673 18.3535 18.9295 18.3214Z" fill="#BA9B31"/>
<path d="M12.3281 18.9858C12.9595 19.0695 13.3404 19.0859 13.9613 19.1284L13.9651 21.0278C13.9393 21.0259 13.9419 21.0276 13.9111 21.0133C13.148 20.6633 12.623 19.7109 12.3281 18.9858Z" fill="#BA9B31"/>
<path d="M17.0479 10.0568C17.2157 10.1094 17.475 10.2725 17.6264 10.3691C18.5254 10.9422 19.252 11.7487 19.7283 12.7025C19.6717 12.6783 19.5692 12.6156 19.5147 12.5806C18.9918 12.2455 18.4586 12.0497 17.8737 11.8506C17.6453 11.1463 17.4269 10.6812 17.0479 10.0568Z" fill="#BA9B31"/>
<path d="M18.1895 13.1007C18.4394 13.203 18.6819 13.323 18.9148 13.4598C19.3506 13.7189 20.03 14.2535 20.1608 14.772C19.5936 14.7902 18.9363 14.774 18.3618 14.7741C18.3492 14.4492 18.3227 14.125 18.2828 13.8023C18.2559 13.6016 18.1981 13.2877 18.1895 13.1007Z" fill="#BA9B31"/>
<path d="M11.8933 10.0647L11.9043 10.067C11.9193 10.1033 11.7698 10.3295 11.739 10.3847C11.4504 10.9024 11.2257 11.457 11.0603 12.0254C10.7175 12.1368 9.97533 12.2703 9.63045 12.2354C9.57605 12.213 9.59672 12.2305 9.56543 12.182C9.59004 12.0871 9.77193 11.851 9.83813 11.7631C10.3943 11.0249 11.0779 10.4895 11.8933 10.0647Z" fill="#BA9B31"/>
<path d="M15.0301 9.57532C15.8087 9.93269 16.3177 10.8066 16.6334 11.5653C16.0507 11.4732 15.6137 11.4462 15.0268 11.4281C15.0224 10.836 15.0113 10.1625 15.0301 9.57532Z" fill="#BA9B31"/>
<path d="M8.83398 15.8395C9.42469 15.8464 10.025 15.8421 10.6161 15.8394C10.6394 16.3773 10.6973 16.9132 10.7895 17.4437L10.7653 17.4357C10.0213 17.1825 9.18647 16.5697 8.83398 15.8395Z" fill="#BA9B31"/>
<path d="M8.3396 3.86671L10.3611 3.86768H20.113C20.6087 3.86708 21.6571 3.83952 22.1052 3.90479C22.7433 3.99915 23.3436 4.26655 23.8396 4.67921C24.5707 5.28292 25.0268 6.15697 25.1052 7.10206C25.1404 7.52696 25.1205 8.21588 25.1199 8.65675L25.1189 11.3755L25.1199 20.0952V28.9087C25.1199 29.2551 25.1339 29.7907 25.0945 30.1206C25.0118 30.8038 24.7307 31.4482 24.2859 31.9732C23.6371 32.733 22.7904 33.1462 21.7996 33.2212C21.4267 33.2351 20.9963 33.2261 20.6189 33.2261H18.5066L12.1052 33.2251H8.76538C8.25984 33.2257 7.28871 33.2545 6.8396 33.1841C6.19469 33.0823 5.59071 32.8021 5.09644 32.3755C4.38742 31.7701 3.94759 30.9074 3.87476 29.978C3.84249 29.5493 3.8626 28.8722 3.86304 28.4292L3.86401 25.6021V10.0952L3.86304 8.10304C3.86314 7.79377 3.85015 7.26153 3.88745 6.96632C3.9747 6.27301 4.26429 5.62065 4.72046 5.09132C5.36814 4.34432 6.21803 3.94348 7.19702 3.87354C7.51356 3.84061 8.01115 3.8664 8.3396 3.86671ZM9.71069 27.7417C9.09561 27.7415 8.33137 27.7178 7.73315 27.7466C7.42839 27.845 7.31931 28.1474 7.42358 28.437C7.46212 28.5456 7.54516 28.6326 7.6521 28.6753C7.82037 28.7425 10.0945 28.7068 10.489 28.7066H15.5056L19.2937 28.7075C19.9127 28.7075 20.6412 28.726 21.2517 28.7026C21.3742 28.6652 21.4639 28.6189 21.5222 28.5005C21.678 28.1837 21.5659 27.7458 21.1609 27.7437C20.2912 27.7392 19.4253 27.7409 18.5574 27.7407L13.5115 27.7417H9.71069ZM19.8425 25.772H11.1121C9.98784 25.772 8.83601 25.7602 7.71362 25.7749C7.58658 25.8269 7.49292 25.8846 7.43921 26.0161C7.37858 26.1648 7.37971 26.3571 7.44702 26.5034C7.48723 26.5909 7.55899 26.6688 7.6521 26.6997C7.87823 26.7744 9.52343 26.7294 9.91382 26.729H14.7117L19.0466 26.73C19.6963 26.73 20.6544 26.7591 21.281 26.7241C21.7433 26.525 21.6176 25.8485 21.3572 25.8081C20.9352 25.7426 20.2947 25.772 19.8425 25.772ZM18.6472 23.7964H12.0896L9.18237 23.7954C8.78316 23.795 8.07267 23.7731 7.69116 23.8042C7.21496 24.0335 7.37878 24.6938 7.66479 24.73C8.13521 24.7891 8.76872 24.7599 9.25757 24.7593L12.5046 24.7573L18.3171 24.7583H20.2C20.5285 24.7583 20.9498 24.7694 21.2722 24.7505C21.3873 24.7061 21.4977 24.6384 21.5457 24.5181C21.6013 24.3788 21.5973 24.1498 21.532 24.0171C21.4931 23.9377 21.4187 23.8572 21.3337 23.8276C21.1217 23.755 19.0314 23.7964 18.6472 23.7964ZM14.1785 8.39893C10.3626 8.57395 7.41101 11.8096 7.58667 15.6255C7.76258 19.4416 10.9993 22.3931 14.8152 22.2163C18.6298 22.0395 21.5789 18.8036 21.4031 14.9888C21.227 11.1741 17.993 8.22411 14.1785 8.39893Z" fill="#BA9B31"/>
<path d="M25.5654 5.94348C25.6303 5.96651 25.6891 5.99241 25.7524 6.01933L28.5689 7.22446C29.1759 7.48375 30.2267 7.88428 30.7153 8.24899C31.2378 8.63692 31.6429 9.16182 31.8857 9.76567C32.1411 10.4027 32.2078 11.0999 32.0774 11.7737C31.9707 12.3014 31.7065 12.8426 31.4926 13.3419L30.7381 15.1065L27.7833 22.0122L25.8732 26.4695L25.8733 13.3474V9.20046L25.8743 7.88329C25.8745 7.04482 25.8701 6.74517 25.5654 5.94348Z" fill="#BA9B31"/>
</svg>
