<svg width="28" height="28" viewBox="0 0 28 28" fill="none" xmlns="http://www.w3.org/2000/svg">
<path d="M13.192 7.90955C14.3554 7.83715 15.6336 8.14825 16.6593 8.69178C18.1787 9.50231 19.3157 10.881 19.8223 12.5269C19.913 12.8262 19.9941 13.1489 20.0193 13.4603C20.0396 13.7131 19.8996 13.884 19.6538 13.9372C19.0719 14.0631 19.0576 13.4503 18.9637 13.0626C18.6229 11.6562 17.6797 10.4503 16.4559 9.70019C15.1966 8.92337 13.6805 8.67836 12.2407 9.01899C10.7293 9.38295 9.47835 10.342 8.67227 11.6637C8.3983 12.1246 8.194 12.6235 8.06599 13.1442C7.95311 13.6066 7.91929 14.0476 7.88729 14.5208C7.78445 15.9391 7.86671 17.3645 8.13199 18.7615C8.19514 19.0936 8.26929 19.4234 8.35429 19.7505C8.41896 19.9938 8.49252 20.2301 8.54379 20.4759C8.6155 20.7883 8.46246 21.0612 8.12697 21.0898C7.727 21.1258 7.60743 20.6875 7.52197 20.384C7.04201 18.6802 6.83757 16.8929 6.87805 15.1244C6.88719 14.725 6.89561 14.3474 6.94592 13.9526C7.12915 12.5146 7.66909 11.1579 8.64511 10.0729C9.54351 9.06456 10.7523 8.35154 12.0705 8.05622C12.4784 7.96486 12.7801 7.9374 13.192 7.90955Z" fill="#BA9B31"/>
<path d="M13.3801 11.9907C13.6268 11.9651 13.9804 12.0106 14.2176 12.0735C15.2711 12.3528 15.9713 13.3064 16.0255 14.3806C16.0438 14.6741 16.0013 14.9641 15.9819 15.2569C15.9155 16.2567 16.0549 17.2482 16.3611 18.2014C16.6202 19.0195 17.0078 19.7912 17.5092 20.4875C17.6203 20.6392 18.092 21.1855 18.13 21.2876C18.3492 21.8763 17.7206 22.2885 17.2231 21.7015C15.6447 19.8386 14.8382 17.479 15.0345 15.0379C15.0697 14.5992 15.1024 14.2559 14.9184 13.8408C14.7584 13.4813 14.4627 13.1996 14.0959 13.0573C13.6753 12.8978 13.2266 12.9319 12.821 13.1166C12.5976 13.231 12.4055 13.3982 12.2613 13.6036C11.9498 14.0459 11.9422 14.5785 11.915 15.1C11.8201 17.0452 12.188 18.9853 12.9885 20.7605C13.1052 21.0248 13.2317 21.2845 13.3677 21.5392C13.4467 21.6849 13.5247 21.8222 13.609 21.9673C13.72 22.1653 13.9255 22.3895 13.9583 22.618C13.9915 22.8488 13.7732 23.1223 13.5382 23.1337C13.4172 23.1395 13.2489 23.119 13.1632 23.0272C12.9417 22.7905 12.7716 22.4569 12.615 22.173C11.6851 20.4994 11.1265 18.6452 10.9772 16.7366C10.9246 16.1228 10.9001 15.5582 10.9545 14.9446C10.9907 14.5369 10.9889 14.1785 11.1101 13.7759C11.2104 13.4371 11.38 13.1228 11.608 12.8528C12.0738 12.3043 12.6751 12.0489 13.3801 11.9907Z" fill="#BA9B31"/>
<path d="M13.1692 9.94165C13.2411 9.93057 13.4611 9.92863 13.5392 9.92808C14.2595 9.92301 14.9502 10.1086 15.5915 10.4325C17.0516 11.1641 18.0028 12.6275 18.0781 14.2591C18.0972 14.6835 18.0486 15.0076 18.0284 15.4247C17.9964 16.159 18.093 16.8931 18.3141 17.594C18.4967 18.1489 18.7563 18.6757 19.0851 19.1587C19.1683 19.2813 19.2521 19.3939 19.3401 19.5146C19.499 19.7326 19.9507 20.1268 19.7634 20.4319C19.3573 21.0938 18.8723 20.4897 18.5977 20.1462C17.938 19.3207 17.5126 18.4119 17.2529 17.4026C17.0982 16.8232 17.0357 16.139 17.0402 15.541C17.0329 15.2269 17.1037 14.8971 17.1001 14.5862C17.0859 13.3502 16.5142 12.1594 15.4799 11.4874C14.6853 10.9655 13.7151 10.7826 12.785 10.9795C11.8391 11.1852 11.0125 11.8042 10.4977 12.6168C10.3737 12.8124 10.2735 13.0601 10.0173 13.1042C9.78156 13.1448 9.47338 12.9862 9.45205 12.7247C9.43066 12.3205 9.80488 11.9013 10.0313 11.5912C10.8184 10.6261 11.9343 10.0585 13.1692 9.94165Z" fill="#BA9B31"/>
<path d="M13.0802 5.87695C13.4281 5.84524 13.8928 5.86655 14.2444 5.89306C16.3207 6.04953 18.3292 7.01857 19.7661 8.52123C20.0513 8.81765 20.5267 9.29032 20.0313 9.65085C19.7686 9.84201 19.5095 9.70457 19.3271 9.4925C18.5421 8.58068 17.6467 7.94275 16.5512 7.45637C14.5789 6.60498 12.339 6.62424 10.3816 7.50944C10.0683 7.65305 9.79421 7.80736 9.50236 7.99031C9.36359 8.0773 9.17277 8.18759 9.01027 8.21114C8.88918 8.22937 8.766 8.19608 8.67058 8.11935C8.56309 8.03344 8.49664 7.90636 8.48738 7.76909C8.45976 7.3817 8.98064 7.14335 9.2722 6.97831C10.4355 6.31271 11.7412 5.93509 13.0802 5.87695Z" fill="#BA9B31"/>
<path d="M24.2861 22.1213C24.6773 22.1304 25.1029 22.1223 25.497 22.1226L25.4968 24.4865C25.497 25.2931 25.2549 25.8706 24.5232 26.2877C24.1016 26.5281 23.6929 26.4974 23.2277 26.497L22.2814 26.4957L21.1211 26.4976L21.1238 25.2831L22.8504 25.2875C23.3203 25.2886 24.1814 25.4194 24.2675 24.768C24.3027 24.5025 24.2852 24.1657 24.2849 23.8928C24.2813 23.3024 24.2817 22.7119 24.2861 22.1213Z" fill="#BA9B31"/>
<path d="M21.1222 2.50381H22.8808C23.1921 2.50369 23.8263 2.48383 24.1008 2.55103C24.4256 2.62961 24.7221 2.79675 24.9574 3.03388C25.193 3.26579 25.3609 3.55765 25.443 3.87796C25.5225 4.19003 25.4957 4.81951 25.4959 5.16629L25.4965 6.88221C25.1381 6.85705 24.6514 6.87111 24.2821 6.87436C24.2932 6.08341 24.2803 5.28611 24.2882 4.49602C24.2972 3.56407 23.5465 3.71236 22.8959 3.71306L21.1242 3.7191C21.1184 3.31751 21.1225 2.90614 21.1222 2.50381Z" fill="#BA9B31"/>
<path d="M3.13798 2.51349C3.38774 2.4906 3.83705 2.50375 4.09634 2.50387L5.88056 2.50569C5.86311 2.72363 5.86363 3.5001 5.88051 3.72042L5.78632 3.71875C5.23428 3.71403 4.68222 3.71231 4.13016 3.71356C3.09509 3.71284 2.6308 3.60118 2.71162 4.88856C2.71916 5.00887 2.71256 5.18772 2.71306 5.3149C2.7102 5.83685 2.71318 6.35884 2.72202 6.88073C2.50085 6.86071 1.7355 6.86534 1.50357 6.88277L1.50395 5.13365C1.50331 4.83072 1.48317 4.22317 1.54044 3.95083C1.59854 3.67731 1.71914 3.42096 1.8928 3.20182C2.2118 2.80294 2.63149 2.56991 3.13798 2.51349Z" fill="#BA9B31"/>
<path d="M1.50471 22.1169C1.8943 22.1287 2.3233 22.1201 2.71574 22.1198L2.71355 22.4472L2.71131 23.9399C2.71119 24.1424 2.70993 24.3456 2.7125 24.5475C2.71058 24.7702 2.74211 24.94 2.90836 25.1036C3.17542 25.3663 3.71442 25.2842 4.07308 25.2838C4.67276 25.2865 5.27248 25.2854 5.87217 25.2804C5.86907 25.6454 5.85469 26.1326 5.87762 26.4872C5.8219 26.5021 5.26293 26.4949 5.16433 26.4946C4.59665 26.4919 4.02895 26.4923 3.46126 26.4955C2.88728 26.4966 2.45088 26.3754 2.03141 25.9536C1.79659 25.7185 1.63043 25.4238 1.55083 25.1011C1.47931 24.8082 1.50423 24.2013 1.5041 23.8734L1.50471 22.1169Z" fill="#BA9B31"/>
<path d="M9.33204 14.3644C10.0592 14.3097 9.88391 15.1298 9.87772 15.6022C9.86524 17.2747 10.1488 18.9363 10.7153 20.51C10.8226 20.8066 10.9392 21.0998 11.0648 21.3891C11.2713 21.8577 11.733 22.4954 11.0052 22.7308C10.5686 22.8303 10.3407 22.1515 10.2051 21.8383C9.97274 21.3126 9.77014 20.7741 9.59837 20.2254C9.20864 18.9727 8.98747 17.6738 8.94069 16.3626C8.92483 15.9595 8.94153 15.5466 8.93129 15.1423C8.92247 14.7941 8.9367 14.4754 9.33204 14.3644Z" fill="#BA9B31"/>
<path d="M7.26711 8.7053C7.51808 8.67126 7.76202 8.77389 7.84386 9.02902C7.87868 9.13883 7.86955 9.25786 7.81839 9.36108C7.74976 9.49799 7.44849 9.86251 7.33144 10.0305C6.97691 10.5353 6.67903 11.0776 6.44319 11.6476C6.05315 12.5947 5.85239 13.6091 5.85221 14.6333C5.85273 15.0422 5.949 15.4642 5.47201 15.6029C4.83065 15.695 4.86752 15.0183 4.8676 14.588C4.86255 13.4086 5.10755 12.2416 5.58643 11.1638C5.87182 10.514 6.2296 9.90208 6.6446 9.32664C6.82405 9.0778 6.96939 8.8213 7.26711 8.7053Z" fill="#BA9B31"/>
<path d="M20.909 10.6728C21.3021 10.6475 21.4467 11.0322 21.567 11.3352C21.6763 11.6106 21.7681 11.8938 21.8453 12.1798C22.153 13.3592 22.2196 14.5884 22.0412 15.7942C21.9867 16.1505 21.9573 16.6231 21.5415 16.7178C21.4199 16.7171 21.3456 16.6991 21.2358 16.6456C20.9164 16.4899 20.9936 16.1354 21.0462 15.8414C21.2544 14.6746 21.2039 13.4465 20.8698 12.3073C20.7794 11.9757 20.6341 11.6651 20.5194 11.3427C20.3959 10.996 20.5774 10.7606 20.909 10.6728Z" fill="#BA9B31"/>
<path d="M13.4566 14.0219C14.0533 14.0127 14.0037 14.464 13.9742 14.906C13.9585 15.1389 13.9354 15.3908 13.9346 15.6228C13.9379 16.1674 13.9788 16.7111 14.057 17.2501C14.1064 17.5751 14.274 18.1172 14.1405 18.4268C14.0808 18.5655 13.8917 18.6197 13.7537 18.656C13.357 18.6454 13.2646 18.2943 13.1986 17.976C12.9924 16.9577 12.9269 15.916 13.004 14.8799C13.0337 14.5165 13.0211 14.1106 13.4566 14.0219Z" fill="#BA9B31"/>
<path d="M19.4486 15.2714C19.9439 15.2086 20.0309 15.5366 20.0576 15.9415C20.0995 16.6198 20.2854 17.2343 20.6352 17.8177C20.7947 18.0834 21.1548 18.4594 21.005 18.7841C20.9384 18.9284 20.8102 19.0036 20.668 19.0572C20.5725 19.0708 20.4981 19.0632 20.4092 19.0236C19.9982 18.84 19.5807 17.9558 19.4217 17.5339C19.2695 17.1306 18.9529 15.8906 19.1349 15.5119C19.2004 15.3757 19.3135 15.3191 19.4486 15.2714Z" fill="#BA9B31"/>
<path d="M14.3979 19.8371C14.838 19.7946 14.8827 20.0363 15.0635 20.3771C15.1603 20.5617 15.2627 20.7433 15.3706 20.9215C15.524 21.1695 15.6828 21.4139 15.8473 21.6547C15.9532 21.8078 16.1577 22.0608 16.2224 22.2253C16.34 22.5243 16.0714 22.7474 15.8345 22.833C15.7482 22.8536 15.6669 22.8545 15.5837 22.8183C15.2003 22.6505 14.2055 20.9237 14.0476 20.4862C13.9991 20.3519 13.9918 20.2173 14.0578 20.0867C14.132 19.9395 14.2495 19.8836 14.3979 19.8371Z" fill="#BA9B31"/>
</svg>
