<svg width="48" height="48" viewBox="0 0 48 48" fill="none" xmlns="http://www.w3.org/2000/svg">
<path d="M20.0364 16.6643C20.9683 16.6608 21.7791 16.7921 22.6865 16.9627C22.8035 17.4838 22.9616 18.2358 22.9835 18.7704C23.0064 18.9015 23.1046 19.6349 23.0137 19.6972L20.0361 19.6984L20.0364 16.6643Z" fill="#BA9B31"/>
<path d="M22.9775 18.7724C23.0005 18.9035 23.0986 19.637 23.0077 19.6993L22.969 19.6712C22.9381 19.5617 22.9515 18.9094 22.9775 18.7724Z" fill="#BA9B31"/>
<path d="M15.5815 21.1219L18.6102 21.1191C18.6265 22.0887 18.6085 23.0855 18.6157 24.0599C17.7863 24.0965 16.7454 23.9187 15.9379 23.7607C15.723 22.7752 15.635 22.128 15.5815 21.1219Z" fill="#BA9B31"/>
<path d="M18.3933 16.7523C18.4814 16.7391 18.5138 16.727 18.5993 16.7544C18.6293 16.851 18.6157 17.5489 18.6154 17.6845L18.6157 19.6985L15.9285 19.6976L15.5815 19.6954C15.6264 18.7703 15.7192 18.1246 15.8964 17.2208C16.7554 17.0225 17.5216 16.8635 18.3933 16.7523Z" fill="#BA9B31"/>
<path d="M22.9824 21.1251L23.045 21.1437C23.0743 21.3262 23.0202 21.7832 22.9994 21.9909C22.9468 22.4982 22.8693 23.0027 22.7673 23.5024C21.8241 23.7385 20.9905 23.876 20.0361 24.014L20.0398 21.1191C21.0183 21.1316 22.0021 21.112 22.9824 21.1251Z" fill="#BA9B31"/>
<path d="M22.9781 21.1244L23.0407 21.1429C23.07 21.3254 23.016 21.7825 22.9951 21.9901C22.95 21.8975 22.932 21.2332 22.9781 21.1244Z" fill="#BA9B31"/>
<path d="M12.0712 17.5272C12.8256 17.8993 13.5933 17.7429 14.387 17.5815C14.2758 18.1578 14.2215 18.7619 14.1799 19.3468C14.1717 19.4614 14.1745 19.5701 14.1503 19.6831L14.1002 19.7025L11.562 19.7032C11.6147 18.9363 11.8165 18.2441 12.0712 17.5272Z" fill="#BA9B31"/>
<path d="M24.4862 21.1193L27.0819 21.1191C27.0415 21.8182 26.8403 22.5265 26.6114 23.1854C26.5416 23.2143 26.0949 23.0035 25.8482 22.9876C25.2694 22.9503 24.8321 23.041 24.2734 23.1473C24.3948 22.468 24.4424 21.8065 24.4862 21.1193Z" fill="#BA9B31"/>
<path d="M22.2883 25.0742C22.2934 25.1888 22.057 25.679 21.9954 25.8096C21.5389 26.7789 20.9918 27.5449 20.0398 28.059C20.0116 27.2258 20.0346 26.2753 20.0366 25.431C20.8172 25.3658 21.5235 25.2259 22.2883 25.0742Z" fill="#BA9B31"/>
<path d="M12.2739 23.764C12.4085 23.8166 12.8791 24.1279 13.0693 24.2263C13.6563 24.5305 14.1548 24.7126 14.7763 24.9277C15.1469 25.9881 15.3323 26.4448 15.9121 27.4169C15.7163 27.3587 15.2831 27.0893 15.109 26.9778C13.8866 26.1875 12.9056 25.0755 12.2739 23.764Z" fill="#BA9B31"/>
<path d="M18.5748 12.7776C18.6404 12.8685 18.6142 15.0051 18.6142 15.2984C17.8844 15.3762 17.1592 15.4923 16.4415 15.646C16.4265 15.6434 16.4383 15.6469 16.3955 15.6236C16.4115 15.4876 16.606 15.0866 16.6704 14.9551C17.1074 14.0636 17.6711 13.2414 18.5748 12.7776Z" fill="#BA9B31"/>
<path d="M25.2398 24.4285C25.4214 24.3935 25.7676 24.3428 25.8763 24.5174C25.8843 24.7258 25.6622 24.961 25.5358 25.1237C24.9094 25.9297 24.0944 26.671 23.2002 27.1723C23.0724 27.2521 22.862 27.3551 22.7231 27.428C23.3186 26.4194 23.5881 25.82 23.928 24.6928C24.26 24.5854 24.8978 24.4713 25.2398 24.4285Z" fill="#BA9B31"/>
<path d="M16.4375 25.3145C17.2793 25.426 17.7872 25.4479 18.615 25.5045L18.6202 28.0371C18.5857 28.0345 18.5892 28.0368 18.5482 28.0177C17.5306 27.551 16.8307 26.2811 16.4375 25.3145Z" fill="#BA9B31"/>
<path d="M22.73 13.409C22.9538 13.4792 23.2995 13.6966 23.5014 13.8255C24.7001 14.5896 25.6688 15.6649 26.304 16.9366C26.2285 16.9044 26.0917 16.8208 26.0191 16.7741C25.3219 16.3273 24.611 16.0663 23.8311 15.8008C23.5266 14.8617 23.2353 14.2416 22.73 13.409Z" fill="#BA9B31"/>
<path d="M24.2524 17.4675C24.5857 17.6039 24.909 17.7639 25.2196 17.9463C25.8007 18.2918 26.7065 19.0046 26.8809 19.696C26.1247 19.7202 25.2482 19.6986 24.4822 19.6987C24.4655 19.2656 24.4302 18.8333 24.3768 18.4031C24.341 18.1354 24.264 17.7168 24.2524 17.4675Z" fill="#BA9B31"/>
<path d="M15.8583 13.4195L15.8729 13.4225C15.8928 13.471 15.6936 13.7726 15.6525 13.8462C15.2676 14.5365 14.9681 15.2759 14.7475 16.0337C14.2905 16.1823 13.3009 16.3603 12.8411 16.3137C12.7686 16.2838 12.7961 16.3073 12.7544 16.2426C12.7872 16.116 13.0297 15.8012 13.118 15.6841C13.8595 14.6998 14.7711 13.9859 15.8583 13.4195Z" fill="#BA9B31"/>
<path d="M20.0399 12.767C21.0781 13.2435 21.7568 14.4088 22.1777 15.4203C21.4008 15.2976 20.8182 15.2615 20.0355 15.2374C20.0297 14.4479 20.015 13.5499 20.0399 12.767Z" fill="#BA9B31"/>
<path d="M11.7793 21.1194C12.5669 21.1285 13.3673 21.1228 14.1554 21.1191C14.1865 21.8364 14.2637 22.5509 14.3867 23.2582L14.3544 23.2476C13.3623 22.91 12.2493 22.093 11.7793 21.1194Z" fill="#BA9B31"/>
<path d="M11.1191 5.1559L13.8144 5.15786L22.1221 5.15688H26.8174C27.4783 5.15608 28.8761 5.11867 29.4736 5.20571C30.3245 5.33146 31.1248 5.6896 31.7861 6.23989C32.7608 7.04483 33.37 8.2094 33.4746 9.46938C33.5215 10.036 33.4939 10.9548 33.4932 11.5426V38.5456C33.4932 39.0074 33.5115 39.7209 33.459 40.1608C33.3487 41.0716 32.9739 41.9306 32.3809 42.6305C31.5158 43.6436 30.3875 44.1946 29.0664 44.2946C28.569 44.3131 27.9945 44.3004 27.4912 44.3004H11.6875C11.0133 44.3012 9.71775 44.3388 9.11914 44.2448C8.25923 44.109 7.45394 43.7356 6.79492 43.1666C5.84976 42.3594 5.26405 41.2094 5.16699 39.9704C5.12396 39.3985 5.1508 38.4955 5.15136 37.9049L5.15234 34.1354V22.2731L5.15136 13.4596V10.8043C5.15151 10.392 5.13383 9.68244 5.18359 9.28872C5.29988 8.36411 5.68654 7.4946 6.29492 6.78872C7.15849 5.79271 8.29135 5.25794 9.59667 5.16469C10.0187 5.12085 10.6813 5.15548 11.1191 5.1559ZM12.9482 36.9889C12.1281 36.9887 11.1093 36.9564 10.3115 36.9948C9.9047 37.1259 9.75819 37.5303 9.89746 37.9166C9.94884 38.0614 10.0605 38.1771 10.2031 38.234C10.4288 38.3236 13.4615 38.2763 13.9863 38.276H25.7256C26.5509 38.276 27.5219 38.3023 28.3359 38.2711C28.4992 38.2212 28.6195 38.1585 28.6973 38.0006C28.9048 37.5783 28.7547 36.9947 28.2148 36.9918C27.0551 36.9859 25.9005 36.9882 24.7432 36.9879H18.0156L12.9482 36.9889ZM26.457 34.3629L23.3984 34.362L14.8154 34.3629C13.3166 34.3629 11.7816 34.3463 10.2852 34.3659C10.1156 34.4351 9.99156 34.5127 9.91992 34.6881C9.839 34.8864 9.83997 35.1424 9.92968 35.3375C9.98328 35.4542 10.0789 35.5581 10.2031 35.5993C10.5044 35.6988 12.6982 35.6388 13.2187 35.6383L19.6162 35.6393L25.3955 35.6403C26.262 35.6403 27.5404 35.6781 28.376 35.6315C28.9917 35.3657 28.8236 34.4647 28.4766 34.4108C27.9139 34.3235 27.06 34.3629 26.457 34.3629ZM24.8633 31.7282H16.1201L12.2441 31.7272C11.7121 31.7267 10.7648 31.6975 10.2559 31.7389C9.62069 32.0447 9.83916 32.9254 10.2207 32.9733C10.8478 33.052 11.6912 33.0122 12.3428 33.0114L16.6728 33.0094L24.4228 33.0114H26.9336C27.3717 33.0114 27.9334 33.0249 28.3633 32.9997C28.5166 32.9404 28.6636 32.8513 28.7275 32.6911C28.8017 32.5055 28.7969 32.2001 28.71 32.0231C28.6582 31.9172 28.5586 31.8096 28.4453 31.7702C28.1629 31.6732 25.3756 31.7281 24.8633 31.7282ZM18.9043 11.1989C13.8165 11.4324 9.88167 15.7466 10.1162 20.8346C10.3508 25.9228 14.6661 29.8574 19.7539 29.6217C24.8401 29.386 28.7725 25.0714 28.5381 19.985C28.3033 14.8986 23.9904 10.9656 18.9043 11.1989Z" fill="#BA9B31"/>
<path d="M34.0879 7.9245C34.1744 7.9552 34.2527 7.98974 34.3372 8.02562L38.0925 9.63247C38.9018 9.97819 40.303 10.5122 40.9544 10.9985C41.6511 11.5158 42.1912 12.2156 42.515 13.0208C42.8555 13.8701 42.9443 14.7997 42.7705 15.6981C42.6283 16.4018 42.2759 17.1233 41.9908 17.7891L40.9847 20.1419L37.045 29.3494L34.4982 35.2925L34.4985 17.7964V12.2671L34.4997 10.5109C34.5 9.39295 34.4941 8.99342 34.0879 7.9245Z" fill="#BA9B31"/>
</svg>
