<svg width="36" height="36" viewBox="0 0 36 36" fill="none" xmlns="http://www.w3.org/2000/svg">
<path d="M9.46749 5.01503C10.0524 4.98931 10.7605 5.00868 11.3568 5.00889L14.9133 5.01021L18.582 5.00776C18.9152 5.00761 20.7785 4.96131 20.9956 5.09663C21.2652 5.26467 22.0438 6.10564 22.3051 6.36513L24.7841 8.87435C25.0635 9.1613 25.3167 9.38825 25.5964 9.6912C25.7293 10.2387 25.6546 11.6265 25.6663 12.2655C25.7009 14.1613 25.6201 16.143 25.6811 18.0344C27.2005 18.5795 28.0843 19.0075 29.1496 20.2772C31.321 22.8649 31.0429 27.1159 28.4185 29.3023C26.1338 31.4593 22.4087 31.5709 19.9702 29.5797C19.6862 29.3479 19.5601 29.24 19.2322 28.9185C18.9013 28.594 18.5357 27.8751 18.1555 27.599C17.7067 27.5552 16.8738 27.5758 16.413 27.5762L11.9007 27.5738C11.552 27.5738 9.29009 27.6272 9.18235 27.4919C8.9307 27.1758 9.01973 24.9223 9.01973 24.4566V19.2004L9.02007 10.0304L9.02382 7.1159C9.02296 6.59493 8.91377 5.59697 9.17021 5.13173C9.22125 5.03911 9.36558 5.02458 9.46749 5.01503ZM17.8466 26.6324C17.3548 25.644 17.3877 23.4358 17.7656 22.3919C17.9908 21.7696 18.125 21.3741 18.5195 20.8414C19.5213 19.2728 20.8768 18.359 22.686 17.9599C23.3402 17.8099 24.0136 17.762 24.6825 17.8178C24.672 15.3621 24.7066 12.883 24.6775 10.4311C23.5775 10.4441 22.4773 10.4293 21.3773 10.4326C21.0496 10.4336 20.7238 10.4057 20.3982 10.3707C20.251 9.8556 20.3129 9.14053 20.3026 8.59071C20.2864 7.72375 20.3277 6.81614 20.3032 5.95077L13.1756 5.94005L11.0886 5.94352C10.8068 5.94478 10.2507 5.96524 9.98842 5.94149C9.97601 7.69567 9.97257 9.44994 9.97813 11.2042L9.97841 20.5239L9.97911 24.5291C9.97954 25.1087 10.0133 26.0877 9.9648 26.62C11.0171 26.6381 12.0696 26.6433 13.1221 26.6355L17.8466 26.6324ZM24.5723 30.0171C27.672 29.7186 29.9405 26.9605 29.6351 23.8615C29.3298 20.7625 26.5665 18.5001 23.4683 18.8124C20.3797 19.1236 18.126 21.8763 18.4304 24.9655C18.7348 28.0548 21.4824 30.3146 24.5723 30.0171Z" fill="#282828"/>
<path d="M22.2659 15.1616L15.0599 15.1603L13.1787 15.1613C12.8605 15.1614 12.1255 15.1859 11.8605 15.1069C11.4938 14.9975 11.3922 14.2242 12.0863 14.228C12.6916 14.2314 13.3303 14.2208 13.9354 14.2206L17.2808 14.2196L20.5948 14.2193C20.9977 14.2194 22.5603 14.1754 22.8823 14.2912L22.8822 14.3167C22.8829 14.4799 22.9508 14.5507 22.9211 14.7077C22.867 14.9945 22.5218 15.108 22.2659 15.1616Z" fill="#282828"/>
<path d="M11.8099 11.5693C12.1625 11.5171 12.8817 11.5341 13.2629 11.5339L15.7453 11.5338L20.0092 11.535C20.5034 11.5349 22.5786 11.4765 22.878 11.6419C22.8883 11.8291 22.9946 12.0948 22.8626 12.2909C22.809 12.3705 22.6866 12.3026 22.6453 12.4619C21.9958 12.4847 21.2547 12.4688 20.5976 12.4688L16.9697 12.47L13.8793 12.4706C13.3305 12.4706 12.1435 12.5182 11.6649 12.3732C11.6124 12.2396 11.5814 12.0649 11.5508 11.922C11.619 11.8165 11.7324 11.6734 11.8099 11.5693Z" fill="#282828"/>
<path d="M11.9131 16.5912C12.4479 16.5579 13.1064 16.5743 13.6473 16.5746L16.553 16.5757L18.8053 16.5736C19.2494 16.5734 19.8542 16.5582 20.2832 16.6094L20.6157 16.9118C20.5735 17.2075 20.5488 17.4089 20.2415 17.4992C17.5887 17.5853 14.8565 17.4667 12.1961 17.5017C11.6759 17.5086 11.6356 17.431 11.5508 16.9605C11.6521 16.8063 11.7379 16.6467 11.9131 16.5912Z" fill="#282828"/>
<path d="M12.2873 18.9315C13.0735 18.907 13.9182 18.944 14.7119 18.9296C15.3033 18.9339 15.8928 18.9142 16.4832 18.9463C17.1561 18.9829 17.3138 19.3709 16.8959 19.8824C16.7653 19.9121 16.5946 19.9248 16.4586 19.939L13.6293 19.9372C13.1127 19.9373 12.305 19.9681 11.8222 19.8744L11.7878 19.8405C11.4486 19.5039 11.4998 19.2923 11.8298 18.9822C11.9678 18.9553 12.1446 18.9444 12.2873 18.9315Z" fill="#282828"/>
<path d="M11.9136 21.358C12.4269 21.3331 14.9783 21.2732 15.3104 21.3975C15.4137 21.4362 15.4919 21.5317 15.5349 21.6305C15.5881 21.7527 15.5827 21.8703 15.5327 21.9923C15.4744 22.1345 15.3768 22.222 15.2382 22.2821C14.5308 22.3232 12.2937 22.3533 11.7039 22.2017L11.5508 21.8497C11.6228 21.5833 11.6157 21.4335 11.9136 21.358Z" fill="#282828"/>
<path d="M22.882 14.2913C23.3099 14.5755 23.1292 14.8272 22.8556 15.1332C22.6262 15.1573 22.4958 15.1657 22.2656 15.1616C22.5215 15.108 22.8667 14.9945 22.9208 14.7077C22.9505 14.5507 22.8826 14.4799 22.8819 14.3167L22.882 14.2913Z" fill="#282828"/>
<path d="M22.8772 11.6418C23.0086 11.7297 23.0872 11.7638 23.1226 11.9282C23.1763 12.1771 23.0014 12.4115 22.7503 12.4493C22.7151 12.4545 22.6799 12.4587 22.6445 12.4619C22.6858 12.3026 22.8082 12.3705 22.8618 12.2908C22.9938 12.0948 22.8875 11.8291 22.8772 11.6418Z" fill="#282828"/>
<path d="M23.8315 21.1112C23.8651 21.109 23.8987 21.1072 23.9322 21.1057C24.0292 21.1017 24.1669 21.0967 24.2498 21.1547C24.5496 21.3642 24.8511 21.6962 25.1096 21.9573C25.5199 22.3719 25.9339 22.7829 26.3514 23.1902C26.5339 23.3711 26.6387 23.5063 26.8369 23.6874C26.8565 24.1738 26.8747 24.1737 26.4501 24.4035C25.6998 24.1991 25.064 23.0273 24.5449 22.8225C24.4728 22.8561 24.5022 23.036 24.5032 23.1435L24.5096 25.8006C24.5096 26.2817 24.5316 26.9009 24.4612 27.3741C24.4416 27.5061 24.2826 27.6587 24.1867 27.759C23.8619 27.7191 23.8463 27.6975 23.5806 27.5181C23.5295 27.0556 23.5417 26.5237 23.5416 26.0537L23.5437 24.0206C23.5443 23.7913 23.5688 22.9863 23.5097 22.8095C23.4508 22.7926 23.4073 22.8182 23.3618 22.8626C22.8324 23.3797 22.314 24.1272 21.6221 24.4176C21.4404 24.3088 21.1852 24.1977 21.2085 23.9508C21.2158 23.8739 21.238 23.7313 21.2855 23.6706C21.6813 23.1572 22.1823 22.7357 22.6342 22.2755C23.0419 21.8603 23.372 21.4735 23.8315 21.1112Z" fill="#282828"/>
</svg>
