<svg width="28" height="28" viewBox="0 0 28 28" fill="none" xmlns="http://www.w3.org/2000/svg">
<path d="M6.31184 3.00744L9.20051 3.00939L14.7425 3.00744C15.7298 3.0065 16.7169 3.00436 17.7064 3.00842C18.2863 2.99731 18.8573 3.18214 19.2591 3.61486C19.5936 3.98438 19.8088 4.40917 19.8118 4.91369C19.8227 6.7592 19.8163 8.60438 19.8167 10.4498C19.8169 11.109 19.8247 11.775 19.807 12.4332C20.4111 11.8574 20.7642 11.3411 21.6878 11.2955C22.2114 11.2697 22.7995 11.547 23.1634 11.9205C23.7986 12.5743 24.3908 12.9494 24.4261 13.9332C24.4678 15.099 23.5074 15.6962 22.7679 16.4703C21.8115 17.4716 20.7683 18.4172 19.8177 19.4283C19.8078 19.9676 19.8157 20.5272 19.8157 21.068L19.8177 22.2809C19.8193 23.0644 19.8733 23.6173 19.3597 24.2789C19.0485 24.6712 18.4771 24.9483 17.9739 24.9723C17.2357 25.0074 16.4577 24.99 15.7152 24.9899L11.2279 24.9889L7.00129 24.9899C6.43029 24.9909 5.22922 25.0236 4.71711 24.9645C4.35398 24.9232 4.00991 24.7787 3.72688 24.5475C2.87463 23.8489 3.00583 22.9637 3.0091 21.9703L3.01105 20.2028L3.01008 14.1559L3.0091 7.93127V5.98791C3.00925 5.58243 2.99804 5.18127 3.03059 4.77697C3.11436 3.7371 3.88485 3.11039 4.87141 3.02014C5.1399 2.98527 6.0017 3.00668 6.31184 3.00744ZM7.88996 4.31115C6.91464 4.31093 5.89898 4.29546 4.92902 4.31994C4.6562 4.3692 4.54237 4.43278 4.34895 4.63928C4.29028 5.04871 4.3069 5.57124 4.30793 5.99279L4.31184 7.88439V20.5397L4.30891 22.1324C4.30759 22.4965 4.28829 23.0086 4.3509 23.3561C4.62881 23.6444 4.72082 23.6855 5.13508 23.6862C7.89536 23.6905 10.6603 23.6871 13.4202 23.6881L16.4095 23.6891C16.9083 23.689 17.4268 23.7051 17.929 23.6754C18.4454 23.6444 18.51 23.1128 18.5179 22.7106C18.5306 22.0609 18.4723 21.3486 18.5257 20.7076C18.0629 21.1791 17.284 22.0629 16.6946 22.2867C16.0469 22.4703 14.6018 22.4691 13.9808 22.2213C13.6224 22.0779 13.332 21.4585 13.3304 21.0992C13.3281 20.5557 13.231 19.1857 13.5911 18.7613C15.1022 16.9807 16.9122 15.4128 18.5218 13.7164C18.4818 13.0593 18.5089 12.1051 18.5091 11.4225L18.512 7.1676C18.5127 6.4025 18.5308 5.62682 18.4886 4.86486C18.4707 4.542 18.1613 4.33741 17.8636 4.32385C17.32 4.29937 16.7651 4.31069 16.221 4.31115L13.1146 4.3131L7.88996 4.31115ZM19.8089 14.2916C18.5952 15.4252 17.4496 16.6479 16.2591 17.8151C15.8396 18.2263 15.1222 18.9167 14.7601 19.3492C14.5717 19.5746 14.64 20.7322 14.6448 21.111C15.0017 21.1132 16.0254 21.1391 16.3167 21.0709C16.777 20.6586 17.2464 20.1645 17.6849 19.7233L19.9642 17.442C20.4572 16.9487 20.9874 16.3968 21.5013 15.9352C21.2633 15.735 19.9146 14.3332 19.8089 14.2916ZM6.09602 17.2447C7.81386 17.1798 9.58439 17.273 11.306 17.2418C12.2318 17.2256 12.3298 18.2914 11.5189 18.5094C10.7329 18.5348 9.92776 18.5007 9.13898 18.5143C8.43938 18.5132 7.74002 18.5186 7.04035 18.5162C6.82121 18.5155 6.08638 18.5428 5.92805 18.4488C5.39927 18.1331 5.47129 17.4342 6.09602 17.2447ZM6.14582 14.6442C7.77371 14.5958 9.61356 14.6395 11.2591 14.6373L13.0179 14.6344C13.3739 14.6341 13.8975 14.6204 14.2376 14.6764C14.8186 15.1054 14.7487 15.785 14.0257 15.9362L8.96809 15.9391C8.07359 15.9391 7.16199 15.9465 6.26691 15.9313C6.15061 15.9217 6.0301 15.9185 5.93 15.8551C5.62485 15.6613 5.42784 15.329 5.66145 14.9977C5.81553 14.7792 5.89091 14.7096 6.14582 14.6442ZM21.6536 12.5768C21.303 12.7361 20.9956 13.0441 20.7386 13.3248C21.053 13.7385 21.9416 14.5787 22.3411 14.9752L22.3812 15.0104C22.501 14.9549 22.7055 14.6593 22.8421 14.5612C23.7153 13.9337 22.4125 12.9226 21.8763 12.6012C21.8397 12.5797 21.7071 12.5748 21.6536 12.5768ZM14.7874 12.0641C15.2459 12.0641 16.6026 11.9984 16.9271 12.1715C17.3466 12.3961 17.3454 13.2397 16.5941 13.361C14.2809 13.4066 11.8353 13.3632 9.51105 13.3649L7.33625 13.3678C6.98534 13.3682 6.31632 13.3868 5.9925 13.3278C5.39967 12.8851 5.43598 12.206 6.19074 12.0719C6.83326 12.0505 7.54083 12.0642 8.19074 12.0641H14.7874ZM7.85871 9.48693L11.2083 9.48596H14.6702C15.2719 9.48608 15.8795 9.48267 16.4808 9.49084C16.619 9.50181 16.7952 9.49183 16.9144 9.57092C17.2361 9.78526 17.2828 10.2195 17.0716 10.5289C16.9626 10.6884 16.837 10.7214 16.6595 10.7574C16.0753 10.7767 15.4075 10.7623 14.8177 10.7623H11.4193C9.71786 10.7625 8.02097 10.7683 6.31477 10.7594C5.77514 10.8142 5.44257 10.3259 5.63996 9.83654C5.7101 9.66295 5.92566 9.54507 6.09504 9.49279C6.63692 9.46923 7.30901 9.48717 7.85871 9.48693ZM8.72395 5.61779C9.59441 5.58502 10.4866 5.62587 11.3597 5.60998C11.9736 5.61191 12.5875 5.60592 13.2015 5.609C13.417 5.61003 14.1609 5.57982 14.3177 5.68517C14.809 6.01679 14.7308 6.74137 14.0911 6.88146C13.867 6.88997 13.6372 6.88723 13.4124 6.88635C11.8664 6.88035 10.3183 6.90404 8.77277 6.87756C8.67467 6.87582 8.5368 6.83304 8.4427 6.80236C8.0247 6.37414 8.08306 5.76007 8.72395 5.61779Z" fill="#BA9B31"/>
</svg>
