<svg width="24" height="24" viewBox="0 0 24 24" fill="none" xmlns="http://www.w3.org/2000/svg">
<path d="M11.2587 2.02775C16.7597 1.61866 21.5536 5.74201 21.9716 11.2426C22.3896 16.7431 18.274 21.5431 12.7743 21.9701C7.26205 22.3981 2.44826 18.2715 2.02923 12.7582C1.61026 7.24498 5.74506 2.43783 11.2587 2.02775ZM14.622 17.3197C13.7259 17.1842 11.8243 17.0136 10.9491 17.1488C10.4677 17.1871 9.86459 17.251 9.39055 17.2611C9.60803 18.3548 10.5925 21.3466 12.2021 21.1303C12.4019 21.1033 12.6563 20.9376 12.832 20.8256C13.8191 19.8338 14.3045 18.6758 14.622 17.3197ZM8.43059 17.5395C7.43996 17.8754 6.60307 18.1729 5.6552 18.6254C6.35612 19.1823 7.17372 19.8346 7.98333 20.2172C8.72476 20.5484 9.32964 20.7598 10.1103 20.9926C9.38236 19.9538 8.84688 18.7919 8.52923 17.5639L8.43059 17.5395ZM15.4755 17.4945C15.3035 18.4762 14.5416 20.1866 13.9257 20.974C14.7755 20.7253 15.3655 20.5344 16.1757 20.1479C16.9475 19.7066 17.6766 19.1941 18.3525 18.6166C17.5522 18.2737 16.7534 17.9413 15.9277 17.6654C15.775 17.6144 15.6211 17.5634 15.4755 17.4945ZM16.1708 12.4262C16.0684 13.9045 16.0445 15.2745 15.6015 16.6957C16.648 16.9272 18.029 17.4432 18.9052 18.0483C19.1188 17.7528 19.347 17.4455 19.5507 17.1449C20.5068 15.7096 21.0783 14.1792 21.1103 12.435L16.1708 12.4262ZM2.83489 12.4359C2.83757 14.5328 3.88659 16.4213 5.1093 18.0326C5.94845 17.5151 6.42292 17.3029 7.36712 16.9867L8.32805 16.7221C8.04967 15.451 7.91394 13.7425 7.86712 12.4311C6.1898 12.4213 4.5122 12.4232 2.83489 12.4359ZM8.79485 12.4233C8.78667 13.5192 8.85544 15.4804 9.15716 16.5326C10.3959 16.3318 11.3073 16.1648 12.5888 16.2094C13.0265 16.2246 14.7116 16.5783 14.8818 16.5014C15.1494 14.7766 15.2019 14.1991 15.2616 12.4252L8.79485 12.4233ZM5.09856 5.99747C3.86265 7.57909 2.84312 9.55731 2.83196 11.6137C3.91298 11.6237 4.99405 11.6275 6.07512 11.6254H7.86712C7.96266 10.0351 8.0638 8.88725 8.29095 7.31583C7.54883 7.10654 5.66706 6.4124 5.09856 5.99747ZM18.8466 6.02872C17.9251 6.58524 16.6624 6.99765 15.6337 7.36075C16.0753 8.99929 16.0521 9.95146 16.1708 11.6195L17.9843 11.6254L21.1181 11.6234C21.0259 9.65576 20.3118 7.49428 18.9316 6.05607L18.8466 6.02872ZM14.8945 7.48966C13.524 7.62299 12.3713 7.84851 10.9716 7.7172C10.3968 7.66327 9.68959 7.51115 9.16106 7.49552C8.84049 8.80985 8.77092 10.2706 8.79485 11.6186L15.1904 11.6244C15.442 11.1968 14.9825 8.12427 14.8945 7.48966ZM11.7206 2.81583C10.359 3.705 9.73061 5.13142 9.36907 6.68692C10.3465 6.77594 11.2549 6.91333 12.2411 6.89005C13.0799 6.8687 13.8333 6.74449 14.6464 6.69083C14.2518 5.39413 13.4576 2.71126 11.7206 2.81583ZM9.87981 3.11368C8.16497 3.54863 6.99314 4.19431 5.66887 5.38614C6.0677 5.52703 6.34474 5.68388 6.71477 5.83341C7.35611 6.12405 7.87469 6.25714 8.51067 6.50528C8.80117 5.61136 9.0681 4.74938 9.51653 3.91739C9.65856 3.65389 9.81613 3.45944 9.97161 3.17521C9.91445 3.10746 9.94741 3.11941 9.87981 3.11368ZM13.9824 3.07169C14.7771 4.35094 15.0559 5.04598 15.5029 6.47501C16.2422 6.24341 16.9375 6.00487 17.6445 5.68204L18.3232 5.35294C16.8526 4.14073 15.8409 3.51768 13.9824 3.07169Z" fill="#BA9B31"/>
</svg>
