<svg width="36" height="36" viewBox="0 0 36 36" fill="none" xmlns="http://www.w3.org/2000/svg">
<path d="M23.369 6.00103C23.5478 5.99342 23.7224 6.05946 23.8514 6.18364C23.9259 6.25588 23.9802 6.34661 24.0086 6.44634C24.067 6.64929 24.0463 7.37978 24.0467 7.64751C24.0704 7.64633 24.0941 7.64546 24.118 7.64556L25.7127 7.64751C26.8278 7.64595 27.6923 7.57024 28.5692 8.45122C28.9703 8.85417 29.2332 9.37446 29.3192 9.93657C29.3617 10.2175 29.3553 10.5193 29.3553 10.8038L29.3543 11.7696V15.0606L29.3553 27.0206C29.3544 27.8913 29.1954 28.5751 28.5477 29.2159C28.11 29.6477 27.5374 29.9163 26.9256 29.9776C26.6832 30.0024 26.4207 29.9961 26.1756 29.9961L25.1112 29.9952H13.9647L10.9725 29.9961C10.5555 29.9964 9.66507 30.0204 9.2801 29.9581C8.72606 29.868 8.2135 29.6076 7.81331 29.2139C7.23203 28.6437 7.00422 27.965 7.00081 27.1651L7.00178 15.2676L7.00081 11.8399V10.8555C7.00068 10.522 6.99068 10.2352 7.04475 9.9024C7.13736 9.34427 7.40423 8.82954 7.80647 8.43169C8.67035 7.56843 9.55002 7.64604 10.6453 7.64654H12.3143C12.2761 7.34776 12.3162 6.83291 12.328 6.51958C12.3385 6.23902 12.6367 6.03995 12.8992 6.00103C13.0848 5.99168 13.2684 6.04573 13.4032 6.17779C13.4854 6.2588 13.5442 6.36093 13.5731 6.47271C13.6258 6.67027 13.6053 7.39813 13.6043 7.64654C14.5513 7.63485 15.5288 7.64751 16.4793 7.64751L22.7528 7.64654C22.7414 7.45345 22.7404 6.63329 22.7772 6.47857C22.8016 6.378 22.8517 6.28516 22.9217 6.20904C23.0369 6.08237 23.1979 6.00698 23.369 6.00103ZM8.97639 13.4532C8.76343 13.454 8.50415 13.4632 8.29671 13.4551C8.31733 14.5993 8.30061 15.7952 8.30061 16.9424L8.29964 23.5518V26.9629C8.2991 27.4955 8.31202 27.8981 8.72444 28.2989C8.94695 28.5165 9.23639 28.6534 9.54573 28.6876C9.7409 28.7091 10.0539 28.7004 10.2586 28.7002L11.4422 28.6993H26.6033C27.0179 28.6981 27.3685 28.5631 27.661 28.2618C28.109 27.7688 28.0588 27.3374 28.0555 26.7081C28.0548 26.5493 28.0556 26.3847 28.0555 26.2256L28.0545 23.8292V14.7745C28.0544 14.3556 28.0436 13.8703 28.0623 13.4561L14.117 13.4522H10.1776L8.97639 13.4532ZM19.8553 22.0206C19.9514 22.0288 20.0444 22.0587 20.1278 22.1075C20.5223 22.3357 20.4435 22.8129 20.4432 23.2042V25.42C20.4431 25.9416 20.5506 26.4908 19.9022 26.6465C19.7478 26.6648 19.4664 26.6574 19.3035 26.6573L18.285 26.6553L17.0975 26.6573C16.7164 26.658 16.2102 26.7358 15.951 26.4229C15.8277 26.2742 15.8039 26.1358 15.7987 25.9502C15.7927 25.7359 15.7949 25.5231 15.7948 25.3096L15.7938 24.1143L15.7948 23.1993C15.7949 22.6956 15.7134 22.1641 16.3465 22.0215C16.5361 22.0044 16.8066 22.0116 17.0018 22.0118H18.1121L19.2069 22.0108C19.3946 22.0106 19.6744 22.0036 19.8553 22.0206ZM13.1971 22.0108C13.612 22.0105 14.2776 21.9192 14.4227 22.4717C14.4734 22.6654 14.4542 23.0165 14.4539 23.2256V25.3653C14.4539 25.8859 14.5688 26.4808 13.9246 26.6426C13.7779 26.6638 13.4897 26.6564 13.3309 26.6563L12.3221 26.6553L11.0926 26.6563C10.6522 26.6569 10.0009 26.7535 9.84065 26.2149C9.78681 26.0329 9.80722 25.5566 9.80745 25.3497V23.2481C9.80763 22.7282 9.70396 22.1677 10.3563 22.0215C10.5434 22.0033 10.8124 22.0106 11.0057 22.0108L12.1053 22.0118L13.1971 22.0108ZM25.2274 22.0108C25.5086 22.0106 25.9156 21.9743 26.161 22.1036C26.5551 22.3116 26.4809 22.8365 26.4813 23.211V25.3917C26.481 25.9054 26.5898 26.4899 25.9481 26.6436C25.7981 26.6641 25.4998 26.6563 25.3397 26.6563L24.2821 26.6553L23.1004 26.6563C22.6507 26.6573 22.047 26.7496 21.8709 26.2217C21.8169 26.0601 21.8355 25.6106 21.8358 25.4268V24.4024L21.8348 23.3077C21.8347 22.7771 21.7187 22.1781 22.3758 22.0225C22.5586 22.0034 22.8291 22.0107 23.0194 22.0108L24.0897 22.0118L25.2274 22.0108ZM13.201 15.4327C13.6221 15.4325 14.2944 15.3409 14.4276 15.9161C14.4735 16.1143 14.4539 16.4424 14.4539 16.6553V17.7754L14.453 18.8204C14.4534 19.3441 14.5607 19.9304 13.8963 20.0723C13.7294 20.0888 13.4506 20.0811 13.2782 20.0811L12.1727 20.0792L11.0711 20.0811C10.6635 20.082 9.97925 20.175 9.83772 19.6241C9.78653 19.4245 9.80756 19.0647 9.80745 18.8448V16.6895C9.80655 16.16 9.70012 15.5818 10.369 15.4424C10.5623 15.4248 10.829 15.4325 11.0291 15.4327H13.201ZM19.2244 15.4317C19.4105 15.4315 19.6844 15.4243 19.8612 15.4434C19.9637 15.4535 20.0626 15.4875 20.1492 15.543C20.5047 15.7682 20.4431 16.164 20.4432 16.5274V18.7872C20.443 19.3239 20.566 19.9368 19.8768 20.0733C19.6578 20.0886 19.376 20.0803 19.1532 20.0801L17.9578 20.0792L16.9676 20.0811C16.6925 20.0815 16.3565 20.1182 16.1141 19.9834C15.7144 19.7611 15.795 19.231 15.7948 18.836V16.6993C15.7942 16.1706 15.6907 15.5933 16.3533 15.4434C16.5503 15.4241 16.832 15.4326 17.035 15.4327H18.1737L19.2244 15.4317ZM25.2274 15.4327C25.6665 15.4326 26.3007 15.3488 26.45 15.8907C26.5023 16.081 26.4811 16.5254 26.4813 16.7403L26.4803 18.0235L26.4813 18.9249C26.4814 19.4326 26.5609 19.9358 25.9207 20.0733C25.7469 20.0896 25.4672 20.0811 25.2889 20.0811L24.1512 20.0801L23.0643 20.0811C22.8585 20.0815 22.6533 20.0866 22.4471 20.0762C22.165 20.0618 21.8816 19.836 21.8504 19.5469C21.8285 19.344 21.8358 19.1296 21.8358 18.9249V16.7461C21.8357 16.201 21.7113 15.5909 22.3963 15.4434C22.5847 15.4253 22.8495 15.4325 23.0448 15.4327L24.1112 15.4336L25.2274 15.4327ZM10.5213 8.94439C10.2736 8.94433 9.83022 8.92984 9.60042 8.95122C9.20212 8.99319 8.87326 9.14699 8.618 9.46392C8.48328 9.63033 8.38832 9.82625 8.34163 10.0352C8.28069 10.303 8.30594 10.5332 8.29866 10.7989C8.28666 11.2347 8.31976 11.7322 8.29475 12.1622L19.4852 12.1612H25.1209C26.0926 12.1612 27.09 12.1486 28.0584 12.1631C28.0535 11.7464 28.0527 11.3289 28.0555 10.9122C28.0556 10.6746 28.0634 10.3786 28.0369 10.1475C27.9701 9.76008 27.7893 9.43089 27.4627 9.2022C27.298 9.08643 27.11 9.00769 26.9119 8.97173C26.6917 8.93173 26.3149 8.94419 26.075 8.94439L24.7635 8.94536C24.5543 8.94553 24.2496 8.95443 24.0467 8.94048C24.0463 9.18686 24.0691 9.92708 24.0155 10.127C23.9891 10.2278 23.9375 10.3207 23.8651 10.3956C23.7402 10.5224 23.5684 10.5923 23.3905 10.5889C23.2101 10.5845 23.0397 10.5061 22.9178 10.3731C22.8545 10.3034 22.8081 10.2197 22.783 10.129C22.7333 9.94456 22.7485 9.19196 22.7547 8.94634L16.5301 8.94536H14.5965C14.3069 8.94536 13.8848 8.95732 13.6033 8.94146C13.6048 9.19423 13.6256 9.91642 13.574 10.1172C13.5462 10.2276 13.4889 10.3282 13.408 10.4083C13.2801 10.5315 13.106 10.5964 12.9285 10.5879C12.7494 10.5788 12.5818 10.4972 12.4647 10.3614C12.402 10.2887 12.3575 10.2017 12.3348 10.1084C12.2936 9.93825 12.3081 9.16929 12.3123 8.94634L10.5213 8.94439Z" fill="#282828"/>
</svg>
