<svg width="36" height="36" viewBox="0 0 36 36" fill="none" xmlns="http://www.w3.org/2000/svg">
<path d="M18.1551 2C19.1862 2.07424 32.5156 7.25889 34.1766 7.97852C34.5138 13.2006 34.0677 18.8893 34.2342 24.167C34.3119 26.6183 34.2871 29.4517 34.1844 31.8828C32.7759 32.2618 29.8143 32.5671 28.2518 32.7695C24.9534 33.2155 21.6507 33.626 18.3426 34C17.6412 34.0244 13.4357 33.4734 12.4637 33.3213C9.28053 32.8227 5.34625 32.5514 2.27817 31.9023C2.14773 29.1618 2.22251 25.9272 2.22251 23.1533L2.23032 7.97461C7.10925 5.93844 13.1277 3.84039 18.1551 2ZM22.6815 16.8926C22.6551 18.3962 22.6824 21.3892 22.5243 22.8047C21.2546 24.2139 19.5951 25.0515 17.9647 23.7168C17.3153 23.1842 16.7431 21.7535 16.2186 21.4785C15.264 22.0016 15.2444 25.2382 11.8006 24.1895C10.6433 23.8367 10.4775 22.0438 9.7684 21.6182C9.48279 21.6737 9.33827 21.669 9.16489 21.9648C8.59183 22.9464 8.31032 24.0291 7.02817 24.2705C5.77233 24.507 4.37102 24.1024 3.83676 22.8477C3.50514 23.2129 3.69934 28.2136 3.70493 29.1602L8.79868 29.6562C11.778 29.9474 15.0654 30.3107 18.035 30.4883C19.1951 30.5575 22.3856 30.1755 23.7372 30.0459L32.7586 29.1553C32.7614 27.0187 32.7489 24.8622 32.7752 22.7275C31.0559 24.9449 28.0999 24.8942 26.4569 22.625C26.3154 20.932 26.3176 19.1591 26.2899 17.4561C25.3047 17.3167 23.5599 16.9715 22.6815 16.8926ZM18.1424 8.37988C13.4979 10.0832 8.20873 11.8599 3.67661 13.6738L3.72446 16.0947L13.8387 12.3867C14.4826 12.1512 17.8288 10.8927 18.3534 10.835L32.7791 16.1201L32.7625 13.6504C31.2788 13.1084 18.6236 8.37016 18.1424 8.37988Z" fill="#BA9B31"/>
</svg>
