<svg width="36" height="36" viewBox="0 0 36 36" fill="none" xmlns="http://www.w3.org/2000/svg">
<g clip-path="url(#clip0_2016_6391)">
<path d="M25.1223 7.61719C25.2833 8.29862 25.0406 10.3675 25.2151 10.7119C25.2296 10.7165 25.244 10.7212 25.2581 10.7266C25.6245 10.8682 26.5858 12.4062 26.842 12.8096L26.8459 14.0518C27.0597 14.0538 27.2972 14.062 27.509 14.0547L27.5178 28.2637C27.5183 30.8172 27.4882 33.4328 27.5198 35.9814C26.4675 36.0009 25.4153 36.0048 24.3625 35.9951L24.3635 34.0879C23.7437 34.0913 23.0898 34.1039 22.4739 34.082C22.4078 31.5602 22.4568 28.8563 22.4622 26.3232L22.467 14.0469C22.68 14.0532 22.9049 14.0637 23.1165 14.0586C23.1164 13.6513 23.1029 13.1582 23.1223 12.7578C23.5555 12.1354 24.0545 11.5469 24.5129 10.9424C24.6112 10.813 24.7103 10.7811 24.8577 10.7168C25.0117 10.3514 24.8021 8.28071 24.9387 7.69141L25.1184 7.59668V7.59766L25.1223 7.59668C25.1224 7.60333 25.1223 7.61017 25.1223 7.61719ZM28.1702 23.3076C29.1052 23.3373 30.2079 23.3159 31.1536 23.3184C31.1205 23.8697 31.2342 23.8328 31.3557 24.3447C31.4155 24.637 31.4205 25.4517 31.3958 25.7109C31.2971 26.7392 31.5324 35.681 31.3557 35.9736L31.1858 35.9971L27.8733 35.998V27.6484C27.8728 27.1179 27.8409 24.3786 27.9133 24.0732C28.0358 24.0276 28.0022 24.047 28.1096 23.9727C28.1456 23.7383 28.1556 23.5424 28.1702 23.3076ZM22.0813 26.6562C22.1217 29.2162 22.0872 31.8273 22.0959 34.3936C22.4493 34.4008 23.8743 34.3326 24.053 34.4541C24.0535 34.9612 24.051 35.4685 24.0452 35.9756C21.1215 36.0121 18.1225 35.9775 15.1936 35.9775L4.00512 35.9688C4.00046 35.4451 3.99855 34.9215 4.00122 34.3975C4.63751 34.3848 5.30213 34.3955 5.94067 34.3975L5.94751 26.666L11.8782 26.6562C11.984 26.7769 11.9374 33.6174 11.9368 34.3994L12.7424 34.4014C12.8391 33.6837 13.109 33.0266 13.9495 32.9648C14.2818 32.9396 14.6099 33.0542 14.8547 33.2803C15.2159 33.6084 15.2585 33.9517 15.2727 34.3955L16.0989 34.3926C16.1596 31.8819 16.0941 29.1942 16.1135 26.665L22.0813 26.6562ZM15.1663 9.96191C15.2237 10.4752 15.1987 11.6373 15.1985 12.0107L15.1956 15.8252L15.1985 33.1357C14.3649 32.495 13.4923 32.3841 12.7952 33.291C12.6665 33.4583 12.4587 33.9456 12.3274 34.0098C12.1559 33.5561 12.2564 27.3479 12.2668 26.3311L7.6936 26.3389C8.53643 21.5458 11.037 16.6659 14.9778 13.7109C14.9754 13.5162 14.9595 13.0507 14.9905 12.8848C14.9469 12.0363 14.9822 10.994 14.9866 10.1348C14.9878 9.90904 15.0129 9.8931 15.136 9.78613L15.1663 9.96191ZM19.7932 2.51465C19.8278 3.7629 20.1064 4.8001 20.1663 6.09082L20.3596 10.8457C20.3805 11.421 20.3379 12.4677 20.4006 12.9609C20.5269 13.0321 20.6208 13.0073 20.7825 13.0078C20.9492 13.1413 20.7746 18.3853 20.8567 19.0635C20.9 19.4167 21.3168 18.718 21.3743 19.5986C21.418 20.2755 21.259 24.6351 21.4504 24.834C21.6373 24.8335 21.6914 24.8065 21.8372 24.8896C21.8979 25.1374 21.8694 26.0231 21.8674 26.335L17.5559 26.3389C17.5292 25.3109 17.5466 24.214 17.551 23.1816L18.1077 23.1768V17.3643L18.6702 17.3701C18.6935 15.6133 18.6507 13.8493 18.6682 12.0918C18.6731 11.6222 18.667 11.1565 18.7249 10.6895L18.8782 10.583C18.9837 10.0631 18.8922 9.2016 18.9836 8.63184C19.0689 8.58839 19.0893 8.58653 19.1829 8.56836C19.2548 8.35979 19.2222 7.81919 19.2561 7.56152C19.4414 6.15196 19.3019 4.74532 19.5139 3.33789C19.561 3.02711 19.5295 2.72819 19.6008 2.41406L19.7932 2.51465ZM19.7141 0.15332L19.7122 0.0917969L19.7327 0.102539C19.7735 0.643526 19.7808 1.18656 19.7551 1.72852H19.7561L19.7932 2.51367L19.5999 2.41211C19.6241 2.24846 19.6323 1.93657 19.6575 1.73242V0.900391C19.659 0.608288 19.6651 0.318456 19.6858 0.0820312L19.7141 0.15332ZM19.7122 0.0917969L19.7073 0.0898438L19.7092 0L19.7122 0.0917969Z" fill="#BA9B31"/>
</g>
<defs>
<clipPath id="clip0_2016_6391">
<rect width="36" height="36" fill="white"/>
</clipPath>
</defs>
</svg>
