<svg width="36" height="36" viewBox="0 0 36 36" fill="none" xmlns="http://www.w3.org/2000/svg">
<path d="M12.047 3.87907C13.3787 3.69052 15.1656 4.75385 16.0001 5.76481C16.5879 6.47703 17.1494 7.514 17.3683 8.41032C18.0367 7.03522 18.7546 5.64205 19.9942 4.7238C23.3984 2.2022 27.7515 5.69557 25.0401 9.33415C24.5273 10.0224 23.872 10.4312 23.1778 10.9132C25.3028 10.8845 27.519 10.9023 29.6466 10.9172C29.6987 12.7227 29.661 14.7901 29.6534 16.6066L21.9581 16.6115L18.1339 16.6076C18.1332 14.757 18.1644 12.7884 18.1153 10.9474C17.6382 10.9084 17.1587 10.9094 16.6817 10.9504C16.6472 12.8105 16.6734 14.7404 16.6739 16.6056C15.3342 16.6316 13.924 16.6113 12.5792 16.6115L5.15537 16.6086C5.12531 15.1959 5.15957 13.7731 5.1456 12.3595C5.14086 11.8796 5.14282 11.3909 5.17002 10.9123L11.1358 10.9074C10.8461 10.7541 10.5717 10.5731 10.3165 10.3674C8.62146 9.00909 8.2521 6.88312 9.6456 5.12321C10.2433 4.36839 11.0981 3.97885 12.047 3.87907ZM22.2013 5.46891C20.2901 5.73723 19.7788 7.55981 19.0382 9.05778C18.7954 9.5489 18.5713 10.1157 18.3683 10.6242C18.9263 10.5062 19.4793 10.366 20.0265 10.2052C21.3596 9.82537 23.0748 9.37816 23.7843 8.08122C24.0299 7.63222 24.1652 7.11223 24.0157 6.60954C23.8934 6.20137 23.6156 5.85695 23.2423 5.65153C22.8977 5.46587 22.5811 5.4506 22.2013 5.46891ZM12.0089 5.50309C9.98675 6.17525 10.1106 8.70121 12.0724 9.46012C13.1321 9.87008 13.9561 10.0763 15.0694 10.3127C15.4802 10.385 15.8907 10.4614 16.2999 10.5422C15.8972 9.39154 15.4063 8.34572 14.8351 7.27262C14.1469 5.97998 13.5268 5.42608 12.0089 5.50309Z" fill="#BA9B31"/>
<path d="M18.123 17.8405L24.2834 17.8382C25.4728 17.838 26.8088 17.8085 27.9865 17.8597C28.0522 20.5711 28.0017 23.4786 28.0017 26.2007L28.0009 29.901C28.0009 30.18 28.0351 31.9614 27.9415 32.1003C27.4709 32.1716 25.4105 32.1318 24.8373 32.1314L18.1329 32.1318L18.1288 22.3601L18.1334 19.51C18.1346 18.9847 18.1536 18.3548 18.123 17.8405Z" fill="#BA9B31"/>
<path d="M6.90115 17.8531C8.03042 17.813 9.27453 17.8381 10.4165 17.8381L16.6757 17.8378L16.6728 27.7076C16.6728 29.0453 16.7282 30.8307 16.668 32.1306L11.2237 32.133C9.79559 32.1334 8.29842 32.1553 6.87543 32.1199C6.81929 31.695 6.84429 30.6256 6.84433 30.1622L6.84552 26.5222L6.84278 20.6627C6.84242 20.1114 6.80694 18.2954 6.90115 17.8531Z" fill="#BA9B31"/>
</svg>
