<svg width="48" height="48" viewBox="0 0 48 48" fill="none" xmlns="http://www.w3.org/2000/svg">
<path d="M12.7712 2.01278C14.1997 1.98273 15.7555 2.01559 17.198 2.01571H32.1589C33.1133 2.01557 34.0705 2.00769 35.0222 2.01864C35.9051 2.02879 35.898 2.66394 35.8718 3.36044C35.8596 3.691 35.8605 4.03617 35.8581 4.36435C37.4518 4.38478 39.5636 4.32205 41.1833 4.40829C41.6409 4.43303 42.0814 5.08416 42.0818 5.59286C42.0844 10.0044 40.7342 14.584 37.7937 17.9434C36.3919 19.5468 34.0778 21.1634 31.905 21.2833C31.0244 22.7374 30.1712 24.1413 28.8962 25.3077C27.2913 26.7757 26.153 26.4925 26.1492 29.0548C26.1463 30.9878 26.56 32.0452 27.1785 33.8282L30.6316 33.8263C31.1919 33.8262 31.8071 33.7958 32.3572 33.8595C32.8472 33.916 32.9192 34.4005 32.9206 34.7852C32.9288 36.8175 32.9002 38.8525 32.9226 40.8839C33.4285 40.8952 35.1339 40.7917 35.4665 41.003C35.6374 41.112 35.7535 41.2714 35.7898 41.4708C35.8953 42.0466 35.8318 42.8936 35.8318 43.4981C35.8318 44.0594 35.872 44.6525 35.8162 45.2091C35.801 45.3592 35.7818 45.5274 35.6941 45.6534C35.545 45.8678 35.3497 45.9536 35.0984 45.9952L20.0427 45.9933L15.2048 45.9942C14.3647 45.9954 13.5223 46.0084 12.6833 45.9884C12.1541 45.9759 11.9538 45.5678 11.9499 45.0948C11.9438 44.3296 11.9353 43.5528 11.9451 42.7882C11.949 42.4775 11.9082 41.7843 11.9597 41.5157C11.9874 41.3757 12.054 41.2463 12.1511 41.1417C12.4751 40.7984 13.1263 40.8804 13.5701 40.8839C14.0359 40.8879 14.5017 40.8894 14.9675 40.8868L14.9685 36.5343C14.9682 35.8514 14.9429 35.1602 14.9802 34.4806C14.9981 34.1597 15.2462 33.8885 15.5691 33.8565C16.1207 33.8016 16.7122 33.8263 17.2673 33.8263H20.7165C20.8991 33.2777 21.1266 32.7148 21.2829 32.1319C21.6669 30.7005 22.1932 27.9864 21.0515 26.8116C20.8033 26.5847 20.4708 26.4378 20.1931 26.253C18.3284 25.0134 17.0864 23.2079 15.9978 21.294C14.216 21.1419 12.379 20.127 11.073 18.9308C7.64153 15.7703 5.99138 10.9716 5.81908 6.39267C5.80773 5.82202 5.70583 5.19014 6.14135 4.73642C6.57438 4.28551 7.1365 4.37333 7.69994 4.36435C7.97184 4.35999 8.24628 4.36526 8.5183 4.36532L12.0339 4.3663C12.0351 3.56146 11.7134 2.21945 12.697 2.01474C12.7217 2.01372 12.7466 2.01345 12.7712 2.01278ZM23.9304 5.97763C23.4581 6.95502 22.9796 7.92973 22.4958 8.90145C22.2491 9.39985 21.9448 10.0618 21.6785 10.5382L18.5085 11.0011C17.9341 11.0845 17.1888 11.2106 16.6199 11.2559C17.6954 12.3525 18.8388 13.389 19.9216 14.4796C20.0376 14.5963 20.1617 14.7248 20.2839 14.8331C20.0067 16.4473 19.7363 18.2709 19.4197 19.8604C19.887 19.6484 20.4311 19.3469 20.8913 19.1026L22.7058 18.1466C22.9332 18.0253 23.7652 17.5637 23.9402 17.4991C25.4524 18.2697 26.9627 19.0924 28.4714 19.877C28.1683 18.2026 27.9067 16.5115 27.5984 14.8399C28.2358 14.2075 28.878 13.5787 29.5242 12.9552C30.0555 12.4479 30.7674 11.8001 31.2615 11.2618C29.599 11.0579 27.8555 10.7241 26.2146 10.5421C25.9616 10.0521 24.0828 6.12996 23.9304 5.97763ZM8.30834 6.83212C8.67816 11.2493 10.4608 16.2172 14.6316 18.3761C14.5705 18.0756 14.3159 17.483 14.2058 17.1622C13.9507 16.3993 13.7175 15.6292 13.5076 14.8526C13.0045 12.9517 12.6326 11.0183 12.3943 9.06649C12.3003 8.30386 12.2477 7.59426 12.1736 6.83993C10.9528 6.79907 9.5372 6.81945 8.30834 6.83212ZM39.5798 6.84091C38.3983 6.80606 36.8901 6.80239 35.7078 6.83407C35.4002 10.8556 34.6657 14.5871 33.241 18.3673C34.1013 17.9924 34.8911 17.3672 35.5456 16.7013C37.6245 14.6056 38.8305 11.6856 39.3376 8.81161C39.4591 8.12488 39.5092 7.53042 39.5798 6.84091Z" fill="#BA9B31"/>
</svg>
