<svg width="24" height="24" viewBox="0 0 24 24" fill="none" xmlns="http://www.w3.org/2000/svg">
<path d="M11.6527 2.00043C13.4074 1.98745 15.0952 2.67213 16.3451 3.90375C17.6191 5.14739 18.3365 6.85288 18.3344 8.63324C18.3491 12.4523 15.9064 16.4629 13.7855 19.5209C13.334 20.1719 12.5155 21.3234 11.9633 21.8784C11.7767 22.0132 11.561 22.0671 11.3832 21.8735C10.9666 21.4196 10.5555 20.9038 10.1869 20.4077C8.054 17.5368 6.05388 14.3663 5.25037 10.8412C5.15937 10.4312 5.0973 10.0197 5.04919 9.60296C4.59933 5.70459 7.27942 2.30733 11.2631 2.0141C11.341 2.0028 11.567 2.00107 11.6527 2.00043ZM15.3363 4.11664C14.1827 3.18079 12.7178 2.74289 11.2289 2.8471C11.2246 2.84776 11.2195 2.84841 11.2152 2.84906C9.64939 2.96837 8.19745 3.71376 7.18884 4.91742C6.13542 6.16679 5.72009 7.77145 5.86365 9.38226C6.20267 13.1856 9.20729 18.0406 11.6732 20.9164C11.7323 20.8468 11.8423 20.725 11.8929 20.6557C14.2102 17.8228 17.1465 13.0462 17.4818 9.39496C17.5039 9.15467 17.4973 8.90856 17.4974 8.66742C17.4976 8.46022 17.5046 8.2478 17.4838 8.04144C17.3147 6.50088 16.5424 5.08996 15.3363 4.11664ZM11.2465 6.19671C12.8435 5.96189 14.3274 7.06962 14.557 8.66742C14.7864 10.2656 13.6736 11.7465 12.0746 11.9702C10.4838 12.1925 9.01289 11.0864 8.78455 9.49652C8.55645 7.9065 9.65726 6.43065 11.2465 6.19671ZM11.5306 7.00433C10.3797 7.08141 9.50963 8.07931 9.59021 9.22992C9.67092 10.3805 10.6713 11.2467 11.8217 11.1625C12.9669 11.0785 13.8288 10.0834 13.7484 8.93793C13.6678 7.7928 12.6761 6.92794 11.5306 7.00433Z" fill="#BA9B31"/>
</svg>
