<svg width="28" height="28" viewBox="0 0 28 28" fill="none" xmlns="http://www.w3.org/2000/svg">
<path d="M12.6774 2.58981C14.6895 2.23355 17.4442 2.98544 19.2565 3.89938C20.0526 3.51035 21.2936 2.81945 22.1325 2.93649C24.6166 3.28327 23.1973 6.70238 22.7585 8.10837C22.4628 9.05484 22.2019 9.86244 22.1247 10.791C24.0088 11.2603 25.1706 12.9724 24.0495 14.8183C23.7514 15.3089 23.1681 15.5382 22.7487 15.9453C22.6232 17.4318 23.0245 19.1363 22.6491 20.5332C22.4986 21.0948 21.8133 21.3336 21.3083 21.5586C21.2336 22.6731 22.0046 25.0088 19.779 24.4004C18.9093 24.1626 18.595 22.3238 18.152 21.4658C17.1894 21.4013 15.914 21.4393 14.9255 21.4443L9.35027 21.4609C8.18187 23.2772 9.06943 24.8731 6.20574 24.3271C6.14239 23.4754 6.14234 22.3677 6.10613 21.4834C3.80902 20.6952 4.83242 17.8284 4.70086 15.8476C4.55256 15.7671 4.30127 15.6455 4.17742 15.5478C2.1146 13.9182 2.92276 11.3591 5.35613 10.8222C5.1793 9.99877 5.03279 9.22629 4.80828 8.35641C4.44065 6.93263 2.92652 3.93027 4.86492 3.04782C5.8161 2.6154 7.33878 3.46972 8.24871 3.88669C9.73084 3.13416 11.0354 2.76058 12.6774 2.58981ZM19.0231 21.4443C19.2307 22.0524 19.5585 23.324 20.0905 23.6259C20.2576 23.6459 20.3721 23.6603 20.5397 23.6582C20.5397 22.9938 20.5649 22.1025 20.5251 21.456C20.0298 21.4495 19.5171 21.4374 19.0231 21.4443ZM6.99383 21.4482C6.85563 21.946 6.65416 23.3692 7.18816 23.6377C7.37344 23.6363 7.42047 23.6412 7.57195 23.541C7.63278 23.4174 7.67948 23.3256 7.72527 23.1953C7.93045 22.6735 8.23626 21.9607 8.40887 21.4463L6.99383 21.4482ZM5.31512 11.625C3.67545 12.1073 3.10287 13.9154 4.69793 14.9218C4.92838 15.0671 5.20798 15.1772 5.44207 15.3261C5.49877 16.8088 5.32664 18.2513 5.44305 19.7187C5.48951 20.3057 5.87818 20.7349 6.48699 20.7304C7.29448 20.7243 8.0992 20.6656 8.90789 20.6543C10.8114 20.6331 12.7144 20.6231 14.6179 20.624C16.0264 20.6233 17.4403 20.6065 18.8483 20.6406C19.5541 20.6577 20.2889 20.7761 20.9899 20.7353C21.2217 20.7218 21.5672 20.6726 21.7253 20.4863C22.1645 19.9673 22.0506 16.1936 22.068 15.249C22.4415 15.1345 22.6222 15.0714 22.9509 14.8554C23.7546 14.109 24.0458 13.0991 23.235 12.2216C22.911 11.8664 22.4552 11.6587 21.9743 11.6474C20.6775 11.609 20.1125 12.633 20.1257 13.8027C20.1414 15.2419 20.2547 16.7012 20.0954 18.1328L12.197 18.2011C10.8722 18.2136 9.38465 18.235 8.04363 18.2256C7.34362 18.2206 7.33018 17.9466 7.30242 17.2685C7.24029 15.7519 8.13523 11.6194 5.61981 11.6142C5.51847 11.6145 5.41645 11.6185 5.31512 11.625ZM19.3893 15.747C17.3899 14.9352 14.8585 14.3559 12.693 14.6035C11.0137 14.7561 9.67214 15.0562 8.13641 15.7959L8.13445 17.4824L14.902 17.4834C16.3112 17.4834 17.9756 17.5273 19.3649 17.4697C19.3957 16.8804 19.393 16.3376 19.3893 15.747ZM5.26629 3.7236C3.82592 4.58664 5.46743 7.4549 5.70672 8.69235C5.8443 9.40715 5.95785 10.2374 6.12859 10.9267C8.20288 11.7987 8.20076 12.8096 8.11688 14.873C8.31 14.8165 8.56652 14.7714 8.67938 14.6181C8.68233 13.7503 8.49396 12.4365 8.42938 11.54C8.26703 9.27057 7.97254 6.91296 7.83856 4.64841C7.0197 4.11175 6.28671 3.65691 5.26629 3.7236ZM21.7761 3.7236C20.9584 3.88023 20.3583 4.16786 19.6511 4.59274C19.3113 7.64356 19.1251 10.7534 18.8161 13.8105C18.7926 14.0427 18.8421 14.5108 18.9343 14.7295C19.0586 14.843 19.0012 14.8153 19.1852 14.8213C19.4519 14.672 19.4006 14.636 19.3903 14.33C19.3734 13.3289 19.2897 12.5257 20.0319 11.7216C20.4628 11.2544 20.8671 11.1449 21.3698 10.8476C21.441 10.1436 21.5733 9.44719 21.7634 8.76559C21.9884 7.94592 22.2946 7.14173 22.5221 6.32321C22.7714 5.42493 23.3048 3.64907 21.7761 3.7236ZM18.8669 4.57614C17.0914 3.64991 15.1678 3.17353 13.1569 3.3154C11.4876 3.44934 10.2045 3.76632 8.70477 4.5322L9.48016 14.4013C11.1724 13.9492 12.7969 13.7115 14.5573 13.8369C15.696 13.8968 16.9501 14.0824 18.0466 14.4033C18.2928 11.1656 18.5561 7.80503 18.8669 4.57614Z" fill="#BA9B31"/>
</svg>
