<svg width="31" height="31" viewBox="0 0 31 31" fill="none" xmlns="http://www.w3.org/2000/svg">
<path d="M18.6022 3.2494C18.8545 3.24561 19.1376 3.26957 19.3766 3.34999L19.697 3.47304C20.0238 3.61314 20.3668 3.79938 20.697 3.99062C20.9184 4.11887 21.1375 4.25213 21.3454 4.37831C21.5542 4.50507 21.7507 4.62426 21.9304 4.72792C22.1074 4.83009 22.2958 4.93246 22.4909 5.03847C22.6851 5.14399 22.8863 5.25344 23.0847 5.36659C23.4802 5.59224 23.8766 5.84075 24.2097 6.12733C24.5494 6.4197 24.8036 6.83945 24.944 7.2455C25.2573 8.15181 25.0642 8.80302 24.8132 9.32851C24.7524 9.45576 24.6872 9.57695 24.6286 9.68788C24.5689 9.80095 24.515 9.90458 24.4704 10.0043C24.3815 10.2031 24.3382 10.3685 24.3542 10.5326C24.3566 10.5569 24.3698 10.6033 24.4909 10.6596C24.6137 10.7165 24.7942 10.7561 25.0153 10.7846C25.2337 10.8126 25.4657 10.8272 25.6891 10.8441C25.8484 10.8562 26.0119 10.8695 26.1511 10.8939L26.2809 10.9232L26.4079 10.9623C26.7019 11.0653 26.9817 11.2419 27.2038 11.4203C27.7995 11.8992 28.1257 12.5541 28.2057 13.2973C28.2831 14.017 28.2293 14.8081 28.2292 15.4906C28.2292 15.6905 28.2346 15.9299 28.2399 16.1918C28.2452 16.4528 28.2506 16.7357 28.2507 17.016C28.2507 17.5697 28.2304 18.1427 28.1393 18.5463C28.0533 18.9268 27.8457 19.3009 27.611 19.5892C27.2136 20.0771 26.8061 20.3208 26.3542 20.4516C25.9239 20.5759 25.4435 20.5972 24.9479 20.6508C24.8335 20.6631 24.6951 20.6806 24.571 20.7152C24.4376 20.7525 24.3721 20.7961 24.3503 20.8256C24.3437 20.8346 24.3241 20.8769 24.3425 20.9926C24.3601 21.103 24.406 21.2397 24.4714 21.39C24.5358 21.5383 24.6141 21.688 24.6872 21.8266L24.8708 22.1898L24.9323 22.3441C24.9893 22.5005 25.033 22.6621 25.0612 22.8266L25.0934 23.0941C25.138 23.7195 24.9621 24.3447 24.5905 24.8568H24.5895C24.3245 25.2214 23.8641 25.5606 23.4059 25.848C22.9422 26.139 22.444 26.3989 22.0895 26.5932C21.8716 26.7126 21.6338 26.8573 21.3796 27.0121C21.127 27.1659 20.859 27.3297 20.5886 27.4828C20.0535 27.7856 19.4778 28.0655 18.946 28.1488L18.9264 28.1508C18.8447 28.1569 18.7632 28.1602 18.6843 28.1615H18.6833C17.7162 28.1736 16.9073 27.7703 16.3473 26.9721C16.2898 26.89 16.2144 26.7661 16.1393 26.6478C16.0606 26.5237 15.974 26.3927 15.8835 26.2748C15.7915 26.155 15.7036 26.0593 15.6237 25.9994C15.5417 25.9379 15.4997 25.9372 15.488 25.9389C15.4528 25.9443 15.3909 25.9718 15.3034 26.0512C15.2186 26.1281 15.1297 26.235 15.0388 26.3598C14.9485 26.4837 14.8625 26.6174 14.78 26.7455C14.7005 26.8688 14.6188 26.9938 14.5475 27.0873C14.1659 27.5935 13.6209 27.9477 13.0095 28.0922L12.7438 28.141C12.3167 28.1971 11.8815 28.1549 11.4733 28.017H11.4723V28.016C11.1845 27.9162 10.7207 27.662 10.2829 27.4086C9.8252 27.1436 9.40198 26.8837 9.1286 26.7279C8.5296 26.3866 7.56953 25.8702 7.00164 25.4721C6.0043 24.7721 5.61999 23.4052 6.07586 22.2758C6.12368 22.1575 6.19034 22.0248 6.25653 21.8949C6.32455 21.7614 6.39419 21.6269 6.45672 21.4926C6.51915 21.3584 6.5709 21.2321 6.60321 21.1185C6.63603 21.0029 6.64384 20.9165 6.63543 20.8568C6.63395 20.8466 6.62642 20.8099 6.52215 20.7621C6.41629 20.7136 6.26053 20.6784 6.06707 20.6537C5.87638 20.6293 5.67152 20.617 5.47332 20.6039C5.2837 20.5914 5.0878 20.5775 4.9411 20.5463C4.54306 20.4619 4.16809 20.2913 3.84247 20.0473V20.0482C3.27926 19.6265 2.90481 18.9982 2.80145 18.3021V18.3002C2.75352 17.9564 2.74761 17.4476 2.75067 16.9516C2.75381 16.4445 2.76571 15.9473 2.75946 15.5932C2.74602 14.8334 2.73665 13.8034 2.81219 13.0336C2.83203 12.833 2.92118 12.5987 3.01922 12.3978C3.11831 12.1949 3.24015 11.996 3.3493 11.8568C4.10524 10.8465 5.18328 10.8116 6.19696 10.7465L6.3786 10.723C6.52679 10.6917 6.58248 10.6414 6.60321 10.6117C6.63248 10.5691 6.65176 10.4834 6.60907 10.3148C6.56765 10.1516 6.48208 9.96324 6.38153 9.76405C6.28706 9.57695 6.17135 9.36686 6.10125 9.1996V9.19765C6.00639 8.96631 5.93893 8.72367 5.90008 8.47694L5.89911 8.47597C5.82926 8.017 5.92597 7.49731 6.12567 7.0414C6.32523 6.58618 6.64205 6.16242 7.04461 5.91542C8.42147 5.07087 9.85484 4.23545 11.2868 3.47792C11.5174 3.35623 11.8041 3.30261 12.0163 3.27089L12.0231 3.26991H12.0309C12.0972 3.26415 12.1649 3.25964 12.2321 3.25722H12.2331C13.2373 3.22277 14.0694 3.62713 14.6452 4.45937C14.6995 4.53788 14.775 4.66118 14.8503 4.7787C14.9295 4.90242 15.0173 5.03384 15.1091 5.15175C15.2025 5.27171 15.2917 5.36611 15.3708 5.42421C15.4489 5.48149 15.4833 5.47856 15.488 5.47792C15.5371 5.46766 15.6083 5.43164 15.6999 5.34511C15.7893 5.2606 15.8811 5.14562 15.9753 5.01308C16.0693 4.88072 16.1584 4.74012 16.2477 4.60292C16.334 4.47051 16.4243 4.33615 16.5104 4.2328C16.9721 3.67321 17.6398 3.32279 18.363 3.2621L18.6022 3.2494ZM12.2487 4.64101C12.0526 4.67896 11.8674 4.72965 11.7223 4.81093C10.4451 5.52838 9.17335 6.26966 7.90789 7.0121C7.85411 7.04365 7.77574 7.10866 7.69305 7.19179C7.61216 7.27314 7.54095 7.35851 7.49871 7.4203L7.49774 7.41933C7.33029 7.66684 7.25791 7.96581 7.28973 8.26015L7.31024 8.38515V8.38612C7.3471 8.5629 7.43063 8.76009 7.53778 8.98671C7.64056 9.20406 7.76711 9.4535 7.86493 9.70155C8.06329 10.2047 8.18097 10.7992 7.77606 11.3754C7.49809 11.7703 7.10863 11.9555 6.71161 12.0551C6.32956 12.1509 5.89233 12.176 5.53875 12.2211C5.16348 12.2689 4.85744 12.34 4.62957 12.5023C4.41625 12.6545 4.23913 12.9116 4.17645 13.4066C4.12497 13.8145 4.13112 14.2395 4.1452 14.681C4.15909 15.1165 4.1813 15.5744 4.15692 16.0199C4.16665 16.2747 4.15533 16.5632 4.14618 16.8451C4.13653 17.1422 4.13032 17.4401 4.15204 17.7221C4.19067 18.2228 4.31285 18.6203 4.60321 18.8695L4.73797 18.9672L4.73993 18.9682C4.939 19.091 5.19217 19.1549 5.49286 19.1967C5.64195 19.2174 5.79619 19.232 5.95672 19.2475C6.11502 19.2627 6.2799 19.2783 6.4411 19.3021C6.76128 19.3495 7.09542 19.4309 7.3786 19.6195C7.67106 19.8143 7.88962 20.1104 7.99969 20.5453C8.16672 21.2071 7.83833 21.8162 7.60125 22.307C7.34491 22.8378 7.17455 23.2578 7.35028 23.6996C7.50574 24.0897 7.91314 24.4251 8.44207 24.7435C8.70105 24.8995 8.97549 25.043 9.24383 25.185C9.50847 25.3249 9.77033 25.4647 9.9909 25.6059C10.217 25.7505 10.5962 25.9858 10.9763 26.2045C11.3632 26.4271 11.7297 26.6201 11.9401 26.6928H11.9421C12.1642 26.7718 12.4037 26.7902 12.6345 26.7455C12.8875 26.6917 13.1205 26.5646 13.3024 26.3803L13.3034 26.3793C13.4549 26.2274 13.6053 26.0112 13.7839 25.7582C13.9558 25.5146 14.1509 25.2416 14.3766 25.0189C14.6038 24.795 14.8813 24.6024 15.2233 24.5424C15.5702 24.4817 15.9455 24.5637 16.3532 24.8119C16.6345 24.9833 16.8425 25.2184 17.0163 25.4535C17.1031 25.571 17.1838 25.6928 17.2604 25.808C17.3381 25.9248 17.4116 26.0349 17.488 26.1391C17.641 26.3478 17.7944 26.5137 17.9802 26.6234C18.16 26.7295 18.3881 26.7925 18.7087 26.767C18.8985 26.7403 19.0662 26.7046 19.1989 26.6322C20.4164 25.9674 21.5691 25.261 22.7936 24.5766C22.9815 24.4715 23.1661 24.3409 23.3132 24.1947L23.447 24.0434C23.6471 23.7793 23.7345 23.4459 23.6882 23.1185V23.1166C23.663 22.9303 23.5841 22.7245 23.4753 22.4887C23.3725 22.2661 23.2338 22.0003 23.1306 21.7465C22.9172 21.222 22.7882 20.6031 23.2399 19.9926V19.9916C23.7276 19.3402 24.4735 19.2885 25.0749 19.2387C25.7184 19.1854 26.2121 19.1335 26.5348 18.6996L26.5876 18.6176C26.7061 18.4113 26.7872 18.0987 26.8278 17.7377C26.8731 17.3344 26.8644 16.9111 26.8288 16.601C26.793 16.2884 26.8034 15.9037 26.82 15.5101C26.8369 15.109 26.8605 14.6909 26.8561 14.2846C26.8517 13.878 26.8192 13.5003 26.7311 13.185C26.6432 12.8705 26.5058 12.6375 26.3063 12.4916C26.1103 12.3485 25.8541 12.2741 25.5446 12.2269C25.3913 12.2036 25.2318 12.1873 25.0651 12.1713C24.9005 12.1555 24.7274 12.1398 24.5593 12.1156C24.2257 12.0677 23.8757 11.9842 23.5837 11.7797C23.2815 11.568 23.0661 11.2442 22.9704 10.7689L22.9694 10.7601C22.8611 10.1017 23.1689 9.54007 23.3942 9.07948C23.6326 8.59217 23.7938 8.19802 23.6413 7.7455L23.6052 7.6537C23.5638 7.55905 23.5064 7.45604 23.4372 7.35976C23.344 7.23014 23.2404 7.12692 23.1472 7.06776C22.5993 6.72053 22.0333 6.39622 21.4606 6.07167C20.8894 5.74794 20.3103 5.4229 19.7458 5.07753C19.5333 4.94753 19.2894 4.81299 19.0759 4.7328L19.0739 4.73183C18.8693 4.6528 18.6475 4.62611 18.4294 4.65272L18.4284 4.65175C17.8627 4.72802 17.5648 5.1319 17.2155 5.64589C16.8876 6.12848 16.4982 6.74257 15.7253 6.84804C15.2113 6.91789 14.8203 6.77776 14.5056 6.5287C14.206 6.29157 13.9793 5.95675 13.7761 5.66249C13.5633 5.35442 13.3723 5.08307 13.1325 4.89296C12.9077 4.71484 12.636 4.60621 12.2487 4.64101ZM15.2868 9.94472C18.3321 9.83597 20.962 12.1333 21.2311 15.2035C21.4998 18.2739 19.3095 20.9931 16.2917 21.4154L15.9968 21.4496C12.8236 21.7303 10.0236 19.3833 9.74579 16.2094C9.46848 13.0359 11.8178 10.2385 14.9909 9.96327L15.2868 9.94472ZM20.07 15.1547C19.7641 12.6246 17.4648 10.822 14.9352 11.1283C12.4063 11.4345 10.6044 13.7327 10.9098 16.2621C11.2156 18.7917 13.5135 20.5949 16.0427 20.2894C18.5724 19.9839 20.3758 17.6848 20.07 15.1547Z" fill="black"/>
</svg>
