<svg width="24" height="24" viewBox="0 0 24 24" fill="none" xmlns="http://www.w3.org/2000/svg">
<path d="M11.8209 4.00369C12.1486 3.9853 12.4799 4.02771 12.6752 4.31366C12.9169 4.66756 13.11 5.10948 13.3016 5.49372L14.2803 7.46043C14.4714 7.84728 14.6688 8.23147 14.86 8.61757C15.1657 9.23475 15.8525 9.19879 16.4749 9.28804L19.0177 9.65069C19.3926 9.70343 19.7681 9.75401 20.1424 9.80997C20.4539 9.85657 20.7418 9.98475 20.8914 10.2764C21.2582 10.9915 20.6152 11.4304 20.1602 11.8699L18.5038 13.469C18.1392 13.8196 17.2893 14.5399 17.1068 14.978C17.0159 15.1963 17.2365 16.2431 17.2916 16.5564L17.72 18.9988C17.7806 19.3459 17.95 20.0729 17.8557 20.3994C17.7328 20.8247 17.1671 21.1217 16.7361 20.951C16.4298 20.8296 16.0983 20.6392 15.7894 20.4787L13.5394 19.3062C13.174 19.1155 12.5307 18.7561 12.168 18.6375C11.7036 18.5746 11.1552 18.9419 10.7475 19.1544L8.50439 20.3254C8.11175 20.531 7.68897 20.8041 7.26669 20.9385C7.05021 21.0074 6.81899 21.0266 6.61167 20.9205C6.38701 20.8056 6.17698 20.5964 6.12405 20.3446C6.04081 19.9486 6.64659 16.8933 6.76529 16.214C6.82895 15.8496 6.96018 15.3992 6.90098 15.0296C6.87491 14.867 6.76491 14.726 6.66048 14.6023C6.39569 14.2887 6.05811 14.0085 5.76069 13.7241L4.0495 12.0843C3.7839 11.8303 3.10887 11.256 3.03616 10.9416C2.76778 9.78127 4.0587 9.77793 4.75314 9.68281L7.2515 9.32494C7.68561 9.26305 8.16786 9.21569 8.58753 9.11215C8.75519 9.07076 8.93058 8.9259 9.02322 8.78488C9.27054 8.40842 9.48195 7.92787 9.68542 7.52289C10.1802 6.53802 10.662 5.54785 11.1592 4.56454C11.3204 4.24573 11.482 4.10471 11.8209 4.00369Z" fill="#BA9B31"/>
</svg>
