<svg width="26" height="26" viewBox="0 0 26 26" fill="none" xmlns="http://www.w3.org/2000/svg">
<path d="M13.1616 1.08533C15.1349 1.05135 17.0411 1.80487 18.4575 3.17908C20.0018 4.66763 20.8919 6.70852 20.9331 8.85291C20.9629 11.5478 19.4338 14.2029 18.1723 16.515C17.0491 18.5632 15.8886 20.5906 14.6929 22.597L14.0737 23.6371C13.8894 23.9529 13.5316 24.6137 13.3032 24.847C13.1797 24.9429 13.0257 24.9408 12.9292 24.8217C12.1658 23.8784 11.6225 22.6111 11.0337 21.5726C10.0454 19.8299 9.0455 18.1506 8.07762 16.4027C7.42782 15.2292 6.79833 14.0482 6.27977 12.8129C5.79715 11.6462 5.48951 10.3766 5.42528 9.11365C5.32674 7.15102 6.01757 5.23035 7.34325 3.77967C8.78735 2.15754 10.8258 1.18724 12.9956 1.09021C13.0508 1.08767 13.1062 1.08609 13.1616 1.08533ZM12.9829 4.47595C12.9537 4.47689 12.9242 4.47834 12.895 4.48084C11.6778 4.59317 10.6194 5.10437 9.83446 6.0531C9.15781 6.88073 8.84031 7.94496 8.95165 9.00818C9.07551 10.2256 9.67403 11.3452 10.6177 12.1244C11.3845 12.7613 12.3555 13.0999 13.352 13.0785C14.4434 13.0564 15.4923 12.5625 16.2407 11.7738C18.4917 9.40118 16.8546 4.87783 13.603 4.49939C13.3912 4.47477 13.195 4.46933 12.9829 4.47595Z" fill="white"/>
</svg>
