<svg width="31" height="31" viewBox="0 0 31 31" fill="none" xmlns="http://www.w3.org/2000/svg">
<path d="M12.3682 1.29199C12.4498 1.34201 12.9651 1.48722 13.0938 1.52539L14.9814 2.08203C15.1689 2.13773 15.6393 2.26218 15.793 2.32422C16.0315 2.23112 16.4516 2.12397 16.7129 2.04688L18.5078 1.5166C18.6049 1.48797 19.1525 1.3352 19.2129 1.29199H19.2871C19.7395 1.91441 20.2294 2.51626 20.6992 3.12598C20.8823 3.36355 21.313 3.98362 21.5205 4.15332C21.6105 4.22586 24.6025 5.31846 24.9131 5.37305C25.0057 6.50534 24.9991 7.8564 25.043 8.97168C25.046 9.04707 26.8852 11.779 27.0537 11.9883V1.29199H27.0547V12.1084C26.8063 12.4218 26.5085 12.904 26.2734 13.249C25.8658 13.8476 25.41 14.4801 25.0293 15.0918C25.0333 15.5341 25.0284 15.9768 25.0146 16.4189C24.9864 17.1514 24.9301 17.9576 24.9307 18.6855C24.0239 19.028 23.1067 19.3381 22.1973 19.6729C22.1432 19.6928 22.0985 19.7089 22.042 19.7207C22.375 20.3574 22.6977 21.0939 23.001 21.749L24.667 25.2891C24.9265 25.8357 25.216 26.4986 25.4893 27.0244C25.2215 26.9076 24.7243 26.7623 24.4238 26.6602L22.3232 25.9414C22.0093 25.8349 21.5592 25.6993 21.2686 25.5605C21.1237 25.8781 20.9926 26.2446 20.8652 26.5742C20.6101 27.2281 20.3599 27.8851 20.1152 28.543C20.0592 28.69 19.6918 29.6184 19.6758 29.707H19.6074C19.6023 29.685 19.5962 29.6632 19.5898 29.6416C19.5578 29.534 19.346 29.1079 19.2832 28.9746L18.6904 27.7002L16.4824 23.0088C16.3951 22.8198 16.0143 21.8738 15.8672 21.8027C15.812 21.776 15.7581 21.7818 15.7021 21.8008C15.5802 21.8915 15.1091 22.993 15.0068 23.21L13.2617 26.9102L12.4297 28.6865C12.3279 28.9019 12.0228 29.5138 11.9707 29.707L11.9697 29.708L11.8965 29.707L11.8301 29.5C11.5353 28.6743 10.371 25.6861 10.3057 25.5732C9.8889 25.7357 9.42878 25.8842 9.00293 26.0293L7.10352 26.6777C6.79524 26.7825 6.38651 26.899 6.09863 27.0146L8.49414 21.9248L9.18457 20.4346C9.27949 20.2333 9.42629 19.9013 9.53906 19.7217C9.33614 19.6687 8.92829 19.5072 8.71191 19.4287L7.58496 19.0283C7.29272 18.9223 6.95167 18.7885 6.6582 18.6973C6.58959 17.4934 6.55283 16.2878 6.54688 15.082C6.20597 14.5154 5.69802 13.8482 5.32715 13.2871C5.14971 13.0186 4.70962 12.3352 4.51953 12.1094V11.9893C5.18644 11.0517 5.91118 9.96554 6.5459 9.00488C6.55562 7.79763 6.5931 6.5903 6.6582 5.38477C7.4359 5.1353 8.23301 4.82387 9.00684 4.55469C9.15468 4.50326 9.97802 4.21994 10.0498 4.15625C10.2294 3.99118 10.6439 3.43113 10.8105 3.21484L12.2949 1.29199H12.3682ZM15.5996 3.96777C11.178 4.08338 7.68765 7.7629 7.80566 12.1846C7.92391 16.6063 11.6058 20.0943 16.0273 19.9736C20.4451 19.8528 23.9294 16.1747 23.8115 11.7568C23.6931 7.33895 20.0175 3.85239 15.5996 3.96777ZM15.5205 5.11523C19.3056 4.95651 22.503 7.89561 22.6641 11.6807C22.8249 15.466 19.8877 18.6653 16.1025 18.8281C12.3149 18.9908 9.11323 16.0516 8.95215 12.2637C8.79139 8.47567 11.7325 5.27422 15.5205 5.11523ZM15.7529 7.86133C15.4663 8.18324 14.9867 10.2622 14.6768 10.8818C13.9896 10.8871 13.3024 10.8884 12.6152 10.8857C12.3181 10.8856 12.0166 10.8781 11.7217 10.8877C11.6092 10.8995 11.4723 10.9466 11.4717 11.0811C11.4716 11.1485 11.5454 11.2222 11.5957 11.2598C12.1616 11.6815 12.7422 12.0893 13.3096 12.5098C13.4997 12.6507 13.8396 12.8598 13.9814 13.0332C13.7934 13.816 13.4872 14.5733 13.2607 15.3457C13.2111 15.5152 12.9903 15.9338 13.1123 16.0684C13.2802 16.2515 13.5259 16.0024 13.6719 15.9072C14.274 15.4491 14.9059 15.0199 15.5088 14.5615C15.5996 14.4924 15.7819 14.3517 15.8965 14.3984C16.182 14.5706 16.4473 14.7898 16.7158 14.9873C17.0084 15.2025 17.3103 15.4048 17.6016 15.6221C17.8015 15.7713 18.0095 15.9621 18.2275 16.082C18.2966 16.12 18.382 16.1556 18.4619 16.1357C18.5079 16.1243 18.5434 16.0874 18.5635 16.0459C18.5817 16.0084 18.5882 15.971 18.583 15.9297C18.5575 15.7263 18.45 15.4912 18.3838 15.2949C18.2902 15.0174 17.642 13.1889 17.6982 13.0342C17.7199 12.9763 17.7863 12.9192 17.832 12.8809C18.0549 12.6936 18.31 12.5317 18.5469 12.3613C18.8677 12.1305 19.1822 11.8905 19.5039 11.6611C19.7057 11.5172 19.998 11.3626 20.1494 11.167C20.1841 11.1222 20.1978 11.0702 20.1768 11.0156C20.1563 10.9631 20.1024 10.9324 20.0518 10.9141C19.8471 10.8402 19.3931 10.8856 19.1572 10.8857H17.8018C17.5438 10.8856 17.2265 10.8932 16.9727 10.877C16.8586 10.6559 16.7589 10.3146 16.6787 10.0684L16.2129 8.6084C16.1545 8.42842 16.053 7.98334 15.8838 7.86914C15.871 7.86051 15.7767 7.86108 15.7529 7.86133Z" fill="#BA9B31"/>
</svg>
