<svg width="28" height="28" viewBox="0 0 28 28" fill="none" xmlns="http://www.w3.org/2000/svg">
<path d="M17.3947 2.5007C17.408 2.50046 17.4213 2.50022 17.4347 2.5C17.9267 2.50494 18.3972 2.70317 18.7444 3.05195C19.0837 3.3876 19.2914 3.85927 19.3023 4.33904C19.3081 4.59028 19.1251 4.77047 18.8694 4.75142C18.7368 4.74152 18.652 4.63966 18.575 4.54106C18.5439 4.34593 18.5521 4.22605 18.4878 4.02549C18.3996 3.74166 18.1994 3.50597 17.9338 3.37269C17.4946 3.15136 17.1637 3.2808 16.7217 3.3853C16.513 3.43457 16.3035 3.48632 16.0951 3.53658L13.7092 4.1129L10.7205 4.83184C10.2639 4.94154 9.51807 5.09852 9.0834 5.24072L15.2556 5.24202L16.9273 5.24075C17.4934 5.24033 18.0463 5.21253 18.6014 5.3345C19.3021 5.48951 19.9442 5.84026 20.4534 6.34597C21.2621 7.14476 21.5787 8.0866 21.5817 9.20164L21.5819 18.9832L21.5825 21.4774C21.5845 23.1525 21.6779 24.1604 20.3876 25.4578C19.1147 26.6134 18.1039 26.4979 16.5275 26.4959L13.5244 26.4957L8.42461 26.4963L6.78438 26.4975C6.48058 26.4979 6.17694 26.4999 5.87314 26.494C5.68016 26.49 5.51333 26.3506 5.50636 26.1519C5.49684 25.8811 5.50081 25.6077 5.50089 25.3365L5.5009 23.7837L5.50096 18.7164L5.50114 10.051L5.50051 7.15694C5.50049 6.65579 5.49921 6.15296 5.50248 5.6517C5.49662 5.56724 5.52474 5.42896 5.59586 5.36913C5.7878 5.20767 6.29734 5.1291 6.53906 5.07091L7.99251 4.72137L12.5053 3.63456L15.5734 2.89485C16.0461 2.78023 16.9536 2.53022 17.3947 2.5007Z" fill="#BA9B31"/>
<path d="M6.24102 5.98998L14.5332 5.98858L16.8277 5.98785C17.2522 5.98779 17.9483 5.96899 18.3421 6.04107C18.9379 6.15617 19.4862 6.44404 19.9193 6.86882C20.6522 7.59132 20.834 8.34891 20.8362 9.33298L20.8348 18.9161L20.835 21.6526C20.835 22.0473 20.8549 22.8327 20.7937 23.1915C20.6898 23.8169 20.3935 24.3941 19.9459 24.8431C19.5087 25.2862 18.9464 25.585 18.3346 25.6993C17.9511 25.7706 17.2345 25.7507 16.8146 25.7507L14.5607 25.7501L6.29433 25.7493L6.24079 25.7489C6.22 25.6426 6.22826 25.046 6.22838 24.9009L6.22995 23.0549L6.23041 15.8934C6.19372 15.8596 6.1573 15.8255 6.1212 15.7911C5.66737 15.357 5.83066 14.9357 6.22926 14.5538C6.24041 14.3555 6.22982 14.0501 6.22972 13.8391L6.22934 12.4356L6.23049 8.1067L6.22735 6.73112C6.22671 6.54662 6.2158 6.15536 6.24102 5.98998Z" fill="white"/>
<path d="M6.22926 14.5538C6.24041 14.3555 6.22982 14.0501 6.22972 13.8392L6.22934 12.4356L6.23049 8.10671L6.22735 6.73113C6.22671 6.54664 6.2158 6.15537 6.24102 5.98999C6.27792 6.47364 6.25064 7.32597 6.2505 7.83297L6.25012 11.4149L6.25032 13.8612C6.25086 14.161 6.27133 14.8774 6.23706 15.1372L6.23692 15.314C6.28409 15.8871 6.25064 16.8872 6.25052 17.4974L6.25014 21.7034L6.2505 24.4539C6.25084 24.7103 6.26974 25.5478 6.24079 25.7489C6.22 25.6426 6.22826 25.046 6.22838 24.9009L6.22995 23.055L6.23041 15.8934C6.19372 15.8596 6.1573 15.8255 6.1212 15.7911C5.66737 15.357 5.83066 14.9357 6.22926 14.5538Z" fill="#BA9B31"/>
<path d="M6.22415 15.8175C6.20278 15.797 6.18168 15.7763 6.16089 15.7554C5.78535 15.3759 5.87963 14.9681 6.23117 14.6233L6.22582 14.996L6.23751 15.1372L6.23737 15.314L6.22427 15.4593C6.23078 15.5898 6.22867 15.6869 6.22415 15.8175Z" fill="#BA9B31"/>
<path d="M6.22465 15.4594C6.07293 15.3621 6.10809 15.153 6.17099 15.007L6.2262 14.9961L6.23789 15.1373L6.23775 15.3141L6.22465 15.4594Z" fill="#BA9B31"/>
<path d="M8.70085 14.6231C8.6121 14.1152 8.5903 13.6433 8.65314 13.1283C8.81115 11.8163 9.48866 10.6224 10.534 9.81388C11.5645 9.01054 12.8734 8.6526 14.1693 8.81979C15.4715 8.99262 16.6514 9.67655 17.4488 10.7207C18.3167 11.8576 18.5901 13.1244 18.401 14.5207L18.3864 14.5934C18.3185 14.9466 18.1853 15.4114 18.029 15.7295L17.9888 15.8219C17.4317 17.003 16.4304 17.9157 15.2031 18.3615C13.9849 18.803 12.6414 18.7418 11.4684 18.1915C10.5263 17.7465 9.61356 16.9184 9.16622 15.9689C9.15838 15.9581 9.11812 15.8781 9.1093 15.8611L9.02483 15.6754C8.99955 15.6355 8.98065 15.5746 8.96335 15.5284L8.95714 15.5101C8.90832 15.4157 8.89607 15.3693 8.86557 15.2686L8.80609 15.0737L8.77348 14.9442L8.72832 14.7776C8.72129 14.728 8.70989 14.6729 8.70085 14.6231Z" fill="#BA9B31"/>
<path d="M13.9149 14.0871C14.5212 14.0841 15.1273 14.0851 15.7336 14.0901C15.7167 14.2275 15.6987 14.3649 15.6802 14.5019L15.6597 14.6197L15.6187 14.8017L15.6014 14.8879C15.543 15.0773 15.4855 15.2726 15.4216 15.4598L15.3987 15.5123L15.2991 15.7465L15.2778 15.7909C14.9403 16.4941 14.5507 17.0542 13.9422 17.5578C13.8805 17.4132 13.9364 14.4889 13.9149 14.0871Z" fill="white"/>
<path d="M9.37891 14.0943C9.72472 14.077 10.2589 14.0764 10.6049 14.0939C10.611 14.2291 10.6326 14.3771 10.6495 14.5124L10.6622 14.577L10.7041 14.8065C10.7692 15.1195 10.8418 15.3843 10.9619 15.6826C11.2332 16.4237 11.6489 17.1036 12.1849 17.6831C12.0018 17.61 11.8364 17.5417 11.6593 17.4521C10.6577 16.9432 9.90152 16.0545 9.5596 14.9843L9.53381 14.8999L9.48441 14.7362L9.45106 14.5811C9.41875 14.4103 9.39951 14.2673 9.37891 14.0943Z" fill="white"/>
<path d="M16.9577 14.0842L17.1101 14.0876L17.2142 14.091L17.3273 14.0864C17.4521 14.0866 17.5802 14.0834 17.704 14.095C17.6897 14.2174 17.6775 14.3447 17.6534 14.4651L17.6321 14.5987L17.5692 14.8355C17.524 14.9764 17.4776 15.1172 17.4302 15.2574C17.3761 15.3764 17.2978 15.5634 17.2383 15.6735L17.1961 15.7547C16.627 16.6374 15.9477 17.3394 14.9121 17.6664C15.3963 17.1833 15.8634 16.3678 16.1046 15.734C16.1532 15.6442 16.2185 15.4374 16.242 15.3362C16.3501 15.0244 16.4084 14.6573 16.4594 14.3323C16.4679 14.2503 16.4699 14.1882 16.4717 14.1055C16.5725 14.085 16.8415 14.0874 16.9577 14.0842Z" fill="white"/>
<path d="M14.9062 9.75586C16.5363 10.3987 17.4885 11.6065 17.7049 13.3485C17.4849 13.3299 17.1078 13.3441 16.8744 13.346C16.8107 13.3399 16.7331 13.3439 16.668 13.3448C16.6029 13.3459 16.5716 13.3506 16.5087 13.3307C16.4563 13.2648 16.4673 13.1771 16.4573 13.0769C16.2271 11.709 15.8168 10.8019 14.9062 9.75586Z" fill="white"/>
<path d="M16.668 13.3447C16.7331 13.3437 16.8108 13.3398 16.8745 13.3458C17.2665 13.4115 17.2956 13.7671 17.2126 14.0909L17.1084 14.0875L16.9561 14.0841C16.8398 14.0873 16.5708 14.0849 16.4701 14.1054C16.3759 14.0668 16.2994 13.9279 16.2915 13.8275C16.2756 13.6268 16.3393 13.5248 16.4522 13.3728L16.668 13.3447Z" fill="#BA9B31"/>
<path d="M16.9572 14.084C17.0177 13.8998 17.0066 13.6544 16.7874 13.5902C16.6197 13.604 16.4995 13.7633 16.6048 13.9204C16.7097 13.9583 16.7645 13.8633 16.8397 13.7915L16.8907 13.8348C16.8646 13.9198 16.8632 13.9542 16.8009 14.0118C16.7271 14.0454 16.6761 14.0498 16.5964 14.0171C16.523 13.9864 16.4654 13.927 16.437 13.8526C16.3466 13.6112 16.6819 13.2841 16.9317 13.4596C17.1404 13.6062 17.2067 13.8608 17.1095 14.0874L16.9572 14.084Z" fill="#BA9B31"/>
<path d="M8.70117 14.6231C8.96172 14.4662 9.17232 14.5092 9.45201 14.5813L9.48536 14.7364L9.53476 14.9001L9.56054 14.9845C9.3857 15.1727 9.2306 15.415 8.99404 15.4325C8.95446 15.4757 8.96935 15.4516 8.95746 15.5102C8.90864 15.4158 8.8964 15.3694 8.86589 15.2686L8.80642 15.0737L8.77381 14.9443L8.72865 14.7776C8.72162 14.7281 8.71021 14.6729 8.70117 14.6231Z" fill="#BA9B31"/>
<path d="M8.77344 14.9442C8.87245 14.8632 9.16813 14.724 9.24823 14.8596C9.19166 15.0171 8.95045 15.0965 8.99351 15.2863C9.05026 15.3418 9.01812 15.3285 9.08787 15.3378C9.14272 15.3074 9.45769 14.9741 9.53439 14.9L9.56017 14.9844C9.38534 15.1726 9.23023 15.4149 8.99367 15.4324C8.95409 15.4756 8.96898 15.4515 8.95709 15.5101C8.90827 15.4157 8.89603 15.3693 8.86553 15.2685L8.80605 15.0736L8.77344 14.9442Z" fill="#BA9B31"/>
<path d="M9.1856 14.8555C9.08786 14.9582 8.941 15.1187 8.88537 15.2435C8.87896 15.2521 8.87255 15.2605 8.86611 15.2688L8.80664 15.0739C8.84565 15.0251 8.89176 14.9638 8.93184 14.9178L9.1856 14.8555Z" fill="#BA9B31"/>
<path d="M8.70117 14.6231C8.96172 14.4662 9.17232 14.5092 9.45201 14.5813L9.48536 14.7364C9.27635 14.6367 8.86016 14.4545 8.72865 14.7776C8.72162 14.7281 8.71021 14.6729 8.70117 14.6231Z" fill="#BA9B31"/>
<path d="M15.4211 15.4595C15.8621 15.782 15.7544 15.2823 15.9517 15.1294C16.1546 15.0836 16.1472 15.2821 16.24 15.336C16.2165 15.4372 16.1512 15.6441 16.1026 15.7339L16.0626 15.7281L16.0443 15.7434C15.9501 15.8223 15.8733 15.8748 15.7616 15.9262C15.5862 15.9182 15.4008 15.9342 15.2773 15.7906L15.2986 15.7462L15.3982 15.512L15.4211 15.4595Z" fill="#BA9B31"/>
<path d="M15.4211 15.4595C15.8621 15.782 15.7544 15.2823 15.9517 15.1294C16.1546 15.0836 16.1472 15.2821 16.24 15.336C16.2165 15.4372 16.1512 15.6441 16.1026 15.7339L16.0626 15.7281L16.0443 15.7434C15.9501 15.8223 15.8733 15.8748 15.7616 15.9262C15.5862 15.9182 15.4008 15.9342 15.2773 15.7906L15.2986 15.7462C15.5153 15.8746 15.5179 15.8583 15.7771 15.8577C15.9611 15.7522 16.2597 15.3711 16.0359 15.1986C15.8946 15.1975 15.8665 15.5576 15.708 15.6295C15.5945 15.6811 15.453 15.612 15.3982 15.512L15.4211 15.4595Z" fill="#BA9B31"/>
<path d="M17.6313 14.5987C18.0685 14.5981 18.0504 14.8372 18.3871 14.5935C18.3192 14.9467 18.186 15.4114 18.0297 15.7296L17.9895 15.822C17.9461 15.7005 17.9499 15.198 17.9401 15.0288C17.9088 14.985 17.8776 14.9519 17.8417 14.9123C17.7683 14.8752 17.7382 14.8914 17.6516 14.9079L17.6082 14.9234L17.595 14.9121L17.6777 14.8185L17.5684 14.8354L17.6313 14.5987Z" fill="#BA9B31"/>
<path d="M17.6783 14.8186C17.8557 14.8064 17.8635 14.817 18.0005 14.936C18.0397 15.1216 18.0202 15.7078 18.0304 15.7297L17.9901 15.8221C17.9467 15.7006 17.9505 15.1981 17.9408 15.0288C17.9095 14.985 17.8782 14.952 17.8424 14.9124C17.7689 14.8753 17.7389 14.8915 17.6522 14.908L17.6088 14.9235L17.5957 14.9122L17.6783 14.8186Z" fill="#BA9B31"/>
<path d="M8.96484 15.5283C9.14424 15.5691 9.5809 15.5204 9.68781 15.6131C9.7294 15.6994 9.75076 15.7252 9.74987 15.8174C9.6363 16.0432 9.24101 15.8877 9.16772 15.9687C9.15987 15.958 9.11961 15.878 9.11079 15.861L9.02633 15.6753C9.00104 15.6354 8.98215 15.5745 8.96484 15.5283Z" fill="#BA9B31"/>
<path d="M9.02539 15.6755C9.14999 15.6268 9.58311 15.5991 9.66291 15.7576C9.65405 15.8348 9.6714 15.8068 9.62128 15.8512C9.44583 15.893 9.27619 15.839 9.10985 15.8613L9.02539 15.6755Z" fill="#BA9B31"/>
<path d="M16.4572 13.0767C16.4672 13.1768 16.4562 13.2645 16.5086 13.3305C16.5715 13.3503 16.6028 13.3457 16.6679 13.3446L16.452 13.3727C16.3391 13.5248 16.2754 13.6267 16.2914 13.8274C16.2993 13.9279 16.3758 14.0667 16.47 14.1054C16.4682 14.188 16.4662 14.2501 16.4576 14.3322C16.0775 14.2234 16.0028 13.606 16.2364 13.3355C16.3481 13.206 16.4248 13.2779 16.4572 13.0767Z" fill="#BA9B31"/>
<path d="M17.5684 14.8353L17.6778 14.8184L17.5951 14.9119L17.6083 14.9233L17.6517 14.9078C17.523 15.1142 17.576 15.6218 17.5392 15.9105C17.3387 15.9292 17.2724 15.9686 17.1953 15.7546L17.2375 15.6733C17.2971 15.5632 17.3753 15.3763 17.4295 15.2572C17.4769 15.117 17.5232 14.9763 17.5684 14.8353Z" fill="#BA9B31"/>
<path d="M17.4283 15.2573C17.494 15.3632 17.4926 15.7939 17.3763 15.8803C17.2471 15.8459 17.3401 15.7804 17.2363 15.6735C17.2959 15.5634 17.3741 15.3764 17.4283 15.2573Z" fill="#BA9B31"/>
<path d="M10.6504 14.5127C11.285 14.6093 11.2734 15.2809 11.2324 15.7784C11.2279 15.8332 11.1975 15.8853 11.1598 15.9234L11.1122 15.9367L11.0941 15.9162C11.2283 15.7306 11.1509 15.5375 11.1611 15.3153C11.1803 14.896 11.0345 14.7343 10.6631 14.5772L10.6504 14.5127Z" fill="#BA9B31"/>
<path d="M17.7055 13.3483C17.6228 13.3734 17.376 13.3636 17.2678 13.3681C17.3977 13.7011 17.3813 13.7359 17.3262 14.0863L17.2131 14.0909C17.2961 13.7671 17.267 13.4114 16.875 13.3458C17.1084 13.3439 17.4855 13.3298 17.7055 13.3483Z" fill="#BA9B31"/>
<path d="M10.7051 14.8066C10.9882 14.9625 11.0553 15.4068 10.9629 15.6827C10.8428 15.3845 10.7701 15.1196 10.7051 14.8066Z" fill="#BA9B31"/>
<path d="M13.9148 14.0869C13.9363 14.4887 13.8804 17.413 13.9421 17.5576L13.9184 17.5637C13.8881 17.5187 13.8997 15.7935 13.9027 15.6131C13.8007 15.639 13.7123 15.6376 13.6508 15.7234C13.6753 15.8425 13.8286 15.8237 13.86 15.906C13.789 15.9315 13.7235 15.9103 13.6663 15.8679C13.5246 15.5794 13.8784 15.5731 13.8814 15.5547C13.9524 15.1063 13.8441 14.5355 13.9148 14.0869Z" fill="#BA9B31"/>
<path d="M15.6602 14.6195C15.7928 14.6008 16.0534 14.5351 16.0954 14.7051C16.0221 14.8634 15.7525 14.8522 15.6191 14.8015L15.6602 14.6195Z" fill="#BA9B31"/>
<path d="M15.6599 14.6196L15.6804 14.5017C15.7794 14.5324 16.1133 14.5023 16.1378 14.5664C16.3074 15.007 15.8317 14.8726 15.6016 14.8878L15.6189 14.8016C15.7523 14.8523 16.0219 14.8635 16.0952 14.7052C16.0531 14.5352 15.7925 14.6009 15.6599 14.6196Z" fill="#BA9B31"/>
<path d="M17.6522 14.4651L17.6804 14.5057C17.8435 14.5274 17.9962 14.5246 18.1127 14.6347C18.2186 14.6234 18.2348 14.5441 18.4012 14.5208L18.3867 14.5935C18.05 14.8372 18.0681 14.5981 17.6309 14.5987L17.6522 14.4651Z" fill="#BA9B31"/>
<path d="M11.3574 14.0907C11.9258 14.0698 12.6005 14.0813 13.1734 14.0893C13.2238 14.4252 13.13 15.6921 13.1983 15.8851C13.2543 15.9026 13.2242 15.9 13.2931 15.8677C13.4154 15.6752 13.2515 14.8863 13.2214 14.65C13.4474 14.9927 13.4128 15.37 13.3835 15.7678C13.3738 15.9002 13.3074 15.9241 13.1993 15.9768C13.1312 16.2321 13.2304 17.4576 13.1711 17.5675L13.1404 17.5574C12.544 17.0626 12.2378 16.6088 11.8732 15.9442C11.7383 15.9553 11.7194 15.9416 11.5907 15.9044C11.5741 15.7292 11.5552 15.445 11.5967 15.2774C11.4695 14.9114 11.3879 14.4736 11.3574 14.0907Z" fill="white"/>
<path d="M13.1737 14.0896C13.2241 14.4255 13.1303 15.6924 13.1986 15.8854C13.2545 15.9029 13.2244 15.9003 13.2933 15.868C13.4156 15.6755 13.2517 14.8866 13.2217 14.6503C13.4477 14.993 13.413 15.3703 13.3837 15.7681C13.374 15.9005 13.3077 15.9244 13.1996 15.9771C13.1315 16.2324 13.2306 17.4579 13.1713 17.5678L13.1406 17.5577C13.229 17.3705 13.1147 14.6182 13.1737 14.0896Z" fill="#BA9B31"/>
<path d="M11.5973 15.2776C11.6441 15.403 11.6932 15.5277 11.7446 15.6515L11.8233 15.8369L11.8738 15.9444C11.7389 15.9556 11.7201 15.9418 11.5913 15.9046C11.5747 15.7294 11.5558 15.4452 11.5973 15.2776Z" fill="#BA9B31"/>
<path d="M11.7459 15.6516L11.8245 15.837C11.784 15.875 11.8088 15.8605 11.7329 15.8587C11.6754 15.8135 11.6966 15.842 11.6738 15.7661C11.6938 15.6884 11.6842 15.7147 11.7459 15.6516Z" fill="#BA9B31"/>
<path d="M13.1588 9.86182C13.1769 9.95315 13.1684 10.7039 13.1682 10.8523L13.1666 13.3427L11.3594 13.3431C11.3587 13.3197 11.3659 13.2313 11.3689 13.2054C11.5215 11.8983 12.156 10.6986 13.1588 9.86182Z" fill="white"/>
<path d="M13.9197 9.86646C13.9462 9.884 13.9739 9.90164 13.9977 9.92238C15.0423 10.8271 15.5761 12.0055 15.7334 13.342C15.1325 13.3496 14.521 13.3434 13.9195 13.3427C13.8994 12.2049 13.9177 11.0093 13.9197 9.86646Z" fill="white"/>
<path d="M12.1118 9.77905L12.1323 9.78562C12.1304 9.79253 11.7356 10.299 11.6849 10.3706C11.0647 11.2465 10.6923 12.2734 10.6067 13.3432L9.4197 13.3435L9.39616 13.3332C9.3334 13.1514 9.60081 12.3077 9.68547 12.1123C10.1852 10.9586 10.9691 10.2451 12.1118 9.77905Z" fill="white"/>
<path d="M9.55823 21.69C10.0855 21.6604 10.7835 21.6799 11.3205 21.6801L14.4436 21.6793L16.4737 21.6791C16.6154 21.6791 17.4682 21.6588 17.5787 21.7087C17.8836 21.8465 17.9168 22.2439 17.5244 22.4207C16.9802 22.4389 16.3552 22.4245 15.8061 22.4245L12.5574 22.4247C11.8289 22.4251 10.3116 22.4442 9.52257 22.404C9.3267 22.3941 9.0649 21.8873 9.55823 21.69Z" fill="#BA9B31"/>
<path d="M21.1367 15.5437C21.2647 15.6498 21.2415 15.7703 21.1736 15.9013L21.1612 15.9065C21.1325 15.7685 21.2367 15.7448 21.1367 15.5437Z" fill="#BA9B31"/>
</svg>
