<svg width="28" height="28" viewBox="0 0 28 28" fill="none" xmlns="http://www.w3.org/2000/svg">
<path d="M14.0242 4.33592C14.4277 4.29897 14.96 4.52998 15.2303 4.82713C15.7068 5.3511 15.7225 5.8324 15.6981 6.49217C16.528 6.68861 17.5341 7.3373 18.1365 7.93455C19.0717 8.8651 19.6573 10.0907 19.7947 11.4043C19.8556 12.0144 19.8313 12.8854 19.8309 13.5176L19.8338 16.6611C20.4231 17.5074 20.9885 18.485 21.577 19.3486C22.0029 19.9936 22.4175 20.6342 22.8104 21.2988C23.1627 21.9122 22.6843 22.7199 22.0086 22.8076C21.7768 22.8377 21.5557 22.8477 21.3152 22.8398C19.6398 22.7849 17.9179 22.8941 16.2469 22.8174C16.1781 24.0278 15.4567 24.7973 14.2733 24.9931C13.6881 25.0392 13.1087 24.8494 12.6629 24.4668C12.1626 24.034 11.9518 23.4704 11.9022 22.8242C10.8608 22.8703 9.69596 22.814 8.63751 22.8349C7.8573 22.8404 7.09147 22.8344 6.31036 22.8183C5.51542 22.8018 4.99643 22.0196 5.34454 21.3017C5.59531 20.7848 5.99397 20.2675 6.30939 19.7783C6.97639 18.7291 7.65225 17.6849 8.33575 16.6465C8.29873 16.0237 8.31702 14.9277 8.32696 14.289C8.35406 12.5518 8.11841 10.9564 8.96857 9.3701C9.7488 7.91455 10.9009 6.98493 12.4568 6.48924C12.4232 5.33044 12.7235 4.49866 14.0242 4.33592ZM12.9803 22.831C13.1787 23.8329 14.0138 24.2668 14.8445 23.5967C15.0686 23.3115 15.102 23.1877 15.1961 22.8428C14.4576 22.8297 13.7189 22.8257 12.9803 22.831ZM14.6395 7.37596C14.3983 7.34732 13.824 7.3288 13.5916 7.37205C12.3167 7.52738 11.2027 8.10803 10.408 9.12889C9.34455 10.495 9.39366 11.6572 9.39435 13.2666L9.3963 15.5635C9.39657 15.81 9.4337 16.7576 9.3631 16.9238C9.08198 17.5785 8.46104 18.4421 8.06329 19.0537L6.32013 21.748L14.6434 21.7441C17.031 21.7439 19.4701 21.7709 21.8533 21.7412C21.4795 21.2656 18.8742 17.2492 18.7918 16.9277C18.6764 16.4739 18.7486 15.901 18.7508 15.4336V13.1465C18.7514 12.6397 18.7699 11.9774 18.7176 11.4853C18.5905 10.3742 18.0689 9.34532 17.2479 8.58787C16.5262 7.92069 15.6139 7.49661 14.6395 7.37596ZM14.0037 5.41893C13.5389 5.56763 13.5404 5.82695 13.5233 6.27049L14.2068 6.26463L14.6238 6.2744C14.6245 5.75404 14.578 5.47919 14.0037 5.41893Z" fill="#BA9B31"/>
<path d="M18.3636 3.00201C19.056 2.95379 20.9336 4.60708 21.377 5.07176C23.2023 6.98962 24.1958 9.55376 24.1403 12.2036C24.0179 12.4031 23.9434 12.457 23.7418 12.5738C22.8535 12.6055 23.0951 11.6715 23.0245 11.0595C22.9203 10.1757 22.6925 9.31092 22.3478 8.49073C21.682 6.93332 20.573 5.57185 19.1743 4.61005C18.8493 4.3516 18.2659 4.14982 18.0213 3.82263C17.7573 3.46963 18.0964 3.16085 18.3636 3.00201Z" fill="#BA9B31"/>
<path d="M9.61834 3L9.64501 3.00076C10.1789 3.02053 10.3724 3.67448 10.0832 3.88841C9.4478 4.35837 8.73367 4.72081 8.12617 5.27064C6.59827 6.62864 5.57422 8.46519 5.22089 10.4811C5.12171 11.063 5.09715 11.6292 5.06619 12.2168C4.90797 12.4568 4.87188 12.4815 4.60206 12.582C4.31002 12.5775 4.20379 12.4596 4.02877 12.2415C3.8767 11.0739 4.35565 9.14571 4.80279 8.09028C5.55775 6.30832 6.80678 4.78077 8.40178 3.6888C8.7851 3.42663 9.18746 3.17402 9.61834 3Z" fill="#BA9B31"/>
<path d="M17.3966 4.92017C17.7649 4.92914 18.2264 5.26874 18.5277 5.47346C19.909 6.40913 20.9577 7.76073 21.5223 9.33299C21.7653 10.0083 21.9012 10.6798 21.9655 11.3932C22.0127 11.9158 22.1261 12.3652 21.5242 12.5778C20.781 12.6138 20.9263 11.8003 20.8746 11.3141C20.7905 10.5198 20.5696 9.74612 20.2218 9.02745C19.8245 8.22244 19.2756 7.50209 18.6052 6.90612C18.2719 6.60609 17.837 6.2749 17.433 6.07402C16.8288 5.77352 16.7315 5.20386 17.3966 4.92017Z" fill="#BA9B31"/>
<path d="M10.665 4.9209C11.0791 4.98179 11.4096 5.39443 11.107 5.77581C10.998 5.9132 10.7717 6.05108 10.6147 6.13937C8.63127 7.25365 7.2768 9.52663 7.26442 11.8077C7.26202 12.2497 7.16817 12.4397 6.75426 12.5859C6.04675 12.5174 6.13862 11.8511 6.1922 11.3139C6.30435 10.0983 6.6938 8.92482 7.33045 7.8841C7.94826 6.87415 9.51652 5.19515 10.665 4.9209Z" fill="#BA9B31"/>
</svg>
