<svg width="40" height="40" viewBox="0 0 40 40" fill="none" xmlns="http://www.w3.org/2000/svg">
<path d="M19.3643 0.0158981C23.3178 -0.140285 26.7305 0.860119 30.1535 2.75965C29.3831 3.57147 28.4946 4.42642 27.6972 5.22674C27.0958 4.92594 26.5538 4.67235 25.924 4.43129C21.7993 2.86389 17.222 2.99401 13.1933 4.79316C9.15468 6.61255 6.00042 9.95662 4.41993 14.0946C2.85847 18.2216 2.99418 22.799 4.79737 26.8261C6.62539 30.8692 9.98037 34.0235 14.1283 35.599C18.2704 37.1535 22.8604 37.0001 26.8891 35.172C30.9142 33.3328 34.0479 29.9761 35.606 25.8343C36.8685 22.4493 36.9989 18.7464 35.9777 15.2811C35.632 14.1306 35.3334 13.4893 34.8426 12.4144L34.8086 12.3242C34.8656 12.1655 36.9705 10.1106 37.2465 9.84971C38.8921 12.8464 39.7648 15.4173 39.9665 18.8842C40.2765 24.2182 38.4257 29.483 34.807 33.4431C31.2383 37.3909 26.2374 39.7448 20.9212 39.9791C15.5586 40.2385 10.3186 38.3209 6.38996 34.6619C2.54143 31.1005 0.253564 26.1644 0.0233736 20.9262C-0.23562 15.584 1.66634 10.3625 5.30055 6.43859C8.93159 2.49022 14.0025 0.174414 19.3643 0.0158981Z" fill="#F79E1B"/>
<path d="M19.4133 8.34874C21.7619 8.19936 23.8088 8.80439 25.8524 9.90143C25.0326 10.68 24.1755 11.5734 23.3748 12.3786C21.2289 11.5718 19.3329 11.3769 17.1318 12.1881C15.0391 12.9592 13.3421 14.5355 12.4189 16.5656C11.5026 18.58 11.4277 20.8767 12.2108 22.9466C13.0119 25.0481 14.6241 26.7396 16.6849 27.6404C18.6996 28.5185 20.9805 28.5605 23.0264 27.7577C25.1119 26.9393 26.7821 25.3185 27.6629 23.2579C28.6213 21.0211 28.5016 18.8456 27.6189 16.6231C28.4153 15.8705 29.325 14.948 30.0868 14.1582L30.2655 14.4518C31.0512 15.8215 31.5313 17.63 31.6413 19.197C31.861 22.2838 30.8375 25.3305 28.7983 27.6584C26.7678 30.002 23.8858 31.4381 20.7922 31.6478C17.7009 31.8565 14.6534 30.8281 12.3209 28.7889C9.99219 26.7533 8.56614 23.8773 8.35566 20.7917C8.14433 17.6642 9.20098 14.5832 11.2873 12.2436C13.3835 9.85723 16.2654 8.55046 19.4133 8.34874Z" fill="#F79E1B"/>
<path d="M35.2786 0.459717C35.387 0.636968 35.324 4.1548 35.3273 4.67525C36.3994 4.70116 37.4875 4.66268 38.5613 4.68219C38.8973 4.68829 39.2527 4.68799 39.5871 4.66788C37.3355 6.88901 35.1103 9.20425 32.8431 11.4005C31.917 11.413 30.9725 11.4035 30.0461 11.4007C29.244 12.1122 28.2332 13.1864 27.4605 13.9597L22.962 18.4634C23.9078 20.4037 22.9574 22.6206 20.8705 23.2224C20.1567 23.4114 19.3231 23.3584 18.6464 23.06C17.8375 22.7006 17.2037 22.0359 16.8834 21.2108C16.5658 20.3621 16.5956 19.4224 16.9663 18.5955C17.3389 17.7944 18.0152 17.1747 18.8456 16.8735C19.7612 16.5431 20.6745 16.6335 21.5456 17.0379C23.8328 14.6863 26.2637 12.2929 28.601 9.983C28.5949 9.03784 28.594 8.0926 28.5983 7.14741C30.8075 4.92611 33.1007 2.70208 35.2786 0.459717Z" fill="#F79E1B"/>
</svg>
