<svg width="48" height="48" viewBox="0 0 48 48" fill="none" xmlns="http://www.w3.org/2000/svg">
<path d="M4.09462 22.1368C8.68892 23.6233 13.4733 24.7327 18.0769 26.2159C18.8363 26.4605 19.6929 26.6596 20.4712 26.8674C20.4407 28.288 20.3749 28.8273 21.6482 29.6431C23.0565 29.7201 24.9587 29.7145 26.362 29.6462C27.6365 28.8239 27.6024 28.3287 27.5579 26.8936C28.5256 26.5634 29.6079 26.3094 30.6002 26.0235C35.0296 24.749 39.5244 23.3724 43.9567 22.1374C44.0239 26.1321 43.9709 30.2644 43.969 34.2695L43.9766 36.3876C43.969 38.9187 43.1897 41.128 40.2753 41.7178C39.2366 41.928 37.6477 41.8125 36.5408 41.8109L30.3246 41.8081C23.4352 41.8048 16.5461 41.8075 9.65311 41.8142C8.14258 41.8465 6.52258 41.6695 5.38824 40.5329C4.04804 39.1308 4.03261 37.5423 4.05277 35.7425C4.10343 31.2117 3.97314 26.6603 4.09462 22.1368Z" fill="#BA9B31"/>
<path d="M19.7748 7.06874C22.047 6.93406 24.4463 7.04336 26.7226 7.01798C30.5659 6.97517 31.0924 8.80324 31.0687 12.0726C33.7701 12.1005 38.3293 11.7867 40.8593 12.3686C44.4356 13.1912 43.9878 17.4873 43.9764 20.4C42.1944 21.2616 38.4003 22.0008 36.3721 22.629C33.4908 23.5213 30.4693 24.4264 27.5359 25.1199C27.5899 24.4749 27.6079 24.2552 27.3939 23.6568C27.3068 23.5028 26.9612 22.884 26.7927 22.8012C25.6867 22.2584 24.2683 22.5957 22.9938 22.4955C21.2077 22.3551 20.2838 23.2777 20.5034 25.1278C17.5373 24.4364 14.6563 23.5307 11.7483 22.6468C9.29503 21.9011 6.42649 21.4124 4.08508 20.4203C3.9813 18.1728 3.69383 15.1208 5.38873 13.4426C5.96044 12.8817 6.6706 12.4824 7.44675 12.2855C8.85332 11.9227 15.1552 12.0781 16.9512 12.0853C16.9602 9.64909 16.9881 7.81865 19.7748 7.06874Z" fill="#BA9B31"/>
<path d="M20.3847 8.59238C22.4447 8.51102 26.0845 8.49473 28.1098 8.62912C28.6543 8.97358 28.8862 9.22314 29.282 9.71837C29.4269 10.5673 29.4004 11.2334 29.3957 12.0879L27.6619 12.0822L18.6423 12.0769C18.6102 10.497 18.4354 8.98021 20.3847 8.59238Z" fill="white"/>
<path d="M22.0248 24.1756C23.358 24.155 24.6912 24.1591 26.0235 24.188C26.0424 25.5251 26.0547 26.7658 26.0064 28.1058C24.6789 28.1108 23.3504 28.1036 22.0229 28.0843C21.9425 26.9173 21.9794 25.3463 22.0248 24.1756Z" fill="#BA9B31"/>
</svg>
