<svg width="24" height="24" viewBox="0 0 24 24" fill="none" xmlns="http://www.w3.org/2000/svg">
<path d="M16.2257 14.2978C16.5357 14.2912 16.8458 14.2883 17.1564 14.2892C18.5295 14.2916 19.7175 14.5726 20.7161 15.5853C22.1556 17.0443 21.9988 18.6801 21.9951 20.5513L17.6249 20.5551L11.8419 20.5502C11.8403 18.7377 11.6903 17.1627 12.9995 15.7172C13.8748 14.751 14.9556 14.3696 16.2257 14.2978Z" fill="#BA9B31"/>
<path d="M6.45455 11.316C7.81612 11.2866 9.02606 11.2636 10.1968 12.0495C11.3675 12.8354 11.8689 13.8324 12.1497 15.1685C11.5008 15.9682 11.2425 16.6433 10.9602 17.606C9.92488 17.6447 8.73429 17.617 7.68749 17.6172C5.82919 17.6182 3.86579 17.6502 2.01585 17.5981C1.99807 15.7988 1.83545 14.2253 3.12278 12.7794C4.05506 11.7319 5.10657 11.403 6.45455 11.316Z" fill="#BA9B31"/>
<path d="M16.6416 6.99177C18.3734 6.83962 19.9018 8.11878 20.0565 9.8505C20.2113 11.5822 18.9345 13.1123 17.2032 13.2699C15.4678 13.4279 13.9337 12.1477 13.7784 10.4121C13.6231 8.67643 14.9057 7.14425 16.6416 6.99177Z" fill="#BA9B31"/>
<path d="M6.50467 4.0532C7.61997 3.84572 8.76089 4.25404 9.49134 5.12222C10.2218 5.99041 10.4289 7.18429 10.0336 8.24782C9.63827 9.3113 8.7018 10.0801 7.5818 10.2606C5.87879 10.5349 4.27147 9.38858 3.97656 7.68897C3.68166 5.98941 4.80846 4.3687 6.50467 4.0532Z" fill="#BA9B31"/>
</svg>
