<svg width="36" height="36" viewBox="0 0 36 36" fill="none" xmlns="http://www.w3.org/2000/svg">
<path d="M15.2279 5.02342C18.0529 4.83751 20.8394 5.76382 22.9906 7.60448C25.2135 9.49658 26.582 12.2034 26.7885 15.1152C27.004 17.9819 26.0696 20.8164 24.1918 22.9932C24.2515 23.0373 24.3102 23.0837 24.3676 23.1308C25.7564 24.2526 27.0774 25.5213 28.4496 26.6709C29.1736 27.2775 29.8708 27.9227 30.5873 28.543C30.9786 28.8818 31.1411 29.2432 30.8558 29.7334C30.6598 30.0489 30.1076 30.1665 29.7904 29.9394C29.2037 29.5194 28.6504 28.9983 28.1019 28.5176L25.059 25.8633C24.4453 25.3324 23.639 24.6724 23.0746 24.1133C21.5568 25.6108 18.9554 26.5986 16.851 26.7734C13.9565 27.0294 11.0799 26.1157 8.86462 24.2353C6.6224 22.3483 5.23961 19.634 5.03064 16.7109C4.81361 13.8222 5.75612 10.9657 7.64978 8.77342C9.61084 6.48861 12.2474 5.24918 15.2279 5.02342ZM15.6058 6.61717C10.4777 6.78457 6.45589 11.077 6.62243 16.2051C6.78928 21.3334 11.082 25.3559 16.2103 25.1894C21.3393 25.023 25.3624 20.7303 25.1957 15.6015C25.0288 10.4726 20.7348 6.44987 15.6058 6.61717Z" fill="#282828"/>
</svg>
