<svg width="24" height="24" viewBox="0 0 24 24" fill="none" xmlns="http://www.w3.org/2000/svg">
<path d="M12.1492 1.00102C13.9707 0.969649 15.7304 1.66497 17.0379 2.93363C18.4632 4.30771 19.2848 6.19149 19.323 8.17094C19.3506 10.6588 17.9386 13.1097 16.7742 15.2442C15.7373 17.135 14.6671 19.008 13.5632 20.8604L12.991 21.8194C12.821 22.1108 12.4909 22.7209 12.28 22.9366C12.166 23.0251 12.0234 23.0233 11.9343 22.9131C11.2298 22.0424 10.7279 20.8727 10.1843 19.9141C9.27212 18.3053 8.35021 16.7552 7.4568 15.1416C6.85688 14.0581 6.27539 12.9678 5.79664 11.8272C5.35114 10.7501 5.06784 9.57811 5.00856 8.41215C4.9176 6.60041 5.55453 4.82753 6.77809 3.48832C8.1111 1.99082 9.993 1.09547 11.9959 1.0059C12.0469 1.00355 12.098 1.00172 12.1492 1.00102ZM11.9841 4.13188C11.9572 4.13274 11.93 4.13445 11.9031 4.13676C10.7795 4.24045 9.80249 4.71217 9.0779 5.58793C8.45342 6.35186 8.1597 7.33413 8.26247 8.31547C8.37683 9.43934 8.93039 10.4732 9.80153 11.1924C10.5093 11.7801 11.4053 12.0931 12.325 12.0733C13.3325 12.0529 14.3011 11.5963 14.992 10.8682C17.0698 8.67804 15.558 4.50254 12.5564 4.15336C12.3609 4.13063 12.1799 4.12576 11.9841 4.13188Z" fill="black"/>
</svg>
