<svg width="18" height="18" viewBox="0 0 18 18" fill="none" xmlns="http://www.w3.org/2000/svg">
<path d="M14.8526 11.1373L12.282 9.99605C11.6556 9.71754 10.9194 9.8959 10.4898 10.43L9.40524 11.4745C8.25699 10.7242 7.27654 9.74289 6.52627 8.59288L7.58369 7.51284C8.11872 7.08411 8.29795 6.34702 8.02033 5.72062L6.87823 3.14826C6.57689 2.47002 5.83717 2.11334 5.11764 2.29871L3.38285 2.75059C2.63961 2.94387 2.15905 3.66428 2.26447 4.42597C3.08503 10.2673 7.73689 14.9201 13.5801 15.7406C13.6503 15.7503 13.7189 15.7547 13.7874 15.7547C14.4674 15.7547 15.0771 15.2961 15.2537 14.6214L15.7013 12.8961C15.8867 12.1783 15.53 11.4386 14.8526 11.1373Z" fill="#282828"/>
</svg>
