<svg width="48" height="48" viewBox="0 0 48 48" fill="none" xmlns="http://www.w3.org/2000/svg">
<path d="M22.7011 2.01465L22.6913 4.40234C23.4305 4.3931 24.1697 4.40652 24.9081 4.44238C24.8714 3.69875 24.9074 2.76419 24.9179 2.00488L27.1806 2.00781L27.1893 8.78613L34.3808 8.78809L34.3895 43.4209L39.7167 43.4229C39.7446 42.5354 39.8603 41.0693 39.5595 40.2422C39.4085 39.8271 39.0005 39.7753 38.58 39.6279C37.716 39.325 36.981 38.1495 36.6278 37.3389C36.1253 36.2129 36.1016 34.9311 36.5614 33.7871C37.054 32.5964 38.083 31.6202 39.2753 31.1436C40.4651 30.6788 41.7912 30.7054 42.9618 31.2168C47.0332 32.9762 46.6687 38.6313 42.3114 40.1553C42.3044 41.2477 42.3105 42.3403 42.328 43.4326C43.4778 43.4315 44.6276 43.4185 45.7772 43.3936L45.7694 45.9854L29.8339 45.9883L1.82118 46C1.79975 45.1447 1.82958 44.2627 1.84853 43.4053L5.29482 43.4268V40.3604C3.88664 39.7682 2.65282 38.9531 2.10243 37.4404C1.15825 34.845 2.50335 32.0776 5.12099 31.1836C6.27998 30.7817 7.55293 30.8649 8.64931 31.415C9.81617 32.0128 10.7016 33.0449 11.1151 34.2891C11.5026 35.4653 11.4061 36.7478 10.8466 37.8525C10.2211 39.0799 9.17813 39.9045 7.87587 40.3164C7.83842 41.3369 7.86193 42.4096 7.86904 43.4346L13.2177 43.4248C13.297 39.5603 13.2304 35.4488 13.2313 31.5684L13.2352 8.78027C15.6281 8.7946 18.0211 8.79565 20.414 8.78223L20.4218 2L22.7011 2.01465ZM28.8612 36.459C25.7946 36.3932 21.7947 36.3436 18.7372 36.4551L18.7343 43.4287H21.3192V39.0244C22.9744 39.0447 24.6298 39.049 26.2851 39.0361L26.2733 41.6396L26.286 43.4258L28.8554 43.4111C28.8753 41.0941 28.8769 38.7761 28.8612 36.459ZM18.8661 27.959C18.8574 29.1514 18.8186 30.4814 18.8602 31.6631L21.4042 31.6475L21.3964 27.9512L18.8661 27.959ZM26.2099 27.957C26.1995 29.1799 26.1732 30.4364 26.2079 31.6562L28.7421 31.6436L28.7548 27.9512L26.2099 27.957ZM26.1972 21.5234C26.1963 22.7351 26.1796 23.9944 26.1991 25.2021L28.7606 25.2256L28.7538 21.5381L26.1972 21.5234ZM18.8417 21.5293L18.871 25.2051L21.413 25.2197L21.4061 21.5244L18.8417 21.5293ZM26.2089 15.1836C26.1856 16.3909 26.1874 17.5984 26.2138 18.8057L28.7567 18.7939L28.7577 15.1904C27.9241 15.1817 27.0374 15.1582 26.2089 15.1836ZM18.8446 15.1826L18.8427 18.7959L21.4179 18.8008L21.411 15.1777L18.8446 15.1826ZM23.245 6.33105C23.0405 6.37357 22.861 6.36101 22.7958 6.50293C22.5412 7.05783 22.6934 8.16912 22.6923 8.77344L24.6073 8.78613L24.8319 8.66309C24.9614 7.9066 24.8765 7.10386 24.8476 6.33203L23.245 6.33105Z" fill="#BA9B31"/>
</svg>
