<svg width="48" height="48" viewBox="0 0 48 48" fill="none" xmlns="http://www.w3.org/2000/svg">
<path d="M23.9698 0.0146025C24.1684 0.00189051 24.3057 -0.0199157 24.4962 0.0395784C24.629 0.195535 24.6145 0.386016 24.6143 0.591808C24.6126 1.84347 24.6143 3.09575 24.616 4.34737C24.7919 4.43416 24.9702 4.53362 25.1434 4.62738C25.2389 5.21806 25.2076 6.70605 25.2042 7.36378C25.1968 8.81565 25.2199 10.3172 25.1889 11.766C25.452 11.7663 25.9201 11.7303 26.0872 11.9202C26.1528 11.9947 26.1722 12.2015 26.1742 12.2994C26.1997 13.588 26.1891 14.8978 26.1887 16.1871L26.1886 23.6235C26.5129 23.6176 26.9888 23.5628 27.2266 23.7832C27.3916 24.2187 27.3145 30.7767 27.3152 31.6371C27.6757 31.6307 28.296 31.581 28.5634 31.8043C28.7456 32.3605 28.6464 38.61 28.6454 39.6423C28.9905 39.6459 29.4944 39.6088 29.7715 39.8046C29.9182 40.1266 29.8609 44.4486 29.862 45.0867C30.0071 45.0833 30.1522 45.0807 30.2973 45.0791C31.4096 45.0679 31.2537 45.4814 31.2415 46.4505C31.7872 46.3922 32.8482 46.3303 33.3533 46.5374C33.7022 46.6806 33.6315 47.5651 33.4566 47.8433C33.2574 48.0423 30.3645 47.9653 29.8454 47.9651L23.2617 47.9622C22.0605 47.9633 14.3516 48.0884 13.7506 47.8773C13.5724 47.6855 13.5431 46.7026 13.7224 46.6049C14.245 46.3204 15.3211 46.4209 15.9407 46.4225C15.9253 44.7294 16.217 45.0713 17.7526 45.0901C17.752 44.0065 17.6473 37.7659 17.84 37.1608C18.1629 36.9274 18.7945 36.9869 19.2133 36.9879C19.2282 35.9612 19.1037 29.573 19.3552 29.0996C19.6356 28.8993 20.1851 28.9427 20.5346 28.9424L20.5323 24.2754C20.5317 23.5375 20.483 21.7081 20.6346 21.1127C20.8701 20.8926 21.3383 20.9583 21.6826 20.9623L21.6785 12.9783C21.6784 12.2208 21.6268 9.73989 21.7737 9.133C22.2674 9.09705 22.8084 9.10048 23.3067 9.09367C23.3658 7.93676 23.1941 5.85737 23.4113 4.67551C23.4356 4.54297 23.7519 4.43527 23.8906 4.38377C23.8984 3.66298 23.8145 0.497337 23.9698 0.0146025Z" fill="#BA9B31"/>
</svg>
