<svg width="48" height="48" viewBox="0 0 48 48" fill="none" xmlns="http://www.w3.org/2000/svg">
<path d="M19.7852 4C22.5212 4.06848 25.5021 4.01175 28.2588 4.0166C28.4442 5.03945 28.9614 6.7178 29.2461 7.77832C30.1896 8.10218 30.853 8.39446 31.7451 8.81348C32.7978 8.26527 34.1032 7.47048 35.1582 6.86816C36.9327 8.80957 39.245 10.9347 41.1279 12.8672C40.4783 13.914 39.7877 15.1737 39.1768 16.25C39.6231 17.0943 39.9017 17.8648 40.2285 18.7559L44.001 19.7676C43.9502 22.532 43.9984 25.4512 43.999 28.2285C42.9902 28.4358 41.2768 28.9553 40.2207 29.2383C39.8904 30.1742 39.6199 30.8599 39.1748 31.752C39.7973 32.8554 40.4707 34.0572 41.1348 35.1289L35.1387 41.1211L31.7637 39.1807C30.9402 39.5687 30.0969 39.9134 29.2383 40.2148C28.9346 41.4672 28.5308 42.7285 28.249 43.9785L19.7686 43.9814C19.4847 42.7816 19.0768 41.4117 18.749 40.209C17.8187 39.9018 17.1301 39.5923 16.2559 39.1777C15.1464 39.7696 13.9409 40.4907 12.8389 41.1201C10.8746 39.101 8.82775 37.145 6.86816 35.1172C7.48298 34.1846 8.24986 32.7481 8.83398 31.751C8.39958 30.9745 8.08625 30.0733 7.77441 29.2373C6.5802 28.9844 5.24145 28.5173 4 28.2344C4.04002 25.4594 4.01409 22.5586 4 19.7773L7.78223 18.751C8.05045 17.9131 8.43846 17.0306 8.81934 16.2363C8.16075 15.1096 7.51222 13.9769 6.875 12.8379C8.88021 10.8784 10.8763 8.84979 12.8574 6.8623C13.7911 7.46785 15.2681 8.26272 16.2529 8.81543C17.1537 8.37729 17.8206 8.11192 18.7539 7.7793C19.0885 6.5171 19.4323 5.25717 19.7852 4ZM34.0312 23.0342C33.4988 17.4992 28.5823 13.4416 23.0469 13.9697C17.5056 14.4986 13.4439 19.4213 13.9766 24.9619C14.5094 30.5022 19.4349 34.5612 24.9756 34.0244C30.5097 33.488 34.5634 28.5686 34.0312 23.0342Z" fill="#BA9B31"/>
</svg>
