<svg width="36" height="36" viewBox="0 0 36 36" fill="none" xmlns="http://www.w3.org/2000/svg">
<rect width="36" height="36" rx="4" fill="#BA9B31"/>
<path d="M17.7846 7.96421C19.7865 7.91073 21.735 8.61386 23.2415 9.93333C24.705 11.1988 25.7683 13.1911 25.9072 15.1297C26.728 15.2731 26.9869 15.6942 26.9922 16.4902L26.9944 19.398C26.9947 19.9691 27.0244 20.5889 26.9442 21.1537C26.91 21.3939 26.8315 21.5079 26.6621 21.6813C26.325 22.0259 25.906 22 25.462 21.997C25.029 24.2931 24.0068 26.6996 21.5342 27.3818C21.3111 27.4432 21.0823 27.4932 20.8576 27.5522C20.6709 27.7968 20.3866 28.0564 20.0618 28.0377C18.9156 27.9709 18.9161 26.2624 20.1177 26.3011C20.4318 26.3111 20.6247 26.4735 20.8264 26.6974C21.3246 26.5777 21.843 26.434 22.2749 26.1512C23.7545 25.1819 24.2326 23.6081 24.6053 22.0054C24.2289 21.9998 23.6809 21.9817 23.3232 22.0156L23.3231 15.1467L23.8069 15.1446L24.2349 15.149C24.0609 14.0431 23.7402 13.1424 23.0742 12.2275C22.088 10.8724 20.6019 9.96686 18.9455 9.71185C17.3039 9.46403 15.6309 9.87541 14.2914 10.8563C12.8456 11.9215 12.0368 13.3881 11.7689 15.146C12.0655 15.1408 12.3848 15.1485 12.6832 15.1501L12.6806 21.9987L10.9524 22.001C10.3745 22.0014 9.61254 22.0994 9.23234 21.5634C8.9357 21.1451 9.00746 20.5662 9.00801 20.0685L9.00901 18.5928L9.00859 17.0917C9.00874 16.7474 8.99592 16.4044 9.04319 16.0628C9.1184 15.5193 9.57056 15.1865 10.0966 15.141C10.1598 13.551 11.0898 11.6416 12.1757 10.5025C13.704 8.89933 15.5875 8.04943 17.7846 7.96421Z" fill="white"/>
</svg>
