<svg width="27" height="27" viewBox="0 0 27 27" fill="none" xmlns="http://www.w3.org/2000/svg">
<path d="M24.8544 3.00524C25.3421 3.005 25.8327 2.936 26.1991 3.30602C26.4581 3.56748 26.4975 3.8329 26.4999 4.18395L26.4979 15.4574L26.4989 18.9496V20.017C26.4987 20.1707 26.5045 20.4803 26.4872 20.6263C26.4571 20.8849 26.3409 21.1258 26.1571 21.3099C25.8593 21.606 25.5626 21.6543 25.162 21.6576C24.6568 21.6615 24.1516 21.6588 23.6464 21.6586L19.7274 21.6576C19.6124 22.2431 19.2134 22.8439 18.7333 23.1947C18.185 23.5952 17.5789 23.6908 16.9188 23.5863C16.3297 24.1164 15.4759 24.0567 14.7831 23.7757C14.13 24.0817 13.4271 24.1832 12.7792 23.7904C10.8856 24.53 9.41202 22.8503 8.21082 21.6605C7.66502 21.6521 7.1185 21.6678 6.57117 21.6605C6.04719 21.6638 5.5251 21.7235 5.09168 21.391C4.72435 21.1092 4.49002 19.2186 5.18933 19.2562C5.8716 19.2934 5.34542 20.6259 5.63269 20.8099C5.82371 20.9321 7.14349 20.8807 7.44226 20.8802C6.99956 20.4626 6.53427 19.9784 6.09851 19.5463C5.38519 18.842 4.68751 18.1217 4.00672 17.3861C3.72236 17.0815 3.39502 16.7444 3.12488 16.432C2.41146 16.7317 2.09089 16.3106 1.61218 15.847C1.27064 15.4889 0.670505 15.1192 0.524293 14.6312C0.357248 14.0732 1.09394 13.4659 1.44324 13.0912L2.78211 11.6566L4.43738 9.88024C4.63481 9.67124 5.15212 9.06902 5.37195 8.97496C5.58061 8.88503 5.817 8.88288 6.02722 8.96911C6.09934 8.99914 6.17119 9.03709 6.23425 9.08336C6.49512 9.27506 7.74738 10.4376 7.83777 10.6673C7.93672 10.9203 7.92905 11.1232 7.82019 11.3724C7.98708 11.497 8.35586 11.8818 8.53601 11.933C8.98876 12.0606 9.83607 12.0468 10.3319 12.0765C10.7901 12.1025 11.248 12.1421 11.704 12.1947C13.3511 12.3909 14.9409 12.9214 16.3759 13.7533C16.7029 13.9473 17.0733 14.2288 17.4003 14.4476C17.8925 14.7774 18.4044 15.081 18.7714 15.5511C18.958 15.816 19.0616 16.1353 19.0018 16.4564C18.9361 16.8098 18.7682 17.1519 18.4501 17.349C17.454 17.9653 16.7377 17.051 15.8993 16.6468C15.2384 16.3283 14.6036 16.0849 13.8837 15.9525C13.8246 15.9382 13.7374 15.9446 13.6913 15.9896C13.4242 16.2498 13.526 16.8346 13.7518 17.0922C13.9659 17.3365 14.2093 17.569 14.4364 17.7943C14.846 18.1939 15.252 18.5971 15.6561 19.0023L16.8153 20.1615C17.0071 20.3533 17.2356 20.595 17.4471 20.7631C17.5702 20.861 17.8043 20.8718 17.9598 20.8861C17.9583 20.0065 17.9399 19.0566 17.9784 18.1839C17.9998 18.1522 18.0224 18.1209 18.0458 18.0902C18.1234 17.9906 18.2203 17.9378 18.3485 17.9261C18.8748 17.8791 18.7525 18.7637 18.7518 19.1244C18.7473 19.7087 18.7478 20.293 18.7548 20.8773L23.1376 20.8822C23.625 20.8826 25.1311 20.9378 25.4989 20.8295C25.5881 20.803 25.6332 20.7385 25.6727 20.6576C25.7177 20.5657 25.7196 20.4544 25.7216 20.3539C25.7441 19.2154 25.7186 18.0706 25.7186 16.931L25.7196 9.72692L25.7206 6.22008C25.7206 5.81839 25.752 4.13236 25.6649 3.87829C25.4951 3.74822 24.9954 3.78517 24.7714 3.78551C24.3669 3.7843 23.9627 3.7878 23.5585 3.79528L23.5595 5.89293C23.5599 6.21949 23.6182 7.02162 23.4276 7.26793C23.2064 7.39874 22.4667 7.35457 22.1845 7.35485C21.8706 7.35515 21.4537 7.36906 21.1503 7.33629C21.0335 7.24814 20.928 7.16798 20.9198 7.00914C20.9016 6.6602 20.9101 6.30625 20.911 5.95641L20.9159 3.79235C20.1957 3.78798 19.4752 3.78937 18.7548 3.79528L18.7538 10.8968L18.747 12.7035C18.7485 13.093 18.756 13.483 18.7489 13.8724C18.7446 14.1114 18.6516 14.318 18.3886 14.3431C18.2817 14.3537 18.1752 14.3176 18.0966 14.2445C18.0191 14.1729 17.9721 14.057 17.9686 13.9545C17.9565 13.6165 17.9616 13.2627 17.9618 12.9242L17.9637 10.8871C17.9642 8.53529 17.987 6.14202 17.9589 3.79332C16.5392 3.76259 14.9034 3.77514 13.4794 3.79528L13.4823 5.93786C13.4826 6.09498 13.4816 6.29193 13.4823 6.44274C13.486 7.19393 13.5379 7.3867 12.6981 7.36168C12.057 7.34261 11.3597 7.36062 10.7118 7.36266C10.4552 7.37075 10.0782 7.35215 10.0516 7.01598C10.0245 6.67143 10.0368 6.2955 10.037 5.94762L10.0389 3.79235C9.47479 3.78906 5.86735 3.73809 5.62879 3.84118C5.42261 4.17544 5.63915 7.52775 5.53308 8.21032C5.51809 8.30663 5.47264 8.39851 5.3905 8.45446C5.3047 8.51281 5.1974 8.52179 5.09754 8.50426C4.94609 8.47761 4.87349 8.39768 4.78894 8.27575C4.78359 8.2024 4.7802 8.12852 4.77722 8.05504C4.74492 7.2707 4.79169 6.38709 4.77234 5.58922C4.80004 5.01574 4.72034 4.39482 4.80457 3.8275C4.90121 3.17703 5.43805 3.01622 5.98425 3.00621L19.5428 3.00719H23.5936L24.8544 3.00524ZM3.74597 15.9662C4.33621 16.5605 4.90964 17.2129 5.495 17.8187C6.43675 18.7779 7.38615 19.7297 8.34265 20.6742C9.35906 21.69 10.4667 23.1193 11.993 23.2113C11.6786 22.9093 11.3335 22.6365 11.0018 22.347C10.9525 22.304 10.7637 22.1276 10.6805 22.0726C10.2918 21.8155 10.1416 21.2713 10.7411 21.2006C10.8989 21.1822 11.2115 21.4791 11.3632 21.6127L12.2245 22.3617C12.7139 22.7903 13.2707 23.3879 13.9813 23.2484L14.0106 23.225C13.9919 22.9963 11.9088 21.4357 11.8182 21.0043C11.7638 20.7423 11.9612 20.5985 12.1825 20.5765C12.4252 20.5527 12.7505 20.949 12.8944 21.0834L13.9969 22.0931C14.8354 22.8685 15.0034 23.2829 16.2147 23.1791C15.6554 22.6029 14.972 21.9893 14.3856 21.4144C14.115 21.1609 13.8444 20.9073 13.5751 20.6527C13.4613 20.5452 13.3645 20.4524 13.3563 20.2865C13.3505 20.1714 13.3921 20.0584 13.4716 19.975C13.6123 19.8268 13.8082 19.8214 13.9637 19.9506C14.2594 20.1958 14.5324 20.4745 14.8094 20.7416L16.3007 22.1722C16.4159 22.2833 16.9198 22.7835 17.0262 22.806C17.9939 23.0057 18.5653 22.4619 18.9296 21.6605C18.5814 21.6609 18.2287 21.6616 17.8807 21.6566C17.2219 21.6472 16.9481 21.3994 16.5009 20.9535L14.286 18.7425C13.6514 18.1124 12.75 17.4523 12.7587 16.4945C12.7806 14.0963 15.5804 15.6285 16.702 16.1947C17.0721 16.3828 17.6512 17.0287 18.0829 16.642C18.685 16.016 17.3283 15.3738 16.9081 15.057C15.6789 14.1359 14.1838 13.4717 12.6864 13.1459C11.3909 12.864 10.053 12.8512 8.73523 12.7816C8.01974 12.7438 7.8565 12.3337 7.37683 12.0287L3.74597 15.9662ZM5.69031 9.68786C4.39588 10.9931 3.18257 12.4218 1.90222 13.7445C1.68814 13.9656 1.45363 14.2129 1.25574 14.4476C1.41247 14.5918 2.61584 15.751 2.70886 15.7631C3.53351 14.9268 4.41636 13.9406 5.22449 13.0736L6.44617 11.7601C6.6629 11.528 6.94019 11.2465 7.14343 11.0082C6.97855 10.8356 5.81141 9.70588 5.69031 9.68786ZM10.8221 3.7943L10.8251 6.56871C11.4415 6.5778 12.1077 6.5578 12.7137 6.58336C12.7075 5.65336 12.7055 4.72335 12.7089 3.79332C12.091 3.78723 11.4389 3.78085 10.8221 3.7943ZM21.7001 3.79039C21.689 4.67384 21.6755 5.69091 21.6991 6.56969C22.0392 6.57513 22.4471 6.56028 22.7772 6.57457C22.8001 6.19296 22.7866 5.67639 22.785 5.28746C22.7831 4.80373 22.7958 4.26985 22.7772 3.79235L21.7001 3.79039Z" fill="#BA9B31"/>
<path d="M20.2323 16.864C20.6077 16.8525 24.1565 16.83 24.3133 16.8913C24.4021 16.927 24.4909 16.9951 24.5262 17.0866C24.5567 17.1658 24.5674 17.2545 24.5721 17.3386C24.5872 17.608 24.5631 17.8845 24.5653 18.155C24.5683 18.531 24.5995 18.9253 24.5702 19.2995C24.563 19.391 24.5427 19.4874 24.5018 19.57C24.4473 19.6806 24.3634 19.7187 24.2508 19.7527C23.401 19.7896 22.4567 19.7403 21.5946 19.7595C21.1692 19.769 20.6494 19.7674 20.2225 19.7458C20.0937 19.7393 20.0075 19.6277 19.9364 19.53C19.891 19.2512 19.8761 17.2738 19.95 17.0915C20.0035 16.9596 20.1062 16.9133 20.2323 16.864ZM23.7967 17.6423C22.7771 17.6408 21.7035 17.6238 20.6873 17.6433C20.6878 18.085 20.6836 18.5415 20.6903 18.9821L23.7957 18.9831L23.7967 17.6423Z" fill="#BA9B31"/>
</svg>
