<svg width="32" height="32" viewBox="0 0 32 32" fill="none" xmlns="http://www.w3.org/2000/svg">
<path d="M15.3005 2.00879L15.2936 3.52832C15.7641 3.52243 16.2348 3.53088 16.7048 3.55371C16.6815 3.08056 16.704 2.48599 16.7106 2.00293L18.1501 2.00488L18.1559 6.31836L22.7331 6.32031L22.738 28.3584L26.1276 28.3604C26.1453 27.7956 26.2195 26.8624 26.028 26.3359C25.9319 26.0718 25.6726 26.0391 25.405 25.9453C24.8551 25.7526 24.3875 25.0042 24.1628 24.4883C23.843 23.7719 23.8273 22.9564 24.1198 22.2285C24.4332 21.4707 25.0886 20.8492 25.8473 20.5459C26.6044 20.2502 27.4482 20.2665 28.193 20.5918C30.7841 21.7113 30.5526 25.3103 27.78 26.2803C27.7755 26.9755 27.7786 27.671 27.7897 28.3662C28.5215 28.3655 29.2534 28.3577 29.985 28.3418L29.9802 29.9912L19.8395 29.9922L2.01238 30C1.99874 29.4557 2.0179 28.8943 2.02996 28.3486L4.22332 28.3623V26.4111C3.32737 26.0344 2.54238 25.516 2.19207 24.5537C1.59101 22.9019 2.44699 21.1402 4.11297 20.5713C4.85051 20.3155 5.66039 20.3686 6.35809 20.7188C7.10069 21.0992 7.66428 21.756 7.92742 22.5479C8.17395 23.2963 8.11262 24.1124 7.75652 24.8154C7.35847 25.5965 6.69461 26.1217 5.8659 26.3838C5.84209 27.033 5.85747 27.7151 5.86199 28.3672L9.26531 28.3613C9.31578 25.9021 9.27353 23.2858 9.2741 20.8164L9.27606 6.31445C10.7989 6.32357 12.3225 6.32397 13.8454 6.31543L13.8493 2L15.3005 2.00879ZM19.2194 23.9307C17.2678 23.8888 14.7218 23.8568 12.7761 23.9277L12.7751 28.3652H14.4196V25.5625C15.4729 25.5754 16.5264 25.5785 17.5798 25.5703L17.572 27.2266L17.5807 28.3633L19.2155 28.3535C19.2282 26.8793 19.2294 25.4049 19.2194 23.9307ZM12.86 18.5186C12.8545 19.2773 12.8296 20.124 12.8561 20.876L14.4743 20.8652L14.4704 18.5137L12.86 18.5186ZM17.5329 18.5176C17.5263 19.2957 17.5098 20.095 17.5319 20.8711L19.1442 20.8623L19.153 18.5137L17.5329 18.5176ZM17.5251 14.4248C17.5245 15.1959 17.5136 15.9971 17.5261 16.7656L19.1559 16.7803L19.152 14.4336L17.5251 14.4248ZM12.8444 14.4287L12.863 16.7676L14.4802 16.7764L14.4763 14.4258L12.8444 14.4287ZM17.5309 10.3887C17.5162 11.1571 17.5171 11.926 17.5339 12.6943L19.152 12.6865L19.153 10.3936C18.6225 10.388 18.0582 10.3725 17.5309 10.3887ZM12.8454 10.3887L12.8444 12.6875L14.4831 12.6904L14.4782 10.3848L12.8454 10.3887ZM15.6491 4.75586C15.519 4.78291 15.4045 4.77497 15.363 4.86523C15.201 5.21823 15.2982 5.92492 15.2975 6.30957L16.5163 6.31836L16.6589 6.23926C16.7411 5.7581 16.6871 5.24774 16.6686 4.75684L15.6491 4.75586Z" fill="#BA9B31"/>
</svg>
