<svg width="18" height="18" viewBox="0 0 18 18" fill="none" xmlns="http://www.w3.org/2000/svg">
<path d="M8.63423 10.1557C8.80595 10.1521 8.97767 10.1505 9.14967 10.151C9.9101 10.1523 10.568 10.3079 11.1211 10.8687C11.9183 11.6767 11.8314 12.5827 11.8294 13.619L9.40913 13.6211L6.20642 13.6184C6.20555 12.6146 6.12244 11.7423 6.84754 10.9418C7.33229 10.4067 7.93085 10.1955 8.63423 10.1557Z" fill="#282828"/>
<path d="M3.22481 8.50475C3.97886 8.4885 4.64894 8.47573 5.2973 8.91096C5.94566 9.34623 6.22337 9.89836 6.37887 10.6383C6.01951 11.0812 5.87645 11.4551 5.72008 11.9882C5.14672 12.0097 4.48736 11.9943 3.90763 11.9945C2.87847 11.995 1.79111 12.0127 0.76659 11.9839C0.756744 10.9874 0.666684 10.116 1.37962 9.31521C1.89594 8.73508 2.47828 8.55296 3.22481 8.50475Z" fill="#282828"/>
<path d="M14.1465 8.50396C14.3081 8.50089 14.4697 8.49933 14.6313 8.49927C15.3755 8.50147 16.0383 8.68017 16.572 9.22466C17.3883 10.0581 17.28 10.9247 17.2748 11.9868C16.4669 12.0005 15.6355 11.9918 14.8256 11.9926C14.0023 11.9936 13.1388 12.0064 12.319 11.9825C12.1696 11.4466 12.017 11.0772 11.6582 10.64C11.944 9.2806 12.7684 8.58015 14.1465 8.50396Z" fill="#282828"/>
<path d="M8.86621 6.10946C9.82529 6.0252 10.6717 6.73362 10.7574 7.69266C10.8432 8.65171 10.136 9.49907 9.17722 9.58638C8.21611 9.67386 7.3665 8.96486 7.28049 8.00367C7.19449 7.04245 7.90482 6.1939 8.86621 6.10946Z" fill="#282828"/>
<path d="M3.25419 4.4824C3.87185 4.3675 4.50371 4.59363 4.90825 5.07444C5.31279 5.55526 5.42746 6.21645 5.20854 6.80545C4.98962 7.39441 4.47099 7.82021 3.85071 7.92014C2.90756 8.07205 2.01741 7.43721 1.85409 6.49595C1.69076 5.55471 2.3148 4.65713 3.25419 4.4824Z" fill="#282828"/>
<path d="M14.1492 4.48149C15.0938 4.30847 16.0008 4.93129 16.1783 5.87499C16.3558 6.81869 15.7373 7.72845 14.7944 7.91048C13.8452 8.09375 12.9278 7.47015 12.7491 6.52005C12.5705 5.56995 13.1983 4.65567 14.1492 4.48149Z" fill="#282828"/>
</svg>
