<svg width="18" height="18" viewBox="0 0 18 18" fill="none" xmlns="http://www.w3.org/2000/svg">
<path d="M16.6632 1.92859C16.699 1.93596 16.7685 1.94168 16.7964 1.96237C17.0037 2.1164 17.1012 3.41839 17.1485 3.72888C17.306 3.804 17.4641 3.87789 17.6228 3.95048C17.6943 4.89765 17.7601 5.84525 17.8203 6.79318C17.5353 7.11747 17.3299 7.38895 16.938 7.58547C16.4512 7.37651 16.5301 7.14629 16.1153 6.91986C16.0626 6.89109 16.008 6.92132 15.9635 6.9463C15.8561 7.0927 15.8721 7.61612 15.8646 7.81209C15.8497 8.29866 15.8287 8.785 15.8015 9.271C15.8943 9.26888 15.9871 9.26739 16.0799 9.2665C16.7174 9.26269 16.5085 9.80837 16.5061 10.3317C16.0826 10.4956 15.3574 10.6757 14.9022 10.8027C14.5558 11.9978 14.2812 13.2854 13.9447 14.4876C13.8591 14.7938 13.6193 15.8578 13.49 16.0637C13.1668 16.1352 10.0992 15.6921 9.52441 15.6197L3.86264 14.9136C3.54272 14.5013 3.23045 14.0576 2.92367 13.6335L1.36481 11.4955C0.980298 10.9684 0.563357 10.4207 0.200739 9.88315C0.189582 9.61846 0.123135 8.94143 0.304288 8.75605C0.548098 8.66752 1.19385 9.15932 1.26923 9.36329C1.49736 9.98043 1.59099 10.1696 2.23292 10.3537C2.74508 10.2302 3.30609 9.72583 3.79408 9.67639C5.03317 9.55092 6.50353 10.1827 7.69833 10.2704C8.18663 10.3062 9.7603 9.54533 10.2149 9.2664C10.7489 8.90255 11.1008 8.06149 11.5182 7.65834C12.941 6.28393 14.287 4.85264 15.6299 3.40185C15.9994 3.00262 16.2646 2.3425 16.6443 1.9479L16.6632 1.92859Z" fill="#282828"/>
</svg>
