<svg width="28" height="28" viewBox="0 0 28 28" fill="none" xmlns="http://www.w3.org/2000/svg">
<path d="M11.8683 4.51776C14.0412 4.37482 16.1843 5.0873 17.839 6.50311C19.5489 7.95849 20.6019 10.0406 20.7608 12.2805C20.9267 14.4857 20.2073 16.6666 18.7628 18.341C18.8088 18.3749 18.8544 18.4102 18.8985 18.4465C19.9668 19.3093 20.9827 20.2858 22.0382 21.1701C22.595 21.6366 23.1317 22.1325 23.6827 22.6096C23.9837 22.8702 24.1092 23.1485 23.8897 23.5256C23.7391 23.7685 23.3135 23.8585 23.0694 23.6838C22.6181 23.3607 22.1925 22.9598 21.7706 22.59L19.4298 20.548C18.9579 20.1398 18.3384 19.6323 17.9044 19.2023C16.7369 20.3544 14.7352 21.1147 13.1163 21.2492C10.89 21.4461 8.67772 20.7424 6.97373 19.2961C5.24889 17.8445 4.18421 15.7566 4.02354 13.508C3.85663 11.2859 4.58248 9.08888 6.03916 7.40253C7.54766 5.64505 9.57561 4.69137 11.8683 4.51776ZM12.1573 5.74432C8.21254 5.87298 5.11887 9.17549 5.24717 13.1203C5.37562 17.0648 8.67667 20.1582 12.6212 20.0305C16.5664 19.9024 19.6616 16.6006 19.5333 12.6555C19.405 8.71032 16.1024 5.61588 12.1573 5.74432Z" fill="#BA9B31"/>
</svg>
