<svg width="36" height="36" viewBox="0 0 36 36" fill="none" xmlns="http://www.w3.org/2000/svg">
<rect width="36" height="36" rx="4" fill="#BA9B31"/>
<g clip-path="url(#clip0_2016_6365)">
<path d="M23.5849 5.95219C24.0571 5.92642 24.1856 6.39539 24.2167 6.78617C24.2808 7.5916 24.2549 8.42557 24.2548 9.23539L24.2538 13.7559C24.7034 13.8864 24.996 14.196 25.0038 14.6856C25.0122 15.2214 24.7098 15.7965 24.4989 16.2793C24.449 16.3936 24.3064 16.5448 24.2743 16.6788C24.2048 17.4659 24.309 18.2976 24.2304 19.083C24.1864 19.5192 23.5671 19.634 23.288 19.3477C23.0966 19.1511 23.1394 18.758 23.1405 18.5049C23.0894 18.5945 23.0141 18.7056 22.9521 18.7891C22.2429 19.7368 21.4184 20.662 20.6894 21.587C18.8903 23.8696 18.6943 26.7313 18.7675 29.5225C18.771 29.657 18.7654 29.8101 18.6659 29.9082C18.4518 29.9594 17.7688 29.9424 17.5107 29.9424H12.331C11.8573 29.9426 10.9505 29.9695 10.5214 29.8975C10.3196 29.6859 10.5423 27.3566 10.3759 27.1983C10.167 27.288 9.49135 29.1632 9.43156 29.4961C9.42096 29.5544 9.38695 29.6387 9.36515 29.6973C9.29436 29.8877 9.17352 29.9359 8.98429 29.9454C8.48961 29.9502 7.99592 29.9332 7.50089 29.9385C7.3022 29.9407 6.8242 30.0028 6.7089 29.8311C6.67308 29.5981 6.81328 29.0972 6.87101 28.8477C7.14495 27.6102 7.49609 26.3909 7.92179 25.1973C8.42427 23.86 8.9628 22.433 10.1659 21.5918C10.6577 21.2339 11.2179 20.9874 11.8007 20.8204C11.9998 20.7632 12.3848 20.6151 12.5224 20.8555C12.6549 21.0878 12.7481 21.3704 12.8466 21.6211L13.5556 23.3838C13.6463 23.608 13.859 24.1739 13.9765 24.3467L13.9921 24.3682C14.1363 24.0892 14.2941 23.7776 14.2831 23.4551C14.2711 23.1047 14.018 22.7108 13.8808 22.3926C13.7794 22.1575 13.2088 20.794 13.2489 20.667C13.2596 20.6333 13.2947 20.6151 13.3261 20.6016C13.417 20.5625 13.5324 20.5537 13.6298 20.545C14.109 20.5019 14.5937 20.5045 15.0741 20.4746C15.3389 20.4582 15.6019 20.4067 15.8661 20.3926C15.9297 20.3892 15.988 20.386 16.0487 20.4073C16.0824 20.503 16.0268 20.6341 15.9892 20.7286C15.8378 21.1086 15.6834 21.489 15.5302 21.8682L14.4423 24.5635C14.3947 24.6843 14.3097 24.849 14.3583 24.962C14.4171 25.0103 14.4692 25.0226 14.5439 25.0303C14.5759 25.0333 14.6084 25.0346 14.6405 25.0342C14.7703 25.0329 14.9055 25.0046 15.0019 24.9112C15.1751 24.7429 15.6129 23.5233 15.7392 23.2061L16.5458 21.1983C16.6732 20.8822 16.8291 20.407 17.0068 20.1348C17.0923 20.0037 17.6355 19.821 17.8075 19.7286C17.9394 19.6577 18.0927 19.5784 18.2323 19.4961C18.8133 19.1493 19.3501 18.732 19.829 18.2539C20.3989 17.686 20.9167 17.0678 21.3749 16.4063C21.754 15.8598 22.7046 14.2965 23.1376 13.9512L23.1415 9.12504L23.1386 7.77543C23.1374 7.21085 23.0309 6.2741 23.5849 5.95219ZM15.6278 25.5811C15.434 25.4564 14.153 25.4991 13.8525 25.5108C13.5621 25.544 13.4425 25.6038 13.4296 25.919C13.4053 26.5135 13.4245 27.1119 13.4189 27.7071C13.4152 28.0908 13.3941 28.394 13.8837 28.4053C14.3847 28.4192 14.8844 28.412 15.3847 28.4014C15.5227 28.3877 15.6302 28.3731 15.7284 28.2569C15.7741 28.2025 15.8067 28.0154 15.8056 27.9541C15.7976 27.5683 15.8588 26.1212 15.7919 25.8164C15.7709 25.7195 15.7115 25.6344 15.6278 25.5811Z" fill="white"/>
<path d="M14.3056 12.7476C16.1266 12.5377 17.7707 13.8499 17.9711 15.673C18.1715 17.4961 16.8518 19.1345 15.0288 19.3257C13.219 19.5155 11.596 18.2065 11.3971 16.3966C11.1981 14.5867 12.4979 12.956 14.3056 12.7476Z" fill="white"/>
<path d="M24.6105 6.86383C24.8069 6.89863 26.2414 7.69102 26.5561 7.85933L29.3787 9.36554C29.4823 9.42132 29.5602 9.45696 29.5938 9.5686C29.5209 9.71861 28.0785 10.4402 27.8389 10.5671C27.405 10.7981 24.8753 12.2079 24.627 12.2202C24.4961 12.1211 24.5419 11.5296 24.542 11.3442L24.5418 9.94127L24.5419 8.00183C24.5419 7.78205 24.5035 7.00759 24.6105 6.86383Z" fill="white"/>
</g>
<defs>
<clipPath id="clip0_2016_6365">
<rect width="24" height="24" fill="white" transform="translate(6 6)"/>
</clipPath>
</defs>
</svg>
