<svg width="48" height="48" viewBox="0 0 48 48" fill="none" xmlns="http://www.w3.org/2000/svg">
<path d="M42.4726 7.08913C43.3731 7.00878 44.351 6.85574 45.1742 7.32758C45.8335 7.70574 46.2348 8.38373 46.396 9.11886C46.8274 11.0862 45.8427 13.8858 44.8022 15.5268C43.8481 17.032 21.2259 39.3078 19.4408 40.4601C18.022 41.3755 15.7262 41.6295 14.0753 42C12.0781 41.4167 3.57412 39.0528 2.51015 37.9923C2.31173 36.7419 5.0753 34.2464 6.1617 33.9407L13.5576 33.9181C15.4811 31.7811 17.417 29.6553 19.3651 27.5412C16.9733 27.3698 4.83082 26.1751 3.18889 25.503C2.30915 24.3701 3.85915 23.0652 4.61683 22.2227C6.63069 21.7585 10.4863 21.3103 12.6284 20.9917L28.3758 18.6303C33.5919 13.3939 35.0586 8.67083 42.4726 7.08913Z" fill="#BA9B31"/>
</svg>
