<svg width="24" height="24" viewBox="0 0 24 24" fill="none" xmlns="http://www.w3.org/2000/svg">
<path d="M12.3543 2.00008C13.708 1.99248 15.0094 2.52622 15.9676 3.4825C17.8571 5.35337 17.4838 7.59132 17.494 10.0421C17.8134 10.0401 19.4931 9.93666 19.5701 10.3018C19.7577 11.1936 19.6822 12.3804 19.6815 13.3155L19.6834 17.5811V19.9737C19.6833 20.4575 19.713 21.2215 19.619 21.6632C19.536 21.757 19.4214 21.8502 19.325 21.9337C18.887 22.0286 17.5369 21.9935 17.032 21.9932L12.7459 21.9903L7.98224 21.9932C7.21289 21.9951 6.38002 22.0124 5.61115 21.9776C5.33426 21.9651 5.20733 21.8194 5.04572 21.6143C4.98356 21.2348 5.00286 20.6304 5.00275 20.2305L5.00177 18.1319C5.0015 15.8181 5.0033 13.5046 5.00372 11.1895C5.00398 9.98877 5.28065 10.0375 6.41876 10.0343C6.67085 10.0335 6.94232 10.036 7.19611 10.0372L7.19513 8.05086C7.19637 6.32939 7.27247 5.15793 8.46369 3.75496C9.36294 2.69611 10.6455 2.11128 12.0223 2.00985C12.1152 2.00054 12.259 2.00069 12.3543 2.00008ZM6.32794 16.7296C6.32813 18.0084 6.30338 19.3866 6.33283 20.6573L14.6297 20.6612C15.8169 20.661 17.152 20.6309 18.3221 20.6641C18.3804 20.4601 18.3627 18.0931 18.3582 17.7589C18.3298 15.6476 18.3896 13.4845 18.3524 11.379H6.32794V16.7296ZM12.0926 13.4962C12.5895 13.4341 13.0914 13.5848 13.4061 13.9903C13.6211 14.2684 13.715 14.6219 13.6649 14.9698C13.598 15.4273 13.3452 15.7048 12.991 15.963C12.9933 16.4038 13.0174 17.3005 12.9412 17.6954C12.8213 17.8559 12.7921 17.8896 12.6356 18.0128C11.4731 18.3604 11.7549 16.6874 11.7606 15.9884C11.4755 15.7773 11.2849 15.6141 11.1453 15.2686C11.0163 14.9495 11.0217 14.5917 11.16 14.2764C11.3551 13.8333 11.6706 13.6555 12.0926 13.4962ZM15.9549 5.92196C15.396 4.21466 13.6446 3.11638 11.8641 3.35262C10.8016 3.521 9.89785 4.00356 9.26447 4.88582C8.48463 5.97228 8.53258 6.86424 8.534 8.12508L8.53693 10.0391L12.9002 10.043L16.1512 10.0391L16.1541 8.07332C16.1544 7.32007 16.193 6.64971 15.9549 5.92196Z" fill="#BA9B31"/>
</svg>
