<svg width="48" height="48" viewBox="0 0 48 48" fill="none" xmlns="http://www.w3.org/2000/svg">
<path d="M29.7277 31.0421C29.7709 31.0538 29.8242 31.0682 29.8874 31.0853C30.5375 31.8303 31.3334 33.748 31.886 34.4429C32.2512 34.341 32.6075 34.1573 32.9745 34.0571C34.5224 33.6344 36.5412 34.0229 37.6571 35.2414C40.2492 38.0717 39.1854 42.3211 35.3842 43.3597C35.3261 43.3899 35.3143 43.3882 35.2485 43.4004C34.1019 43.6119 32.643 43.3268 31.6749 42.6692C31.2187 42.3594 30.7019 41.8926 30.3965 41.4377C29.6167 40.2758 28.9556 38.9912 28.2629 37.7801L26.5324 34.7736C26.2839 34.3468 25.7322 33.5863 25.6445 33.1151C25.7028 33.0642 26.4648 32.9903 26.6292 32.9598C27.9829 32.7084 28.7969 32.0509 29.7277 31.0421ZM33.1461 39.5111C33.5875 39.8291 33.8934 40.0466 34.4829 39.9964C35.2838 39.8306 35.8558 39.2351 35.6701 38.3804C35.6019 38.0645 35.4107 37.7888 35.1386 37.6143C34.7982 37.3977 34.4635 37.3807 34.075 37.3906C32.8769 37.6835 32.7736 38.4588 33.1461 39.5111Z" fill="#BA9B31"/>
<path d="M11.2945 9.52908C11.447 9.11903 11.6744 8.46212 11.8711 8.05521C12.3533 7.0573 13.233 5.61554 14.238 5.05618C14.4066 4.96233 14.6648 5.01402 14.8444 5.0468C15.5732 5.95867 16.0397 6.94751 16.6239 7.9593C16.9554 8.53349 17.3869 9.19783 17.6812 9.77907C19.4675 9.90565 21.5571 9.60397 23.3632 9.49517C25.9953 9.33662 28.7058 9.11593 31.3376 9.07619C31.917 7.96188 32.9064 6.54683 33.5119 5.40772C34.3567 3.81848 36.4837 7.3424 36.756 8.0024C36.9394 8.38731 37.0755 8.88085 37.2583 9.25485C37.6249 9.33903 37.9868 9.36794 38.3599 9.40541C39.9855 9.56874 41.604 9.74998 43.2385 9.79987C44.0651 9.82513 44.906 9.7948 45.7257 9.88817C45.8989 9.90793 46.1769 10.0929 46.332 10.1894V10.8001C46.0622 10.936 43.874 13.758 43.333 14.2299C43.9235 14.9768 44.5209 15.6865 45.1447 16.4041C45.4666 16.7746 45.9827 17.4672 46.332 17.7801V18.3234C46.1516 18.4455 46.0751 18.5456 45.935 18.7078C45.1749 18.7794 44.3728 18.7538 43.6106 18.7335C41.1007 18.6668 38.595 18.3759 36.094 18.1653C35.7193 18.1337 35.6753 18.2224 35.467 18.523C33.4464 21.9721 31.4795 25.4556 29.4593 28.9045C28.9969 29.6939 28.7772 30.2706 28.0253 30.8488C26.7296 31.8452 25.5783 31.8234 24.0402 31.6529C23.5514 32.1001 23.0625 33.2311 22.6902 33.8432C21.8019 35.2619 21.0279 36.7577 20.1563 38.1866C19.1783 39.7899 18.4149 41.8827 16.725 42.8626C14.8282 43.9624 12.2044 43.5865 10.7877 41.8829C10.5719 41.6467 10.3486 41.4335 10.2131 41.1366C9.61588 39.8287 9.32623 38.7228 9.80288 37.3028C10.2181 36.0659 10.8709 35.0276 12.077 34.4249C13.1553 33.8756 14.3979 33.741 15.5689 34.0468C15.9441 34.1466 16.4188 34.3423 16.8101 34.472C17.3384 33.485 17.8899 32.5034 18.4389 31.5274C18.6935 31.0746 19.0036 30.6186 19.2642 30.1623L23.8424 22.1537C24.1662 21.5822 25.9211 18.764 25.9619 18.2517C25.8918 18.2284 23.0758 18.4867 22.7032 18.4973C22.9075 18.8395 23.454 19.6215 23.458 19.9913C23.4593 20.1171 19.045 27.8337 18.8408 28.0286C18.7654 28.1006 18.7412 28.0999 18.6445 28.0951C18.0336 26.8458 17.3277 25.6645 16.6147 24.4734C15.4792 22.5767 14.448 20.5346 13.2638 18.6758C11.8066 18.49 10.306 18.4402 8.84124 18.3335C7.64374 18.2462 6.4596 18.091 5.25588 18.0551C4.45771 18.0312 3.65269 18.0669 2.86044 17.9854C2.64328 17.9613 2.47961 17.7832 2.33203 17.6367V17.073C2.61704 16.9146 4.1937 14.6553 4.64754 14.3297C4.74057 14.2629 5.21985 13.6625 5.23043 13.5433C5.0765 13.2733 2.52069 10.2155 2.33203 10.074V9.41216C2.5237 9.31153 2.82019 9.13364 3.02374 9.11589C4.03336 9.02806 5.17454 9.09548 6.18865 9.14945C7.89296 9.24179 9.59525 9.36837 11.2945 9.52908ZM21.9331 17.1485C22.4463 17.1868 23.0317 17.1199 23.5515 17.0958C24.822 17.0371 26.0773 16.8852 27.3427 16.7773C29.717 16.5824 32.1022 16.5573 34.4801 16.7021C37.0054 16.8206 39.5763 17.1753 42.1133 17.2693C42.5147 17.2841 43.648 17.381 43.9575 17.3443L44.0074 17.2829C43.6452 16.5621 42.2594 15.3355 41.8167 14.5675C41.7238 14.4065 41.7122 14.2947 41.7548 14.117C41.896 13.5287 43.9743 11.651 43.9802 11.2689C43.7493 11.1198 39.5025 10.9558 38.8087 10.9049C37.0353 10.7747 35.0632 10.6131 33.2789 10.5342C32.3775 10.4946 31.4751 10.4829 30.5729 10.499C28.0976 10.5598 25.7072 10.8122 23.2365 10.9522L19.9966 11.1374C19.6466 11.1575 18.8755 11.1677 18.5857 11.222C18.6607 11.5954 19.1895 12.3788 19.3923 12.7347L21.0324 15.5951C21.2203 15.9157 21.7372 16.8992 21.9331 17.1485ZM10.2168 17.0346C10.5664 17.0612 12.1925 17.2229 12.4036 17.121C12.3539 17.0672 12.3047 17.0128 12.2563 16.9579C12.2133 16.909 11.9653 16.3301 11.9027 16.1999C10.9612 14.2422 10.8762 13.085 10.9834 10.9281C9.89273 10.8982 8.59159 10.6982 7.46314 10.6228C6.89866 10.5858 6.33376 10.5555 5.76856 10.5318C5.44194 10.5204 4.95875 10.5304 4.65245 10.4756C4.78055 11.1853 6.7707 12.7565 6.88053 13.4332C7.01859 14.2837 4.90317 15.7646 4.6656 16.5772L4.71308 16.6428L10.2168 17.0346ZM14.6051 39.9842C16.1145 39.6519 16.2595 37.3174 14.0922 37.392C12.2612 37.8701 12.7743 40.1609 14.6051 39.9842ZM24.7966 27.566C24.6439 28.1242 24.6681 28.7727 25.4605 28.643C25.8444 28.5768 26.0731 28.3573 26.0219 27.9271C25.9653 27.4508 25.5777 27.3612 25.1533 27.364L24.7966 27.566Z" fill="#BA9B31"/>
</svg>
