<svg width="40" height="40" viewBox="0 0 40 40" fill="none" xmlns="http://www.w3.org/2000/svg">
<path d="M6.25401 2.52117C10.9467 2.47263 15.7397 2.523 20.4405 2.52117L24.6593 2.51922C25.469 2.51864 26.3124 2.49132 27.1153 2.57879C28.1642 2.69307 29.4219 3.80266 29.5636 4.86492C29.7428 6.20802 29.6642 7.77064 29.6642 9.14324L29.6603 17.5368L30.0733 17.11C30.8584 16.304 31.503 15.7289 32.7159 15.7165C33.8423 15.7079 34.5915 16.2601 35.3468 17.0095C36.2283 17.8524 37.042 18.6967 37.0372 20.0007C37.0329 21.131 36.5265 21.8154 35.7491 22.5768C35.2137 23.1009 34.6713 23.6558 34.1378 24.1882L29.6593 28.6628L29.6612 31.3073L29.6651 33.2311C29.6666 34.4216 29.765 35.3969 28.9493 36.3737C27.913 37.6149 26.543 37.5055 25.0773 37.4909C24.3327 37.4835 23.5752 37.4862 22.8302 37.485L15.2706 37.4841L8.99229 37.488C8.60052 37.4887 8.2078 37.4939 7.81651 37.4899C7.06389 37.4706 6.2626 37.5378 5.51769 37.4382C4.11798 37.2508 2.99014 35.9764 2.93761 34.571C2.91112 33.8694 2.91811 33.2001 2.92101 32.5085L2.92394 29.1725L2.92198 18.1305V6.81609C2.92198 5.63589 2.82441 4.53646 3.68272 3.58465C4.33149 2.86523 5.02142 2.59201 5.98155 2.52801C6.07205 2.52464 6.16303 2.52257 6.25401 2.52117ZM24.2306 25.863C23.4743 26.6185 22.2078 27.8037 21.5509 28.6511C21.3731 28.8804 21.4259 30.1905 21.4298 30.5856L21.4376 31.318C21.9698 31.3211 23.6121 31.3601 24.0382 31.2624C24.5169 30.9649 26.5747 28.8548 27.0519 28.362C28.7596 26.5985 30.6315 24.8495 32.3204 23.0837C31.5039 22.267 30.4907 21.19 29.6612 20.4264L24.2306 25.863ZM16.6593 25.2175C16.2347 25.091 8.62589 25.0946 7.78526 25.1686C7.47541 25.326 7.19499 25.5169 7.08312 25.8639C6.99834 26.1269 7.03865 26.4216 7.16905 26.6628C7.27943 26.8674 7.47672 27.0664 7.70519 27.1325C8.13643 27.2565 15.8043 27.2532 16.5763 27.1774C16.904 27.0235 17.1492 26.8452 17.2726 26.4909C17.3625 26.2321 17.3387 25.9698 17.2159 25.7253C17.107 25.5076 16.8983 25.2888 16.6593 25.2175ZM20.3312 21.0368C16.2058 21.0556 12.0567 20.9786 7.93272 21.0329C6.90164 21.3176 6.71899 22.381 7.57726 22.9665C7.76367 23.0935 8.3422 23.0927 8.57335 23.0895C12.5493 23.0344 16.5602 23.1635 20.5323 23.0846C21.1337 22.9474 21.5563 22.4822 21.4122 21.8425C21.3495 21.5686 21.1789 21.3319 20.9386 21.1862C20.755 21.0761 20.5437 21.0358 20.3312 21.0368ZM32.463 17.7917C31.9778 18.04 31.5101 18.5777 31.1202 18.9762L33.7589 21.613C33.995 21.4967 34.3046 21.072 34.5128 20.8942C34.8901 20.573 35.1629 20.0447 34.8478 19.5612C34.4381 18.9332 33.6501 18.1143 32.9503 17.7975C32.8476 17.751 32.5767 17.7771 32.463 17.7917ZM10.2999 16.9216C9.54139 16.9216 8.58542 16.8933 7.83995 16.9284C7.5416 17.0518 7.18263 17.2822 7.10069 17.5993C6.85705 18.5461 7.49548 18.9737 8.29308 18.9762C11.7339 18.987 15.1661 18.9828 18.6026 18.9821L22.6046 18.9811C23.2008 18.981 24.1788 19.0093 24.7403 18.9616C25.6908 18.6027 25.8806 17.5821 24.9513 17.0134C24.8024 16.9224 24.4598 16.9421 24.2843 16.9255C21.1933 16.9113 18.1009 16.9192 15.0099 16.9206L10.2999 16.9216ZM9.98155 12.8102C9.37135 12.8099 8.3592 12.78 7.77647 12.8327C7.14128 13.1483 6.83913 13.637 7.17394 14.3327C7.266 14.5235 7.49315 14.735 7.70812 14.7995C8.35013 14.8935 9.19511 14.8599 9.84483 14.86L13.6241 14.861H20.84C22.04 14.8608 23.6058 14.9029 24.7706 14.8415C25.6915 14.482 25.8489 13.4468 24.963 12.8971C24.8237 12.8106 24.3637 12.833 24.1974 12.8141C20.7517 12.8028 17.2978 12.8083 13.8526 12.8093L9.98155 12.8102ZM20.7726 6.70867C20.4593 6.59829 12.561 6.57644 11.878 6.66961C11.5745 6.83196 11.2907 7.02512 11.1876 7.37273C11.1073 7.64298 11.1593 7.93761 11.298 8.17937C11.4151 8.38229 11.6154 8.572 11.8478 8.63152C12.328 8.75389 19.8735 8.73998 20.7042 8.66375C20.9962 8.51845 21.2731 8.32513 21.3858 8.00359C21.4745 7.75193 21.431 7.42558 21.3126 7.19012C21.2022 6.97064 21.0053 6.79062 20.7726 6.70867Z" fill="#BA9B31"/>
</svg>
