<svg width="36" height="36" viewBox="0 0 36 36" fill="none" xmlns="http://www.w3.org/2000/svg">
<path d="M14.2722 20.4596C13.3466 19.5004 12.9313 18.6184 12.9563 17.2877C12.995 15.2333 14.3888 13.9239 15.9588 12.8224C16.4205 12.4985 17.7604 11.57 17.8835 11.0585C17.8758 11.0265 17.8828 11.0287 17.848 11.0093C17.7668 10.964 17.674 10.9318 17.5962 10.8802C17.2532 10.6528 16.9771 10.2939 16.8755 9.89405C16.7639 9.4552 16.8183 8.96599 17.0566 8.57611C17.2201 8.3085 17.36 8.17276 17.6194 8.00049C17.4582 8.45712 17.4568 8.91113 17.67 9.35333C17.8635 9.75713 18.2112 10.0677 18.6361 10.2161C19.0732 10.3683 19.5536 10.3403 19.9697 10.1383C20.0081 10.1195 20.0918 10.0626 20.1213 10.0599C20.1393 10.126 20.0851 10.1918 20.0552 10.249C19.7169 10.8989 18.8449 11.3261 18.1173 11.1006C18.175 11.1914 18.2557 11.327 18.3207 11.408C18.6994 11.88 19.2405 12.2485 19.7293 12.6002C21.1222 13.602 22.5257 14.627 22.9242 16.3975C23.0729 17.0576 23.0892 17.6911 22.9451 18.3588C22.7576 19.2277 22.326 19.8363 21.7213 20.4643C21.7364 20.6975 21.7352 21.192 21.7255 21.4298C21.8817 21.4327 22.0488 21.4384 22.2041 21.4356C22.2055 21.8695 22.2173 22.3595 22.2041 22.7893C23.2434 22.8133 24.3084 22.7815 25.3499 22.794C25.6861 22.7981 26.031 22.7874 26.366 22.7958C26.3671 22.4953 26.374 22.172 26.3629 21.8729C26.2621 21.8445 26.1376 21.7877 26.0939 21.6906C25.9747 21.4254 26.1342 21.2635 26.3634 21.1903C26.3693 20.602 26.37 20.0136 26.3654 19.4254C26.014 19.3037 25.9489 19.0495 26.2153 18.7896C25.7767 18.3383 25.5592 18.0093 25.5598 17.3606C25.5607 16.3528 26.27 15.7791 27.0259 15.2455C27.3376 15.0255 27.6797 14.7998 27.7826 14.4174C27.8326 14.7097 28.043 14.8789 28.2661 15.0524C28.8278 15.4889 29.4713 15.8543 29.8005 16.5127C29.9094 16.7305 29.9382 16.9257 30 17.1571V17.6232L29.9916 17.6444C29.9554 17.7374 29.937 17.8908 29.8996 17.9907C29.7738 18.3278 29.5785 18.5382 29.3392 18.7908C29.4266 18.8742 29.5034 18.9464 29.503 19.0756C29.5023 19.2833 29.3457 19.3557 29.1925 19.4307C29.1724 19.8416 29.1959 20.2901 29.1874 20.7047C29.1843 20.8606 29.1943 21.0306 29.1832 21.1844C29.305 21.2288 29.41 21.2674 29.472 21.3948C29.5078 21.4698 29.512 21.556 29.4834 21.6341C29.4439 21.7427 29.3598 21.8088 29.2569 21.8539C29.2368 21.8627 29.2164 21.8708 29.1957 21.8784C29.1768 22.0902 29.1868 22.4221 29.1879 22.6436L29.1896 23.8412L29.1898 27.1902C29.1898 27.7708 29.2032 28.4119 29.1863 28.987C28.9043 29.0054 28.5821 28.9896 28.2957 28.9941C27.6751 29.0038 27.0393 28.9852 26.4199 28.9907C26.4363 28.1837 26.4213 27.3448 26.4146 26.5378C26.4093 25.8805 25.5629 25.2179 24.9934 24.9652C24.4678 25.2026 23.8567 25.6676 23.6413 26.2086C23.5418 26.4584 23.5679 26.8133 23.5642 27.0808C23.555 27.7142 23.5787 28.3541 23.5613 28.987C23.3036 29.0037 22.952 28.9941 22.688 28.9941L20.8395 28.9946C20.5945 28.9948 20.2371 28.9825 20.0038 28.9932C20.0176 28.3286 20.0054 27.6255 20.0054 26.9579L20.006 26.1575C20.0071 25.3643 19.9917 24.8651 19.3917 24.2681C19.095 23.973 18.4003 23.4152 17.994 23.2906C17.4606 23.5068 16.9008 23.9602 16.5093 24.3742C15.9028 25.0156 15.994 25.6843 15.994 26.4912L15.9943 28.0201C15.9945 28.3393 16 28.6731 15.9874 28.9909C15.6429 28.9959 12.4991 29.0151 12.4469 28.9791C12.423 28.8797 12.4335 28.4229 12.4338 28.2898L12.4348 27.1173C12.4349 26.8979 12.4452 26.6205 12.4103 26.4088C12.3099 25.7989 11.5479 25.1895 10.9978 24.9668C10.4778 25.2205 9.83845 25.6785 9.64184 26.244C9.53868 26.5409 9.58167 27.0418 9.57478 27.3695C9.56361 27.9001 9.59118 28.4614 9.56781 28.9915C8.81336 28.999 7.62709 28.9954 6.83369 28.9904C6.82799 28.9862 6.82229 28.982 6.81659 28.9779C6.80086 28.9191 6.80824 28.5025 6.8085 28.4066L6.80932 27.1735L6.80916 23.6973C6.80918 23.0957 6.8022 22.4698 6.81074 21.87C6.47501 21.7706 6.35895 21.4499 6.68526 21.2288C6.70467 21.2156 6.77983 21.1975 6.80601 21.1894C6.82243 20.6238 6.81428 19.9868 6.81006 19.4186C6.44823 19.2997 6.40029 19.0543 6.65345 18.7835C6.417 18.533 6.21806 18.3192 6.09595 17.9825C6.07013 17.9113 6.03077 17.6834 6 17.6379V17.107C6.04715 17.0029 6.06009 16.8792 6.0942 16.7699C6.32726 16.0235 6.99575 15.588 7.59504 15.1473C7.88019 14.9376 8.12824 14.7611 8.23571 14.4117C8.27359 14.7111 8.47802 14.8731 8.70761 15.0476C9.43931 15.6037 10.2971 16.095 10.4198 17.0967C10.5133 17.8598 10.2823 18.2546 9.78104 18.7916C10.0699 19.0407 9.9613 19.2996 9.63255 19.4283C9.62905 19.8213 9.62834 20.2144 9.63039 20.6075C9.63054 20.7809 9.63743 21.0101 9.62746 21.1801C9.75042 21.2257 9.85451 21.2646 9.91534 21.3942C9.9528 21.4744 9.95447 21.5666 9.91992 21.648C9.87432 21.7544 9.78427 21.8182 9.6787 21.8588C9.66425 21.8643 9.64968 21.8694 9.63498 21.8742C9.61954 22.1578 9.63266 22.4991 9.62982 22.7879C10.0299 22.8006 10.4503 22.7946 10.8517 22.7943L12.7673 22.7941C13.0848 22.7941 13.4782 22.7829 13.7908 22.7958L13.7946 21.4335C13.9438 21.4353 14.1272 21.4298 14.2718 21.4376C14.2632 21.1246 14.2703 20.775 14.2722 20.4596Z" fill="#FF4A27"/>
</svg>
