<svg width="16" height="16" viewBox="0 0 16 16" fill="none" xmlns="http://www.w3.org/2000/svg">
<g clip-path="url(#clip0_2158_4351)">
<path d="M7.99935 0.666626C3.95602 0.666626 0.666016 3.95663 0.666016 7.99996C0.666016 12.0433 3.95602 15.3333 7.99935 15.3333C12.0427 15.3333 15.3327 12.0433 15.3327 7.99996C15.3327 3.95663 12.0427 0.666626 7.99935 0.666626ZM8.66602 12H7.33268V7.99996H5.99935V6.66663H7.66602C8.21735 6.66663 8.66602 7.11529 8.66602 7.66663V12ZM7.99935 5.66663C7.54002 5.66663 7.16602 5.29263 7.16602 4.83329C7.16602 4.37396 7.54002 3.99996 7.99935 3.99996C8.45868 3.99996 8.83268 4.37396 8.83268 4.83329C8.83268 5.29263 8.45868 5.66663 7.99935 5.66663Z" fill="#282828"/>
</g>
<defs>
<clipPath id="clip0_2158_4351">
<rect width="16" height="16" fill="white"/>
</clipPath>
</defs>
</svg>
