<svg width="28" height="25" viewBox="0 0 28 25" fill="none" xmlns="http://www.w3.org/2000/svg">
<path opacity="0.4" d="M27.0011 18.7638L17.3543 2.04926C16.6078 0.765351 15.2719 0 13.7805 0C12.2891 0 10.9533 0.765529 10.2066 2.04926L10.2048 2.05294L0.558978 18.7647C-0.186622 20.0589 -0.186622 21.6042 0.560756 22.8966C1.30724 24.1884 2.64413 24.9592 4.13622 24.9592H23.4244C24.9166 24.9592 26.2533 24.1884 26.9998 22.8966C27.7472 21.604 27.7476 20.0589 27.0011 18.7638Z" fill="#EB001B"/>
<path d="M13.7808 15.1814C13.0447 15.1814 12.4475 14.5842 12.4475 13.8481V8.51473C12.4475 7.77855 13.0447 7.1814 13.7808 7.1814C14.517 7.1814 15.1142 7.77855 15.1142 8.51473V13.8481C15.1142 14.5842 14.517 15.1814 13.7808 15.1814Z" fill="#EB001B"/>
<path d="M13.7807 20.5148C12.7994 20.5148 12.0029 19.7148 12.0029 18.737C12.0029 17.7592 12.7994 16.9592 13.7807 16.9592C14.762 16.9592 15.5585 17.7594 15.5585 18.737C15.5585 19.7146 14.762 20.5148 13.7807 20.5148Z" fill="#EB001B"/>
</svg>
