<svg width="24" height="24" viewBox="0 0 24 24" fill="none" xmlns="http://www.w3.org/2000/svg">
<path d="M10.7031 8.55449C11.0136 8.53806 11.4238 8.53452 11.7437 8.53631C14.0751 8.5528 16.4713 8.59536 18.7238 9.25602C19.6204 9.51898 19.6803 9.7058 20.1637 10.4441L20.9871 11.7023C21.5342 12.5371 22.1028 13.3757 22.6431 14.2123C23.1177 14.9469 22.983 16.3018 22.9804 17.1855L13.3557 17.1854L1.01456 17.1851C1.01755 16.6682 0.942629 15.154 1.10627 14.7568C1.47824 13.8536 2.49127 12.5364 3.02667 11.6734C3.3422 11.3157 4.0954 9.85815 4.40987 9.64611C5.72622 8.75849 9.40197 8.60161 10.7031 8.55449Z" fill="#BA9B31"/>
<path d="M1.0131 17.8455L22.9838 17.8447L22.983 20.9873L21.6136 20.9871L20.5258 20.9882C20.5338 20.5894 20.6097 20.063 20.2896 19.7735L20.273 19.7586C20.0847 19.5887 19.7339 19.6051 19.4717 19.6048C16.1399 19.6023 12.8056 19.6046 9.47408 19.6035L5.9739 19.6031C5.33646 19.6032 4.67876 19.5825 4.04527 19.6288C3.37217 19.6779 3.45692 20.5192 3.46261 20.9867L1.01172 20.9872L1.0131 17.8455Z" fill="#BA9B31"/>
<path d="M6.3318 4.01852C6.62633 3.98841 7.22438 4.00408 7.53894 4.00405L9.78337 4.0045L16.8922 4.00251C17.6923 4.00296 18.3164 4.02375 18.9618 4.61992C19.0588 4.70954 19.1659 4.84024 19.1885 4.96924C19.2649 5.40539 19.2356 5.97191 19.2348 6.42199L19.2306 8.73817C18.7574 8.56918 18.3897 8.47433 17.8996 8.36602C17.9 7.51591 18.1312 6.64397 17.0957 6.38088C15.2858 5.97668 13.7625 6.09636 11.9995 6.59573C11.0052 6.28704 9.96922 6.13426 8.92832 6.14284C8.30564 6.15087 6.76757 6.23031 6.32596 6.68468C5.99934 7.02071 6.09891 7.86979 6.10608 8.36188C5.65615 8.46065 5.21206 8.58449 4.77587 8.73279L4.77243 6.42782C4.77192 6.01299 4.76197 5.58125 4.78214 5.1688C4.81676 4.45969 5.75093 4.12463 6.3318 4.01852Z" fill="#BA9B31"/>
<path d="M8.68587 6.80211C9.51522 6.72925 10.5466 6.9116 11.3516 7.08663L11.3483 7.8828C10.6307 7.8914 9.91356 7.9194 9.19752 7.9667C8.43097 7.99337 7.50675 8.12561 6.74298 8.23362C6.74777 8.01929 6.70612 7.22778 6.80527 7.13907C7.06487 6.90676 8.36341 6.82237 8.68587 6.80211Z" fill="#BA9B31"/>
<path d="M14.5923 6.80226C15.067 6.76577 16.7206 6.83627 17.1771 7.13554C17.2906 7.2099 17.2453 8.02074 17.2408 8.23245C16.7036 8.15473 16.1773 8.07705 15.6363 8.03319C14.6733 7.92518 13.6164 7.90554 12.6473 7.88032L12.6445 7.08815C13.3906 6.91637 13.83 6.84769 14.5923 6.80226Z" fill="#BA9B31"/>
</svg>
