<svg width="56" height="56" viewBox="0 0 56 56" fill="none" xmlns="http://www.w3.org/2000/svg">
<path d="M35.6922 7.32498C38.6138 7.38513 41.9048 6.70412 44.1053 8.9324C46.0872 10.9395 45.6122 14.1506 45.6121 16.7713L45.6082 25.4383L45.6072 38.8924C45.6096 41.1072 45.7255 43.5593 45.491 45.7361C45.2863 47.6367 43.06 49.7426 41.1336 49.8826C39.437 50.0059 37.6731 49.9604 35.9725 49.9588L27.3289 49.9597L19.7762 49.9607C17.3888 49.9604 14.9249 50.34 12.9754 48.7488C11.8864 47.8664 11.2006 46.5812 11.074 45.1853C10.9393 43.8033 11.0293 40.6408 11.0311 39.1629L11.033 27.5574L11.032 17.1482C11.0322 15.9598 10.9597 13.0274 11.0945 11.9304C11.2225 10.9494 11.6197 10.0229 12.243 9.25466C13.2365 8.05437 14.4839 7.5015 16.0067 7.36013C16.8896 7.25344 19.893 7.3358 20.9627 7.32986C20.5981 7.66026 20.194 8.02307 19.8553 8.37771C17.6947 10.6229 16.5194 13.6377 16.5906 16.7527C16.6708 19.9173 18.0263 22.9157 20.3485 25.0672C22.6055 27.1719 25.6058 28.2958 28.6902 28.1912C31.8428 28.1046 34.8241 26.7361 36.9451 24.4021C39.0538 22.1232 40.1682 19.0982 40.0428 15.9959C39.8945 12.3069 38.3156 9.75757 35.6922 7.32498ZM21.1815 43.9178C19.931 43.9171 17.8944 43.8554 16.7166 43.9451C15.9693 44.6349 16.1254 45.3846 17.2264 45.4168C18.4067 45.451 19.5765 45.4439 20.7567 45.4441L27.1922 45.4451L35.2352 45.4441C36.7352 45.4436 38.4784 45.48 39.9598 45.4129C40.3718 45.1601 40.4911 44.667 40.244 44.2332C40.1184 44.013 39.8237 43.9638 39.5975 43.9441C38.4387 43.8773 37.2478 43.9106 36.0877 43.9148L29.7039 43.9226L21.1815 43.9178ZM19.2244 39.5144C18.4244 39.5136 16.2275 39.2088 16.202 40.4197C16.4641 41.3276 18.341 41.0542 19.1287 41.0574L33.286 41.0564L37.6902 41.0584C38.4687 41.0593 40.3417 41.3821 40.4217 40.2381C40.4879 39.2854 38.2996 39.505 37.6844 39.5125L23.5731 39.5154L19.2244 39.5144ZM21.1815 35.0056C19.931 35.005 17.8944 34.9433 16.7166 35.033C15.9693 35.7228 16.1254 36.4725 17.2264 36.5047C18.4067 36.5389 19.5765 36.5318 20.7567 36.532L27.1922 36.533L35.2352 36.532C36.7352 36.5315 38.4784 36.5679 39.9598 36.5008C40.3718 36.248 40.4912 35.7549 40.244 35.3211C40.1184 35.1009 39.8237 35.0517 39.5975 35.032C38.4387 34.9652 37.2478 34.9985 36.0877 35.0027L29.7039 35.0105L21.1815 35.0056ZM19.2244 30.6023C18.4244 30.6015 16.2275 30.2967 16.202 31.5076C16.464 32.4156 18.341 32.142 19.1287 32.1453L33.286 32.1443L37.6902 32.1463C38.4687 32.1472 40.3418 32.4701 40.4217 31.326C40.4879 30.3733 38.2996 30.5938 37.6844 30.6013L23.5731 30.6033L19.2244 30.6023Z" fill="#23232D"/>
<path d="M27.0221 6.08437C32.7522 5.35893 37.9847 9.41907 38.7047 15.1498C39.4246 20.8804 35.3598 26.1089 29.6285 26.8236C23.9047 27.5373 18.6846 23.4784 17.9655 17.7553C17.2463 12.0323 21.2999 6.80912 27.0221 6.08437ZM34.775 11.0062C33.919 11.5177 26.5728 19.0641 25.6686 19.9682C24.8995 19.078 22.112 15.7491 20.8659 16.683C20.3692 17.6118 21.0799 18.3372 21.7116 18.932C22.4212 19.6272 24.8521 22.2632 25.6979 22.2709C26.7828 21.8715 32.0123 16.3775 32.7575 15.6068C33.9134 14.4112 35.2737 13.467 35.9918 12.1039C36.2412 11.6303 35.2211 11.0861 34.775 11.0062Z" fill="#23232D"/>
</svg>
