<svg width="29" height="22" viewBox="0 0 29 22" fill="none" xmlns="http://www.w3.org/2000/svg">
<path d="M12.5876 5.8986C12.9903 5.87732 13.5224 5.87274 13.9375 5.87505C16.9618 5.89641 20.0705 5.95152 22.9925 6.8071C24.1556 7.14764 24.2333 7.38957 24.8605 8.34563L25.9287 9.97502C26.6383 11.0561 27.3759 12.1422 28.0769 13.2256C28.6925 14.1769 28.5179 15.9315 28.5144 17.0759L16.0287 17.0757L0.0188939 17.0754C0.0227643 16.406 -0.0744254 14.4451 0.137859 13.9307C0.620407 12.7611 1.93458 11.0552 2.62914 9.93771C3.03846 9.47438 4.01556 7.58687 4.42351 7.31227C6.13117 6.16279 10.8996 5.95962 12.5876 5.8986Z" fill="white"/>
<path d="M0.0164464 17.9292L28.5183 17.9282L28.5172 21.998L26.7408 21.9976L25.3296 21.9991C25.34 21.4826 25.4385 20.801 25.0233 20.426L25.0016 20.4067C24.7574 20.1866 24.3023 20.2079 23.9621 20.2076C19.6399 20.2044 15.3145 20.2073 10.9926 20.2059L6.45192 20.2053C5.62499 20.2055 4.77178 20.1787 3.94997 20.2386C3.07679 20.3022 3.18672 21.3917 3.19411 21.9971L0.0146484 21.9978L0.0164464 17.9292Z" fill="white"/>
<path d="M6.91462 0.0239837C7.2967 -0.0150145 8.07254 0.00528633 8.48061 0.00524721L11.3922 0.00583392L20.6142 0.00325252C21.6522 0.00383926 22.4618 0.0307504 23.2991 0.802813C23.4249 0.918868 23.5639 1.08812 23.5932 1.25518C23.6923 1.82001 23.6543 2.55366 23.6533 3.13652L23.6478 6.13602C23.0339 5.91717 22.557 5.79434 21.9212 5.65408C21.9217 4.55317 22.2215 3.42398 20.8783 3.08329C18.5304 2.55984 16.5542 2.71482 14.2672 3.36152C12.9773 2.96176 11.6333 2.76391 10.283 2.77502C9.47522 2.78542 7.47994 2.8883 6.90704 3.47671C6.48333 3.91187 6.6125 5.01145 6.6218 5.64872C6.03812 5.77663 5.46202 5.937 4.89616 6.12906L4.8917 3.14407C4.89104 2.60686 4.87814 2.04774 4.90429 1.51362C4.94921 0.595305 6.16107 0.161397 6.91462 0.0239837Z" fill="white"/>
<path d="M9.9699 3.62874C11.0458 3.53439 12.3838 3.77053 13.428 3.99721L13.4238 5.02825C12.4929 5.0394 11.5625 5.07566 10.6336 5.13692C9.63923 5.17145 8.44027 5.3427 7.44945 5.48258C7.45567 5.20502 7.40164 4.17999 7.53026 4.06511C7.86703 3.76427 9.55158 3.65499 9.9699 3.62874Z" fill="white"/>
<path d="M17.6354 3.62908C18.2513 3.58182 20.3965 3.67312 20.9887 4.06068C21.1358 4.15698 21.0771 5.20704 21.0712 5.4812C20.3744 5.38055 19.6917 5.27995 18.9897 5.22315C17.7405 5.08327 16.3694 5.05785 15.1122 5.02519L15.1086 3.9993C16.0765 3.77685 16.6465 3.68791 17.6354 3.62908Z" fill="white"/>
</svg>
