<svg width="36" height="36" viewBox="0 0 36 36" fill="none" xmlns="http://www.w3.org/2000/svg">
<path d="M23.9685 5.14405C24.1601 5.13602 24.347 5.20633 24.4851 5.33936C24.565 5.4168 24.6227 5.51467 24.6531 5.62159C24.7155 5.83961 24.6936 6.62096 24.6941 6.90772C24.7194 6.90646 24.7448 6.90567 24.7703 6.90577L26.4792 6.90772C27.674 6.90605 28.6002 6.82512 29.5398 7.76905C29.9696 8.20085 30.2504 8.75848 30.3425 9.36085C30.3881 9.66183 30.3826 9.98473 30.3826 10.2896L30.3816 11.3247L30.3806 14.8501L30.3826 27.6646C30.3816 28.5976 30.2104 29.3305 29.5163 30.0171C29.0475 30.4797 28.4344 30.7678 27.779 30.8335C27.5193 30.8601 27.238 30.853 26.9753 30.853L25.8347 30.8521H13.8913L10.6853 30.853C10.2385 30.8533 9.28419 30.8788 8.87181 30.812C8.27828 30.7156 7.72928 30.4368 7.30052 30.0151C6.6777 29.4042 6.43407 28.6769 6.43041 27.8198V11.3999L6.42943 10.3452C6.42929 9.988 6.41942 9.6811 6.47728 9.32471C6.57642 8.72674 6.86183 8.17485 7.29271 7.74854C8.21847 6.82343 9.16185 6.90623 10.3357 6.90674H12.1228C12.0819 6.58658 12.1258 6.03441 12.1384 5.69874C12.15 5.39839 12.4686 5.18573 12.7497 5.14405C12.9486 5.13401 13.1453 5.19199 13.2898 5.3335C13.3777 5.42023 13.4405 5.52932 13.4714 5.64893C13.5279 5.86045 13.5066 6.64055 13.5056 6.90674C14.5202 6.89423 15.5672 6.90772 16.5857 6.90772L23.3083 6.90674C23.2962 6.69969 23.2942 5.81946 23.3337 5.65479C23.3598 5.5472 23.4131 5.44819 23.488 5.36671C23.6115 5.2309 23.7851 5.15038 23.9685 5.14405ZM8.54662 13.1284C8.3184 13.1294 8.04039 13.139 7.8181 13.1304C7.8402 14.3563 7.82201 15.6375 7.82201 16.8667V26.8081L7.82103 27.603C7.82046 28.1738 7.83484 28.6051 8.27709 29.0347C8.51557 29.268 8.8254 29.4142 9.15697 29.4507C9.36612 29.4738 9.70131 29.4655 9.92064 29.4653L11.1882 29.4634H27.4333C27.8776 29.4622 28.2537 29.3177 28.5671 28.9946C29.0472 28.4664 28.9935 28.0039 28.99 27.3296C28.9892 27.1597 28.9892 26.9842 28.989 26.814V14.5435C28.9888 14.0947 28.9768 13.5751 28.9968 13.1314L14.0544 13.1274H9.83373L8.54662 13.1284ZM20.199 22.3081C20.3019 22.3169 20.4017 22.3487 20.491 22.4009C20.9136 22.6454 20.8292 23.1565 20.8288 23.5757V25.9497C20.8287 26.5087 20.9441 27.0974 20.2488 27.2642C20.0834 27.2837 19.7827 27.2751 19.6081 27.2749L18.5163 27.2739L17.2439 27.2759C16.8356 27.2767 16.293 27.3601 16.0154 27.0249C15.8833 26.8656 15.8578 26.717 15.8523 26.5181C15.8459 26.2884 15.8485 26.0603 15.8484 25.8315L15.8474 24.5513L15.8484 23.5698C15.8485 23.0302 15.7617 22.4617 16.4402 22.3091C16.6434 22.2907 16.9332 22.2982 17.1423 22.2983L18.3308 22.2993L19.5046 22.2974C19.7057 22.2972 20.0052 22.2899 20.199 22.3081ZM13.0681 22.2974C13.5125 22.2971 14.2258 22.1989 14.3816 22.7905C14.436 22.9979 14.4151 23.3749 14.4148 23.5991V24.6978L14.4158 25.8921C14.4158 26.4498 14.5383 27.0868 13.8484 27.2603C13.6912 27.2829 13.3819 27.2751 13.2117 27.2749L12.1316 27.2739L10.8132 27.2749C10.3413 27.2756 9.6441 27.3792 9.4724 26.8023C9.41465 26.6075 9.43697 26.0975 9.43724 25.8755L9.43627 24.7368V23.6226C9.43641 23.0656 9.32633 22.4657 10.0251 22.3091C10.2257 22.2895 10.5144 22.2972 10.7214 22.2974L11.8992 22.2983L13.0681 22.2974ZM13.071 15.2485C13.5223 15.2483 14.2418 15.151 14.3845 15.7671C14.4337 15.9795 14.4128 16.331 14.4128 16.5591V18.8794C14.4133 19.4404 14.5275 20.067 13.8161 20.2192C13.6372 20.2369 13.3378 20.229 13.1531 20.229L11.9695 20.228L10.7878 20.23C10.351 20.231 9.6191 20.3299 9.46752 19.7398C9.41267 19.526 9.43443 19.1405 9.43431 18.9048V17.7026L9.43529 16.5962C9.43438 16.0287 9.31974 15.4096 10.0369 15.2603C10.244 15.2413 10.5294 15.2484 10.7439 15.2485L11.9109 15.2495L13.071 15.2485ZM19.5271 15.2485C19.7264 15.2484 20.0193 15.2398 20.2087 15.2603C20.3187 15.271 20.4244 15.3081 20.5173 15.3677C20.8983 15.6091 20.8326 16.0328 20.8328 16.4224V18.8433C20.8326 19.4183 20.9638 20.0741 20.2253 20.2202C19.9906 20.2366 19.6887 20.2292 19.4499 20.229L18.1697 20.2271L17.1081 20.23C16.8134 20.2305 16.4538 20.2689 16.1941 20.1245C15.7658 19.8863 15.8515 19.3183 15.8513 18.895V16.606C15.8507 16.0395 15.74 15.4218 16.4499 15.2612C16.6609 15.2405 16.9628 15.2484 17.1804 15.2485L18.4011 15.2495L19.5271 15.2485ZM25.9578 15.2495C26.4282 15.2494 27.1074 15.1593 27.2673 15.7398C27.3233 15.9437 27.3004 16.4196 27.3005 16.6499V18.9907C27.3007 19.5347 27.3866 20.0738 26.7009 20.2212C26.5147 20.2387 26.2143 20.23 26.0232 20.23L24.8044 20.229L23.6404 20.23C23.4198 20.2304 23.1993 20.2352 22.9783 20.2241C22.6762 20.2086 22.3731 19.9672 22.3396 19.6577C22.3278 19.5489 22.3242 19.4368 22.323 19.3247V16.6567C22.323 16.0725 22.1902 15.4192 22.9245 15.2612C23.1264 15.2418 23.4097 15.2494 23.6189 15.2495L24.7615 15.2505L25.9578 15.2495ZM10.2019 8.29737C9.93648 8.29731 9.46178 8.28227 9.21556 8.30518C8.78854 8.35011 8.43546 8.51416 8.16185 8.85401C8.0176 9.03221 7.91697 9.2416 7.86693 9.46534C7.80147 9.75259 7.82887 9.99975 7.82103 10.2847C7.80818 10.7516 7.84295 11.2839 7.81615 11.7446L19.8064 11.7437H25.8454C26.8866 11.7437 27.9552 11.73 28.9929 11.7456C28.9876 11.2991 28.986 10.8523 28.989 10.4058C28.9892 10.1512 28.9979 9.83409 28.9695 9.58643C28.8979 9.17132 28.7042 8.81877 28.3542 8.57374C28.1777 8.44966 27.9766 8.36521 27.7644 8.32667C27.5286 8.28376 27.1251 8.29714 26.8679 8.29737L25.4626 8.29835C25.2385 8.29851 24.9116 8.30841 24.6941 8.29346C24.6936 8.55759 24.7185 9.35127 24.6609 9.56495C24.6326 9.6729 24.5764 9.77185 24.4988 9.85206C24.365 9.98777 24.1815 10.0627 23.991 10.0591C23.7977 10.0543 23.6148 9.97112 23.4841 9.82862C23.4162 9.75395 23.3675 9.66418 23.3406 9.5669C23.2871 9.3701 23.3026 8.56269 23.3093 8.29932L16.6404 8.29835H14.5681C14.2578 8.29835 13.8051 8.31145 13.5036 8.29444C13.5052 8.56514 13.5284 9.33744 13.4734 9.55323C13.4435 9.67162 13.3815 9.77989 13.2947 9.86573C13.1576 9.99775 12.9721 10.0681 12.782 10.0591C12.5899 10.0494 12.4095 9.96156 12.2839 9.81592C12.2169 9.73817 12.1696 9.64517 12.1453 9.54542C12.101 9.36411 12.1163 8.53984 12.1208 8.3003L10.2019 8.29737Z" fill="#0B56FC"/>
</svg>
