<svg width="24" height="24" viewBox="0 0 24 24" fill="none" xmlns="http://www.w3.org/2000/svg">
<path d="M9.56988 18.8201C9.75988 18.8201 9.94988 18.7501 10.0999 18.6001C10.3899 18.3101 10.3899 17.8301 10.0999 17.5401L4.55988 12.0001L10.0999 6.46012C10.3899 6.17012 10.3899 5.69012 10.0999 5.40012C9.80988 5.11012 9.32988 5.11012 9.03988 5.40012L2.96988 11.4701C2.67988 11.7601 2.67988 12.2401 2.96988 12.5301L9.03988 18.6001C9.18988 18.7501 9.37988 18.8201 9.56988 18.8201Z" fill="#282828"/>
<path d="M3.67 12.75H20.5C20.91 12.75 21.25 12.41 21.25 12C21.25 11.59 20.91 11.25 20.5 11.25H3.67C3.26 11.25 2.92 11.59 2.92 12C2.92 12.41 3.26 12.75 3.67 12.75Z" fill="#282828"/>
</svg>
