<svg width="26" height="26" viewBox="0 0 26 26" fill="none" xmlns="http://www.w3.org/2000/svg">
<path d="M9.65263 22.392C9.44679 22.392 9.24096 22.3162 9.07846 22.1537C8.76429 21.8395 8.76429 21.3195 9.07846 21.0053L16.1418 13.942C16.6618 13.422 16.6618 12.577 16.1418 12.057L9.07846 4.9937C8.76429 4.67953 8.76429 4.15953 9.07846 3.84537C9.39263 3.5312 9.91263 3.5312 10.2268 3.84537L17.2901 10.9087C17.8426 11.4612 18.1568 12.2087 18.1568 12.9995C18.1568 13.7903 17.8535 14.5378 17.2901 15.0903L10.2268 22.1537C10.0643 22.3053 9.85846 22.392 9.65263 22.392Z" fill="#282828"/>
</svg>
