<svg width="26" height="26" viewBox="0 0 26 26" fill="none" xmlns="http://www.w3.org/2000/svg">
<path d="M9.65261 22.3919C9.44678 22.3919 9.24094 22.3161 9.07844 22.1536C8.76428 21.8394 8.76428 21.3194 9.07844 21.0053L16.1418 13.9419C16.6618 13.4219 16.6618 12.5769 16.1418 12.0569L9.07844 4.99364C8.76428 4.67947 8.76428 4.15947 9.07844 3.84531C9.39261 3.53114 9.91261 3.53114 10.2268 3.84531L17.2901 10.9086C17.8426 11.4611 18.1568 12.2086 18.1568 12.9994C18.1568 13.7903 17.8534 14.5378 17.2901 15.0903L10.2268 22.1536C10.0643 22.3053 9.85844 22.3919 9.65261 22.3919Z" fill="white"/>
</svg>
