<svg width="64" height="64" viewBox="0 0 64 64" fill="none" xmlns="http://www.w3.org/2000/svg">
<path d="M22.3353 3.99047C25.6839 3.90053 29.4543 3.98606 32.8363 3.98363L38.4555 3.97875C40.6365 3.97762 42.7455 3.86797 44.8744 4.41039C48.2168 5.2621 51.2553 7.44015 53.0258 10.4104C56.3681 10.5147 58.9872 12.5739 59.9203 15.7678C60.6173 16.0592 61.1735 16.4353 61.5619 17.1047C61.7477 17.425 61.8427 17.7038 61.891 18.0705C62.0419 19.2157 62.0593 25.5366 61.7924 26.5198C61.6134 27.1786 61.11 27.7353 60.5258 28.0686C59.8701 28.4428 59.0571 28.5812 58.3236 28.3596C57.6896 28.168 56.9812 27.5341 56.6781 26.9651C56.4962 26.6237 56.4042 26.2439 56.3666 25.8606C56.2662 24.8389 56.3459 23.7438 56.3432 22.7121C56.3394 21.3144 56.2615 19.8716 56.3539 18.4797C56.3739 18.1699 56.4285 17.8635 56.516 17.5657C56.7689 16.7352 57.3532 16.2604 58.0873 15.8752C57.979 15.6076 57.8562 15.3457 57.7201 15.0911C56.8729 13.4949 55.6748 12.8187 54.0131 12.3137C54.7101 13.9284 55.051 15.9383 55.0531 17.6858C55.0593 22.9089 55.0541 28.1371 55.056 33.3596L55.057 38.9582C55.0575 44.3019 55.0211 47.66 51.0111 51.8L51.0228 55.2649C51.0288 56.915 51.2546 58.6965 49.9613 59.9768C48.7951 61.1312 47.5329 61.0253 46.0492 61.0315C44.575 61.0376 43.1486 61.1402 42.0189 59.97C40.9554 58.8863 40.9733 57.6954 40.9808 56.3205C40.9842 56.1126 41.0197 55.8616 40.9037 55.7112C40.5069 55.66 39.7204 55.6833 39.2953 55.6838L36.4545 55.6848L27.6117 55.6868C26.2231 55.687 24.2153 55.7502 22.8871 55.6594C22.8907 56.1861 22.891 56.7128 22.8881 57.2395C22.8778 58.3355 22.5963 59.2241 21.7865 60.0325C20.4172 61.3935 18.4177 60.9573 16.684 61.0227C15.6156 61.0342 14.6145 60.7196 13.8705 59.9397C12.8176 58.8357 12.842 57.6083 12.851 56.1799C12.8602 54.716 12.8474 53.243 12.8754 51.7747C11.8849 50.9723 10.7288 49.1938 10.1791 48.0471C9.52705 46.7034 9.10448 45.2597 8.92811 43.7766C8.75724 42.2967 8.81829 40.1759 8.81874 38.6321L8.82362 30.4026L8.81679 21.384C8.8187 17.7904 8.61491 15.815 9.83436 12.3303C9.54708 12.4196 9.26212 12.5175 8.98085 12.6243C7.35721 13.2497 6.53342 14.3111 5.84901 15.8411C6.82487 16.4057 7.55391 17.1223 7.57655 18.3176C7.62305 20.7708 7.59387 23.2623 7.58632 25.7141C7.58037 27.6576 5.5832 28.9781 3.77968 28.2405C2.42392 27.6858 1.98519 26.5711 2.00038 25.1692C2.05001 22.9483 1.97148 20.6758 2.02089 18.4514C2.0498 17.1547 2.82797 16.2615 4.00331 15.7854C4.83583 12.4625 7.58501 10.6857 10.8627 10.4114C11.205 9.75363 11.9808 8.75914 12.4974 8.22973C15.2922 5.36595 18.414 4.11276 22.3353 3.99047ZM39.8881 42.8118C38.3065 42.6728 35.8522 42.7455 34.1928 42.7454L24.7113 42.7571C24.0161 42.7904 23.2431 43.0632 23.226 43.8635C23.1882 45.6504 23.0837 47.772 23.2064 49.5452C23.5014 50.0355 23.6028 50.1608 24.1039 50.4573C25.2275 50.5073 26.4471 50.5001 27.5775 50.4827C31.5028 50.4222 35.4749 50.5575 39.3949 50.4748C41.121 50.4321 40.7531 48.3323 40.767 47.1604C40.7799 46.0735 40.7843 44.8474 40.7191 43.7649C40.7168 43.7235 40.7136 43.6821 40.7094 43.6409C40.4317 43.2041 40.3304 43.0745 39.8881 42.8118ZM19.225 43.6057C18.925 42.1997 17.5353 41.3081 16.1322 41.6213C14.748 41.9306 13.8714 43.2976 14.1674 44.6848C14.4635 46.0719 15.8215 46.9615 17.2113 46.6789C18.6201 46.3923 19.5248 45.0117 19.225 43.6057ZM49.1967 42.4368C48.582 41.7381 47.639 41.423 46.7279 41.6125C45.3405 41.9012 44.4437 43.2533 44.7172 44.6438C44.991 46.0344 46.3334 46.9456 47.7269 46.6868C48.6418 46.5168 49.3946 45.8688 49.6986 44.9895C50.0026 44.1102 49.8111 43.1353 49.1967 42.4368ZM12.4584 12.2161C11.127 15.2561 11.1565 16.3559 11.1576 19.5989L11.1615 24.3733C11.1639 29.2829 11.1108 34.2751 11.1644 39.177L29.4486 39.1819L30.8119 39.178L30.807 12.2239L12.4584 12.2161ZM33.1068 12.2258C33.0477 13.8305 33.0822 15.5923 33.0834 17.2131L33.0883 25.6985L33.0863 34.4495C33.0861 35.964 33.0464 37.6783 33.1 39.1809L52.7182 39.1789L52.724 24.2209L52.725 19.6418C52.7233 16.5771 52.7671 15.0572 51.389 12.2219L33.1068 12.2258ZM33.4223 6.39184C30.127 6.3919 26.2896 6.3023 23.0492 6.41039C22.4726 6.48747 22.0179 6.64587 21.641 7.13012C21.3344 7.53062 21.2022 8.03817 21.2748 8.53734C21.347 9.04565 21.6179 9.50447 22.0277 9.81371C22.7157 10.3277 24.4426 10.1712 25.3226 10.1711L29.7924 10.1692L36.9916 10.1663C38.272 10.1663 39.7045 10.1964 40.976 10.1545C42.825 9.81172 43.2282 7.70497 41.7816 6.70434C41.1369 6.25842 38.8754 6.39309 38.0473 6.39281L33.4223 6.39184Z" fill="#035B71"/>
</svg>
