<svg width="72" height="72" viewBox="0 0 72 72" fill="none" xmlns="http://www.w3.org/2000/svg">
<path d="M33.8962 6.0321C34.5574 5.97912 35.2318 6.00345 35.8952 6.00296C41.9895 5.99856 56.2056 6.20331 60.5341 10.5602C61.0948 11.1248 61.5452 11.7623 61.7821 12.5275C62.1509 13.7183 62.0194 15.2747 62.0184 16.5318L62.0187 20.0098C62.0518 20.0108 62.0848 20.0117 62.1179 20.0127C63.2291 20.0715 64.2708 20.5723 65.0109 21.4036C66.2255 22.779 65.9822 24.1272 65.9977 25.8216C66.0044 26.5606 66.0307 27.5234 65.9868 28.2497C65.9305 29.3248 65.4352 30.3297 64.6168 31.0293C63.985 31.5788 62.8758 32.0894 62.031 32.0282C61.9969 32.6836 62.017 33.4638 62.0173 34.1278L62.017 37.7261L62.0177 48.7392L62.0194 52.3504C62.0198 53.1369 62.0486 54.0907 61.9431 54.8574C61.7543 56.2422 61.0836 57.5163 60.0489 58.456C59.7128 58.757 59.382 58.9651 59.0273 59.234C58.8093 61.8402 59.6625 64.4094 57.5679 66.53C56.6338 67.4746 55.3636 68.0104 54.0351 68.0206C52.6886 68.0248 51.3966 67.4894 50.4481 66.5335C48.6678 64.7282 48.9989 62.4125 49.0049 60.0352C47.9414 60.0525 46.7876 60.025 45.7125 60.0247H38.0566L27.8563 60.024L24.5794 60.025C24.0588 60.0254 23.5233 60.0504 23.0073 60.031L23.0104 62.0152C23.0096 63.7723 22.9247 65.103 21.6275 66.4685C20.7123 67.4261 19.456 67.9834 18.1319 68.0196C16.7913 68.0491 15.4941 67.5429 14.5279 66.613C13.0329 65.1617 12.9992 63.6402 13.0022 61.7241C13.0085 60.8941 13.0062 60.0641 12.9951 59.234C12.5713 58.9384 12.1692 58.662 11.7972 58.2985C10.9589 57.4713 10.3849 56.4138 10.1481 55.2603C9.94731 54.2661 9.99731 52.921 9.99752 51.8776L9.99942 47.8111L9.99302 32.0433C7.82152 31.9064 6.09837 30.3673 6.0282 28.1306C6.00356 27.3447 6.02247 26.5439 6.01572 25.773C6.00162 24.1617 5.87081 22.5669 7.08004 21.3122C7.85313 20.4701 8.8536 20.0658 9.98602 20.0251C10.0325 18.6683 9.99748 17.3002 9.99731 15.9422C9.9972 14.8442 9.91307 13.6561 10.2212 12.5932C10.4255 11.8885 10.8335 11.2462 11.3322 10.7135C14.8349 6.97155 24.8157 6.3464 29.841 6.13666C31.1928 6.08023 32.5453 6.08069 33.8962 6.0321ZM51.5302 42.005C52.6714 42.011 53.5893 41.9519 54.618 41.4003C57.0167 40.1139 58.007 38.1986 58.0053 35.5514L58.0028 29.0462C58.0039 27.6555 58.1104 25.8993 57.8386 24.5506C57.4048 22.3967 55.2859 20.4059 53.1013 20.1244C51.8308 19.9608 50.3834 20.0108 49.0946 20.0108L42.5154 20.0119L28.0583 20.0115C25.5988 20.0115 23.0785 19.9799 20.6261 20.0149C20.5699 20.0159 20.5137 20.0173 20.4576 20.0193C18.53 20.1074 16.9805 20.3863 15.5866 21.9211C14.8987 22.6718 14.4137 23.5856 14.1777 24.5761C13.9551 25.5505 14.0061 26.6438 14.0066 27.6481L14.0083 30.7553L14.008 34.3131C14.008 34.9824 13.9965 35.673 14.0224 36.3399C14.0835 37.8685 14.8535 39.4098 15.9781 40.4311C16.7571 41.1384 17.9149 41.793 18.9732 41.9206C20.1212 42.0591 21.3952 42.0071 22.5607 42.0071L28.8018 42.0061L51.5302 42.005ZM49.9837 16.0178C50.6425 15.9616 51.0981 15.8714 51.5555 15.3371C52.2302 14.5492 52.1373 13.0934 51.3108 12.4473C50.6457 11.9272 49.533 12.0549 48.7202 12.0551L45.9186 12.0569L37.3668 12.0578L27.2291 12.0576L23.9997 12.0571C23.3389 12.0568 22.6143 12.0419 21.9579 12.0771C21.3527 12.0885 20.9579 12.1696 20.5178 12.637C19.8012 13.3982 19.8633 14.8047 20.6231 15.5144C21.2997 16.1462 22.4016 16.0304 23.2741 16.0305L25.5672 16.0305L32.9106 16.0303L44.1671 16.0292C46.0082 16.0291 48.1728 16.0883 49.9837 16.0178ZM18.2989 55.9951C20.4876 55.8351 22.1343 53.9346 21.9808 51.7454C21.8273 49.5562 19.9315 47.9042 17.7419 48.0512C15.5434 48.1992 13.8829 50.1043 14.037 52.3026C14.1912 54.5006 16.1013 56.1557 18.2989 55.9951ZM54.2991 55.9951C56.4876 55.8351 58.1343 53.9346 57.981 51.7454C57.8274 49.5562 55.9314 47.9042 53.7419 48.0512C51.5436 48.1992 49.8828 50.1043 50.0371 52.3026C50.1911 54.5006 52.1011 56.1557 54.2991 55.9951Z" fill="black"/>
</svg>
