<svg width="48" height="48" viewBox="0 0 48 48" fill="none" xmlns="http://www.w3.org/2000/svg">
<path d="M34.3662 10.1504C34.5843 11.052 34.2577 13.825 34.4912 14.2842C34.5106 14.2903 34.5292 14.2957 34.5479 14.3027C35.036 14.49 36.3194 16.5422 36.6612 17.0801L36.666 18.7363C36.9512 18.7391 37.2682 18.7501 37.5508 18.7402L37.5625 37.6846C37.5632 41.0893 37.5223 44.5764 37.5645 47.9746C36.1614 48.0005 34.7582 48.0061 33.3545 47.9932L33.3565 45.4502C32.5298 45.4547 31.6574 45.4725 30.836 45.4434C30.7478 42.0808 30.8132 38.4751 30.8203 35.0977L30.8281 18.7295C31.1119 18.738 31.4106 18.7529 31.6924 18.7461C31.6924 18.203 31.6753 17.5457 31.7012 17.0117C32.2789 16.1816 32.9443 15.3961 33.5557 14.5898C33.6866 14.4177 33.8183 14.3758 34.0147 14.29C34.2201 13.8032 33.9409 11.0415 34.1231 10.2559L34.3623 10.1299V10.1309L34.3662 10.1299C34.3663 10.1366 34.3662 10.1434 34.3662 10.1504ZM38.4278 31.0762C39.6743 31.1157 41.1445 31.0876 42.4053 31.0908C42.3612 31.8258 42.5128 31.7767 42.6748 32.459C42.7546 32.8487 42.7606 33.9357 42.7276 34.2812C42.5961 35.655 42.9108 47.5823 42.6748 47.9648L42.4483 47.9951L38.0322 47.9961V36.8643C38.0316 36.1569 37.9884 32.5049 38.085 32.0977C38.2482 32.0368 38.2039 32.0628 38.3467 31.9639C38.3947 31.6513 38.4083 31.3893 38.4278 31.0762ZM30.3115 35.541C30.3653 38.954 30.3194 42.435 30.3311 45.8564C30.8022 45.8661 32.7035 45.7754 32.9414 45.9375C32.9421 46.6136 32.9385 47.2897 32.9307 47.9658C29.0323 48.0144 25.0334 47.9688 21.1279 47.9688L6.209 47.957C6.20278 47.2588 6.20153 46.5602 6.2051 45.8613C7.05367 45.8445 7.93948 45.8587 8.79103 45.8613L8.79982 35.5547L16.708 35.541C16.8488 35.711 16.786 44.8215 16.7852 45.8643L17.8594 45.8672C17.9883 44.9104 18.3482 44.0345 19.4688 43.9521C19.9119 43.9185 20.3493 44.0707 20.6758 44.3721C21.1575 44.8096 21.2145 45.2676 21.2334 45.8594L22.335 45.8564C22.416 42.5089 22.3286 38.9249 22.3545 35.5527L30.3115 35.541ZM21.0479 13.0488C21.1745 13.504 21.1313 15.4453 21.1309 16.0146L21.1279 21.1006L21.1319 44.1807C20.0202 43.3262 18.8564 43.1789 17.9268 44.3887C17.7553 44.6116 17.4788 45.2591 17.3037 45.3457C17.0751 44.7399 17.2078 36.4643 17.2217 35.1084L11.125 35.1182C12.2488 28.7277 15.5834 22.222 20.8379 18.2822C20.8348 18.0227 20.8133 17.402 20.8545 17.1807H20.8535C20.7954 16.0495 20.8439 14.6603 20.8496 13.5146C20.8502 13.4018 20.8545 13.3279 20.8692 13.2725C20.8789 13.2355 20.8932 13.2067 20.9131 13.1797C20.943 13.139 20.9862 13.1025 21.0479 13.0488ZM27.2608 3.35449C27.3068 5.01891 27.6781 6.40202 27.7578 8.12305L28.0156 14.4629C28.0435 15.2302 27.9867 16.6257 28.0703 17.2832C28.2388 17.3781 28.3644 17.345 28.5801 17.3457C28.8025 17.5237 28.5692 24.5175 28.6787 25.4199C28.7366 25.8902 29.2926 24.9588 29.3692 26.1328C29.4275 27.0351 29.2147 32.8456 29.4697 33.1133C29.7194 33.1126 29.7918 33.0756 29.9863 33.1865C30.0674 33.5165 30.029 34.6984 30.0264 35.1143L24.2774 35.1191C24.2417 33.7486 24.2647 32.2866 24.2705 30.9102L25.0127 30.9043L25.0137 23.1533L25.7637 23.1621C25.7948 20.8195 25.7384 18.4666 25.7617 16.123C25.7682 15.4971 25.7598 14.8765 25.8369 14.2539L26.0401 14.1123C26.1808 13.4192 26.0588 12.2704 26.1807 11.5107C26.2948 11.4526 26.3222 11.4501 26.4473 11.4258C26.5431 11.1474 26.4996 10.4262 26.5449 10.083C26.7919 8.20374 26.605 6.32856 26.8877 4.45215C26.9505 4.03769 26.9086 3.63867 27.0039 3.21973L27.2608 3.35449ZM27.1533 0.204102L27.1494 0.123047L27.1768 0.136719C27.2312 0.858696 27.2414 1.58337 27.2071 2.30664H27.2119L27.2617 3.35254L27.0049 3.21777C27.0373 2.99943 27.0464 2.58196 27.0801 2.30957L27.0762 2.31055C27.0814 1.6559 27.0592 0.739932 27.1143 0.109375L27.1533 0.204102ZM27.1494 0.123047L27.1436 0.120117L27.1455 0L27.1494 0.123047Z" fill="#BA9B31"/>
</svg>
