<svg width="48" height="48" viewBox="0 0 48 48" fill="none" xmlns="http://www.w3.org/2000/svg">
<path d="M23.8013 2.00178C27.4443 1.93913 30.9626 3.3307 33.5776 5.86799C36.4285 8.61633 38.0728 12.3835 38.1489 16.3426C38.2041 21.3186 35.3803 26.2209 33.0513 30.4901C30.9774 34.2717 28.8362 38.0158 26.6284 41.7205L25.4839 43.6405C25.1436 44.2237 24.4836 45.444 24.062 45.8748C23.834 46.052 23.5488 46.0473 23.3706 45.827C21.9614 44.0854 20.9577 41.7462 19.8706 39.8289C18.0461 36.6112 16.2015 33.5113 14.4146 30.284C13.2146 28.1168 12.0528 25.9353 11.0952 23.6541C10.2042 21.4998 9.63562 19.156 9.5171 16.824C9.33521 13.2003 10.6106 9.6539 13.0581 6.97542C15.7243 3.9806 19.4879 2.19069 23.4937 2.01155C23.5959 2.00684 23.6987 2.00319 23.8013 2.00178ZM23.4683 8.26253C23.4146 8.26424 23.3608 8.2677 23.3071 8.27229C21.0598 8.47958 19.1061 9.42326 17.6567 11.1746C16.4075 12.7026 15.8203 14.6668 16.0259 16.6297C16.2545 18.8777 17.3596 20.9451 19.1021 22.3836C20.5179 23.5596 22.3108 24.1851 24.1509 24.1453C26.1661 24.1045 28.1021 23.1915 29.4839 21.7352C33.6396 17.3547 30.6163 9.00366 24.6128 8.30549C24.2217 8.26002 23.8599 8.25028 23.4683 8.26253Z" fill="#BA9B31"/>
</svg>
