<svg width="40" height="40" viewBox="0 0 40 40" fill="none" xmlns="http://www.w3.org/2000/svg">
<path d="M23.3346 4.99996C23.3346 6.84091 21.8423 8.33329 20.0013 8.33329C18.1603 8.33329 16.668 6.84091 16.668 4.99996C16.668 3.15901 18.1603 1.66663 20.0013 1.66663C21.8423 1.66663 23.3346 3.15901 23.3346 4.99996Z" fill="#BA9B31"/>
<path d="M11.6693 10.4167C11.6693 12.0275 10.3634 13.3333 8.7526 13.3333C7.14177 13.3333 5.83594 12.0275 5.83594 10.4167C5.83594 8.80583 7.14177 7.5 8.7526 7.5C10.3634 7.5 11.6693 8.80583 11.6693 10.4167Z" fill="#BA9B31"/>
<path d="M6.66797 20C6.66797 21.3807 5.54869 22.5 4.16797 22.5C2.78725 22.5 1.66797 21.3807 1.66797 20C1.66797 18.6193 2.78725 17.5 4.16797 17.5C5.54869 17.5 6.66797 18.6193 6.66797 20Z" fill="#BA9B31"/>
<path d="M9.58464 30.8333C9.58464 31.984 8.6519 32.9167 7.5013 32.9167C6.3507 32.9167 5.41797 31.984 5.41797 30.8333C5.41797 29.6827 6.3507 28.75 7.5013 28.75C8.6519 28.75 9.58464 29.6827 9.58464 30.8333Z" fill="#BA9B31"/>
<path d="M21.6693 36.6667C21.6693 37.5872 20.9231 38.3333 20.0026 38.3333C19.0821 38.3333 18.3359 37.5872 18.3359 36.6667C18.3359 35.7462 19.0821 35 20.0026 35C20.9231 35 21.6693 35.7462 21.6693 36.6667Z" fill="#BA9B31"/>
<path d="M33.3333 31.6667C33.3333 32.5872 32.5872 33.3333 31.6667 33.3333C30.7462 33.3333 30 32.5872 30 31.6667C30 30.7462 30.7462 30 31.6667 30C32.5872 30 33.3333 30.7462 33.3333 31.6667Z" fill="#BA9B31"/>
<path d="M38.3333 21.6667C38.3333 22.5872 37.5872 23.3333 36.6667 23.3333C35.7462 23.3333 35 22.5872 35 21.6667C35 20.7462 35.7462 20 36.6667 20C37.5872 20 38.3333 20.7462 38.3333 21.6667Z" fill="#BA9B31"/>
<path d="M36.25 11.25C36.25 13.3211 34.571 15 32.5 15C30.429 15 28.75 13.3211 28.75 11.25C28.75 9.17893 30.429 7.5 32.5 7.5C34.571 7.5 36.25 9.17893 36.25 11.25Z" fill="#BA9B31"/>
</svg>
