<svg width="19" height="20" viewBox="0 0 19 20" fill="none" xmlns="http://www.w3.org/2000/svg">
<path d="M13.642 0.000872098C13.791 -0.00535059 13.936 0.049766 14.0434 0.153216C14.1054 0.213414 14.1507 0.288897 14.1743 0.371966C14.2228 0.541536 14.2061 1.15006 14.2065 1.37294C14.2262 1.37197 14.2462 1.37091 14.2661 1.37099L15.5942 1.37197C16.5234 1.37067 17.2443 1.30786 17.975 2.04189C18.3094 2.37774 18.5284 2.81164 18.6 3.28017C18.6355 3.51426 18.6303 3.76574 18.6303 4.00283L18.6293 4.80751V7.5497L18.6303 17.5165C18.6296 18.2421 18.4963 18.8116 17.9565 19.3456C17.5919 19.7053 17.1155 19.9292 16.6059 19.9804C16.404 20.001 16.1851 19.996 15.9809 19.996L15.0932 19.995H5.80414L3.31 19.996C2.96224 19.9962 2.22035 20.0157 1.89985 19.9638C1.43839 19.8887 1.01153 19.6725 0.678168 19.3446C0.19376 18.8694 0.00425808 18.3032 0.00141064 17.6366V4.86611L0.000434074 4.04579C0.000327738 3.76784 -0.0065429 3.52919 0.03852 3.25185C0.115634 2.78675 0.337163 2.35783 0.672309 2.02626C1.39232 1.30675 2.12558 1.37156 3.03852 1.37197H4.42914C4.3973 1.12302 4.43106 0.693654 4.44086 0.432513C4.44964 0.198726 4.6977 0.0333156 4.91645 0.000872098C5.07106 -0.0069355 5.22404 0.0373427 5.33637 0.147356C5.40495 0.21488 5.45393 0.300264 5.47797 0.39345C5.52186 0.558076 5.50515 1.16372 5.50434 1.37099C6.29348 1.36126 7.10774 1.37197 7.89985 1.37197L13.1284 1.37099C13.1189 1.20929 13.1182 0.526976 13.1489 0.398333C13.1692 0.314667 13.2098 0.2371 13.268 0.173724C13.3641 0.0680963 13.4994 0.00579901 13.642 0.000872098ZM1.64789 6.21083C1.47038 6.21155 1.25343 6.21952 1.08051 6.21279C1.09769 7.16611 1.08344 8.16216 1.08344 9.11806V17.4677C1.08299 17.9117 1.09391 18.2478 1.43793 18.5819C1.62344 18.7633 1.86462 18.8768 2.1225 18.9052C2.28519 18.9231 2.54574 18.917 2.71625 18.9169L3.70258 18.9149H16.3373C16.6827 18.9139 16.9746 18.8018 17.2182 18.5507C17.5916 18.1399 17.55 17.7802 17.5473 17.2558C17.5467 17.1235 17.5465 16.9869 17.5463 16.8544V7.31142C17.5462 6.96239 17.5376 6.55799 17.5532 6.21279L5.9311 6.20986H2.6479L1.64789 6.21083ZM10.7133 13.3495C10.7934 13.3564 10.8714 13.3811 10.9409 13.4218C11.2692 13.612 11.2039 14.0099 11.2036 14.3358V16.1825C11.2035 16.6173 11.2921 17.0753 10.7514 17.205C10.6226 17.2201 10.3889 17.2139 10.2534 17.2138L9.40473 17.2128L8.4145 17.2138C8.09695 17.2144 7.67533 17.2791 7.45942 17.0184C7.35667 16.8945 7.33678 16.7787 7.33247 16.6239C7.32749 16.4454 7.32964 16.2685 7.32954 16.0907L7.32856 15.0946L7.32954 14.3319C7.32967 13.9121 7.26166 13.4692 7.7895 13.3505C7.94752 13.3362 8.17273 13.3425 8.33539 13.3427H9.2602L10.1723 13.3417C10.3287 13.3416 10.5626 13.3353 10.7133 13.3495ZM5.1645 13.3417C5.51019 13.3414 6.065 13.2651 6.18598 13.7255C6.22834 13.8868 6.21163 14.18 6.21137 14.3544V15.2089L6.21235 16.1376C6.21237 16.5714 6.30779 17.0672 5.77094 17.202C5.64868 17.2196 5.40821 17.2129 5.27582 17.2128L4.435 17.2118L3.41059 17.2128C3.04358 17.2133 2.50118 17.2944 2.36762 16.8456C2.32262 16.6942 2.34009 16.2965 2.34028 16.1239L2.3393 15.2392V14.3729C2.33945 13.9397 2.25378 13.4733 2.79731 13.3515C2.95318 13.3362 3.17728 13.3416 3.33832 13.3417L4.25532 13.3427L5.1645 13.3417ZM15.1899 13.3417C15.4242 13.3416 15.7637 13.3111 15.9682 13.4188C16.2966 13.5921 16.2345 14.0297 16.2348 14.3417L16.2358 15.2128L16.2348 16.1591C16.2346 16.5873 16.3257 17.0751 15.7905 17.203C15.6654 17.2201 15.4171 17.2128 15.2836 17.2128L14.4028 17.2118L13.4174 17.2128C13.0427 17.2136 12.5397 17.2903 12.393 16.8505C12.3482 16.7155 12.3635 16.3414 12.3637 16.1884V15.3349L12.3627 14.4218C12.3626 13.9797 12.2664 13.481 12.8139 13.3515C12.9662 13.3355 13.1915 13.3416 13.35 13.3417L14.2416 13.3427L15.1899 13.3417ZM5.16743 7.86025C5.51834 7.86014 6.07888 7.78422 6.18989 8.26357C6.22814 8.42878 6.21235 8.70235 6.21235 8.87978V9.81337L6.21137 10.6845C6.21177 11.1208 6.30089 11.6081 5.7475 11.7265C5.60836 11.7402 5.37558 11.7343 5.23188 11.7343L4.31098 11.7333L3.39301 11.7343C3.0533 11.735 2.48361 11.8125 2.36567 11.3534C2.32302 11.1871 2.34037 10.8873 2.34028 10.704V8.9081C2.33952 8.46685 2.2506 7.98517 2.80805 7.86904C2.96912 7.85431 3.1911 7.86014 3.35786 7.86025L4.26606 7.86122L5.16743 7.86025ZM10.7182 7.87099C10.8037 7.8794 10.8862 7.90766 10.9584 7.954C11.2546 8.14177 11.2034 8.4714 11.2036 8.77431V10.6571C11.2035 11.1044 11.3054 11.6148 10.7309 11.7284C10.5485 11.7412 10.314 11.7344 10.1284 11.7343H9.13227L8.30707 11.7352C8.07773 11.7356 7.79722 11.7657 7.59516 11.6532C7.26257 11.4679 7.32964 11.0272 7.32954 10.6981V8.91689C7.32906 8.47644 7.24251 7.99596 7.79438 7.87099C7.95847 7.85484 8.19347 7.86114 8.36274 7.86122L9.31196 7.8622L10.1879 7.86122C10.3429 7.86109 10.5709 7.85509 10.7182 7.87099ZM15.1899 7.86122C15.5557 7.86113 16.0839 7.79087 16.2084 8.24208C16.252 8.40061 16.2347 8.77091 16.2348 8.95009V10.7714C16.235 11.1944 16.3014 11.6128 15.768 11.7274C15.6232 11.741 15.3903 11.7343 15.2416 11.7343L14.2934 11.7333L13.3881 11.7343C13.2166 11.7346 13.0453 11.739 12.8735 11.7304C12.6385 11.7184 12.4027 11.5306 12.3764 11.2899C12.3581 11.1209 12.3637 10.942 12.3637 10.7714V8.95595C12.3637 8.5015 12.2602 7.99285 12.8315 7.87001C12.9885 7.85496 13.2089 7.86112 13.3715 7.86122H15.1899ZM2.935 2.45302C2.72861 2.45298 2.35897 2.44106 2.16743 2.45888C1.83542 2.49387 1.56084 2.62236 1.34809 2.88661C1.23601 3.02519 1.15746 3.18825 1.1186 3.3622C1.06782 3.58542 1.08856 3.77746 1.08247 3.99892C1.07249 4.36206 1.10037 4.7764 1.07954 5.13466L10.4047 5.13368H15.102C15.9116 5.13368 16.7424 5.12252 17.5493 5.13466C17.5451 4.78747 17.5449 4.43987 17.5473 4.09267C17.5474 3.89473 17.5538 3.64847 17.5317 3.45595C17.476 3.13302 17.3254 2.85848 17.0532 2.66786C16.9159 2.57137 16.7592 2.50644 16.5942 2.47646C16.4108 2.44308 16.097 2.45285 15.8969 2.45302L14.8041 2.454C14.6299 2.45413 14.3757 2.46169 14.2065 2.45009C14.2061 2.65552 14.2249 3.27316 14.1801 3.43935C14.1581 3.52301 14.1152 3.59978 14.0551 3.662C13.9511 3.76766 13.8078 3.82592 13.6596 3.82314C13.5094 3.81945 13.3667 3.75519 13.2651 3.64443C13.2123 3.58634 13.1747 3.516 13.1538 3.44033C13.1122 3.28711 13.1241 2.65983 13.1293 2.45497L7.94184 2.454H6.33051C6.08924 2.45401 5.73776 2.46427 5.50336 2.45107C5.50457 2.66198 5.52185 3.26329 5.47895 3.43056C5.45569 3.52246 5.40767 3.60609 5.34028 3.67275C5.23362 3.77548 5.08879 3.83021 4.94086 3.82314C4.79161 3.81549 4.65173 3.74689 4.55414 3.63368C4.50205 3.5732 4.46464 3.50129 4.44575 3.42372C4.41128 3.28264 4.42365 2.64092 4.42719 2.45497L2.935 2.45302Z" fill="white"/>
</svg>
