<svg width="51" height="52" viewBox="0 0 51 52" fill="none" xmlns="http://www.w3.org/2000/svg">
<rect width="50.3563" height="52.0009" rx="25.1782" fill="#2C5B2A"/>
<path d="M30.3698 14.001C30.5487 13.9934 30.7232 14.0594 30.8522 14.1836C30.9267 14.2559 30.9811 14.3466 31.0094 14.4463C31.0678 14.6493 31.0461 15.3798 31.0465 15.6475C31.0704 15.6463 31.0948 15.6454 31.1188 15.6455L32.7135 15.6465C33.8285 15.6449 34.6931 15.5703 35.57 16.4512C35.971 16.8541 36.233 17.3745 36.319 17.9366C36.3615 18.2175 36.3561 18.5192 36.3561 18.8037L36.3551 19.7696V23.0606L36.3561 35.0205C36.3552 35.8913 36.1953 36.575 35.5475 37.2159C35.1099 37.6475 34.538 37.9163 33.9264 37.9776C33.684 38.0024 33.4215 37.9961 33.1764 37.9961L32.112 37.9952H20.9645L17.9723 37.9961C17.5552 37.9964 16.6646 38.0204 16.2799 37.958C15.7259 37.868 15.2133 37.6076 14.8131 37.2139C14.232 36.6437 14.005 35.9649 14.0016 35.1651V19.8399L14.0006 18.8555C14.0005 18.522 13.9915 18.2352 14.0456 17.9024C14.1382 17.3442 14.405 16.8295 14.8073 16.4317C15.6712 15.5684 16.5507 15.646 17.6461 15.6465H19.3151C19.2769 15.3478 19.317 14.8329 19.3288 14.5196C19.3393 14.239 19.6375 14.0399 19.9001 14.001C20.0854 13.9917 20.2683 14.0459 20.403 14.1778C20.4853 14.2588 20.5441 14.3609 20.5729 14.4727C20.6256 14.6701 20.6061 15.3981 20.6051 15.6465C21.5521 15.6348 22.5296 15.6475 23.4801 15.6475L29.7536 15.6465C29.7422 15.4534 29.7412 14.6333 29.778 14.4785C29.8023 14.3781 29.8516 14.2851 29.9215 14.209C30.0368 14.0823 30.1987 14.0069 30.3698 14.001ZM15.9772 21.4532C15.7643 21.454 15.5049 21.4632 15.2975 21.4551C15.3181 22.5993 15.3004 23.7951 15.3004 24.9424V34.2207L15.2995 34.9629C15.2989 35.4955 15.3127 35.898 15.7252 36.2989C15.9478 36.5166 16.2371 36.6535 16.5465 36.6875C16.7417 36.7091 17.0547 36.7004 17.2594 36.7002L18.442 36.6993H33.6042C34.0188 36.6981 34.3693 36.5632 34.6618 36.2618C35.1098 35.7688 35.0596 35.3374 35.0563 34.708C35.0556 34.5492 35.0555 34.3847 35.0553 34.2256V22.7744C35.0552 22.3557 35.0444 21.8703 35.0631 21.4561L21.1178 21.4522H17.1784L15.9772 21.4532ZM26.8561 30.0205C26.9521 30.0288 27.0453 30.0578 27.1286 30.1065C27.5231 30.3347 27.4443 30.8128 27.444 31.2041V33.42C27.4439 33.9416 27.5508 34.4909 26.902 34.6465C26.7476 34.6648 26.4672 34.6574 26.3044 34.6573L25.2858 34.6553L24.0983 34.6573C23.7173 34.658 23.2111 34.7356 22.9518 34.4229C22.8286 34.2743 22.8047 34.1358 22.7995 33.9502C22.7935 33.7359 22.7947 33.5231 22.7946 33.3096V31.1983C22.7947 30.6947 22.7141 30.164 23.3473 30.0215C23.537 30.0044 23.8073 30.0116 24.0026 30.0118H25.112L26.2077 30.0108C26.3954 30.0106 26.6753 30.0035 26.8561 30.0205ZM20.1969 30.0108C20.6117 30.0105 21.2782 29.9184 21.4235 30.4707C21.4743 30.6643 21.4541 31.0163 21.4538 31.2256V32.251L21.4547 33.3653C21.4547 33.8858 21.5693 34.4807 20.9254 34.6426C20.7788 34.6637 20.4906 34.6564 20.3317 34.6563L19.3229 34.6553L18.0934 34.6563C17.653 34.6569 17.0018 34.7535 16.8415 34.2149C16.7876 34.033 16.808 33.5566 16.8083 33.3496V32.2881L16.8073 31.2481C16.8075 30.7282 16.7047 30.1677 17.3571 30.0215C17.5443 30.0033 17.8133 30.0106 18.0065 30.0108L19.1061 30.0118L20.1969 30.0108ZM32.2272 30.0108C32.5085 30.0106 32.9164 29.9741 33.1618 30.1035C33.5559 30.3116 33.4817 30.8365 33.4821 31.211V33.3916C33.4818 33.9055 33.5902 34.49 32.9479 34.6436C32.7977 34.6641 32.4995 34.6563 32.3395 34.6563L31.2829 34.6553L30.1012 34.6563C29.6515 34.6573 29.0479 34.7494 28.8717 34.2217C28.8177 34.0601 28.8353 33.6105 28.8356 33.4268L28.8366 32.4024L28.8356 31.3067C28.8354 30.7762 28.7196 30.178 29.3766 30.0225C29.5592 30.0034 29.829 30.0106 30.0192 30.0108L31.0905 30.0118L32.2272 30.0108ZM20.2008 23.4327C20.6219 23.4325 21.2942 23.3408 21.4274 23.916C21.4733 24.1143 21.4547 24.4424 21.4547 24.6553L21.4538 25.7754V26.8203C21.4542 27.3439 21.561 27.9292 20.8971 28.0713C20.7302 28.0878 20.4504 28.0801 20.278 28.0801L19.1735 28.0791L18.071 28.0811C17.6633 28.082 16.98 28.1749 16.8385 27.6241C16.7873 27.4246 16.8084 27.0648 16.8083 26.8448V24.6895C16.8074 24.1599 16.7006 23.5817 17.3698 23.4424C17.5631 23.4247 17.8298 23.4325 18.0299 23.4327H20.2008ZM26.2252 23.4317C26.4113 23.4315 26.6852 23.4243 26.862 23.4434C26.9645 23.4535 27.0634 23.4874 27.1501 23.543C27.5055 23.7682 27.4439 24.1639 27.444 24.5274V26.7871C27.4439 27.3239 27.5661 27.9359 26.8766 28.0723C26.6578 28.0876 26.3767 28.0803 26.154 28.0801L24.9586 28.0791L23.9674 28.0811C23.6923 28.0816 23.3563 28.1183 23.1139 27.9834C22.7144 27.7611 22.7948 27.2309 22.7946 26.836V25.7022L22.7956 24.6993C22.795 24.1706 22.6907 23.5933 23.3532 23.4434C23.5501 23.424 23.8327 23.4316 24.0358 23.4317L25.1745 23.4327L26.2252 23.4317ZM32.2282 23.4327C32.6673 23.4325 33.3006 23.3489 33.4499 23.8907C33.5021 24.081 33.481 24.5253 33.4811 24.7403V26.9248C33.4812 27.4326 33.5617 27.9357 32.9215 28.0733C32.7478 28.0896 32.4681 28.0811 32.2897 28.0811L31.152 28.0801L30.0651 28.0811C29.8593 28.0815 29.6541 28.0865 29.4479 28.0762C29.1658 28.0619 28.8824 27.836 28.8512 27.5469C28.8402 27.4453 28.8367 27.341 28.8356 27.2364V25.9258L28.8366 24.7461C28.8365 24.2009 28.7118 23.5908 29.3971 23.4434C29.5855 23.4253 29.8503 23.4325 30.0456 23.4327L31.111 23.4336L32.2282 23.4327ZM17.5221 16.9444C17.2745 16.9443 16.8311 16.9298 16.6012 16.9512C16.2027 16.9931 15.8732 17.1467 15.6178 17.4639C15.4833 17.6302 15.3891 17.8255 15.3424 18.0342C15.2814 18.3022 15.3068 18.533 15.2995 18.7989C15.2875 19.2347 15.3196 19.7321 15.2946 20.1621L26.486 20.1612H32.1217C33.0935 20.1612 34.0907 20.1476 35.0592 20.1621C35.0543 19.7455 35.0535 19.3288 35.0563 18.9121C35.0564 18.6745 35.0643 18.3786 35.0377 18.1475C34.971 17.7601 34.7901 17.4309 34.4635 17.2022C34.2988 17.0864 34.1108 17.0077 33.9127 16.9717C33.6926 16.9317 33.3159 16.9442 33.0758 16.9444L31.7643 16.9453C31.555 16.9455 31.2495 16.9544 31.0465 16.9405C31.0461 17.1868 31.0699 17.9271 31.0163 18.127C30.9899 18.2278 30.9373 18.3207 30.8649 18.3955C30.7401 18.5221 30.5689 18.5922 30.3913 18.5889C30.2109 18.5845 30.0396 18.5061 29.9176 18.3731C29.8545 18.3035 29.8089 18.2196 29.7838 18.1289C29.734 17.9448 29.7483 17.192 29.7545 16.9463L23.5299 16.9453H21.5973C21.3078 16.9453 20.8856 16.9573 20.6042 16.9414C20.6056 17.1942 20.6264 17.9164 20.5749 18.1172C20.5469 18.2277 20.4889 18.3282 20.4079 18.4082C20.2799 18.5315 20.1068 18.5964 19.9294 18.5879C19.7502 18.5788 19.5826 18.4972 19.4655 18.3614C19.4028 18.2887 19.3583 18.2017 19.3356 18.1084C19.2943 17.9385 19.3079 17.1693 19.3122 16.9463L17.5221 16.9444Z" fill="white"/>
</svg>
