<svg width="20" height="20" viewBox="0 0 20 20" fill="none" xmlns="http://www.w3.org/2000/svg">
<path d="M17.3334 12.7718L14.0823 11.3285C13.29 10.9762 12.3589 11.2018 11.8156 11.8774L10.4439 13.1983C8.99172 12.2494 7.75172 11.0083 6.80283 9.55386L8.14019 8.18791C8.81685 7.64569 9.04352 6.71346 8.69241 5.92124L7.24797 2.66791C6.86685 1.81013 5.93131 1.35902 5.02131 1.59346L2.82728 2.16497C1.88728 2.40942 1.2795 3.32053 1.41283 4.28386C2.45061 11.6716 8.33394 17.556 15.7239 18.5938C15.8128 18.606 15.8995 18.6116 15.9862 18.6116C16.8462 18.6116 17.6173 18.0316 17.8406 17.1783L18.4067 14.9963C18.6412 14.0885 18.19 13.1529 17.3334 12.7718Z" fill="white"/>
</svg>
