<svg width="24" height="24" viewBox="0 0 24 24" fill="none" xmlns="http://www.w3.org/2000/svg">
<g clip-path="url(#clip0_2034_6533)">
<path d="M14.9612 0.548706C15.1682 0.586632 15.466 0.712867 15.6727 0.793834C17.0133 1.32111 18.2313 2.11835 19.2509 3.13603C21.6753 5.55313 22.4653 8.60664 22.5186 11.9214C22.6147 17.9051 19.0705 22.8201 13.0212 23.774C11.3435 24.0386 9.81418 23.9837 8.11455 23.9837L2.74858 23.9829C2.4668 23.9841 2.14501 23.9796 1.86772 23.9999C1.82313 22.9037 1.91949 21.6192 1.85567 20.5422L7.39677 20.5439C8.37255 20.5439 9.57864 20.5794 10.5315 20.5295C12.8544 20.3823 15.0192 19.5952 16.5709 17.7974C20.4619 13.2891 18.8074 5.36481 12.7947 3.70908C12.7076 3.68511 12.0406 3.51895 12.0153 3.49654C12.1801 3.3065 12.367 3.13393 12.5435 2.95422L13.666 1.82206L14.4923 0.995373C14.6163 0.871932 14.8351 0.640914 14.9612 0.548706Z" fill="white"/>
<path d="M12.0907 0L12.1294 0.00161692C12.1218 0.160274 9.13091 3.10711 8.7586 3.41543C8.71174 3.45423 5.72122 3.44593 5.3103 3.45543C5.33124 3.89316 5.32001 4.4198 5.32045 4.86321C5.32463 5.53577 5.3227 6.20836 5.3146 6.88088C4.56649 7.69212 3.75035 8.46761 2.97538 9.25533C2.62615 9.61029 2.24549 9.94869 1.89517 10.3071L1.86513 10.3035C1.84443 10.2733 1.85669 8.80757 1.85665 8.61443L1.85634 3.03923C1.85638 2.09696 1.82555 0.934045 1.86869 0.0132341C2.10252 -0.00412686 2.47714 0.00784662 2.72086 0.00837145L4.24589 0.0095557L9.37972 0.00976829C10.1777 0.0098852 11.3162 0.0431919 12.0907 0Z" fill="#CB492A"/>
</g>
<defs>
<clipPath id="clip0_2034_6533">
<rect width="24" height="24" fill="white"/>
</clipPath>
</defs>
</svg>
