<svg width="48" height="48" viewBox="0 0 48 48" fill="none" xmlns="http://www.w3.org/2000/svg">
<path d="M23.7506 4H24.2109L24.2328 4.00807C24.584 4.13482 25.2348 4.29207 25.6164 4.39721L28.3176 5.14186L36.9208 7.51459L39.4413 8.20889C39.854 8.32277 40.35 8.41525 40.7334 8.59186C41.0143 8.72129 41.2449 8.92559 41.3792 9.20477C41.6196 9.70486 41.6956 11.2876 41.7543 11.8986C41.8316 12.7036 41.8665 13.5101 41.9084 14.3174C42.1427 18.8199 41.9742 23.5234 40.8499 27.9082C40.657 28.6602 40.4547 29.3984 40.1876 30.1289C39.7938 31.2055 39.3305 32.2439 38.7404 33.2297C38.4007 33.7971 38.0044 34.3215 37.6068 34.8492C34.9899 38.2617 31.5609 40.9777 27.6267 42.7541C26.7296 43.1684 25.7676 43.5227 24.8258 43.8207C24.6612 43.8729 24.4023 43.9232 24.2558 44H23.7504C23.6013 43.926 23.33 43.8678 23.1628 43.8141C22.8398 43.7102 22.4962 43.6105 22.1787 43.4932C17.9791 41.9559 14.2449 39.3803 11.3301 36.0102C9.1407 33.4809 7.98885 31.26 7.17031 27.991C5.73681 22.3029 5.81337 16.31 6.37784 10.5101C6.54623 8.77994 6.69549 8.72193 8.30363 8.27793L10.4226 7.69404L19.9168 5.07557L22.5545 4.34859C22.8473 4.26784 23.4949 4.12128 23.7506 4ZM22.4593 24.3469L19.2438 21.1566L18.3662 20.2839C17.9551 19.8748 17.6328 19.4674 17.0029 19.4696C16.5146 19.4714 16.2333 19.6588 15.8966 19.9905L15.153 20.7345C14.7105 21.1775 14.3165 21.4494 14.3188 22.1325C14.3196 22.3583 14.3805 22.5902 14.509 22.7782C14.7408 23.117 15.1119 23.4384 15.4043 23.7336C15.9459 24.2805 16.5093 24.815 17.0473 25.3639L20.2335 28.5225L21.0639 29.3479C21.4794 29.7619 21.8232 30.1957 22.4673 30.1893C22.9281 30.1848 23.2209 29.983 23.5391 29.6693C23.8614 29.352 24.1824 29.0307 24.5033 28.7111L26.7814 26.4506L34.3143 18.9777C34.6327 18.6586 34.8381 18.3704 34.8312 17.8989C34.8292 17.688 34.7727 17.4811 34.6673 17.298C34.387 16.809 33.5513 16.1818 33.1646 15.7245C32.9274 15.4439 32.5227 15.2848 32.1471 15.295C32.1264 15.2955 32.1055 15.2962 32.0848 15.2972C31.6991 15.3255 31.4926 15.4111 31.2114 15.6767C30.9403 15.9329 30.6782 16.1985 30.4138 16.4611L28.6437 18.2182L22.4593 24.3469Z" fill="#BA9B31"/>
</svg>
