<svg width="40" height="40" viewBox="0 0 40 40" fill="none" xmlns="http://www.w3.org/2000/svg">
<path d="M19.189 4H21.6007C21.8517 4.10357 22.567 4.13484 22.8705 4.18277C23.5897 4.29727 24.3005 4.45964 24.9982 4.66881C29.4171 6.00147 33.0482 9.17222 34.9642 13.3712C35.5252 14.5988 35.9266 15.893 36.1591 17.2225C36.2129 17.5361 36.3335 18.6772 36.4004 18.8909V21.1161C36.316 21.4638 36.2598 22.0935 36.2051 22.4766C36.1166 23.0861 35.9895 23.6894 35.8245 24.2828C34.7335 28.1892 32.2047 31.5379 28.746 33.6562C27.1401 34.6355 25.3762 35.3284 23.5331 35.7038C23.225 35.7672 21.8838 35.9312 21.729 36H19.1343C19.0096 35.9487 17.6167 35.7706 17.319 35.7138C15.8021 35.41 14.3366 34.8907 12.9669 34.1717C9.1037 32.1416 6.23421 28.6254 5.01983 24.4337C4.83089 23.7702 4.69929 23.1374 4.58484 22.4576C4.52261 22.0879 4.51202 21.4436 4.40039 21.1142V18.8918C4.44359 18.7777 4.59884 17.4608 4.64541 17.2026C4.91819 15.6358 5.42689 14.1194 6.15419 12.7051C8.16133 8.77862 11.7006 5.85508 15.9354 4.62547C16.5603 4.44298 17.1583 4.31764 17.7982 4.20113C18.1853 4.13065 18.8423 4.12096 19.189 4ZM20.5099 34.2454C28.3794 34.1841 34.7084 27.7535 34.6444 19.884C34.5805 12.0145 28.1477 5.68765 20.2783 5.75423C12.4125 5.82078 6.0893 12.2498 6.15322 20.1156C6.21715 27.9813 12.644 34.3067 20.5099 34.2454Z" fill="#BA9B31"/>
<path d="M20.2569 8.72348C20.2778 8.72176 20.2988 8.72089 20.3198 8.72079C21.4792 8.70523 21.2755 9.89026 21.2759 10.6886L21.2754 12.6596L21.2747 19.1229C23.6566 19.0886 26.0525 19.1339 28.435 19.1299C29.6301 19.1279 29.7613 20.5944 28.6901 20.8604C28.3395 20.9002 27.6915 20.8845 27.3242 20.8844L25.0084 20.8825L22.0977 20.8855C21.55 20.8862 21.0065 20.8907 20.459 20.8733C20.1114 20.889 19.6415 20.645 19.574 20.2719C19.4953 19.8373 19.525 19.2518 19.5251 18.8035L19.5262 16.4313L19.5251 12.1018C19.5246 11.3311 19.5222 10.5606 19.5299 9.78986C19.5357 9.20754 19.6374 8.88708 20.2569 8.72348Z" fill="#BA9B31"/>
</svg>
