<svg width="48" height="48" viewBox="0 0 48 48" fill="none" xmlns="http://www.w3.org/2000/svg">
<path d="M15.3408 5.00132C15.6346 4.98649 15.9243 5.07259 16.1377 5.28159C16.268 5.40989 16.3616 5.57134 16.4072 5.74839C16.4906 6.0613 16.4595 7.21225 16.458 7.60581C17.9572 7.58732 19.504 7.60776 21.0088 7.60777L30.9434 7.60679C30.9254 7.30098 30.9232 6.00158 30.9815 5.75718C31.02 5.59808 31.0982 5.4509 31.209 5.33042C31.3915 5.12973 31.648 5.01068 31.919 5.00132C32.2021 4.98939 32.4775 5.09472 32.6817 5.29136C32.7996 5.40571 32.8858 5.54854 32.9307 5.7064C33.0232 6.0278 32.9905 7.18502 32.9912 7.60874C33.0288 7.60687 33.0667 7.60566 33.1045 7.60581L35.6289 7.60777C37.3945 7.6053 38.763 7.48637 40.1514 8.8812C40.7866 9.51923 41.2028 10.3427 41.3389 11.2328C41.4062 11.6774 41.3965 12.1545 41.3965 12.6048L41.3955 14.1351V19.3451L41.3975 38.2816C41.3961 39.6604 41.1429 40.7435 40.1172 41.7582C39.4243 42.4418 38.5183 42.8672 37.5498 42.9642C37.1659 43.0035 36.7505 42.9935 36.3623 42.9935L34.6777 42.9925H12.2891C11.6286 42.993 10.2196 43.0316 9.61036 42.933C8.73316 42.7904 7.92172 42.3785 7.2881 41.7552C6.36773 40.8523 6.00737 39.7777 6.00196 38.5111L6.00294 19.6742L6.00196 14.2464L6.00099 12.6869C6.00078 12.1589 5.98668 11.7059 6.07228 11.1791C6.21884 10.2952 6.64035 9.47998 7.27735 8.84995C8.64525 7.48299 10.0381 7.60601 11.7725 7.60679H14.415C14.3545 7.13386 14.4179 6.3188 14.4365 5.82261C14.4532 5.37839 14.9252 5.06294 15.3408 5.00132ZM9.12989 16.8001C8.79273 16.8015 8.38219 16.8168 8.05372 16.8041C8.08638 18.6157 8.0586 20.509 8.0586 22.3255V37.016L8.05763 38.1908C8.05678 39.0341 8.07814 39.6713 8.73146 40.306C9.08394 40.6508 9.54216 40.8674 10.0322 40.9212C10.3413 40.9553 10.8361 40.943 11.1602 40.9427L13.0332 40.9398H37.04C37.6966 40.938 38.2518 40.7239 38.7149 40.2464C39.4238 39.4661 39.3441 38.7837 39.3389 37.7875C39.3378 37.536 39.3381 37.2757 39.3379 37.0238V18.8919C39.3377 18.2288 39.32 17.4609 39.3496 16.805L17.2686 16.7992H11.0313L9.12989 16.8001ZM25.3272 30.3519C25.6243 30.3517 26.0672 30.3397 26.3535 30.3666C26.5056 30.3796 26.6532 30.4262 26.7852 30.5033C27.4099 30.8647 27.2856 31.621 27.2852 32.2406L27.2842 34.0189L27.2852 35.7484C27.285 36.5744 27.4548 37.4442 26.4277 37.6908C26.1834 37.7197 25.7385 37.7076 25.4805 37.7074L23.8682 37.7054L21.9873 37.7074C21.3839 37.7085 20.5823 37.8317 20.1719 37.3363C19.9769 37.101 19.9389 36.882 19.9307 36.5882C19.9212 36.2488 19.924 35.9117 19.9238 35.5736V32.2318C19.9241 31.4342 19.796 30.5931 20.7988 30.3675C21.0991 30.3404 21.5269 30.3517 21.8359 30.3519L23.5938 30.3529L25.3272 30.3519ZM34.8633 30.35C35.3087 30.3497 35.9542 30.2915 36.3428 30.4964C36.9667 30.8258 36.848 31.6575 36.8486 32.2503L36.8496 33.9037V35.7035C36.8492 36.517 37.0208 37.4418 36.0039 37.6849C35.7661 37.7174 35.2944 37.7054 35.041 37.7054L33.3672 37.7035L31.4961 37.7054C30.784 37.707 29.8286 37.8527 29.5498 37.0169C29.4643 36.7612 29.4927 36.0503 29.4932 35.7591V34.1371L29.4922 32.4027C29.492 31.5627 29.3084 30.6149 30.3486 30.3685C30.638 30.3382 31.0659 30.3497 31.3672 30.35L33.0625 30.3509L34.8633 30.35ZM15.8106 30.348C16.4673 30.3475 17.521 30.203 17.751 31.0775C17.8315 31.3839 17.8003 31.9405 17.7998 32.2718V33.8959L17.8008 35.6605C17.8008 36.4847 17.9827 37.4267 16.9629 37.683C16.7306 37.7164 16.274 37.7047 16.0225 37.7044L14.4258 37.7025L12.4785 37.7044C11.7813 37.7053 10.751 37.8588 10.4971 37.0062C10.4115 36.7186 10.444 35.9631 10.4443 35.6351L10.4434 33.9544V32.307C10.4436 31.484 10.2802 30.5981 11.3125 30.3666C11.6089 30.3376 12.0358 30.3488 12.3418 30.349L14.082 30.35L15.8106 30.348ZM15.8174 19.933C16.4842 19.9327 17.5479 19.7888 17.7588 20.6996C17.8314 21.0135 17.8008 21.5325 17.8008 21.8695V25.2982C17.8015 26.1275 17.9701 27.0549 16.918 27.2796C16.6536 27.3056 16.2124 27.2933 15.9395 27.2933L14.1895 27.2914L12.4443 27.2943C11.7989 27.2957 10.7163 27.4429 10.4922 26.5707C10.411 26.2548 10.4445 25.6847 10.4443 25.3363V21.9242C10.443 21.0856 10.2744 20.1702 11.334 19.9496C11.6401 19.9216 12.062 19.9337 12.3789 19.9339H14.1035L15.8174 19.933ZM25.3565 19.932C25.651 19.9317 26.0843 19.9203 26.3643 19.9505C26.5267 19.9665 26.683 20.0207 26.8203 20.1087C27.3833 20.4655 27.2859 21.0917 27.2861 21.6673V25.2445C27.2859 26.0943 27.4802 27.0637 26.3887 27.2796C26.0419 27.3039 25.5961 27.2926 25.2432 27.2923L23.3506 27.2904L21.7822 27.2933C21.3465 27.294 20.8145 27.3517 20.4307 27.138C19.7981 26.786 19.9261 25.947 19.9258 25.3216L19.9248 23.5267L19.9258 21.9388C19.925 21.1017 19.7603 20.1879 20.8096 19.9505C21.1214 19.9199 21.5681 19.9318 21.8897 19.932L23.6934 19.9339L25.3565 19.932ZM34.8643 19.9339C35.5594 19.9337 36.5634 19.8009 36.7998 20.6585C36.8827 20.9598 36.8484 21.6639 36.8486 22.0043V25.4632C36.8489 26.2671 36.9755 27.0629 35.9619 27.2806C35.6868 27.3064 35.2443 27.2943 34.9619 27.2943L33.1602 27.2923L31.4395 27.2943C31.1135 27.295 30.7885 27.3019 30.4619 27.2855C30.0153 27.2627 29.567 26.9063 29.5176 26.4486C29.4828 26.1271 29.4932 25.7876 29.4932 25.4632V22.014C29.4932 21.1507 29.2968 20.185 30.3818 19.9515C30.6801 19.9229 31.0991 19.9337 31.4082 19.9339L33.0957 19.9359L34.8643 19.9339ZM11.5762 9.66148C11.184 9.6614 10.4821 9.63835 10.1182 9.67222C9.48717 9.73863 8.96584 9.98251 8.56153 10.4847C8.34834 10.7481 8.19891 11.0573 8.12501 11.388C8.02831 11.8124 8.06821 12.1771 8.05665 12.598C8.03766 13.2881 8.08941 14.0754 8.04981 14.7562L25.7686 14.7543H34.6924C36.231 14.7543 37.8103 14.7341 39.3438 14.7572C39.3359 14.0974 39.3344 13.4375 39.3389 12.7777C39.3391 12.4014 39.3516 11.9328 39.3096 11.5668C39.2038 10.9532 38.9176 10.4318 38.4004 10.0697C38.1395 9.88632 37.8419 9.76238 37.5283 9.70542C37.1797 9.642 36.5832 9.66116 36.2031 9.66148L34.127 9.66343C33.7957 9.66368 33.3127 9.67772 32.9912 9.65562C32.9905 10.0459 33.0274 11.2184 32.9424 11.5345C32.9007 11.694 32.8178 11.8398 32.7031 11.9584C32.5054 12.1592 32.2339 12.2704 31.9522 12.265C31.6667 12.2579 31.3961 12.1347 31.2031 11.9242C31.1029 11.8139 31.0309 11.6811 30.9912 11.5375C30.9123 11.2464 30.9354 10.0548 30.9453 9.66538L21.0899 9.66245L18.0283 9.66343C17.5699 9.66343 16.9017 9.68267 16.4561 9.65757C16.4584 10.0581 16.4916 11.1997 16.4102 11.5179C16.366 11.693 16.274 11.8529 16.1455 11.9798C15.9429 12.1749 15.6687 12.2784 15.3877 12.265C15.104 12.2506 14.8388 12.1199 14.6533 11.9046C14.5541 11.7896 14.4832 11.6528 14.4473 11.5052C14.3818 11.2368 14.4044 10.0186 14.4111 9.66538L11.5762 9.66148Z" fill="#BA9B31"/>
</svg>
