<svg width="22" height="22" viewBox="0 0 22 22" fill="none" xmlns="http://www.w3.org/2000/svg">
<path d="M18.7043 2.1151C20.2477 2.10498 21.9173 1.89034 21.9436 4.0399C21.9475 4.37265 21.9455 4.71231 21.9455 5.04576L21.9416 7.72154L21.9436 17.2294C21.9424 17.848 21.9898 20.0911 21.9055 20.5653C21.8609 20.8232 21.763 21.0694 21.6174 21.287C21.4088 21.594 20.9179 21.9246 20.5734 21.9549C19.8252 22.0205 18.9385 21.9927 18.1799 21.9911L13.3908 21.9881L5.58613 21.9921L3.0539 21.994C2.91294 21.994 2.76966 21.9945 2.6291 21.994C1.82405 22.003 0.924291 22.0779 0.383983 21.3348C-0.138456 20.616 0.0234134 19.1915 0.024608 18.3133L0.0255846 13.8641V7.07213C0.0255838 5.98355 0.004765 4.88454 0.0314439 3.79772C0.0551262 2.84958 0.697411 2.27206 1.59004 2.12682C2.1077 2.09703 2.75578 2.11538 3.2834 2.11705C3.27261 3.01579 3.1463 3.95046 3.81074 4.63561C4.16195 4.99283 4.63988 5.19702 5.14082 5.20299C5.64773 5.2045 6.13462 5.00257 6.49141 4.64244C7.16232 3.96204 7.02673 3.02211 7.01875 2.119C9.64721 2.09061 12.323 2.1159 14.9543 2.11705C14.9447 2.98527 14.8174 3.92458 15.4318 4.59459C15.7802 4.97004 16.2649 5.18989 16.7766 5.20592C17.2711 5.21317 17.7483 5.02611 18.1066 4.68541C18.8341 3.98825 18.6856 3.05293 18.7043 2.1151ZM1.46406 6.80357C1.39796 9.26203 1.44941 11.9704 1.44941 14.4462V17.7938C1.44941 18.384 1.44785 18.9711 1.4582 19.5624C1.46617 20.0142 1.60332 20.5007 2.13691 20.5487C2.82576 20.6106 3.55245 20.5846 4.24726 20.5838L8.08125 20.5809L15.6789 20.5799C16.9285 20.5801 18.1803 20.5851 19.4299 20.5819C19.7771 20.581 20.0151 20.5593 20.2883 20.3212C20.4096 20.162 20.4876 20.0585 20.5031 19.8553C20.5406 19.3526 20.5297 18.8243 20.5285 18.3202L20.5227 15.7684L20.5275 6.80943L8.54023 6.81529C6.23155 6.81525 3.7624 6.85912 1.46406 6.80357Z" fill="#FEFEFE"/>
<path d="M4.13301 14.7865C4.95569 14.7379 6.03521 14.7302 6.84674 14.8483C7.11712 14.9285 7.2784 15.5539 7.24415 15.757C7.10398 16.5967 7.64832 18.0618 6.68587 18.4399C6.04875 18.5108 4.59492 18.5151 3.96974 18.3795C3.45965 18.2688 3.54805 16.821 3.5596 16.3665C3.57593 15.7192 3.38678 15.0849 4.13301 14.7865Z" fill="#FEFEFE"/>
<path d="M15.2858 14.7883C15.8867 14.75 17.4078 14.7492 17.9343 14.8341C18.708 14.9589 18.3607 17.4511 18.3376 18.0245C18.3313 18.1899 17.996 18.38 17.8566 18.4391C17.1271 18.5204 15.9568 18.4994 15.2253 18.4075C14.5512 18.3229 14.7303 16.853 14.726 16.3459C14.72 15.6925 14.5826 15.0848 15.2858 14.7883Z" fill="#FEFEFE"/>
<path d="M9.71212 14.7888C10.3417 14.7401 11.8106 14.7303 12.4227 14.8551C12.93 14.9587 12.838 16.4747 12.8261 16.9312C12.8101 17.5346 12.9837 18.1586 12.2761 18.4394C11.776 18.489 9.92357 18.5254 9.52258 18.3692C8.93205 18.1394 9.14947 15.7403 9.22313 15.1839C9.24623 15.0098 9.5636 14.8506 9.71212 14.7888Z" fill="#FEFEFE"/>
<path d="M15.3249 8.93684C18.6049 8.82602 18.4823 8.59881 18.4034 11.8083C18.3927 12.2307 18.2334 12.4485 17.8603 12.5914C17.3231 12.6084 15.5029 12.655 15.0952 12.514C14.5178 12.3144 14.7201 9.83964 14.8204 9.30303C14.8515 9.13718 15.1792 8.99303 15.3249 8.93684Z" fill="#FEFEFE"/>
<path d="M9.75927 8.93721C10.5736 8.8954 11.6288 8.87987 12.428 9.00948C12.6928 9.07833 12.8549 9.68168 12.8218 9.88166C12.6848 10.7008 13.2212 12.2252 12.2771 12.5909C11.7554 12.6101 9.87594 12.6575 9.49287 12.5074C8.96088 12.299 9.12374 9.8234 9.24918 9.28297C9.2882 9.11393 9.60795 8.98818 9.75927 8.93721Z" fill="#FEFEFE"/>
<path d="M16.6038 0.0126695C18.0401 -0.16433 17.6901 1.55653 17.7188 2.47076C17.7423 3.22033 17.8394 3.86729 17.0518 4.21448C15.9989 4.35066 15.8118 3.45037 15.9181 2.6302C16.0471 1.63741 15.4932 0.499827 16.6038 0.0126695Z" fill="#FEFEFE"/>
<path d="M4.93066 0.0158991C5.74896 -0.0811821 6.15791 0.539532 6.05438 1.28333C5.91382 2.29289 6.50036 3.72756 5.37545 4.2191C3.8595 4.38658 4.32141 2.62694 4.25969 1.69666C4.20753 0.907509 4.15297 0.385508 4.93066 0.0158991Z" fill="#FEFEFE"/>
</svg>
