<svg width="72" height="72" viewBox="0 0 72 72" fill="none" xmlns="http://www.w3.org/2000/svg">
<g clip-path="url(#clip0_1979_6582)">
<path d="M23.8082 43.6161C27.3185 43.2763 28.8747 52.0492 25.4791 52.9852C22.1884 53.238 20.3664 45.0737 23.8082 43.6161ZM24.1685 45.4364C22.3586 46.3906 23.3389 50.9689 25.1812 51.1004C26.6608 50.3906 26.1899 47.7773 25.5973 46.5887C25.2864 45.9651 24.9074 45.4565 24.1685 45.4364Z" fill="#F76401"/>
<path d="M24.6577 47.0359C25.6139 47.2132 25.94 48.9394 25.0769 49.5054C24.1302 49.2305 23.8193 47.7092 24.6577 47.0359Z" fill="#F76401"/>
<path d="M42.0528 48.5513C42.221 48.5529 42.3326 48.5599 42.5002 48.5276C42.7789 48.6931 42.9832 48.5341 43.1789 48.6586C42.8016 48.685 42.256 48.671 41.8657 48.6726L42.0528 48.5513Z" fill="black"/>
<path d="M57.8115 19.1258C60.157 19.099 62.0317 20.102 62.7529 22.4676C63.0428 23.419 62.9873 24.3148 62.8887 25.2947C65.5064 22.5737 68.4636 22.5377 70.7988 25.6082C69.6895 25.4074 68.9505 25.4173 67.8574 25.5203C67.7324 25.395 67.6231 25.3016 67.4883 25.1863L67.4307 25.2C67.4727 25.3513 67.4918 25.3842 67.4854 25.5428C67.3504 25.6782 66.8022 25.7319 66.5576 25.7908C65.5195 26.0354 64.5039 26.3706 63.5234 26.7918C66.3976 26.4312 68.886 28.0228 69.2617 31.0213C69.3436 31.6764 69.2873 32.2866 69.2129 32.9402C68.415 31.8087 68.0395 31.4166 67.0508 30.5076C67.0405 30.2979 67.0304 30.1774 66.998 29.9705L66.9199 29.9461L66.7705 30.1599C66.6009 30.1963 65.7828 29.6033 65.5674 29.4617C64.9358 29.0463 64.3071 28.7008 63.6318 28.364C66.0654 30.6747 66.0028 33.2933 63.8965 35.8181C63.9131 34.6281 63.684 33.6763 63.3838 32.5496C63.5163 32.4138 63.5941 32.351 63.6787 32.1785C63.5601 32.1698 63.4764 32.1578 63.3584 32.1394C63.1422 31.9929 62.7559 30.648 62.626 30.3152C62.3688 29.6588 62.0862 29.045 61.7881 28.407C61.4323 29.0432 60.9005 30.4917 60.666 31.1834C59.1039 35.7894 58.8437 39.8262 59.4199 44.6072C62.4954 44.9237 65.7003 46.8011 68.3369 48.283C69.5493 48.9665 70.7709 49.6342 72 50.2859C66.4313 48.8137 61.459 45.3308 55.665 46.2596C53.394 46.5889 51.2375 47.6623 48.9863 48.031C46.6623 48.4122 44.8941 48.025 42.5 48.5291C42.7786 48.6945 42.9831 48.5356 43.1787 48.6599C48.2459 48.7829 52.0974 51.7031 56.5732 53.6443C59.5159 54.9208 61.9298 55.6356 65.0605 56.1941C61.7673 56.4361 57.5154 55.371 54.4287 54.3592C51.72 53.4708 49.7482 52.7133 46.8594 52.5672C40.2211 52.2324 35.6155 57.7046 29.3789 58.2156C23.8474 58.6684 18.6958 54.9657 13.2939 54.2967C9.96992 53.8849 6.87039 54.7057 3.6084 55.2049C2.33789 55.3995 1.2779 55.4999 0 55.6023C2.22358 54.6773 4.76382 53.9887 7.03809 53.1687C8.1652 52.7623 9.42637 52.667 10.5098 52.1707C10.8428 52.0182 11.3438 51.0997 11.4395 50.7264C12.0266 48.7842 11.668 46.4491 10.7158 44.6648C9.48332 42.3554 7.66922 42.504 7.11719 45.201C6.82219 45.2247 6.16481 45.3174 6.06152 44.9637C5.84529 44.2199 5.41237 41.8618 5.63477 41.2224C5.92102 40.9125 6.91501 40.7361 7.31738 40.7469C8.43285 40.7888 10.6963 39.5992 11.3076 40.9597C12.012 42.5277 12.8935 44.1743 13.5029 45.7703C13.2327 45.9784 12.8476 46.3364 12.582 46.5672C13.1492 46.4825 14.3742 46.4279 14.9727 46.3826C16.6634 46.2516 18.356 46.1448 20.0498 46.0623C20.1191 45.2205 20.6648 40.9342 20.9727 40.4119C21.1386 40.1305 21.6555 39.9778 21.9531 39.9109C22.7099 39.7401 23.5057 39.6561 24.2725 39.5252C25.1422 39.3764 26.044 39.1651 26.9229 39.0945C27.1512 39.0762 27.4121 39.0755 27.6309 39.1531C28.2944 39.3879 28.651 41.674 29.1123 42.3172C29.2891 42.5634 29.5245 42.7371 29.7793 42.8933L29.8428 42.9324C30.3879 42.8359 30.9313 42.7274 31.4717 42.6072C29.8219 42.6099 29.7739 42.3174 29.2539 40.7703C28.7934 39.4006 27.6021 37.5075 28.3887 36.1053C28.9669 35.0747 30.9124 34.9524 31.9893 34.7615C33.4916 34.491 34.9962 34.2318 36.5029 33.9842C37.6225 33.793 38.7443 33.6145 39.8682 33.4471C41.1415 33.2577 42.9004 32.8247 43.5166 34.4539C44.0551 35.878 44.1461 37.5766 44.5342 39.0525C45.3197 39.1436 45.5262 39.3175 46.0596 39.8562C46.4342 39.8083 47.8112 39.4516 48.0684 39.6316C48.5265 39.952 48.7459 41.5914 48.4678 42.0857C48.3266 42.3374 47.6958 42.4455 47.4219 42.5037C47.8606 44.2901 47.8445 46.1639 46.6855 47.6717C48.0068 47.5385 49.1834 47.0574 50.3926 46.5242C53.6022 45.1097 55.5602 44.3022 59.1455 44.5232C58.0587 44.1734 56.8892 44.0968 55.7588 44.031C55.7976 42.8192 55.9452 41.7177 56.1641 40.5291C56.5872 40.4773 56.9224 40.4848 57.3428 40.5252C56.9661 40.3657 56.6514 40.244 56.2656 40.1082C56.3524 39.0435 57.0306 36.8478 57.416 35.8347C57.7286 35.8714 58.0399 35.8949 58.3535 35.9207L57.5049 35.5408C57.768 34.676 58.2328 33.4968 58.6533 32.6883C58.7455 32.5111 58.8266 32.533 59.0137 32.493C58.9533 32.439 58.8946 32.3921 58.832 32.3406C58.8859 31.7448 60.6663 28.71 60.9893 28.0428C59.6259 28.494 58.5453 29.121 57.3496 29.8806C57.2699 29.7143 57.2443 29.6633 57.1436 29.5115C57.0719 29.6396 57.1015 29.8489 57.1025 30.0183C56.0271 30.8297 55.5458 31.3651 54.7432 32.4002C54.562 29.6798 55.5095 27.1076 58.5654 26.6267C59.0484 26.5508 59.5083 26.5982 59.9951 26.6336C58.8134 26.1584 57.8331 25.8496 56.6504 25.4383C56.714 25.2211 56.7619 25.1887 56.7188 24.9998C56.5303 25.0553 56.4322 25.2046 56.2803 25.3592C54.8932 25.1054 54.3136 25.0454 52.8877 25.241C55.5739 22.1454 59.1128 22.3334 61.3506 25.7947C61.0735 24.8383 60.7639 23.8895 60.3672 22.9754C60.2651 22.7404 59.8875 21.9595 59.916 21.7635L60.1523 21.6658L60.1465 21.6258L59.7275 21.5105C58.9995 20.3027 58.7988 20.0834 57.8115 19.1258ZM25.5869 43.0603C22.7673 41.3895 21.5632 45.3967 21.9287 47.4187C19.5389 47.5977 16.3456 47.8708 13.9658 47.9285C13.9855 49.0443 13.9888 50.5474 13.2178 51.4783C12.8048 51.9769 11.6345 52.0811 10.9834 52.2859C12.8237 52.1355 14.0657 52.1278 15.9219 52.4275C19.2039 52.9569 22.4651 54.2586 25.8301 53.8435C27.8869 53.5896 29.9606 52.5232 31.8213 51.6424C34.9851 50.1453 38.3266 48.8526 41.8662 48.6736L42.0527 48.5525C41.042 47.6841 40.5763 46.8997 40.2178 45.6297C37.2147 46.2081 34.0242 46.7726 31.0469 47.4119C31.2806 48.8333 31.1576 50.0785 30.6201 51.4158C29.9263 51.8616 28.1483 52.5154 27.3438 52.7693C28.4138 51.0917 28.4746 49.2084 28.0693 47.2693C27.7528 45.7545 26.9418 43.9379 25.5869 43.0603ZM44.2451 40.9275C43.9621 40.9755 43.6709 41.0161 43.3906 41.076C42.975 41.1644 42.8945 41.1135 42.7188 41.5135C42.5208 41.5971 40.7366 41.8884 40.3496 41.9568C38.8274 42.2269 37.3074 42.5114 35.79 42.8084C35.6849 42.7092 35.5615 42.585 35.4531 42.4939C35.0685 42.5634 33.7005 42.7486 33.5723 42.9812C33.3414 43.4055 33.4756 44.433 34.2871 44.2918C34.9287 44.1862 35.8043 44.1917 35.9785 43.4578C36.337 43.2864 38.1679 43.0058 38.7148 42.9109C40.055 42.6775 41.4523 42.3763 42.7871 42.158C42.8836 42.3461 42.9169 42.4659 43.0996 42.5662C43.3868 42.5984 44.6086 42.4062 44.8154 42.1961C45.079 41.9265 44.924 41.1753 44.5908 40.9246C44.4184 40.8906 44.4213 40.8995 44.2451 40.9275ZM32.5127 40.739C32.3637 40.3957 32.1385 40.3363 31.793 40.3875C31.3779 40.4527 30.4522 40.5163 30.4541 41.1082C30.5834 41.4695 30.8357 41.5381 31.1846 41.489C31.6863 41.412 32.4807 41.3897 32.5127 40.739ZM33.3965 36.2713C33.2903 36.3827 33.1543 36.4938 33.1533 36.658C33.1514 37.0941 33.8475 40.7318 34.0557 40.8914C34.2002 41.0022 34.3592 41.0028 34.5332 40.991C34.6575 40.8676 34.7882 40.7634 34.7969 40.5769C34.8157 40.1436 34.117 36.6333 33.8936 36.4012C33.7695 36.2729 33.6158 36.2637 33.4463 36.2674C33.4298 36.2677 33.4129 36.2702 33.3965 36.2713ZM35.2598 35.9402C35.1649 36.0334 34.9738 36.1919 34.998 36.3367C35.2255 37.7043 35.5054 39.098 35.8525 40.4402C35.8983 40.6151 36.2648 40.6481 36.4043 40.6492C36.4683 40.5858 36.6939 40.3834 36.6719 40.2537C36.4438 38.9448 36.1734 37.3249 35.7578 36.0789C35.7185 35.962 35.3989 35.9418 35.2598 35.9402ZM37.0986 35.615C37.0097 35.7027 36.8092 35.8773 36.8311 36.0115C37.0564 37.3753 37.359 38.7578 37.7002 40.0984C37.7449 40.2731 38.0706 40.304 38.2178 40.3035C38.317 40.2108 38.5099 40.0469 38.4951 39.9295C38.4143 39.2961 37.8251 36.1417 37.5879 35.7713C37.4046 35.6384 37.3315 35.6378 37.0986 35.615ZM38.9443 35.2986C38.8742 35.3668 38.6467 35.5669 38.666 35.6951C38.8612 36.9526 39.1826 38.2131 39.4316 39.4627C39.5157 39.8852 39.6626 39.9413 40.0723 39.9558C40.1731 39.8405 40.3652 39.6624 40.3184 39.4441C40.051 38.1903 39.8544 36.5933 39.4043 35.4197C39.3703 35.3305 39.0548 35.2988 38.9443 35.2986ZM30.5303 36.4422C28.7154 37.17 29.3895 39.7564 31.2754 39.4734C31.7454 39.267 32.0637 39.0514 32.2549 38.5389C32.4064 38.1211 32.3754 37.6592 32.1699 37.2654C31.8345 36.6083 31.2339 36.378 30.5303 36.4422ZM42.8516 38.3396C42.3788 38.4119 41.5147 38.4528 41.4727 39.0857C41.5902 39.4544 41.8309 39.5215 42.1846 39.4773C42.6611 39.3949 43.4647 39.3487 43.4492 38.7117C43.3274 38.474 43.1371 38.295 42.8516 38.3396ZM41.4844 34.6697C40.624 35.0969 40.3 35.9697 40.7744 36.8279C40.9556 37.1599 41.2641 37.4042 41.6289 37.5047C41.8486 37.5634 42.0145 37.5394 42.2363 37.5154C43.867 36.7841 43.2007 34.4711 41.4844 34.6697Z" fill="#F76401"/>
<path d="M29.3658 26.97C29.5855 26.9345 29.8695 26.944 30.0826 27.011C30.3842 27.1084 30.6498 27.2935 30.8463 27.5423C31.1645 27.9384 31.6277 28.8786 31.8854 29.3714C32.4316 30.4318 32.987 31.4883 33.5514 32.5393C33.4961 32.2713 33.3557 31.7209 33.44 31.4808C33.5711 31.1079 34.6784 31.0476 34.9859 31.1722C35.2921 31.544 35.4036 32.3805 35.4322 32.8587C35.4408 33.0076 35.4547 33.3376 35.3111 33.4349C35.0508 33.6102 23.8244 35.4897 22.4879 35.72C21.4756 35.8945 19.9666 35.9767 19.0699 36.3811C18.7566 36.5225 18.544 36.7999 18.3238 37.053L28.1539 35.4788C27.2056 36.4028 27.3331 37.1194 27.5934 38.3059L23.6617 38.9241C22.9581 39.0352 22.2574 39.1285 21.5611 39.2806C20.3192 39.5528 20.2065 40.493 20.0572 41.555C20.0376 41.8618 19.9185 42.5054 19.8688 42.8294C19.7316 43.6779 19.6114 44.5288 19.5074 45.3821C17.7396 45.4883 15.9727 45.607 14.2066 45.7386C13.7044 44.5472 13.1849 43.3631 12.6481 42.1868C12.36 41.5454 11.9082 40.3138 11.3609 39.9163C11.1412 39.7546 10.88 39.6589 10.608 39.6399C10.074 39.6011 7.1022 40.1068 6.38633 40.2093C6.32964 39.9069 6.29724 39.5479 6.27891 39.2386C6.1559 37.1565 5.96088 35.0601 5.90098 32.9768C5.86605 31.7618 6.68335 31.5024 7.65586 31.2015C8.13813 31.0521 8.64409 30.8961 9.13536 30.7454L13.065 29.5442C13.5825 29.3866 14.7253 28.975 15.2203 28.9104C19.9057 28.299 24.6727 27.489 29.3658 26.97ZM9.94297 32.1331C9.57544 32.2264 7.23664 32.8041 7.21934 33.0921C7.1302 34.5749 7.36281 36.3037 7.47618 37.8069C7.49208 38.0177 7.83631 38.0647 8.00743 38.0393C8.45007 37.9569 10.5086 37.6502 10.7477 37.4143C10.7875 37.258 10.829 36.9669 10.8014 36.7552C10.6152 35.3304 10.5246 33.7101 10.1969 32.3284C10.1761 32.2406 10.0191 32.1616 9.94297 32.1331ZM14.4859 30.7786C13.8313 30.9646 11.8607 31.4441 11.4654 31.7893C11.2022 32.5813 11.8758 35.4293 11.8834 36.4026C11.8929 37.5787 12.7559 37.1764 13.5299 37.0286C14.3195 36.9033 15.1129 36.7754 15.9029 36.6438C16.8102 36.4928 16.8304 36.2336 16.5367 35.4007C16.0242 33.9466 15.4784 32.4978 14.9283 31.0579C14.8551 30.869 14.6772 30.7897 14.4859 30.7786ZM29.4811 28.3714L21.4684 29.511C19.991 29.721 18.5179 29.9343 17.0397 30.1614C16.0163 30.2543 16.6179 31.2484 16.8268 31.846C17.0892 32.5967 17.3867 33.4216 17.6842 34.1692C17.911 34.7395 18.2917 34.6332 18.7838 34.553C22.9851 33.7491 27.2491 33.1411 31.4576 32.3655C31.6072 32.3379 31.6718 32.2817 31.7672 32.1722C31.816 32.0445 31.8359 31.9265 31.7652 31.7991C31.1907 30.7635 30.713 29.6601 30.0963 28.6517C29.9521 28.4159 29.754 28.336 29.4811 28.3714Z" fill="#F76401"/>
<path d="M41.6832 16.5135C43.6675 16.2268 45.5058 17.6084 45.7824 19.5938C46.0594 21.5791 44.6681 23.4108 42.6816 23.6773C40.709 23.9419 38.8934 22.5631 38.6185 20.5919C38.3441 18.6208 39.7134 16.7982 41.6832 16.5135Z" fill="#F76401"/>
<path d="M8.32117 43.8827C8.65416 43.8487 8.89818 43.846 9.18836 44.0301C10.9875 45.1735 11.8535 50.6281 9.79089 51.6571C8.7323 51.8463 8.1024 50.7252 7.75281 49.9041C7.08675 48.3391 6.5554 44.9155 8.32117 43.8827ZM8.71277 45.3651C8.44986 45.5446 8.3515 45.6351 8.23328 45.9413C7.82939 46.9868 8.22291 49.7665 9.41394 50.1288C10.6901 49.3374 9.93921 45.5112 8.71277 45.3651Z" fill="#F76401"/>
<path d="M45.4527 34.5699C46.2775 34.4642 46.7029 34.9172 46.9729 35.651C47.4646 36.988 47.6705 37.2449 46.1988 37.4824C45.7384 37.5469 45.353 37.6164 44.8969 37.7091C44.6748 36.719 44.5632 35.7047 44.3066 34.7223L45.4527 34.5699Z" fill="#F76401"/>
<path d="M42.1071 12.8572C42.2985 12.8956 42.3082 12.8834 42.4553 13.0199C42.6844 13.473 42.5906 14.4132 42.5437 14.9144C42.5227 15.143 42.4532 15.1893 42.2823 15.3203C42.2203 15.3046 42.037 15.2636 41.9923 15.215C41.7297 14.9278 41.8025 13.9693 41.8241 13.6054C41.8478 13.2018 41.8375 13.0898 42.1071 12.8572Z" fill="#F76401"/>
<path d="M35.2457 19.7291C35.7746 19.7338 37.2172 19.521 37.3972 20.0643C37.3519 20.2829 37.3412 20.2882 37.1854 20.4579C36.6883 20.4702 35.1751 20.6751 35.0371 20.1106C35.0802 19.9014 35.1083 19.8855 35.2457 19.7291Z" fill="#F76401"/>
<path d="M42.0696 24.8318C42.2637 24.8548 42.2658 24.8434 42.4265 24.9671C42.6879 25.3717 42.6782 26.8884 42.3461 27.2402C42.0868 27.2059 42.144 27.2487 41.9553 27.1103C41.7984 26.8337 41.7774 26.2981 41.8033 25.9751C41.8399 25.5242 41.7434 25.1609 42.0696 24.8318Z" fill="#F76401"/>
<path d="M47.2193 19.7271C47.7325 19.7346 49.2269 19.5203 49.3552 20.0956C49.3045 20.294 49.2716 20.3102 49.1293 20.4521C48.6047 20.4607 47.1428 20.6696 47.001 20.1107C47.0393 19.9087 47.0851 19.8797 47.2193 19.7271Z" fill="#F76401"/>
<path d="M38.4097 23.3777C38.6053 23.401 38.6 23.3935 38.7811 23.4971C39.1094 24.0207 37.9121 24.9074 37.525 25.2459C36.2469 25.1056 38.118 23.6501 38.4097 23.3777Z" fill="#F76401"/>
<path d="M45.7237 23.3652C46.1906 23.3987 47.2429 24.4492 47.3237 24.8978C47.2935 25.0822 47.2466 25.1064 47.1146 25.238C46.6569 25.2115 45.583 24.1521 45.5205 23.7173C45.5561 23.529 45.5965 23.5054 45.7237 23.3652Z" fill="#F76401"/>
<path d="M37.3558 14.9111C37.8054 15.0467 38.8448 15.9886 38.8534 16.4822C38.7801 16.6758 38.7278 16.6911 38.558 16.8075C38.1564 16.6382 37.1035 15.6925 37.0825 15.234C37.1537 15.0398 37.1898 15.0298 37.3558 14.9111Z" fill="#F76401"/>
<path d="M46.8837 14.9106C47.067 14.9421 47.0735 14.9581 47.2287 15.0516C47.5463 15.5683 46.3603 16.4316 45.9829 16.7795C45.7835 16.7577 45.7835 16.7448 45.6158 16.6465C45.5619 16.5596 45.5172 16.5265 45.5242 16.4366C45.557 16.0005 46.5511 15.2113 46.8837 14.9106Z" fill="#F76401"/>
<path d="M44.4531 57.8917C48.1506 56.8254 51.3782 57.6249 55.0029 58.3888C57.2401 58.8605 59.725 59.3606 62.0117 59.5714L61.9053 59.7267C59.9091 59.7585 57.9128 59.6558 55.9307 59.4181C53.0181 59.0828 50.4137 58.548 47.4521 58.8019C44.9482 59.0159 43.2476 59.7539 40.9141 60.5226C38.3859 61.3559 36.4154 61.619 33.7637 61.5538C35.7885 61.1199 37.5978 60.54 39.5195 59.7589C41.1911 59.0786 42.7234 58.3903 44.4531 57.8917ZM62.0127 59.5704C62.1836 59.586 62.5304 59.5945 62.6582 59.6769C62.4201 59.7495 62.1594 59.7283 61.9062 59.7267L62.0127 59.5704Z" fill="#F76401"/>
</g>
<defs>
<clipPath id="clip0_1979_6582">
<rect width="72" height="72" fill="white"/>
</clipPath>
</defs>
</svg>
