<svg width="36" height="36" viewBox="0 0 36 36" fill="none" xmlns="http://www.w3.org/2000/svg">
<g clip-path="url(#clip0_1979_6337)">
<path d="M28.3559 20.5587C30.5767 20.449 33.0223 20.5717 35.2602 20.5773C35.6731 20.5787 36.1215 21.245 35.9702 21.5861C35.4965 22.6493 33.9828 23.3067 33.1469 24.1193C32.4069 24.7889 31.679 25.2677 31.0493 26.0675C30.5221 26.6752 29.9288 27.6357 29.3784 28.003C28.7619 28.0753 27.6566 28.0381 26.9946 28.0353L23.0678 28.0294L18.2114 28.0236C17.0613 28.0216 15.6085 28.1008 14.5151 27.8312C12.5065 27.336 10.4698 26.8973 8.39399 26.798C6.14188 26.6094 4.17621 26.8009 1.96235 27.1554C1.61007 25.5947 0.492398 24.2418 0.0424248 22.7247C-0.186138 21.954 0.56702 21.7697 1.15375 21.7667C3.09514 21.7572 5.03868 21.76 6.9809 21.7599L18.4272 21.7648L22.6069 21.7687C23.9677 21.7696 25.4107 21.8724 26.6762 21.2902C27.2666 21.0186 27.6985 20.6863 28.3559 20.5587ZM14.8217 23.9493C14.5519 23.7413 14.203 23.6641 13.8706 23.7384C13.2529 23.8765 12.8633 24.4887 13.0004 25.1066C13.1377 25.7243 13.7497 26.1139 14.3676 25.9777C14.9092 25.8583 15.2878 25.3688 15.267 24.8146C15.2542 24.4743 15.0913 24.1573 14.8217 23.9493ZM23.268 24.5782C23.117 23.9748 22.5129 23.6013 21.9057 23.7364C21.4988 23.8271 21.1723 24.1316 21.0541 24.5314C20.936 24.9311 21.0442 25.3639 21.3364 25.6613C21.6286 25.9586 22.0596 26.0743 22.4614 25.963C23.0612 25.7969 23.4188 25.1821 23.268 24.5782ZM19.2563 24.6261C19.1285 24.0047 18.5182 23.6071 17.8979 23.7404C17.2856 23.8722 16.8939 24.4725 17.02 25.0861C17.1462 25.6996 17.7431 26.0972 18.3579 25.9767C18.9805 25.8545 19.384 25.2476 19.2563 24.6261ZM10.9477 24.0939C10.6726 23.7899 10.2549 23.6577 9.85493 23.7482C9.25006 23.8851 8.86645 24.4819 8.9936 25.089C9.12079 25.696 9.71177 26.0891 10.3207 25.9718C10.7234 25.894 11.0531 25.6049 11.1831 25.2159C11.313 24.8269 11.2229 24.398 10.9477 24.0939Z" fill="#0D47FA"/>
<path d="M10.6802 16.1597L19.9692 16.1578L25.3267 16.1568C26.0243 16.1569 27.8714 16.1211 28.4526 16.2652C29.1422 16.4364 30.4879 19.1058 30.9126 19.8443C29.8676 19.8843 28.5988 19.7459 27.6226 20.0328C26.9874 20.3278 26.2574 20.8081 25.5903 20.9019C24.6416 21.0354 23.5739 20.9999 22.6069 20.9976L18.3188 20.9888L3.06494 20.9957C3.45887 19.7563 3.89994 18.0274 4.47314 16.8814C4.69363 16.4407 5.11136 16.2677 5.57764 16.1763C7.1792 16.1102 9.05677 16.1595 10.6802 16.1597ZM12.4536 17.2398C12.333 17.2915 12.2669 17.2901 12.2368 17.4273C12.111 18.0013 12.156 19.4175 12.2583 19.9625C12.8517 20.0049 13.4345 19.9927 14.0288 19.9879C14.134 19.9263 14.1965 19.9177 14.2134 19.7896C14.3096 19.0624 14.2589 18.0111 14.2231 17.2906C13.6625 17.2133 13.0213 17.2156 12.4536 17.2398ZM9.05908 17.2428C8.87826 17.255 8.62035 17.2475 8.4917 17.3619C8.41322 17.789 8.4648 19.4568 8.47217 19.9556C9.02065 19.9914 9.48153 19.9934 10.0278 19.9908C10.2602 19.9779 10.2472 20.0174 10.3823 19.8922C10.4696 19.4025 10.4463 17.8164 10.4019 17.2838C9.93574 17.2232 9.52929 17.2202 9.05908 17.2428ZM17.9673 17.2945C17.448 17.203 16.8649 17.2268 16.3345 17.2418C16.247 17.2601 16.1064 17.2698 16.0854 17.3336C15.9205 17.8491 16.0071 19.4859 16.0522 19.9801C16.6126 19.9877 17.1735 19.9914 17.7339 19.9908C17.8273 19.9621 17.8977 19.9642 17.9224 19.8785C18.0566 19.4079 18.0241 17.7565 17.9673 17.2945ZM25.5112 17.2691C24.93 17.2252 24.3462 17.2181 23.7642 17.2486C23.6792 17.2783 23.6038 17.2832 23.5884 17.3599C23.4584 18.0065 23.5257 19.3176 23.5591 19.9703C24.1592 19.9912 24.7605 19.9962 25.3608 19.984C25.469 19.9023 25.5123 19.8579 25.5181 19.6881C25.5413 19.0045 25.5751 17.9282 25.5112 17.2691ZM20.3384 17.2447L19.7251 17.3004C19.7221 18.0842 19.6902 19.2294 19.7749 19.9742C20.277 19.9873 20.7795 19.992 21.2817 19.9879C21.528 19.9697 21.5186 20.0058 21.7026 19.8873C21.8226 19.4992 21.7843 17.7217 21.7349 17.2896C21.251 17.2277 20.8263 17.2203 20.3384 17.2447Z" fill="#0D47FA"/>
<path d="M13.6201 13.2869L22.3418 13.284C22.7241 13.2838 23.1236 13.2754 23.5068 13.284C25.9089 13.3378 26.0146 12.9313 25.9727 15.4402L25.2471 15.4461L8.00586 15.4441C8.00852 14.8658 8.01279 14.3239 8.04395 13.7449C8.271 13.4997 8.34968 13.361 8.66895 13.2977C10.2648 13.2541 12.012 13.2866 13.6201 13.2869ZM13.5654 13.8211C13.5462 14.2217 13.5269 14.5259 13.5576 14.9256C13.8916 14.8864 13.9748 14.8813 14.3057 14.9324C14.4227 14.5407 14.392 14.2211 14.3643 13.8182L13.5654 13.8211ZM16.5684 13.826C16.5656 14.1575 16.552 14.5652 16.5762 14.8875C16.8399 14.8989 17.1277 14.9055 17.3887 14.9246C17.4319 14.4761 17.4321 14.2652 17.4092 13.8143L16.5684 13.826ZM22.9365 13.8074C22.8389 13.8242 22.7091 13.8206 22.6543 13.9109C22.4933 14.1765 22.4893 14.7038 22.7842 14.8875C22.9091 14.9011 23.0349 14.9133 23.1602 14.9236C23.2385 14.9061 23.3407 14.9059 23.3682 14.8377C23.5024 14.5038 23.5561 14.0412 23.2451 13.8162L22.9365 13.8074ZM10.5332 13.8201C10.5353 14.1924 10.5301 14.5351 10.5781 14.9051L11.3242 14.9139C11.3392 14.5464 11.3533 14.197 11.3516 13.8289L10.5332 13.8201ZM19.6514 13.8025C19.5658 14.0461 19.6032 14.6321 19.6133 14.907L20.417 14.8914C20.4794 14.5628 20.4554 14.1771 20.4492 13.8387L19.6514 13.8025Z" fill="#0D47FA"/>
<path d="M11.456 7.5C11.6119 7.51242 11.7064 7.50754 11.8415 7.5918C11.9439 7.77242 12.2886 11.8819 12.3688 12.5543L11.7956 12.5575L10.8931 12.557C10.9441 11.9618 11.0343 11.135 11.1035 10.5478C11.1859 9.8489 11.1925 8.05392 11.456 7.5Z" fill="#0D47FA"/>
</g>
<defs>
<clipPath id="clip0_1979_6337">
<rect width="36" height="36" fill="white"/>
</clipPath>
</defs>
</svg>
