<svg width="36" height="36" viewBox="0 0 36 36" fill="none" xmlns="http://www.w3.org/2000/svg">
<path d="M24.7572 8.35449C24.9089 8.98275 24.6814 10.9136 24.8441 11.2334C24.8574 11.2376 24.8703 11.2412 24.8831 11.2461C25.2232 11.3765 26.1169 12.8062 26.3548 13.1807L26.3578 14.334C26.5564 14.3359 26.7781 14.3438 26.9749 14.3369L26.9828 27.5303C26.9832 29.9013 26.9544 32.3298 26.9837 34.6963C26.0067 34.7143 25.0296 34.719 24.0521 34.71L24.0531 32.9385C23.4774 32.9416 22.8702 32.9539 22.2982 32.9336C22.2368 30.592 22.2825 28.0815 22.2874 25.7295L22.2923 14.3291C22.4901 14.335 22.6984 14.3456 22.8949 14.3408C22.8949 13.9626 22.8827 13.5047 22.9007 13.1328C23.303 12.5547 23.7659 12.0078 24.1917 11.4463C24.283 11.3262 24.3752 11.297 24.5121 11.2373C24.655 10.8979 24.4604 8.97483 24.5872 8.42773L24.7542 8.33984V8.34082L24.7572 8.33984C24.7572 8.34462 24.7571 8.34951 24.7572 8.35449ZM27.5863 22.9287C28.4545 22.9563 29.4786 22.9362 30.3568 22.9385C30.3261 23.4504 30.4314 23.4163 30.5443 23.8916C30.5998 24.163 30.6044 24.9195 30.5814 25.1602C30.4897 26.1154 30.7086 34.424 30.5443 34.6904L30.3861 34.7109L27.3109 34.7119V26.959C27.3104 26.4658 27.2807 23.9232 27.348 23.6396C27.4618 23.5972 27.4308 23.615 27.5306 23.5459C27.564 23.3285 27.5727 23.1466 27.5863 22.9287ZM21.933 26.0381C21.9704 28.4149 21.9385 30.839 21.9466 33.2217C22.2745 33.2284 23.5974 33.1656 23.764 33.2783C23.7645 33.7492 23.7626 34.2205 23.7572 34.6914C21.042 34.7253 18.2565 34.6934 15.5365 34.6934L5.14682 34.6855C5.14248 34.1992 5.14141 33.7124 5.14389 33.2256C5.73474 33.2138 6.35173 33.2238 6.94467 33.2256L6.95151 26.0469L12.4583 26.0381C12.5566 26.151 12.5136 32.5015 12.513 33.2275L13.2601 33.2295C13.3498 32.5632 13.601 31.953 14.3812 31.8955C14.6898 31.872 14.9946 31.9786 15.222 32.1885C15.5576 32.4933 15.5975 32.8123 15.6107 33.2246L16.3773 33.2217C16.4337 30.8903 16.3739 28.3945 16.3919 26.0459L21.933 26.0381ZM15.5111 10.5361C15.5644 11.0126 15.5406 12.0915 15.5404 12.4385L15.5384 15.9805L15.5414 32.0547C14.7671 31.4595 13.9564 31.3567 13.3089 32.1992C13.1894 32.3546 12.9963 32.8066 12.8744 32.8662C12.7151 32.4448 12.808 26.6811 12.8177 25.7363L8.57162 25.7432C9.35429 21.2925 11.6767 16.7614 15.3363 14.0176C15.3341 13.8367 15.3192 13.404 15.348 13.25C15.3075 12.4622 15.3401 11.4951 15.3441 10.6973C15.3452 10.4873 15.3685 10.4724 15.4828 10.373L15.5111 10.5361ZM19.8089 3.62109C19.841 4.78027 20.0991 5.74378 20.1546 6.94238L20.3343 11.3574C20.3537 11.8917 20.3142 12.8643 20.3724 13.3223C20.4898 13.3884 20.5775 13.3647 20.7279 13.3652C20.8827 13.49 20.72 18.3587 20.7962 18.9883C20.8364 19.3163 21.2234 18.6674 21.2767 19.4854C21.3173 20.1137 21.1695 24.1595 21.347 24.3467C21.5209 24.3462 21.5709 24.3212 21.7064 24.3984C21.7627 24.6287 21.7365 25.4506 21.7347 25.7402L17.7308 25.7441C17.706 24.7896 17.7219 23.7711 17.7259 22.8125L18.2435 22.8076V17.4102L18.766 17.416C18.7876 15.7847 18.7478 14.1466 18.764 12.5146C18.7685 12.0788 18.7631 11.6465 18.8167 11.2129L18.9583 11.1133C19.0563 10.6306 18.9711 9.83082 19.056 9.30176C19.1355 9.26125 19.1554 9.2601 19.2425 9.24316C19.3094 9.0494 19.2783 8.54673 19.3099 8.30762C19.4819 6.99874 19.3523 5.69263 19.5492 4.38574C19.5929 4.09714 19.5639 3.81907 19.6302 3.52734L19.8089 3.62109ZM19.7347 1.42773L19.7328 1.37109L19.7513 1.38086C19.7892 1.8835 19.7967 2.38806 19.7728 2.8916H19.7738L19.808 3.62012L19.6292 3.52637C19.6518 3.37428 19.6585 3.0841 19.682 2.89453L19.6839 2.89355L19.681 2.89453C19.6846 2.43875 19.669 1.80143 19.7074 1.3623L19.7347 1.42773ZM19.7328 1.37109L19.7279 1.36914L19.7298 1.28613L19.7328 1.37109Z" fill="#FF4A27"/>
</svg>
