<svg width="48" height="48" viewBox="0 0 48 48" fill="none" xmlns="http://www.w3.org/2000/svg">
<path d="M38.5351 18.8519C38.5136 18.1672 38.4294 17.0249 38.2175 16.3853C37.7636 15.0169 37.3156 13.7311 38.4399 12.5172C39.0407 11.8689 39.8108 11.6496 40.7013 11.626C40.8404 11.9966 41.104 12.442 41.2701 12.8179C42.0045 14.5269 43.2747 16.3864 43.6687 18.1976C44.0403 19.9052 43.7053 22.0926 44.0014 23.8065V26.9989C43.6074 27.8454 42.0608 29.5596 41.3662 30.3848L38.3566 33.968C37.3765 35.1185 36.5011 35.7737 36.4577 37.3712L27.3678 37.3713L27.3623 32.6503C27.3618 31.5747 27.3074 30.0648 27.5138 29.0575C27.6913 28.196 28.0423 27.3796 28.5451 26.6578C29.0251 25.957 29.8557 25.2167 30.4876 24.6199L32.7407 22.4985C33.6518 21.6388 34.6218 20.6752 35.5869 19.8814C35.9177 19.6093 36.3282 19.4636 36.7491 19.3861C37.549 19.2361 38.3759 19.4103 39.0467 19.8703C39.6919 20.3163 40.1787 21.0525 40.316 21.8268C40.4295 22.4481 40.3416 23.0894 40.0657 23.6576C39.7152 24.385 38.7671 25.2909 38.1837 25.9211L36.2376 28.0277C35.9534 28.3349 34.9884 29.1096 35.57 29.4314C35.8184 29.4314 36.0495 29.2594 36.2142 29.0774C37.1989 27.9898 38.1988 26.918 39.1968 25.842C39.5399 25.4714 39.9632 25.0495 40.2643 24.6518C40.5073 24.3337 40.6995 23.98 40.8349 23.6033C41.1781 22.6359 41.1017 21.6409 40.6555 20.7202C40.2208 19.8441 39.4594 19.1733 38.5351 18.8519Z" fill="#BA9B31"/>
<path d="M28.871 4.99999C30.4833 4.9903 32.0315 5.63166 33.1649 6.77831C34.2955 7.9102 34.9302 9.44533 34.9276 11.0449C34.9248 12.1058 34.6434 13.148 34.1122 14.0664C33.5264 15.0646 32.1605 16.3164 31.2958 17.1806L27.9032 20.5683L24.0204 24.4531L17.7069 18.1465C16.8408 17.2802 15.9503 16.3323 15.0614 15.499C11.2677 11.9413 13.2927 5.52936 18.6434 5.02245C18.7669 5.00287 19.1837 4.99606 19.3153 5.00194C21.4499 5.09763 22.6141 5.92436 24.0106 7.37596C24.106 7.27781 24.2014 7.18015 24.2977 7.08299C25.5995 5.76864 26.9671 5.00509 28.871 4.99999ZM24.5506 13.668C23.9125 13.6806 23.2068 13.647 22.5692 13.7109C21.7689 13.9119 21.1244 14.3155 20.6952 15.0371C20.2682 15.7554 20.1138 17.3657 20.328 18.1611C20.3975 18.4181 20.5362 18.6665 20.7733 18.8027C21.256 19.08 24.686 18.9351 25.4735 18.9375C26.0354 18.9475 26.9951 19.0633 27.4325 18.668C27.7577 18.3736 27.7553 17.8675 27.7489 17.4658C27.7704 16.3399 27.7772 15.3717 26.9335 14.5185C26.254 13.8314 25.4918 13.6493 24.5506 13.668ZM23.7264 8.59569C22.5812 8.7518 21.7782 9.80409 21.9305 10.9492C22.0829 12.0943 23.133 12.9003 24.2792 12.7519C25.4309 12.6028 26.2425 11.547 26.0897 10.3965C25.9363 9.24599 24.8772 8.43898 23.7264 8.59569Z" fill="#BA9B31"/>
<path d="M7.32878 11.626C8.0966 11.6279 8.96372 11.8744 9.49772 12.4304C10.7963 13.782 10.2115 15.0034 9.77273 16.5385C9.6176 17.0806 9.47255 18.27 9.48582 18.8277C9.02869 19.0348 8.70839 19.1923 8.31624 19.5131C7.5594 20.1349 7.08306 21.0338 6.99428 22.009C6.8959 22.9959 7.22399 24.0823 7.89206 24.8246C9.22317 26.3032 10.6009 27.7433 11.9398 29.2142C12.0465 29.331 12.2135 29.4258 12.3718 29.4421C13.1204 29.1873 11.9234 28.178 11.6552 27.8909L9.57825 25.6535C8.66995 24.6711 7.704 23.8939 7.66053 22.4629C7.63948 21.6541 7.94056 20.87 8.49698 20.2827C9.0502 19.69 9.82077 19.3476 10.6316 19.3341C12.3091 19.2943 13.4087 20.7335 14.5421 21.8076L17.9365 25.0167C18.1781 25.2341 18.4558 25.4859 18.6837 25.7147C19.516 26.539 20.1146 27.5691 20.4188 28.7C20.7492 29.9361 20.6618 31.6846 20.6614 33.0108L20.6577 37.3707L11.5427 37.3706C11.5596 36.3145 11.2814 35.8621 10.595 35.0703C10.1731 34.584 9.73932 34.0614 9.32338 33.5664L5.46413 28.9669C5.02897 28.4485 4.39842 27.8325 4.13165 27.213C3.97927 26.8598 3.99529 26.2265 4.00718 25.8423C4.06301 24.1012 4.12433 22.3565 4.17054 20.6148C4.18564 20.0658 4.18702 19.5135 4.24055 18.9667C4.28631 18.4698 4.38606 17.9794 4.53752 17.5039C4.77821 16.7442 5.25181 15.854 5.61055 15.1242L7.32878 11.626Z" fill="#BA9B31"/>
<path d="M10.2807 38.5832C10.3406 38.5777 10.401 38.5737 10.461 38.5714C12.5347 38.5098 14.8936 38.563 16.982 38.5624H19.8162C20.1992 38.5626 21.6553 38.495 21.8882 38.7123C21.9623 38.9139 22.0149 39.3959 21.9824 39.6003C21.8845 40.2127 22.16 43.2784 21.8223 43.5926C21.0984 43.6453 20.1196 43.6191 19.3728 43.6187L15.3081 43.6202L12.2991 43.6215C11.712 43.6215 10.7991 43.6566 10.2605 43.547C10.11 43.3928 10.0967 43.0697 10.1027 42.856C10.1356 41.5872 10.0894 40.3194 10.1091 39.0519C10.1123 38.85 10.137 38.7262 10.2807 38.5832Z" fill="#BA9B31"/>
<path d="M26.2468 38.5733C29.6841 38.4815 33.1869 38.6249 36.6302 38.5635C36.8888 38.5589 37.6388 38.5579 37.8483 38.6823C38.0822 39.3226 37.8017 41.8504 37.9284 42.656C37.9687 42.9148 37.9398 43.3946 37.7472 43.5998C37.5866 43.6106 37.4415 43.6135 37.2814 43.6147L30.5284 43.6213C29.2769 43.6215 28.003 43.6718 26.7533 43.6141C26.6234 43.6081 26.2454 43.6012 26.1626 43.51C25.996 43.3273 26.0445 39.8675 26.0491 39.3157C26.0514 39.0295 26.0331 38.7828 26.2468 38.5733Z" fill="#BA9B31"/>
</svg>
