<svg width="40" height="40" viewBox="0 0 40 40" fill="none" xmlns="http://www.w3.org/2000/svg">
<path d="M3.80078 10.3073L3.81263 10.2873C3.9357 10.0759 3.9491 9.85284 4.04195 9.65593C4.42778 8.83761 5.11346 8.29809 5.99713 8.07062C6.33871 7.98268 7.12921 8.00242 7.49447 8.00266L9.24401 8.00268L16.0109 8.00242L27.3951 8.00244L31.0979 8.00259C31.7567 8.00261 32.4186 7.99229 33.0808 8.01271C34.1164 8.04464 35.1461 8.72799 35.5581 9.66381C35.6543 9.88216 35.6892 10.1138 35.8008 10.3345V29.6182C35.6832 29.8491 35.6649 30.0756 35.5634 30.291C34.6169 32.3006 32.5998 31.9825 30.7569 31.9804L27.6905 31.9802L19.2106 31.9809L10.9083 31.9811H8.19521C7.67447 31.9811 7.12297 31.9856 6.6337 31.9724C5.36329 31.9381 4.19895 31.1095 3.90049 29.8778C3.88224 29.8023 3.84615 29.7206 3.80078 29.6553V10.3073ZM19.8898 22.3641C20.1245 22.0569 20.6626 21.5658 20.9631 21.2739L22.5098 19.7548L25.0233 17.2861C25.4125 16.9026 25.8198 16.4837 26.2169 16.1134L30.8321 11.5822C31.1434 11.2801 31.4521 10.9753 31.7584 10.668C32.0087 10.4172 32.3338 10.064 32.6193 9.87596C31.6444 9.82887 30.4174 9.86136 29.4222 9.86136L23.6033 9.86139L7.08203 9.86501L7.06396 9.91487C8.1749 10.9484 9.32278 12.1053 10.417 13.1705L15.7285 18.3406L18.3317 20.8801C18.8049 21.3401 19.3924 21.9406 19.8898 22.3641ZM33.8774 11.2243C33.6736 11.3765 33.2287 11.8374 33.0292 12.0331L31.2933 13.7422L27.629 17.3398C26.7991 18.1541 25.9511 18.975 25.1294 19.7996C25.0449 19.8844 24.9472 19.977 25.0597 20.0917C25.5926 20.635 26.1409 21.1662 26.6867 21.6976L29.4405 24.398C30.3849 25.3627 31.4398 26.3707 32.4121 27.3227L33.3475 28.238C33.5032 28.3909 33.7454 28.6441 33.9126 28.7705C33.9357 27.3291 33.9186 25.847 33.9186 24.4031L33.9179 16.4433L33.9169 12.8039C33.9169 12.5574 33.9396 11.4395 33.9078 11.2496L33.8774 11.2243ZM5.67656 11.211C5.70223 11.8299 5.68085 12.5794 5.68076 13.2071L5.68054 17.0357L5.68211 28.734C5.89267 28.628 6.45572 28.0269 6.65452 27.8308C7.16353 27.335 7.66861 26.8353 8.16977 26.3318L10.2172 24.325L12.9492 21.6415L13.9551 20.6535C14.1923 20.4227 14.4772 20.1621 14.6944 19.9233C14.0895 19.3703 13.5064 18.7671 12.9136 18.198L7.92864 13.3566C7.45919 12.89 6.9863 12.4268 6.51006 11.9669C6.31743 11.7794 5.88364 11.3218 5.67656 11.211ZM23.6134 21.3174C22.4785 22.2709 21.4691 23.5039 20.3281 24.4607C20.2204 24.551 19.9385 24.5957 19.7944 24.5852C19.6343 24.574 19.4804 24.5199 19.3493 24.4289C19.1252 24.2761 18.6523 23.7963 18.4325 23.5823L16.7775 21.9571C16.6125 21.7941 16.1873 21.3563 16.001 21.2769L10.0036 27.1587C9.05044 28.0958 7.9842 29.1974 7.01035 30.0919C7.54095 30.1431 8.65726 30.1111 9.2229 30.1104L13.3645 30.1099L26.9454 30.1102L30.588 30.1111C31.2114 30.1111 32.002 30.1317 32.6131 30.1002C32.3114 29.8584 31.9514 29.4847 31.6687 29.2054L30.3013 27.8608L25.5996 23.2465L24.3747 22.037C24.1667 21.8324 23.836 21.4949 23.6134 21.3174Z" fill="#BA9B31"/>
</svg>
