<svg width="20" height="20" viewBox="0 0 20 20" fill="none" xmlns="http://www.w3.org/2000/svg">
<path d="M9.86665 9.80783C9.94887 9.8545 10.0511 9.8545 10.1333 9.80783L18.7744 5.04894C18.4255 3.74561 17.2455 2.77783 15.8333 2.77783H4.16665C2.75887 2.77783 1.5822 3.73894 1.22998 5.03672L9.86665 9.80783Z" fill="#BA9B31"/>
<path d="M10.9391 11.2667C10.6458 11.4289 10.3235 11.5101 10.0013 11.5101C9.6791 11.5101 9.35466 11.4289 9.06133 11.2656L1.11133 6.87561V14.1667C1.11133 15.8523 2.48133 17.2223 4.16688 17.2223H15.8335C17.5191 17.2223 18.8891 15.8523 18.8891 14.1667V6.88894L10.9391 11.2667Z" fill="#BA9B31"/>
</svg>
