<svg width="48" height="48" viewBox="0 0 48 48" fill="none" xmlns="http://www.w3.org/2000/svg">
<path d="M7.50379 3.0254C13.1348 2.96717 18.8854 3.0276 24.5263 3.0254L29.5897 3.02345C30.5613 3.02275 31.5735 2.9888 32.537 3.09376C33.7955 3.23098 35.3054 4.56323 35.4755 5.8379C35.6906 7.4496 35.5946 9.32458 35.5946 10.9717L35.5897 21.0449L36.0858 20.5322C37.028 19.5649 37.8019 18.8742 39.2577 18.8594C40.6094 18.849 41.5076 19.5119 42.4139 20.4111C43.4718 21.4227 44.4481 22.4361 44.4423 24.001C44.437 25.3574 43.8302 26.1791 42.8973 27.0928C42.2549 27.7216 41.6039 28.3867 40.9638 29.0254L35.5888 34.3955L35.5917 37.5684L35.5966 39.8779C35.5983 41.3066 35.7163 42.4772 34.7372 43.6494C33.4937 45.1386 31.8504 45.0067 30.0917 44.9893C29.1981 44.9804 28.2886 44.9838 27.3944 44.9824L18.3231 44.9815L10.7889 44.9854C10.3189 44.9862 9.84826 44.9931 9.37879 44.9883C8.47534 44.965 7.51322 45.0455 6.61902 44.9258C4.93938 44.7009 3.58637 43.1718 3.52332 41.4854C3.49152 40.6433 3.50032 39.8398 3.50379 39.0098L3.50672 35.0078L3.50477 21.7568V8.17872C3.50474 6.76258 3.38785 5.44386 4.41785 4.30177C5.19628 3.43857 6.02372 3.11105 7.17567 3.03419C7.2844 3.03014 7.39447 3.02708 7.50379 3.0254ZM29.0751 31.0352C28.1677 31.9417 26.6477 33.364 25.8593 34.3809C25.6459 34.6559 25.7091 36.2274 25.7138 36.7022L25.7235 37.582C26.3624 37.5857 28.3324 37.6319 28.8436 37.5147C29.4177 37.158 31.8878 34.6269 32.4608 34.0352C34.5101 31.919 36.7554 29.8193 38.7821 27.7002C37.8023 26.7202 36.5871 25.428 35.5917 24.5117L29.0751 31.0352ZM19.9891 30.2617C19.4796 30.11 10.3467 30.1142 9.33973 30.2031C8.96802 30.392 8.63206 30.6207 8.49793 31.0371C8.39614 31.3529 8.44471 31.7066 8.60145 31.9961C8.73387 32.2416 8.97001 32.4792 9.24402 32.5586C9.75879 32.7074 18.9629 32.7033 19.8895 32.6123C20.2827 32.4276 20.5774 32.215 20.7255 31.7901C20.8336 31.4792 20.8046 31.1638 20.6571 30.8701C20.5264 30.6089 20.2759 30.3473 19.9891 30.2617ZM24.3954 25.2442C19.4451 25.2667 14.467 25.1742 9.51844 25.2393C8.28081 25.5807 8.06095 26.8569 9.0907 27.5596C9.31454 27.712 10.0099 27.7109 10.287 27.707C15.058 27.6409 19.8702 27.7968 24.6366 27.7022C25.3583 27.5376 25.8659 26.9795 25.6932 26.2119C25.6181 25.8831 25.4125 25.5978 25.1239 25.4229C24.9036 25.291 24.6503 25.243 24.3954 25.2442ZM38.954 21.3506C38.3716 21.6487 37.8105 22.2942 37.3427 22.7725L40.5087 25.9356C40.7921 25.796 41.1641 25.2855 41.4139 25.0723C41.8666 24.6867 42.1941 24.0529 41.8153 23.4727C41.3237 22.719 40.3778 21.7365 39.538 21.3565C39.4144 21.3009 39.0903 21.3331 38.954 21.3506ZM12.3583 20.3057C11.448 20.3057 10.3008 20.2724 9.40613 20.3145C9.04811 20.4626 8.61774 20.7387 8.51942 21.1192C8.22693 22.2555 8.99291 22.7685 9.95008 22.7715C14.079 22.7845 18.1975 22.7792 22.3212 22.7783L27.1239 22.7774C27.8393 22.7772 29.0126 22.8111 29.6864 22.7539C30.8269 22.3233 31.0551 21.0985 29.9403 20.416C29.7616 20.3068 29.3491 20.3306 29.1386 20.3106C25.4295 20.2936 21.7188 20.303 18.0096 20.3047L12.3583 20.3057ZM11.9755 15.3721C11.2432 15.3717 10.0292 15.3362 9.32996 15.3994C8.56764 15.7782 8.20435 16.3652 8.60633 17.2002C8.71685 17.4291 8.99009 17.6813 9.24793 17.7588C10.0183 17.8716 11.0327 17.8328 11.8124 17.833H25.0057C26.4459 17.8327 28.3256 17.8833 29.7235 17.8096C30.8285 17.378 31.0165 16.136 29.953 15.4766C29.7858 15.3728 29.2346 15.3996 29.035 15.377C24.9002 15.3633 20.7552 15.37 16.621 15.3711L11.9755 15.3721ZM24.9247 8.05079C24.5432 7.91845 15.0712 7.89117 14.2518 8.00294C13.8876 8.19775 13.5476 8.42966 13.4237 8.84669C13.3272 9.17109 13.3891 9.52521 13.5555 9.81544C13.6961 10.0589 13.936 10.2869 14.2147 10.3584C14.7867 10.5054 23.8445 10.488 24.8427 10.3965C25.1931 10.2221 25.5256 9.99041 25.661 9.6045C25.7674 9.3024 25.7153 8.91052 25.5731 8.62794C25.4407 8.36454 25.2041 8.14912 24.9247 8.05079Z" fill="#BA9B31"/>
</svg>
