<svg width="40" height="40" viewBox="0 0 40 40" fill="none" xmlns="http://www.w3.org/2000/svg">
<path d="M19.4557 14.2536C19.6176 14.2333 19.8258 14.2355 19.9918 14.2348C22.2776 14.2268 24.4731 15.1262 26.0965 16.7355C27.8731 18.5095 28.6829 20.6431 28.6333 23.1211C28.6054 24.5183 28.6349 25.957 28.6349 27.3574L28.6392 37.9643C26.1025 38.0407 23.2193 37.9709 20.6578 37.9692C17.7221 37.9679 14.3623 37.8883 11.4609 37.9774C11.5191 36.689 11.4788 35.1541 11.4792 33.8408L11.4785 26.3484C11.477 25.174 11.4818 23.996 11.48 22.8219C11.4729 18.2872 14.9353 14.6336 19.4557 14.2536Z" fill="#BA9B31"/>
<path d="M29.7773 18.0679C29.9974 18.0469 30.2104 18.0298 30.4314 18.0295C31.998 18.0287 33.5019 18.6444 34.6182 19.7436C36.8283 21.9529 36.3849 24.9688 36.3839 27.8432L36.3866 34.5279C36.0233 34.5352 35.655 34.5355 35.2912 34.5385L29.7872 34.5327L29.79 26.1782C29.7933 22.6297 30.0747 21.5705 28.6211 18.2862C29.0041 18.2012 29.3897 18.1285 29.7773 18.0679Z" fill="#BA9B31"/>
<path d="M8.98479 18.0653C9.99923 17.9846 10.4925 18.0783 11.4903 18.2946C11.0971 19.2367 10.6322 20.2461 10.4768 21.2617C10.228 22.8873 10.3134 24.7522 10.3134 26.4151L10.3138 34.5266C8.99323 34.5488 7.63507 34.5342 6.31163 34.5355C5.45852 34.5354 4.59691 34.5295 3.74454 34.5401L3.74643 27.3149C3.74562 26.1448 3.67719 23.9545 3.8755 22.8994C4.04477 21.9875 4.41441 21.1246 4.95767 20.3729C5.93443 19.0434 7.3765 18.3089 8.98479 18.0653Z" fill="#BA9B31"/>
<path d="M19.6649 2.01446C22.6844 1.79679 25.3116 4.06162 25.5415 7.08037C25.7713 10.0992 23.5173 12.7357 20.4996 12.9778C17.4646 13.2212 14.8098 10.9514 14.5786 7.91525C14.3475 4.87908 16.6279 2.23337 19.6649 2.01446Z" fill="#BA9B31"/>
<path d="M29.928 9.3217C31.979 9.05494 33.8597 10.4967 34.1347 12.5467C34.4098 14.5967 32.9758 16.4833 30.927 16.7667C28.8664 17.0518 26.9667 15.6075 26.6901 13.5457C26.4134 11.484 27.8652 9.59001 29.928 9.3217Z" fill="#BA9B31"/>
<path d="M9.2063 9.32779C11.2662 9.04905 13.1601 10.4982 13.4296 12.5595C13.6992 14.6208 12.2416 16.5083 10.1793 16.7686C8.12993 17.0273 6.25694 15.5808 5.98913 13.5325C5.72126 11.4843 7.15935 9.60476 9.2063 9.32779Z" fill="#BA9B31"/>
</svg>
