<svg width="56" height="56" viewBox="0 0 56 56" fill="none" xmlns="http://www.w3.org/2000/svg">
<path d="M37.9421 26.9379C44.582 26.3679 50.4238 31.2973 50.9802 37.9399C51.5363 44.5828 46.5956 50.416 39.9528 50.9584C33.3299 51.4999 27.5194 46.576 26.9645 39.9526C26.4104 33.3291 31.321 27.5064 37.9421 26.9379ZM42.4694 35.4926C41.6002 35.9009 38.814 38.897 37.9333 39.7524C37.3505 39.1652 36.0347 37.6326 35.2946 37.6176C34.9997 37.6131 34.7171 37.7353 34.5173 37.9526C34.3134 38.1669 34.2144 38.4601 34.2468 38.7543C34.3115 39.3485 35.0224 39.9346 35.446 40.3539C36.0582 40.9668 36.9668 42.0258 37.779 42.3744C38.0383 42.4432 38.4929 42.1829 38.6677 42.0248C40.2226 40.6148 41.6643 39.0651 43.1559 37.5883C44.0802 36.673 43.7387 35.6049 42.4694 35.4926Z" fill="#282828"/>
<path d="M19.1989 25.2226C20.5527 25.1655 21.9309 25.2025 23.2682 25.1883C26.7984 25.151 28.7558 25.1862 32.0043 26.6035C31.3472 26.8678 30.3636 27.6252 29.8153 28.0865C26.9574 30.4943 25.1636 33.9326 24.8245 37.6549C24.5474 40.8944 25.4235 44.8468 27.5445 47.3614C25.3839 47.2758 22.6922 47.3511 20.49 47.3506L13.6341 47.3556C12.4235 47.3558 10.2002 47.4282 9.07997 47.1853C8.25135 47.0012 7.48144 46.6149 6.83886 46.0609C5.73579 45.1092 5.1196 43.7267 5.03912 42.2882C4.7838 37.6963 5.74832 33.7738 8.82003 30.2716C11.4656 27.2689 15.2036 25.4507 19.1989 25.2226Z" fill="#282828"/>
<path d="M22.1117 5.03141C27.1032 4.61852 31.4878 8.32387 31.914 13.3156C32.3402 18.3074 28.6476 22.7029 23.6581 23.1429C18.6501 23.5846 14.2345 19.8739 13.807 14.8629C13.3788 9.85191 17.1004 5.44589 22.1117 5.03141Z" fill="#282828"/>
</svg>
