<svg width="16" height="16" viewBox="0 0 16 16" fill="none" xmlns="http://www.w3.org/2000/svg">
<path d="M5.93974 13.7797C5.81307 13.7797 5.68641 13.7331 5.58641 13.6331C5.39307 13.4397 5.39307 13.1197 5.58641 12.9264L9.93307 8.57975C10.2531 8.25975 10.2531 7.73975 9.93307 7.41975L5.58641 3.0731C5.39307 2.87977 5.39307 2.55977 5.58641 2.36644C5.77974 2.1731 6.09974 2.1731 6.29307 2.36644L10.6397 6.71308C10.9797 7.05308 11.1731 7.51308 11.1731 7.99975C11.1731 8.48642 10.9864 8.94642 10.6397 9.28642L6.29307 13.6331C6.19307 13.7264 6.06641 13.7797 5.93974 13.7797Z" fill="#BA9B31"/>
</svg>
