<svg width="72" height="72" viewBox="0 0 72 72" fill="none" xmlns="http://www.w3.org/2000/svg">
<path d="M38.0703 0C38.2174 0.0885775 40.2009 0.257209 40.5137 0.295898C42.2795 0.506954 44.0264 0.856297 45.7373 1.34082C57.0636 4.53074 66.1187 13.0512 69.9922 24.1621C70.6038 25.9179 71.0778 27.7191 71.4082 29.5488C71.5481 30.3271 71.662 31.1098 71.751 31.8955C71.7858 32.2123 71.8929 33.7332 71.998 33.8936V0H72V38.0654C71.8765 38.3787 71.6817 40.7638 71.6104 41.2549C71.378 42.813 71.0473 44.3558 70.6191 45.8721C67.7479 55.9161 60.6614 64.221 51.1943 68.6377C48.763 69.7732 45.7818 70.7833 43.1367 71.2871C41.908 71.5209 40.6693 71.7008 39.4248 71.8242C39.2106 71.8456 38.1534 71.9166 38.0107 72H33.8545C33.7285 71.9232 31.6271 71.7214 31.332 71.6836C28.9285 71.3777 26.5625 70.8239 24.2725 70.0322C13.0949 66.171 4.51989 57.0767 1.32227 45.6914C0.840787 43.9277 0.486572 42.1317 0.263672 40.3174C0.215527 39.9405 0.106896 38.2445 0 38.0635V33.8945C0.0833429 33.7797 0.275004 31.6475 0.30957 31.3662C0.60091 29.0888 1.1105 26.844 1.83105 24.6641C5.58639 13.3642 14.6831 4.64959 26.1338 1.38281C27.8853 0.883529 29.6732 0.520072 31.4805 0.294922C31.8065 0.253622 33.7855 0.0879162 33.9307 0H38.0703ZM33.2607 51.9043C30.7927 52.1103 28.358 52.6123 26.0098 53.3994C24.8793 53.7878 24.0786 54.145 23.0078 54.5791C23.3375 55.3257 23.6123 56.0459 23.9648 56.7979C25.0178 59.044 26.1936 61.0023 27.7764 62.9043C29.5041 64.8917 31.1742 66.2618 33.71 67.0781L33.7158 51.874L33.2607 51.9043ZM38.2871 67.0742C40.9186 66.2196 42.8287 64.6689 44.5391 62.5254C45.9413 60.7515 47.123 58.8132 48.0566 56.7539C48.3997 56.0108 48.6711 55.2881 48.9941 54.5664C48.2117 54.2434 47.4928 53.9298 46.6914 53.6416C44.0568 52.6945 41.0881 52.0306 38.2861 51.873L38.2871 67.0742ZM53.0547 56.7881C51.7266 59.7297 50.5783 62.2124 48.5703 64.8096C49.451 64.3954 50.2888 63.9934 51.1445 63.5244C53.1635 62.3762 55.0086 61.1332 56.7471 59.5811C56.3079 59.255 55.8567 58.8487 55.4189 58.502C54.6543 57.8994 53.865 57.3274 53.0547 56.7881ZM18.9277 56.8145C18.0978 57.3611 17.2913 57.9433 16.5117 58.5596C16.105 58.883 15.6604 59.2867 15.2627 59.5869C17.0001 61.1175 18.9011 62.4526 20.9307 63.5674C21.7477 64.0107 22.5821 64.4227 23.4307 64.8027C22.4095 63.4763 21.5046 62.0645 20.7275 60.582C20.4118 59.9791 20.1086 59.3695 19.8184 58.7539C19.6984 58.4973 19.0461 56.9436 18.9277 56.8145ZM4.7002 38.2852C4.74597 39.588 4.9874 41.1309 5.25195 42.4043C6.31374 47.5472 8.65841 52.3383 12.0674 56.333C12.9025 55.5445 14.1049 54.6108 15.0361 53.9316C15.8254 53.3723 16.6327 52.8387 17.4561 52.3311C17.1353 51.3855 16.8784 50.2618 16.6572 49.2842C15.8516 45.6715 15.3873 41.9905 15.2705 38.291L4.7002 38.2852ZM56.7383 38.2852C56.5678 41.9741 56.1986 45.5421 55.3721 49.1484C55.1337 50.1879 54.8782 51.311 54.5537 52.3301C56.4887 53.5567 58.2395 54.7662 59.9414 56.3232C60.7144 55.3976 61.5242 54.3566 62.1865 53.3477C65.1713 48.8579 66.9377 43.6692 67.3135 38.291L56.7383 38.2852ZM38.2881 38.2861C38.2888 41.2568 38.3259 44.3157 38.2861 47.2783C41.7581 47.4843 45.1817 48.1986 48.4463 49.3984C48.9569 49.5866 49.9296 49.9543 50.416 50.1992C50.5246 49.7546 50.6396 49.3014 50.7422 48.8564C51.5574 45.3894 52.0268 41.8505 52.1436 38.291L38.2881 38.2861ZM19.8623 38.2852C19.9882 42.3077 20.5664 46.3037 21.5869 50.1973C24.9541 48.7991 27.5238 48.0413 31.1523 47.5234C31.8646 47.4405 33.0206 47.2874 33.7207 47.2803L33.7158 38.29L24.3701 38.2871C22.9025 38.2871 21.3217 38.3168 19.8623 38.2852ZM59.9355 15.6719C58.1324 17.3155 56.5625 18.3756 54.5537 19.6846C55.5852 23.0855 56.1977 26.799 56.5215 30.3359C56.6241 31.4597 56.6726 32.5912 56.7422 33.7178L61.998 33.7109L67.3242 33.7119C67.2202 32.6622 67.1328 31.7201 66.9521 30.6699C66.1794 26.1262 64.407 21.8108 61.7637 18.0352C61.4058 17.5315 60.3663 16.1012 59.9355 15.6719ZM21.5771 21.8047C21.3762 22.8607 21.0506 23.9938 20.832 25.1104C20.2785 27.9481 19.9552 30.826 19.8643 33.7158L32.0117 33.7109H33.7168L33.7158 24.7246C30.6168 24.531 27.5555 23.9395 24.6074 22.9648C23.5405 22.6081 22.6155 22.2307 21.5771 21.8047ZM12.0635 15.6748C8.51675 19.8319 6.12561 24.8487 5.12988 30.2217C4.95026 31.195 4.71731 32.7219 4.7041 33.7148L10.1104 33.7109C11.8183 33.7111 13.5637 33.6929 15.2686 33.7139C15.4778 28.6696 16.0846 24.5222 17.4395 19.666C16.5124 19.0615 15.6098 18.4752 14.707 17.8311C13.7672 17.1605 12.9537 16.3855 12.0635 15.6748ZM50.3594 21.832C46.5344 23.492 42.4482 24.4712 38.2861 24.7246L38.291 33.7148L40.1328 33.7119H52.1436C52.0114 29.7174 51.4372 25.7497 50.4307 21.8818C50.4044 21.8601 50.3866 21.838 50.3594 21.832ZM33.6768 4.92969C29.1118 6.46429 26.4365 10.3443 24.3203 14.459C23.8126 15.4462 23.4644 16.4519 23.001 17.4316C23.6468 17.656 24.3613 18.0086 25.0547 18.2588C27.1844 19.0559 29.3967 19.6115 31.6504 19.915C32.3568 20.014 33.0275 20.0481 33.7119 20.1348C33.7116 19.0867 33.7365 5.05529 33.6768 4.92969ZM38.2891 20.124C41.241 19.9584 44.2828 19.2475 47.0498 18.2246C47.703 17.9734 48.3518 17.7091 48.9941 17.4316C47.1443 12.8511 44.1781 7.4396 39.4033 5.32227C39.0697 5.17443 38.6345 5.03138 38.2861 4.90527L38.2891 20.124ZM48.6494 7.24512C48.7255 7.42586 49.2725 8.15295 49.4268 8.37598C49.8216 8.95307 50.1989 9.54267 50.5586 10.1426C51.1341 11.1296 51.6651 12.1429 52.1475 13.1787C52.456 13.8488 52.7413 14.5589 53.0488 15.2178C53.7755 14.7089 54.5469 14.1833 55.2412 13.6357C55.7477 13.2367 56.2463 12.8282 56.7373 12.4102C54.7394 10.6541 52.5288 9.15585 50.1572 7.95117C49.8544 7.79594 48.9578 7.34035 48.6494 7.24512ZM23.2539 7.27734C20.2945 8.65121 17.7036 10.2347 15.2578 12.4199C15.7782 12.7985 16.3685 13.3349 16.9082 13.7539C17.3048 14.0573 17.7091 14.3504 18.1201 14.6338C18.325 14.7759 18.7603 15.0589 18.9385 15.209C19.2299 14.6208 19.4793 13.9795 19.7568 13.3779C20.2794 12.2455 20.8568 11.1392 21.4863 10.0625C21.8895 9.38929 22.3166 8.72982 22.7666 8.08691C22.8652 7.94776 23.2955 7.40605 23.3213 7.30078L23.2539 7.27734Z" fill="#BA9B31"/>
</svg>
