<svg width="64" height="64" viewBox="0 0 64 64" fill="none" xmlns="http://www.w3.org/2000/svg">
<rect width="64" height="64" rx="32" fill="#BB7201"/>
<path d="M33.6126 21.0115C34.3864 20.9516 35.4426 21.1213 35.8626 21.8612C36.3573 22.7329 36.6752 23.7213 36.9397 24.6824C37.1928 25.602 37.0783 26.3668 36.9134 27.2869C36.8229 27.7986 36.76 28.3197 36.6468 28.8289L40.3762 28.826C41.0129 28.8255 41.7164 28.7934 42.345 28.8738C43.2276 28.9869 43.8528 29.7366 43.9739 30.5955C44.0877 31.4032 43.8302 32.0206 43.3587 32.659C43.6448 33.3441 43.6187 34.0584 43.2591 34.7196C43.23 34.7842 42.9552 35.2064 42.9641 35.2508C43.1669 36.2575 43.1251 37.0595 42.4964 37.9031C42.4791 37.9263 42.6303 38.7982 42.6048 39.0369C42.3373 41.5394 40.3719 41.5636 38.3997 41.5594L35.9407 41.5555L32.1897 41.5594C31.53 41.5601 30.7136 41.5836 30.0647 41.5457C29.4706 41.4956 29.0587 41.2541 28.5706 40.9393C28.5356 41.4274 28.4052 41.8723 27.93 42.1043C27.6326 42.249 27.2925 42.2533 26.969 42.2508C25.8135 42.2418 24.6578 42.2488 23.5022 42.2469C22.7825 42.2457 22.0628 42.2601 21.343 42.2449C21.129 42.2404 20.9016 42.1985 20.6966 42.1375C20.4714 42.0605 20.2236 41.7838 20.1253 41.5711C20.0629 41.4335 20.025 41.2854 20.0149 41.1346C19.9867 40.686 20.0073 40.0309 20.0071 39.5662V33.3416C20.0074 32.7582 20.0078 32.1779 20.0169 31.5946C20.0264 30.9888 20.5478 30.4056 21.1663 30.4022C23.534 30.3892 25.9071 30.3779 28.2747 30.409C28.4133 30.4109 28.5541 30.4589 28.6809 30.5115C29.738 29.3075 30.5011 28.0045 31.2893 26.6121C31.4983 26.2429 31.7615 25.7869 31.8938 25.3817C31.9391 25.1756 31.8816 24.9671 31.8948 24.7606C31.9506 23.8968 31.6411 22.6093 32.0872 21.8494C32.3968 21.3223 33.0655 21.1252 33.6126 21.0115Z" fill="white"/>
</svg>
