<svg width="36" height="36" viewBox="0 0 36 36" fill="none" xmlns="http://www.w3.org/2000/svg">
<rect width="36" height="36" rx="4" fill="#BA9B31"/>
<path d="M20.6978 21.0209C20.7195 21.0267 20.7461 21.0339 20.7777 21.0425C21.1027 21.415 21.5007 22.3738 21.777 22.7213C21.9596 22.6703 22.1377 22.5785 22.3212 22.5284C23.0952 22.317 24.1046 22.5113 24.6626 23.1205C25.9586 24.5357 25.4267 26.6604 23.5261 27.1797C23.497 27.1948 23.4911 27.1939 23.4582 27.2C22.885 27.3058 22.1555 27.1632 21.6714 26.8344C21.4433 26.6795 21.1849 26.4461 21.0323 26.2187C20.6424 25.6377 20.3118 24.9954 19.9654 24.3899L19.1002 22.8866C18.9759 22.6732 18.7001 22.293 18.6562 22.0573C18.6854 22.0319 19.0664 21.995 19.1486 21.9797C19.8255 21.854 20.2324 21.5253 20.6978 21.0209ZM22.4071 25.2554C22.6277 25.4144 22.7807 25.5231 23.0754 25.498C23.4759 25.4151 23.7619 25.1174 23.669 24.69C23.635 24.5321 23.5393 24.3942 23.4033 24.307C23.2331 24.1986 23.0657 24.1902 22.8715 24.1951C22.2725 24.3416 22.2208 24.7292 22.4071 25.2554Z" fill="white"/>
<path d="M11.4812 10.2645C11.5575 10.0595 11.6712 9.73106 11.7695 9.5276C12.0106 9.02865 12.4505 8.30777 12.953 8.02809C13.0373 7.98116 13.1664 8.00701 13.2562 8.0234C13.6206 8.47933 13.8538 8.97376 14.1459 9.47965C14.3117 9.76675 14.5274 10.0989 14.6746 10.3895C15.5677 10.4528 16.6125 10.302 17.5156 10.2476C18.8316 10.1683 20.1869 10.058 21.5028 10.0381C21.7925 9.48094 22.2872 8.77341 22.5899 8.20386C23.0123 7.40924 24.0758 9.1712 24.212 9.5012C24.3037 9.69366 24.3717 9.94042 24.4631 10.1274C24.6464 10.1695 24.8274 10.184 25.0139 10.2027C25.8267 10.2844 26.636 10.375 27.4533 10.3999C27.8665 10.4126 28.287 10.3974 28.6969 10.4441C28.7834 10.454 28.9224 10.5465 29 10.5947V10.9C28.8651 10.968 27.771 12.379 27.5005 12.615C27.7957 12.9884 28.0945 13.3432 28.4063 13.702C28.5673 13.8873 28.8253 14.2336 29 14.39V14.6617C28.9098 14.7228 28.8715 14.7728 28.8015 14.8539C28.4214 14.8897 28.0204 14.8769 27.6393 14.8668C26.3843 14.8334 25.1315 14.688 23.881 14.5827C23.6936 14.5669 23.6716 14.6112 23.5675 14.7615C22.5572 16.486 21.5738 18.2278 20.5636 19.9523C20.3324 20.3469 20.2226 20.6353 19.8466 20.9244C19.1988 21.4226 18.6231 21.4117 17.8541 21.3264C17.6097 21.55 17.3652 22.1156 17.1791 22.4216C16.7349 23.131 16.3479 23.8789 15.9121 24.5933C15.4231 25.395 15.0415 26.4414 14.1965 26.9313C13.2481 27.4812 11.9362 27.2932 11.2278 26.4414C11.12 26.3233 11.0083 26.2168 10.9405 26.0683C10.6419 25.4144 10.4971 24.8614 10.7354 24.1514C10.943 23.5329 11.2694 23.0138 11.8725 22.7124C12.4117 22.4378 13.0329 22.3705 13.6184 22.5234C13.8061 22.5733 14.0434 22.6711 14.239 22.736C14.5032 22.2425 14.7789 21.7517 15.0534 21.2637C15.1808 21.0373 15.3358 20.8093 15.4661 20.5811L17.7552 16.5768C17.9171 16.2911 18.7945 14.882 18.8149 14.6259C18.7799 14.6142 17.3719 14.7433 17.1856 14.7487C17.2877 14.9198 17.561 15.3107 17.563 15.4957C17.5637 15.5586 15.3565 19.4169 15.2544 19.5143C15.2167 19.5503 15.2046 19.5499 15.1562 19.5475C14.8508 18.9229 14.4978 18.3323 14.1413 17.7367C13.5736 16.7883 13.058 15.7673 12.4659 14.8379C11.7373 14.745 10.987 14.7201 10.2546 14.6667C9.65586 14.6231 9.06378 14.5455 8.46192 14.5275C8.06284 14.5156 7.66033 14.5335 7.2642 14.4927C7.15563 14.4807 7.07379 14.3916 7 14.3184V14.0365C7.14251 13.9573 7.93083 12.8277 8.15775 12.6648C8.20427 12.6315 8.44391 12.3312 8.4492 12.2717C8.37223 12.1367 7.09433 10.6077 7 10.537V10.2061C7.09583 10.1558 7.24408 10.0668 7.34585 10.0579C7.85067 10.014 8.42125 10.0477 8.92831 10.0747C9.78046 10.1209 10.6316 10.1842 11.4812 10.2645ZM16.8005 14.0742C17.0572 14.0934 17.3498 14.0599 17.6098 14.0479C18.245 14.0185 18.8727 13.9426 19.5053 13.8886C20.6925 13.7912 21.8851 13.7786 23.074 13.851C24.3367 13.9103 25.6221 14.0876 26.8906 14.1346C27.0913 14.1421 27.658 14.1905 27.8127 14.1721L27.8377 14.1415C27.6566 13.781 26.9637 13.1677 26.7423 12.7838C26.6959 12.7033 26.6901 12.6473 26.7114 12.5585C26.782 12.2643 27.8211 11.3255 27.8241 11.1345C27.7086 11.0599 25.5852 10.9779 25.2383 10.9524C24.3516 10.8873 23.3656 10.8066 22.4734 10.7671C22.0227 10.7473 21.5715 10.7414 21.1205 10.7495C19.8828 10.7799 18.6876 10.9061 17.4522 10.9761L15.8323 11.0687C15.6573 11.0788 15.2717 11.0839 15.1269 11.111C15.1643 11.2977 15.4287 11.6894 15.5302 11.8673L16.3502 13.2976C16.4441 13.4578 16.7026 13.9496 16.8005 14.0742ZM10.9424 14.0173C11.1172 14.0306 11.9302 14.1115 12.0358 14.0605C12.0109 14.0336 11.9864 14.0064 11.9621 13.979C11.9406 13.9545 11.8166 13.665 11.7853 13.6C11.3146 12.6211 11.2721 12.0425 11.3257 10.964C10.7803 10.9491 10.1298 10.8491 9.56556 10.8114C9.28332 10.7929 9.00086 10.7777 8.71826 10.7659C8.55495 10.7602 8.31336 10.7652 8.16021 10.7378C8.22426 11.0927 9.21934 11.8783 9.27425 12.2166C9.34328 12.6418 8.28557 13.3823 8.16678 13.7886L8.19052 13.8214L10.9424 14.0173ZM13.1365 25.4921C13.8912 25.326 13.9638 24.1587 12.8801 24.196C11.9646 24.4351 12.2212 25.5804 13.1365 25.4921ZM18.2323 19.283C18.156 19.5621 18.168 19.8864 18.5642 19.8215C18.7562 19.7884 18.8705 19.6787 18.845 19.4635C18.8166 19.2254 18.6228 19.1806 18.4106 19.182L18.2323 19.283Z" fill="white"/>
</svg>
