<svg width="36" height="36" viewBox="0 0 36 36" fill="none" xmlns="http://www.w3.org/2000/svg">
<rect width="36" height="36" rx="4" fill="#BA9B31"/>
<path d="M19.2344 6.73755C19.7711 6.55099 20.3602 6.58395 20.8721 6.83032C21.2338 7.00791 21.4263 7.22938 21.6992 7.51098L22.3164 8.14966L22.8203 8.66723C22.9902 8.84077 23.1816 8.9973 23.2627 9.23266C23.4717 9.8409 22.9381 10.0742 22.71 10.5432C22.492 10.9857 22.4601 11.4969 22.6211 11.9631C22.7757 12.4123 23.1034 12.782 23.5312 12.9885C24.1086 13.2645 24.8331 13.2293 25.3701 12.8723C25.5709 12.7377 25.6958 12.573 25.9316 12.4954C26.4469 12.3256 26.7006 12.6378 27.0205 12.97L27.4863 13.4514C27.8139 13.7893 28.1485 14.1292 28.4697 14.4729C28.5433 14.5517 28.6462 14.6874 28.7021 14.7795C28.8068 14.9515 28.8832 15.1392 28.9287 15.3352C28.9506 15.4322 28.9675 15.5516 29 15.6438V16.0422L28.9971 16.052C28.9637 16.1553 28.9449 16.283 28.917 16.3899C28.8454 16.6638 28.7033 16.9358 28.5195 17.1516C28.3735 17.3229 28.1868 17.4966 28.0244 17.6555L27.2041 18.4573L24.6309 20.9788L20.0928 25.4241L18.4863 26.9963C18.1492 27.3279 17.8113 27.6644 17.4697 27.9915C17.3311 28.1241 17.1552 28.2479 16.9854 28.3362C16.5039 28.5813 15.9452 28.6278 15.4297 28.4661C15.202 28.3928 14.9887 28.2806 14.7988 28.135C14.6673 28.033 14.5104 27.8682 14.3926 27.7473L13.9043 27.2444L13.2344 26.552C13.0936 26.4066 12.8612 26.1939 12.7676 26.0247C12.6779 25.8622 12.6671 25.5878 12.7314 25.4172C12.8121 25.1826 12.9832 25.065 13.125 24.8733C13.5186 24.3335 13.5853 23.6213 13.2988 23.0178C13.095 22.5852 12.7252 22.2535 12.2734 22.0969C11.8155 21.9388 11.229 21.9682 10.8008 22.1838C10.3607 22.4057 10.1316 22.8603 9.56738 22.6721C9.31429 22.5876 9.15589 22.3789 8.97656 22.1926L8.44336 21.6409L7.875 21.0559C7.62094 20.7967 7.36688 20.5553 7.2041 20.2239C7.15667 20.125 7.11796 20.0219 7.08887 19.9163C7.07249 19.8553 7.01835 19.6107 7 19.5784V19.0549C7.03565 18.9922 7.04846 18.8657 7.07031 18.7854C7.1054 18.6595 7.15193 18.5368 7.20898 18.4192C7.42266 17.9804 7.78969 17.6806 8.13281 17.345L9.14062 16.3538L12.8779 12.6956L16.6738 8.97876L17.875 7.79516C18.2897 7.38782 18.6732 6.93126 19.2344 6.73755ZM20.8564 15.7805C20.4794 15.8345 20.3585 16.0103 20.1006 16.2698L19.6162 16.7551L17.9746 18.3957L16.6025 19.7688C16.4752 19.8958 16.3457 20.0276 16.2168 20.1526C15.9502 20.4111 15.692 20.6537 15.7539 21.0608C15.7861 21.2707 15.902 21.459 16.0742 21.5832C16.2533 21.7121 16.4155 21.7373 16.6279 21.7278C16.9928 21.6586 17.1123 21.4827 17.3643 21.2307L17.8906 20.7043L19.5791 19.0149L20.9229 17.6702C21.0008 17.5922 21.0799 17.5124 21.1582 17.4348C21.4609 17.1351 21.7852 16.8839 21.6885 16.4075C21.6472 16.2016 21.5246 16.021 21.3486 15.9065C21.2125 15.8181 21.0192 15.76 20.8564 15.7805ZM18.4795 13.4377C18.1384 13.4886 18.0076 13.6685 17.7744 13.9016L17.29 14.387L15.7285 15.9495L14.3047 17.3723C14.17 17.5069 14.0338 17.6448 13.8984 17.7786C13.6083 18.0652 13.341 18.284 13.4141 18.7346C13.4474 18.9407 13.5631 19.1248 13.7344 19.2444C13.8978 19.3567 14.0972 19.405 14.2939 19.3791C14.6493 19.3148 14.8063 19.0982 15.0498 18.8528L15.5791 18.3215L17.3467 16.5549L18.6055 15.2961C18.7551 15.1465 18.9064 14.9883 19.0586 14.842C19.2829 14.6264 19.4052 14.3811 19.3428 14.0618C19.3015 13.8565 19.1797 13.6759 19.0049 13.5608C18.8542 13.4616 18.6587 13.4124 18.4795 13.4377Z" fill="white"/>
</svg>
