<svg width="28" height="28" viewBox="0 0 28 28" fill="none" xmlns="http://www.w3.org/2000/svg">
<path d="M13.9441 4.66699C14.5436 4.71016 22.2938 7.72417 23.2596 8.14258C23.4556 11.1787 23.196 14.4862 23.2928 17.5547C23.3379 18.9799 23.3241 20.6276 23.2644 22.041C22.4456 22.2613 20.7238 22.4389 19.8152 22.5566C17.8974 22.8159 15.977 23.055 14.0535 23.2725C13.646 23.2867 11.1993 22.9664 10.6346 22.8779C8.78378 22.5881 6.49642 22.4301 4.71268 22.0527C4.63683 20.4593 4.68045 18.5786 4.68045 16.9658L4.68533 8.14062C7.52195 6.95679 11.0211 5.73701 13.9441 4.66699ZM16.576 13.3252C16.5606 14.1994 16.5771 15.9406 16.4851 16.7637C15.7469 17.583 14.7818 18.0692 13.8338 17.293C13.4562 16.9833 13.1231 16.1521 12.8181 15.9922C12.2634 16.2968 12.2517 18.178 10.2498 17.5684C9.5769 17.3633 9.48043 16.3207 9.06814 16.0732C8.90221 16.1055 8.81826 16.1028 8.71756 16.2744C8.38441 16.845 8.22047 17.4747 7.47537 17.6152C6.7452 17.7527 5.92955 17.5176 5.61893 16.7881C5.42612 17.0006 5.53953 19.909 5.54275 20.459L8.50467 20.7471C10.2368 20.9163 12.1483 21.1272 13.8748 21.2305C14.5494 21.2707 16.4044 21.049 17.1902 20.9736L22.4353 20.4551C22.4369 19.2129 22.4298 17.9588 22.4451 16.7178C21.4455 18.007 19.7266 17.9784 18.7713 16.6592C18.689 15.6747 18.6907 14.6436 18.6746 13.6533C18.1018 13.5723 17.0867 13.371 16.576 13.3252ZM13.9363 8.37598C11.2359 9.36631 8.16116 10.3995 5.52615 11.4541L5.5535 12.8613L11.4344 10.7061C11.8087 10.5691 13.7544 9.83727 14.0594 9.80371L22.4471 12.876L22.4373 11.4404C21.5741 11.1251 14.213 8.36912 13.9363 8.37598Z" fill="#07820B"/>
</svg>
