<svg width="41" height="32" viewBox="0 0 41 32" fill="none" xmlns="http://www.w3.org/2000/svg">
<path d="M32.6457 0.000475254C37.3573 -0.00132522 40.8566 -0.134287 40.8937 5.84618L40.9025 15.4927C40.9005 18.6994 41.5893 24.2167 37.4806 24.9702C35.0573 25.4145 30.8556 25.1998 28.2541 25.1909C26.1186 25.1981 19.4484 24.9019 17.8341 25.3432C16.4374 25.7253 10.1943 30.1888 8.51872 31.2827C8.16093 31.5163 7.35363 32.0886 6.9113 31.9888C6.64133 31.9277 6.44633 31.7451 6.30387 31.5122C5.80361 30.6938 7.50797 26.3487 7.79313 25.2056C6.00585 25.2133 3.55141 25.404 2.07438 24.4175C1.2685 23.8791 0.290443 22.6443 0.188641 21.6753C-0.0996459 18.9262 0.0326942 15.8008 0.0167655 13.0132C0.0647557 10.1319 -0.078482 7.23458 0.10368 4.35887C0.258958 1.91079 1.88029 0.521157 4.16716 0.0571159C5.2773 -0.00970334 6.39247 0.00625403 7.50407 0.00535807C13.8539 8.84997e-05 20.2041 0.000138899 26.5539 0.000475254H32.6457ZM38.8185 5.51024C38.9004 1.14428 35.0836 2.055 31.8039 2.05809L24.6027 2.05712C18.1056 2.05566 11.1664 1.93281 4.70036 2.07958C4.59913 2.08216 4.49765 2.08653 4.39665 2.09325C1.39388 2.70523 1.96245 5.88465 1.9611 8.23973V14.4009C1.96222 16.4514 1.90785 18.8949 2.04411 20.9536C2.08528 21.5757 2.65154 22.3078 3.23552 22.7661C4.65216 23.8776 9.57383 22.4568 10.1056 23.8227C10.3799 24.528 9.28327 27.7301 8.96696 28.5054C10.3871 27.597 11.7997 26.6757 13.2043 25.7436C14.3603 24.9698 15.5929 23.9831 16.883 23.4575C18.1626 22.9362 27.9235 23.2277 30.047 23.2261C31.9468 23.2364 36.4228 23.6543 37.9982 22.4868C38.2705 22.2163 38.6873 21.6292 38.7082 21.2641C39.0064 16.0415 38.7203 10.7384 38.8185 5.51024Z" fill="#939393"/>
</svg>
