<svg width="36" height="36" viewBox="0 0 36 36" fill="none" xmlns="http://www.w3.org/2000/svg">
<path d="M12.047 3.87928C13.3787 3.69088 15.1658 4.75407 16.0001 5.76503C16.5879 6.47724 17.1484 7.51425 17.3673 8.41053C18.0357 7.03544 18.7546 5.64227 19.9942 4.72401C23.3984 2.20256 27.7504 5.69487 25.0392 9.33338C24.5263 10.0217 23.871 10.4304 23.1769 10.9125C25.3019 10.8838 27.5189 10.9026 29.6466 10.9174C29.6987 12.7228 29.66 14.7894 29.6524 16.6058L21.9581 16.6117L18.1329 16.6078C18.1322 14.757 18.1644 12.7878 18.1153 10.9467C17.6383 10.9077 17.1586 10.9086 16.6817 10.9496C16.6472 12.8098 16.6734 14.7404 16.6739 16.6058C15.3342 16.6318 13.924 16.6115 12.5792 16.6117L5.15537 16.6088C5.12531 15.1962 5.15957 13.7733 5.1456 12.3598C5.14086 11.8799 5.14282 11.3911 5.17002 10.9125L11.1358 10.9076C10.8461 10.7544 10.5717 10.5732 10.3165 10.3676C8.62137 9.00931 8.25207 6.88337 9.6456 5.12342C10.2433 4.36862 11.0981 3.97906 12.047 3.87928ZM22.2013 5.46815C20.2899 5.73635 19.7778 7.55995 19.0372 9.05799C18.7945 9.54895 18.5702 10.1151 18.3673 10.6234C18.9255 10.5055 19.4791 10.3663 20.0265 10.2055C21.3596 9.82558 23.0748 9.37837 23.7843 8.08143C24.0299 7.63242 24.1642 7.11246 24.0147 6.60975C23.8924 6.20153 23.6147 5.85715 23.2413 5.65174C22.8969 5.46625 22.581 5.44985 22.2013 5.46815ZM12.0089 5.50331C9.98693 6.17541 10.1101 8.7002 12.0714 9.45936C13.1314 9.86944 13.9558 10.0765 15.0694 10.3129C15.4803 10.3852 15.8906 10.4616 16.2999 10.5424C15.8972 9.39174 15.4063 8.34592 14.8351 7.27284C14.147 5.98026 13.5266 5.42637 12.0089 5.50331Z" fill="#F6087B"/>
<path d="M18.1226 17.8406L24.2829 17.8384C25.4723 17.8381 26.8083 17.8087 27.9861 17.8598C28.0517 20.5712 28.0012 23.4787 28.0012 26.2009L28.0004 29.9011C28.0004 30.1802 28.0346 31.9615 27.9411 32.1004C27.4704 32.1717 25.41 32.1319 24.8368 32.1315L18.1324 32.1319L18.1283 22.3602L18.1329 19.5101C18.1341 18.9848 18.1531 18.355 18.1226 17.8406Z" fill="#F6087B"/>
<path d="M6.90115 17.8531C8.03042 17.813 9.27453 17.8381 10.4165 17.8381L16.6757 17.8378L16.6728 27.7076C16.6728 29.0453 16.7282 30.8307 16.668 32.1306L11.2237 32.133C9.79559 32.1334 8.29842 32.1553 6.87543 32.1199C6.81929 31.695 6.84429 30.6256 6.84433 30.1622L6.84552 26.5222L6.84278 20.6627C6.84242 20.1114 6.80694 18.2954 6.90115 17.8531Z" fill="#F6087B"/>
</svg>
