<svg width="36" height="36" viewBox="0 0 36 36" fill="none" xmlns="http://www.w3.org/2000/svg">
<path d="M17.9773 11.1519C18.0049 11.158 18.0343 11.1586 18.06 11.1701C18.099 11.1876 26.8919 18.8869 27.0972 19.1482C27.1489 19.3519 27.1828 19.6053 27.1833 19.8171C27.19 22.5174 27.1882 25.2184 27.1887 27.9187C27.1888 28.509 27.2131 28.6521 26.7204 29.0102C24.9755 29.0882 22.7694 29.0254 20.9916 29.031C21.0102 26.501 21.0598 23.5648 20.9827 21.0568C20.8543 20.8477 20.7627 20.7547 20.5992 20.5772C19.9057 20.5057 18.6078 20.5444 17.8736 20.5468C17.08 20.5498 16.2865 20.5466 15.4929 20.5371C15.3156 20.6703 15.1554 20.856 15.0032 21.0198C14.9343 21.6362 14.9707 23.2433 14.9742 23.9412C14.9827 25.618 14.9517 27.3557 14.9868 29.0272C13.1101 29.0283 11.1478 29.0589 9.27766 29.016C9.05982 28.823 8.96306 28.7293 8.77468 28.5066C8.73587 28.064 8.72085 26.392 8.7524 25.9604C8.81775 25.0657 8.57815 19.4613 8.94897 19.1132C11.8764 16.3651 14.9937 13.8133 17.9773 11.1519Z" fill="#252525"/>
<path d="M17.8675 6.43131C18.2862 6.38408 18.8631 6.96304 19.1705 7.23848C20.5888 8.50914 22.0781 9.7266 23.4681 11.026C23.4662 10.7172 23.46 10.4124 23.4533 10.0929C23.4499 9.54331 23.3364 8.54188 24.1281 8.51459C26.1421 8.44512 26.1326 8.41934 26.1082 10.3641C26.0975 11.2197 26.0689 12.5708 26.1276 13.4038C26.2364 13.4647 26.3963 13.5618 26.4881 13.6426C27.8032 14.801 29.1473 15.93 30.4403 17.1128C30.9057 17.5599 31.0326 17.8048 30.5568 18.3277C30.4127 18.5377 29.5462 19.588 29.2328 19.4079C28.402 18.9306 26.3014 16.9772 25.688 16.441L19.3913 10.9358C18.955 10.5662 18.4147 10.0982 18.0327 9.68513L10.78 16.033L8.57905 17.96C8.12759 18.3588 7.68389 18.7649 7.21085 19.1417C6.9725 19.3586 6.53867 19.5404 6.25805 19.2378C6.02176 19.0253 4.94408 17.9429 5.1754 17.6033C5.6501 16.9063 7.44473 15.4524 8.05188 14.9192L13.578 10.0839L16.0767 7.89536C16.549 7.48064 17.3662 6.71928 17.8675 6.43131Z" fill="#252525"/>
</svg>
