<svg width="64" height="64" viewBox="0 0 64 64" fill="none" xmlns="http://www.w3.org/2000/svg">
<path d="M25.1151 4.94922C29.6306 5.02882 34.3499 4.96228 38.8837 4.95605C38.8971 6.18312 38.8861 7.42952 38.8866 8.6582C39.4522 8.60354 40.4872 8.62213 41.0702 8.62207L44.6679 8.62695V13.6064C45.3999 13.553 46.2136 13.6518 47.0067 13.5762C46.9528 15.0403 46.9931 16.7221 46.9931 18.2031V26.7422L46.994 52.5469C47.31 52.5197 47.631 52.5373 47.9481 52.5479L47.9423 28.3105L47.9452 21.834C47.9458 21.0325 47.9921 19.1413 47.8827 18.4512C48.722 19.2399 49.8733 20.1502 50.7704 20.8965L55.6835 24.9756C56.474 25.6276 57.956 26.7819 58.6171 27.459C58.7021 28.0798 58.6665 29.5568 58.6659 30.2305L58.663 35.2354L58.6688 52.5234L60.1591 52.5078C60.1663 53.2844 60.1532 54.0787 60.1493 54.8564L61.997 54.8301L62.0009 58.0635L38.9149 58.0576L2.00575 58.0654C1.99897 56.9894 1.99802 55.9129 2.00379 54.8369L3.84168 54.8545L3.84266 52.5039C4.34113 52.5072 4.83998 52.5226 5.33778 52.5498C5.27451 47.0808 5.33648 41.4954 5.33387 36.0166L5.32997 30.6621C5.32935 29.7137 5.28494 28.3115 5.40223 27.4121C6.17686 26.6553 7.69343 25.5079 8.55555 24.7725C11.0248 22.666 13.6765 20.6127 16.1083 18.4727C16.0077 19.241 16.0573 21.217 16.0575 22.0439L16.0585 29.0254L16.0595 52.5312C16.3744 52.5213 16.704 52.5352 17.0204 52.543C16.9665 49.381 17.0165 46.0618 17.0165 42.8896V23.9941C17.0167 20.6521 17.1118 16.8603 16.9989 13.5703C17.7656 13.6113 18.5647 13.604 19.3348 13.6084L19.3358 8.62598C21.0636 8.62192 23.4376 8.55058 25.1122 8.66016C25.1068 7.42316 25.108 6.18616 25.1151 4.94922ZM54.3681 45.9268C54.2531 46.7515 54.3191 47.6953 54.3202 48.5352C54.3208 48.6685 54.3263 48.8179 54.4052 48.8662C54.4901 48.9183 54.5781 48.9348 54.6708 48.957C54.8446 48.696 54.8305 46.2048 54.6884 45.8838C54.6158 45.8383 54.5804 45.8088 54.4989 45.7803C54.4656 45.818 54.4219 45.8665 54.3681 45.9268ZM50.327 45.7441C50.2121 46.2168 50.1564 48.4451 50.3085 48.874C50.4462 48.9329 50.4423 48.932 50.5917 48.9453C50.6383 48.4191 50.76 46.217 50.5136 45.8291L50.327 45.7441ZM9.43055 45.752C9.32978 46.2272 9.27475 48.4603 9.42274 48.873C9.54269 48.9129 9.57111 48.9271 9.69911 48.9404C9.76004 48.3955 9.87104 46.2515 9.6327 45.8457L9.43055 45.752ZM13.4179 45.8271C13.382 46.271 13.3028 48.5964 13.4804 48.8594C13.6441 48.9071 13.671 48.909 13.8427 48.9189C13.8511 48.4571 13.9148 46.104 13.7587 45.8721C13.6009 45.8368 13.5783 45.8326 13.4179 45.8271ZM27.4071 41.2393C26.137 41.3336 23.7938 41.2547 22.4432 41.2461C22.4413 42.8734 22.4661 44.5773 22.4335 46.1992C23.0922 46.1869 27.2349 46.2643 27.4237 46.1221C27.4295 46.1176 27.4334 46.1109 27.4384 46.1055C27.3569 44.5126 27.4445 42.84 27.4071 41.2393ZM41.5565 41.2461C40.1664 41.2653 37.95 41.3212 36.6005 41.2471C36.5855 42.5743 36.6735 44.9637 36.5604 46.1836L41.619 46.1816C41.4843 45.131 41.5536 42.4172 41.5565 41.2461ZM50.3114 38.6318C50.2231 39.0921 50.139 41.4773 50.3134 41.7559C50.406 41.7785 50.497 41.8019 50.5907 41.8213C50.6562 41.2969 50.7461 39.1138 50.5292 38.7041C50.4399 38.667 50.4061 38.6479 50.3114 38.6318ZM9.40321 38.6279C9.31194 39.1513 9.31006 41.1633 9.37489 41.6855C9.48766 41.8115 9.49706 41.7739 9.71083 41.8125C9.75894 41.2718 9.87019 39.1208 9.63368 38.71C9.5385 38.666 9.50734 38.6434 9.40321 38.6279ZM13.4843 38.6318C13.3379 39.0663 13.355 41.1176 13.4091 41.6328C13.5108 41.7688 13.5937 41.7613 13.7968 41.8008C13.8835 41.4013 13.8619 39.2287 13.8075 38.8086C13.6847 38.644 13.7307 38.6965 13.4843 38.6318ZM54.3583 38.6426C54.3172 39.0662 54.2355 41.4621 54.3866 41.7119C54.5567 41.7755 54.5671 41.7752 54.7509 41.7803C54.7903 41.3535 54.8444 39.0511 54.7011 38.7559C54.5701 38.6591 54.5263 38.666 54.3583 38.6426ZM41.5917 33.6748C39.9223 33.691 38.2524 33.6917 36.5829 33.6777C36.6043 35.2211 36.6407 37.1081 36.5604 38.6357L39.8895 38.6162C40.2941 38.6169 41.204 38.606 41.5624 38.6641C41.5504 37.6195 41.5465 36.5749 41.5507 35.5303C41.5511 35.0288 41.5315 34.1454 41.5917 33.6748ZM22.4169 33.6748C22.4872 35.2373 22.4473 37.0615 22.4432 38.6387C23.5291 38.6214 24.6151 38.6165 25.7011 38.624C26.0714 38.6249 27.0598 38.6487 27.3837 38.6045L27.4315 38.5518C27.3813 37.0697 27.3908 35.1635 27.4384 33.6787C25.7995 33.6895 24.0553 33.7097 22.4169 33.6748ZM50.3124 31.4893C50.1835 31.8648 50.1814 34.0549 50.2831 34.5693C50.2939 34.6229 50.4772 34.6673 50.5565 34.6953C50.7131 34.2998 50.6863 32.0563 50.5936 31.6123C50.4648 31.522 50.4677 31.5273 50.3124 31.4893ZM9.37977 31.4688C9.33522 31.8944 9.27478 34.3052 9.40907 34.583C9.54321 34.6509 9.57619 34.6468 9.72157 34.6611C9.77233 34.1188 9.8768 31.9707 9.63075 31.5723C9.52418 31.5181 9.49723 31.499 9.37977 31.4688ZM54.4306 31.4697C54.275 31.7949 54.2343 34.3847 54.3993 34.5889C54.5506 34.6287 54.5816 34.634 54.7382 34.6484C54.8037 34.1964 54.8438 32.0618 54.7089 31.6553C54.5951 31.5171 54.6021 31.5236 54.4306 31.4697ZM13.4257 31.5264C13.3833 31.9609 13.2954 34.3656 13.4774 34.5938C13.6357 34.6257 13.6836 34.6282 13.8456 34.6328C13.8425 34.1675 13.9136 31.8507 13.7538 31.6006C13.6046 31.5377 13.5897 31.5391 13.4257 31.5264ZM22.4286 26.1172C22.451 27.7683 22.4524 29.4201 22.4325 31.0713L25.7655 31.0703C26.0304 31.0709 27.215 31.0865 27.4364 31.0488C27.3945 29.5759 27.3739 27.5909 27.4393 26.127C25.7692 26.1362 24.0987 26.1324 22.4286 26.1172ZM41.5907 26.1211C39.92 26.1321 38.2487 26.1338 36.578 26.126C36.6176 27.4585 36.6496 29.765 36.5663 31.0732C38.2354 31.0631 39.9049 31.0621 41.5741 31.0703C41.5533 30.0373 41.5451 29.0039 41.5507 27.9707C41.5507 27.4791 41.5308 26.5791 41.5907 26.1211ZM13.5175 24.3652C13.3308 24.5866 13.3225 27.199 13.4442 27.4443C13.5692 27.5019 13.5962 27.5171 13.7333 27.5527C13.9015 27.3349 13.9412 24.81 13.7196 24.4395C13.6975 24.4033 13.5708 24.3775 13.5175 24.3652ZM50.2538 24.3135C50.2194 24.778 50.1604 27.1881 50.3075 27.4893C50.4456 27.52 50.4761 27.5263 50.6171 27.5342C50.6504 26.9517 50.7201 24.9401 50.5741 24.4434C50.4354 24.3484 50.4217 24.3497 50.2538 24.3135ZM36.5643 18.5439C36.6671 20.0339 36.5792 21.976 36.5995 23.5088L39.8788 23.5156C40.2027 23.516 41.2724 23.5345 41.5546 23.4922C41.5531 22.3496 41.4787 19.6232 41.5985 18.5615C40.2903 18.5652 37.8225 18.6327 36.5643 18.5439ZM22.4472 23.5098L25.7841 23.5166C26.0524 23.5169 27.2029 23.53 27.413 23.4844C27.4126 22.1768 27.3379 19.8022 27.4403 18.5586C25.773 18.5708 24.1056 18.5683 22.4384 18.5508L22.4472 23.5098Z" fill="#C87914"/>
</svg>
