<svg width="52" height="52" viewBox="0 0 52 52" fill="none" xmlns="http://www.w3.org/2000/svg">
<rect width="52" height="52" rx="26" fill="#BE7F2C"/>
<path d="M38 19.3333V18C38 15.7909 36.2092 14 34 14H32.6667M14 19.3333V18C14 15.7909 15.7909 14 18 14H19.3333M38 32.6667V34C38 36.2092 36.2092 38 34 38H32.6667M14 32.6667V34C14 36.2092 15.7909 38 18 38H19.3333M20.6667 20.6667V22M31.3333 20.6667V22M20.6667 30C23.3333 33.3333 28.6667 33.3333 31.3333 30M26 22V26L25.3333 26.6667" stroke="white" stroke-width="2" stroke-linecap="round" stroke-linejoin="round"/>
</svg>
