<svg width="36" height="36" viewBox="0 0 36 36" fill="none" xmlns="http://www.w3.org/2000/svg">
<path d="M22.4498 15.8809C22.7879 15.9945 24.3705 16.5583 24.4537 16.8226C24.5611 17.1633 23.7878 18.8363 23.6045 19.1891C22.1461 21.9948 20.1802 24.5168 18.15 26.9273C17.8409 27.2943 17.2811 28.0218 16.9863 28.3194L17.1153 28.4466C20.5214 25.2307 23.8263 21.673 25.2041 17.0617L25.5596 17.1647C26.3852 17.4083 27.152 17.6707 27.567 18.4829C27.8978 19.1305 28.1062 19.9003 28.2294 20.6135C28.7763 23.7817 28.9724 27.0498 29.1823 30.2562C29.2237 30.8889 29.3736 32.7386 29.2207 33.2531C28.9786 33.5008 27.4588 33.417 27.0509 33.4051C26.5703 33.391 24.5906 33.5101 24.3203 33.3024C24.2696 32.9825 24.63 32.293 24.751 31.9368C25.0387 31.0741 25.2868 30.1988 25.4944 29.3135C25.8449 27.7583 26.0502 26.1738 26.1075 24.5806C26.0514 24.5261 26.0016 24.5166 25.9279 24.491C25.5967 27.0171 24.0396 30.8591 22.8678 33.1661C22.6973 33.5019 21.1874 33.4116 20.7675 33.4117L17.9388 33.4132L13.4949 33.4134C13.041 33.4132 10.6988 33.4788 10.4314 33.2705C10.3052 32.8942 10.5044 31.0397 10.5153 30.4818C11.1218 29.9477 11.9187 29.4147 12.4509 28.9469C13.9371 27.6409 16.5785 25.0494 17.61 23.4142L17.48 23.2753C15.9577 24.8925 13.8877 26.4978 12.1138 27.8432C11.8456 28.0465 11.1674 28.5638 10.888 28.696L10.7991 28.6842C10.7399 28.5732 10.7298 28.412 10.7405 28.2847C10.894 26.4497 10.9877 24.6053 11.1336 22.7727C11.1601 22.4387 11.9171 22.4109 11.9814 22.7541C12.06 23.0695 12.0085 23.4215 12.0319 23.7509C12.6627 23.384 13.4127 23.011 14.0049 22.6465C16.1716 21.3128 18.1696 19.7373 20.1092 18.0962C20.7959 17.5152 21.9092 16.5358 22.4498 15.8809Z" fill="#15BB4A"/>
<path d="M17.4922 2.59738C18.7363 2.4381 20.7572 3.03129 21.5254 4.06906C22.2309 5.02233 22.3377 6.89575 22.1817 8.01535C23.079 8.66394 22.6973 10.1469 22.2823 11.0105C22.193 11.1963 21.7896 11.4949 21.7012 11.6999C21.3839 12.4366 21.0854 13.0522 20.6329 13.7204C20.6042 14.9879 20.6591 15.1059 21.4756 16.0066C21.4248 16.0762 21.372 16.1453 21.3194 16.2136C20.3789 17.4266 19.6854 15.3581 19.6143 14.5984C18.4417 15.2839 17.2574 15.3383 16.0977 14.5984C16.0113 15.1212 15.9139 15.6288 15.5811 16.0603C14.6018 17.3297 10.8575 17.7644 9.61627 18.8249C9.1773 19.1999 8.90781 19.6979 8.73639 20.2419C8.39246 21.3335 8.37006 22.5843 8.2608 23.7224C8.10753 25.2805 7.96623 26.8399 7.836 28.4001C7.74036 29.0777 7.57052 33.0216 7.37018 33.2614C7.2846 33.3637 7.15367 33.398 7.02643 33.4109C6.85185 33.4284 6.6904 33.3916 6.5567 33.2722C6.42038 33.1501 6.42959 32.9647 6.42877 32.7966C6.42651 32.3454 6.49026 31.875 6.5274 31.4245L6.76861 28.613C6.90557 26.9831 7.05097 25.3537 7.20514 23.7253C7.28807 22.8495 7.3695 21.7152 7.51275 20.8581C7.60043 20.3191 7.75507 19.7931 7.97369 19.2927C9.14521 16.6103 12.6228 17.1316 14.6397 15.5505C15.0795 15.2056 15.0647 14.2569 15.0626 13.7507C14.4907 12.7514 14.3962 12.6697 13.9376 11.5388C13.1678 11.1215 12.9504 9.89223 12.9629 9.08176C12.9701 8.62188 13.1527 8.27431 13.4952 7.97531C13.1588 4.69835 14.0667 2.90714 17.4922 2.59738ZM20.3106 5.99386C19.1687 6.11116 18.3627 6.26719 17.17 6.19797C16.6291 6.16651 15.8134 5.99814 15.3585 5.99875C15.0773 6.79391 14.9058 8.1361 14.6016 8.75851C14.4419 8.78007 14.1878 8.79277 14.0753 8.8923C13.8496 9.31387 14.1761 10.2172 14.3926 10.612C14.5237 10.673 14.6559 10.7361 14.7891 10.7917C15.2005 11.9772 15.6808 13.2731 16.8868 13.8601C17.906 14.3562 18.886 13.9994 19.6465 13.2439C20.3013 12.519 20.576 11.6899 20.9131 10.7829L21.2833 10.613C21.5937 9.97704 21.6987 9.57167 21.6622 8.85715C21.4628 8.81933 21.2582 8.7764 21.0567 8.75754C20.7605 8.15765 20.5867 6.76543 20.3106 5.99386Z" fill="#15BB4A"/>
</svg>
