<svg width="48" height="48" viewBox="0 0 48 48" fill="none" xmlns="http://www.w3.org/2000/svg">
<g clip-path="url(#clip0_2360_10221)">
<path d="M15.871 29.0775C18.2112 28.851 19.2486 34.6992 16.9853 35.3236C14.7915 35.4922 13.5765 30.0493 15.871 29.0775ZM16.1113 30.2914C14.9047 30.9275 15.5579 33.98 16.7861 34.0678C17.7729 33.5948 17.4586 31.8514 17.0634 31.059C16.8562 30.6434 16.6037 30.3048 16.1113 30.2914Z" fill="#BA9B31"/>
<path d="M16.4382 31.3572C17.0756 31.4755 17.293 32.6262 16.7176 33.0036C16.0865 32.8203 15.8792 31.8061 16.4382 31.3572Z" fill="#BA9B31"/>
<path d="M28.0349 32.3675C28.147 32.3686 28.2214 32.3732 28.3332 32.3517C28.519 32.462 28.6552 32.356 28.7856 32.439C28.5341 32.4566 28.1704 32.4473 27.9102 32.4484L28.0349 32.3675Z" fill="black"/>
<path d="M38.541 12.7499C40.1047 12.732 41.3541 13.4013 41.835 14.9784C42.0282 15.6127 41.9915 16.2099 41.9258 16.8631C43.671 15.0491 45.6424 15.0251 47.1992 17.0721C46.4596 16.9383 45.967 16.9449 45.2383 17.0135C45.1549 16.93 45.082 16.8677 44.9922 16.7909L44.9541 16.7997C44.9821 16.9007 44.9945 16.9224 44.9902 17.0282C44.9005 17.1185 44.5353 17.1549 44.3721 17.1942C43.6799 17.3572 43.0024 17.5803 42.3486 17.8612C44.2649 17.6206 45.9243 18.6814 46.1748 20.6805C46.2294 21.1173 46.1912 21.5241 46.1416 21.9598C45.6098 21.2057 45.3593 20.9447 44.7002 20.3387C44.6934 20.1988 44.6876 20.1183 44.666 19.9803L44.6133 19.9637L44.5137 20.1063C44.4007 20.1306 43.8558 19.7361 43.7119 19.6415C43.2907 19.3644 42.8712 19.1336 42.4209 18.909C44.0435 20.4496 44.0019 22.1954 42.5977 23.8788C42.6088 23.0855 42.456 22.451 42.2559 21.7001C42.3443 21.6095 42.3957 21.5671 42.4521 21.452C42.3734 21.4462 42.3177 21.4388 42.2393 21.4266C42.0951 21.3293 41.8376 20.4317 41.751 20.2098C41.5796 19.7724 41.391 19.3635 41.1924 18.9383C40.9552 19.3625 40.6007 20.3278 40.4443 20.7889C39.4029 23.8596 39.2291 26.5508 39.6133 29.7381C41.6635 29.9491 43.7999 31.2004 45.5576 32.1883C46.3658 32.644 47.1806 33.0888 48 33.5233C44.2876 32.5418 40.972 30.2205 37.1094 30.8397C35.5955 31.0594 34.1579 31.7746 32.6572 32.0204C31.1081 32.2744 29.9298 32.0165 28.334 32.3524C28.5196 32.4624 28.6558 32.3565 28.7861 32.4393C32.1643 32.5213 34.7319 34.4684 37.7158 35.7626C39.6777 36.6136 41.2867 37.0904 43.374 37.4627C41.1785 37.6241 38.344 36.9137 36.2861 36.2391C34.4802 35.6468 33.1652 35.1422 31.2393 35.0448C26.8139 34.8218 23.7436 38.4697 19.5859 38.8104C15.8984 39.1122 12.4644 36.6432 8.86328 36.1971C6.64708 35.9226 4.5801 36.4698 2.40527 36.8026C1.55827 36.9323 0.851931 36.9999 0 37.0682C1.48241 36.4515 3.17619 35.9928 4.69238 35.4461C5.44387 35.1752 6.28453 35.1111 7.00684 34.7801C7.22894 34.6784 7.56338 34.0659 7.62695 33.8172C8.01839 32.5224 7.77843 30.9658 7.14355 29.7762C6.3219 28.2367 5.11218 28.3358 4.74414 30.1336C4.5472 30.1495 4.10962 30.2114 4.04102 29.9754C3.89683 29.4795 3.60837 27.9072 3.75684 27.4813C3.94781 27.2748 4.6096 27.1568 4.87793 27.1639C5.62154 27.192 7.13054 26.3994 7.53809 27.3065C8.00772 28.3518 8.59569 29.4495 9.00195 30.5135C8.82183 30.6523 8.56473 30.891 8.3877 31.0448C8.76579 30.9884 9.58247 30.9519 9.98145 30.9217C11.1086 30.8344 12.237 30.7629 13.3662 30.7079C13.4125 30.1462 13.7772 27.2895 13.9824 26.9413C14.0932 26.7538 14.4374 26.6518 14.6357 26.6073C15.1402 26.4934 15.6706 26.4377 16.1816 26.3504C16.7614 26.2513 17.3624 26.1095 17.9482 26.0624C18.1004 26.0501 18.2742 26.0508 18.4199 26.1024C18.8624 26.2587 19.1006 27.783 19.4082 28.2118C19.5261 28.3759 19.6836 28.4914 19.8535 28.5956L19.8955 28.621C20.259 28.5566 20.6211 28.4843 20.9814 28.4042C19.8815 28.406 19.8494 28.2116 19.5029 27.1805C19.1959 26.2674 18.4015 25.005 18.9258 24.0702C19.3113 23.3832 20.6083 23.3019 21.3262 23.1747C22.3276 22.9943 23.3306 22.8212 24.335 22.6561C25.0814 22.5286 25.8298 22.4093 26.5791 22.2977C27.4279 22.1715 28.5998 21.883 29.0107 22.9686C29.3698 23.918 29.4307 25.051 29.6895 26.035C30.2132 26.0958 30.3513 26.2118 30.707 26.5711C30.9574 26.539 31.8746 26.3008 32.0459 26.4208C32.3512 26.6345 32.4967 27.7266 32.3115 28.0565C32.2174 28.2243 31.7968 28.297 31.6143 28.3358C31.9067 29.5267 31.8967 30.776 31.124 31.7811C32.0047 31.6923 32.7888 31.3718 33.5947 31.0165C35.7345 30.0734 37.0404 29.5342 39.4307 29.6815C38.7062 29.4483 37.9264 29.3982 37.1729 29.3544C37.1987 28.5464 37.2974 27.8118 37.4434 27.0194C37.7253 26.9849 37.9484 26.9895 38.2285 27.0165C37.9774 26.9101 37.767 26.8297 37.5098 26.7391C37.5676 26.0293 38.0204 24.5648 38.2773 23.8895C38.4857 23.914 38.6932 23.9299 38.9023 23.9471L38.3359 23.6932C38.5113 23.1167 38.8213 22.3308 39.1016 21.7919C39.163 21.6738 39.2181 21.6887 39.3428 21.662C39.3026 21.6261 39.2633 21.5947 39.2217 21.5604C39.2576 21.1632 40.4438 19.1402 40.6592 18.6952C39.7504 18.996 39.0304 19.4144 38.2334 19.9208C38.1802 19.8099 38.1628 19.7758 38.0957 19.6747C38.0482 19.76 38.0676 19.8988 38.0684 20.0116C37.3515 20.5524 37.0301 20.9095 36.4951 21.5995C36.3745 19.7861 37.0068 18.0713 39.0439 17.7508C39.3657 17.7003 39.6718 17.7321 39.9961 17.7557C39.2086 17.439 38.5558 17.233 37.7676 16.9588C37.81 16.8142 37.8412 16.7927 37.8125 16.6669C37.6869 16.7039 37.6208 16.8031 37.5195 16.9061C36.5951 16.737 36.2091 16.6967 35.2588 16.827C37.0495 14.7635 39.4086 14.8888 40.9004 17.1961C40.7157 16.5587 40.5095 15.9265 40.2451 15.3172C40.1772 15.1608 39.9253 14.6394 39.9443 14.5086L40.1016 14.4442L40.0977 14.4169L39.8184 14.3407C39.3328 13.5352 39.1994 13.3885 38.541 12.7499ZM17.0586 28.7069C15.1789 27.5929 14.3756 30.264 14.6191 31.6122C13.0259 31.7315 10.8971 31.9135 9.31055 31.952C9.3237 32.6959 9.32577 33.6985 8.81152 34.3192C8.53606 34.6514 7.75622 34.7208 7.32227 34.8573C8.54905 34.757 9.37694 34.7522 10.6143 34.952C12.8022 35.3049 14.9765 36.172 17.2197 35.8954C18.591 35.7261 19.9743 35.0158 21.2148 34.4286C23.3239 33.4306 25.5506 32.5685 27.9102 32.4491L28.0352 32.368C27.3614 31.7891 27.0505 31.2664 26.8115 30.4198C24.8095 30.8054 22.6821 31.182 20.6973 31.6083C20.853 32.5558 20.7714 33.3857 20.4131 34.2772C19.9506 34.5744 18.766 35.0102 18.2295 35.1795C18.9428 34.0611 18.983 32.8052 18.7129 31.5126C18.5018 30.5029 17.9616 29.292 17.0586 28.7069ZM29.4971 27.285C29.3084 27.317 29.1136 27.3438 28.9268 27.3836C28.6498 27.4425 28.5966 27.409 28.4795 27.6756C28.348 27.7313 27.159 27.9258 26.9004 27.9715C25.8855 28.1516 24.872 28.3409 23.8604 28.5389C23.7903 28.4728 23.708 28.3897 23.6357 28.329C23.3791 28.3753 22.4652 28.4989 22.3809 28.6542C22.227 28.9369 22.3168 29.6219 22.8574 29.5282C23.2852 29.4577 23.8693 29.461 23.9854 28.9715C24.2242 28.8573 25.4445 28.6706 25.8096 28.6073C26.703 28.4517 27.6346 28.2509 28.5244 28.1053C28.5887 28.2308 28.6116 28.31 28.7334 28.3768C28.9253 28.3981 29.739 28.2707 29.877 28.1307C30.0527 27.951 29.9487 27.4502 29.7266 27.2831C29.6121 27.2605 29.614 27.2664 29.4971 27.285ZM21.6748 27.159C21.5755 26.9303 21.4256 26.8905 21.1953 26.9247C20.9186 26.9681 20.3015 27.0105 20.3027 27.4051C20.3889 27.6462 20.5574 27.6917 20.79 27.659C21.1246 27.6077 21.6535 27.5927 21.6748 27.159ZM22.2646 24.1805C22.1938 24.2548 22.1033 24.3289 22.1025 24.4383C22.1013 24.7288 22.564 27.1509 22.7031 27.2606C22.7995 27.3346 22.9064 27.3349 23.0225 27.327C23.1052 27.2448 23.1925 27.1748 23.1982 27.0506C23.2103 26.7597 22.7447 24.4226 22.5957 24.2674C22.5131 24.182 22.4107 24.1761 22.2979 24.1786C22.2869 24.1788 22.2756 24.1798 22.2646 24.1805ZM23.5059 23.9598C23.4425 24.0219 23.3159 24.128 23.332 24.2245C23.4837 25.1362 23.67 26.0651 23.9014 26.9598C23.9316 27.0766 24.1764 27.0987 24.2695 27.0995C24.3121 27.0573 24.4628 26.9223 24.4482 26.8358C24.2962 25.9632 24.116 24.8833 23.8389 24.0526C23.8129 23.9744 23.5986 23.9608 23.5059 23.9598ZM24.7324 23.743C24.6731 23.8015 24.5391 23.9182 24.5537 24.0077C24.7039 24.9169 24.9063 25.8385 25.1338 26.7323C25.1637 26.8487 25.3804 26.8694 25.4785 26.869C25.5447 26.8072 25.6731 26.6973 25.6631 26.619C25.609 26.1957 25.2167 24.0947 25.0586 23.8475C24.9364 23.7589 24.8877 23.7582 24.7324 23.743ZM25.9629 23.5321C25.9162 23.5775 25.7643 23.7113 25.7773 23.7967C25.9074 24.6351 26.122 25.4754 26.2881 26.3085C26.3442 26.59 26.4418 26.6269 26.7148 26.6366C26.7821 26.5597 26.9101 26.4411 26.8789 26.2958C26.7007 25.4599 26.5695 24.3954 26.2695 23.6131C26.2469 23.5537 26.0366 23.5322 25.9629 23.5321ZM20.3535 24.2948C19.1436 24.78 19.5933 26.504 20.8506 26.3153C21.1637 26.1777 21.3755 26.0338 21.5029 25.6922C21.6039 25.4138 21.5832 25.1061 21.4463 24.8436C21.2226 24.4056 20.8226 24.252 20.3535 24.2948ZM28.5674 25.5604C28.2523 25.6085 27.6769 25.6351 27.6484 26.0565C27.7268 26.3023 27.8873 26.3477 28.123 26.3182C28.4408 26.2632 28.9762 26.2323 28.9658 25.8075C28.8846 25.6491 28.7578 25.5306 28.5674 25.5604ZM27.6562 23.1131C27.0827 23.398 26.8664 23.9795 27.1826 24.5516C27.3034 24.7731 27.5096 24.9358 27.7529 25.0028C27.8993 25.0418 28.0103 25.0266 28.1582 25.0106C29.2451 24.523 28.8004 22.9808 27.6562 23.1131Z" fill="#BA9B31"/>
<path d="M19.5779 17.9806C19.7243 17.9569 19.9133 17.9632 20.0554 18.0079C20.2564 18.0729 20.4342 18.1956 20.5652 18.3614C20.7773 18.6256 21.0858 19.2527 21.2576 19.5812C21.6218 20.2881 21.9917 20.9927 22.3679 21.6935C22.3311 21.5148 22.2374 21.1475 22.2937 20.9874C22.3811 20.7389 23.119 20.6993 23.324 20.7823C23.528 21.0304 23.6028 21.5877 23.6218 21.9064C23.6276 22.0058 23.6366 22.2255 23.5408 22.2901C23.3672 22.4071 15.8817 23.6603 14.9919 23.8136C14.3171 23.9299 13.3114 23.9844 12.7136 24.254C12.5048 24.3482 12.3633 24.5335 12.2165 24.7023L18.7702 23.6524C18.1378 24.2685 18.2227 24.7462 18.3962 25.5372L15.7742 25.9503C15.3053 26.0243 14.8387 26.0863 14.3747 26.1876C13.5468 26.3691 13.4713 26.9953 13.3718 27.7032C13.3588 27.9076 13.28 28.3367 13.2468 28.5528C13.1554 29.1185 13.0749 29.6861 13.0056 30.255C11.8271 30.3258 10.6488 30.4046 9.47142 30.4923C9.13664 29.6982 8.7902 28.9091 8.43236 28.1251C8.24026 27.6974 7.93888 26.8753 7.57396 26.6105C7.42747 26.5028 7.25329 26.4394 7.07201 26.4269C6.71584 26.401 4.73461 26.7385 4.25755 26.8067C4.21976 26.6052 4.19848 26.3655 4.18626 26.1593C4.10425 24.7711 3.97424 23.3734 3.93431 21.9845C3.91108 21.1745 4.45586 21.0016 5.10423 20.8009C5.42574 20.7013 5.76305 20.5976 6.09056 20.4972L8.7097 19.6964C9.05464 19.5913 9.81717 19.3166 10.1472 19.2735C13.2708 18.8659 16.4491 18.3266 19.5779 17.9806ZM6.62962 21.422C6.3852 21.484 4.82475 21.8696 4.81322 22.0616C4.75379 23.0502 4.90854 24.203 4.98412 25.2052C4.99494 25.3455 5.2246 25.3764 5.33861 25.3595C5.63388 25.3045 7.00638 25.1007 7.16576 24.9435C7.19228 24.8394 7.21926 24.6452 7.20091 24.504C7.0768 23.5543 7.01699 22.4739 6.79857 21.5528C6.78472 21.4944 6.6805 21.441 6.62962 21.422ZM9.65794 20.5196C9.22185 20.6436 7.90881 20.9623 7.64427 21.1925C7.4686 21.7202 7.91752 23.6197 7.92259 24.2687C7.92889 25.0527 8.50424 24.7842 9.02025 24.6856C9.54664 24.6021 10.0756 24.5165 10.6023 24.4288C11.207 24.3281 11.2209 24.1559 11.0251 23.6007C10.6834 22.6312 10.3196 21.6652 9.95287 20.7052C9.90406 20.5794 9.78532 20.5271 9.65794 20.5196ZM19.654 18.9142L14.3122 19.6739C13.3275 19.8139 12.3455 19.9561 11.3601 20.1075C10.678 20.1694 11.0792 20.8322 11.2185 21.2306C11.3934 21.7309 11.5915 22.281 11.7898 22.7794C11.941 23.1597 12.195 23.0887 12.5232 23.0353C15.3239 22.4994 18.166 22.0943 20.9714 21.5773C21.0713 21.5589 21.1148 21.5214 21.1785 21.4483C21.211 21.3632 21.2246 21.2842 21.1775 21.1993C20.7945 20.5089 20.4753 19.7739 20.0642 19.1017C19.968 18.9443 19.8362 18.8905 19.654 18.9142Z" fill="#BA9B31"/>
<path d="M27.7891 11.0091C29.112 10.8179 30.3375 11.739 30.5219 13.0626C30.7066 14.3862 29.779 15.6073 28.4547 15.7849C27.1397 15.9613 25.9293 15.0421 25.746 13.728C25.5631 12.4139 26.4759 11.1989 27.7891 11.0091Z" fill="#BA9B31"/>
<path d="M5.54686 29.2553C5.76903 29.2326 5.93236 29.231 6.12596 29.3539C7.32523 30.1166 7.90159 33.7522 6.52635 34.4379C5.82105 34.5636 5.40198 33.8171 5.16893 33.2699C4.7249 32.2267 4.36992 29.944 5.54686 29.2553ZM5.80858 30.2435C5.63336 30.3632 5.56802 30.4234 5.48924 30.6273C5.21987 31.3241 5.48146 33.1775 6.27537 33.4193C7.12646 32.8921 6.62621 30.3412 5.80858 30.2435Z" fill="#BA9B31"/>
<path d="M30.3031 23.0467C30.853 22.9762 31.1365 23.2781 31.3166 23.7674C31.6444 24.6587 31.7816 24.83 30.8005 24.9883C30.4936 25.0313 30.2366 25.0776 29.9326 25.1395C29.7845 24.4794 29.7101 23.8032 29.5391 23.1482L30.3031 23.0467Z" fill="#BA9B31"/>
<path d="M28.073 8.57141C28.2006 8.597 28.2071 8.58891 28.3052 8.67987C28.4579 8.98194 28.3954 9.60879 28.3641 9.94287C28.3501 10.0953 28.3037 10.1262 28.1898 10.2135C28.1485 10.203 28.0263 10.1757 27.9965 10.1433C27.8214 9.95182 27.87 9.31283 27.8843 9.07021C27.9002 8.80113 27.8933 8.72649 28.073 8.57141Z" fill="#BA9B31"/>
<path d="M23.4985 13.1528C23.851 13.1559 24.8127 13.0141 24.9328 13.3763C24.9026 13.522 24.8954 13.5255 24.7915 13.6387C24.4602 13.6469 23.4514 13.7834 23.3594 13.4072C23.3881 13.2676 23.4068 13.2571 23.4985 13.1528Z" fill="#BA9B31"/>
<path d="M28.047 16.5546C28.1764 16.5699 28.1779 16.5623 28.285 16.6448C28.4593 16.9145 28.4528 17.9256 28.2314 18.1602C28.0585 18.1373 28.0966 18.1658 27.9709 18.0736C27.8663 17.8892 27.8523 17.5321 27.8695 17.3168C27.8939 17.0162 27.8296 16.774 28.047 16.5546Z" fill="#BA9B31"/>
<path d="M31.4815 13.1515C31.8236 13.1565 32.8199 13.0136 32.9054 13.3971C32.8716 13.5294 32.8497 13.5402 32.7548 13.6348C32.4051 13.6406 31.4305 13.7798 31.3359 13.4072C31.3615 13.2725 31.392 13.2532 31.4815 13.1515Z" fill="#BA9B31"/>
<path d="M25.6071 15.5852C25.7375 15.6008 25.734 15.5958 25.8547 15.6648C26.0736 16.0139 25.2754 16.605 25.0173 16.8307C24.1652 16.7371 25.4127 15.7668 25.6071 15.5852Z" fill="#BA9B31"/>
<path d="M30.4831 15.5768C30.7944 15.5992 31.4959 16.2995 31.5498 16.5986C31.5297 16.7215 31.4984 16.7376 31.4104 16.8254C31.1052 16.8077 30.3893 16.1014 30.3477 15.8116C30.3714 15.686 30.3983 15.6703 30.4831 15.5768Z" fill="#BA9B31"/>
<path d="M24.9049 9.94086C25.2046 10.0312 25.8975 10.6592 25.9032 10.9883C25.8544 11.1173 25.8195 11.1275 25.7063 11.2051C25.4386 11.0923 24.7367 10.4618 24.7227 10.1561C24.7701 10.0266 24.7942 10.02 24.9049 9.94086Z" fill="#BA9B31"/>
<path d="M31.2545 9.94043C31.3767 9.96142 31.381 9.97206 31.4845 10.0344C31.6962 10.3788 30.9056 10.9544 30.654 11.1863C30.521 11.1718 30.521 11.1632 30.4092 11.0977C30.3733 11.0398 30.3435 11.0177 30.3481 10.9578C30.3701 10.667 31.0328 10.1409 31.2545 9.94043Z" fill="#BA9B31"/>
<path d="M29.6348 38.595C32.0998 37.8841 34.2515 38.4168 36.668 38.926C38.1592 39.2404 39.8155 39.5736 41.3398 39.7141L41.3145 39.7522L41.3408 39.7141C41.4548 39.7245 41.6863 39.7294 41.7715 39.7844C41.6126 39.8329 41.4384 39.8187 41.2695 39.8176V39.8186C39.9387 39.8398 38.6076 39.77 37.2861 39.6116C35.3444 39.388 33.6082 39.0322 31.6338 39.2014C29.9644 39.3441 28.8302 39.8364 27.2744 40.3489C25.5891 40.9043 24.2756 41.0789 22.5078 41.0354C23.8577 40.7461 25.0636 40.3598 26.3447 39.8391C27.4592 39.3856 28.4815 38.9274 29.6348 38.595Z" fill="#BA9B31"/>
</g>
<defs>
<clipPath id="clip0_2360_10221">
<rect width="48" height="48" fill="white"/>
</clipPath>
</defs>
</svg>
