<svg width="28" height="28" viewBox="0 0 28 28" fill="none" xmlns="http://www.w3.org/2000/svg">
<g clip-path="url(#clip0_2034_6349)">
<path d="M12.2373 16.8078C14.0412 16.633 14.8415 21.142 13.0967 21.6232C11.4057 21.7532 10.4689 17.5572 12.2373 16.8078ZM12.4219 17.7434C11.4922 18.2339 11.9959 20.5864 12.9424 20.6545C13.703 20.2899 13.4608 18.9471 13.1562 18.3361C12.9964 18.0156 12.8017 17.7536 12.4219 17.7434Z" fill="#BA9B31"/>
<path d="M12.6723 18.5643C13.1637 18.6555 13.3312 19.5425 12.8877 19.8334C12.4012 19.6921 12.2414 18.9103 12.6723 18.5643Z" fill="#BA9B31"/>
<path d="M21.6088 19.3443C21.6953 19.3452 21.7526 19.3488 21.8388 19.3322C21.982 19.4172 22.087 19.3355 22.1875 19.3995C21.9936 19.413 21.7133 19.4058 21.5127 19.4067L21.6088 19.3443Z" fill="#BA9B31"/>
<path d="M29.709 4.22121C30.9142 4.20755 31.8774 4.72341 32.248 5.93898C32.3969 6.42768 32.368 6.88782 32.3174 7.39113C33.6626 5.99284 35.1828 5.97446 36.3828 7.55227C35.8127 7.44907 35.4329 7.45441 34.8711 7.50734C34.8068 7.44296 34.7509 7.39468 34.6816 7.33547L34.6523 7.3423C34.674 7.42015 34.684 7.43756 34.6807 7.51906C34.6117 7.58887 34.3289 7.61666 34.2031 7.64699C33.6696 7.77268 33.1474 7.94418 32.6436 8.16066C34.1207 7.97522 35.3997 8.7935 35.5928 10.3345C35.6348 10.6711 35.6056 10.9849 35.5674 11.3208C35.1575 10.7395 34.9648 10.5377 34.457 10.0708C34.4518 9.96297 34.4463 9.90083 34.4297 9.79445L34.3896 9.78176L34.3125 9.89211C34.2249 9.91028 33.805 9.60545 33.6943 9.53273C33.3698 9.31925 33.0462 9.14132 32.6992 8.96828C33.95 10.1558 33.9176 11.5017 32.835 12.7993C32.8435 12.1878 32.7265 11.6986 32.5723 11.1196C32.6403 11.05 32.6802 11.0177 32.7236 10.9292C32.6629 10.9247 32.62 10.9181 32.5596 10.9087C32.4485 10.8337 32.2494 10.1423 32.1826 9.97121C32.0505 9.634 31.9051 9.3185 31.752 8.99074C31.5691 9.31767 31.2963 10.062 31.1758 10.4175C30.373 12.7846 30.239 14.8589 30.5352 17.3159C32.1154 17.4785 33.7623 18.4431 35.1172 19.2046C35.7402 19.5559 36.3684 19.899 37 20.2339C34.1383 19.4773 31.5829 17.6873 28.6055 18.1646C27.4385 18.3338 26.3306 18.8862 25.1738 19.0757C23.9797 19.2715 23.0709 19.0726 21.8408 19.3316C21.9839 19.4162 22.089 19.335 22.1895 19.3989C24.7933 19.4622 26.7723 20.9629 29.0723 21.9605C30.5846 22.6165 31.8256 22.984 33.4346 23.271C31.7423 23.3954 29.557 22.8476 27.9707 22.3277C26.5786 21.8711 25.5647 21.4818 24.0801 21.4068C20.669 21.235 18.3024 24.0475 15.0977 24.3101C12.2551 24.5428 9.60795 22.6393 6.83203 22.2954C5.12383 22.0838 3.5308 22.5057 1.85449 22.7622C1.20159 22.8622 0.656697 22.9137 0 22.9663C1.14269 22.4909 2.44846 22.1377 3.61719 21.7163C4.19645 21.5075 4.84461 21.4578 5.40137 21.2027C5.57257 21.1239 5.82993 20.6521 5.87891 20.4605C6.18065 19.4623 5.99623 18.2622 5.50684 17.3452C4.87347 16.1586 3.94089 16.2357 3.65723 17.6216C3.50553 17.6338 3.16813 17.6805 3.11523 17.4986C3.00408 17.1159 2.7813 15.9052 2.89551 15.5767C3.0425 15.4175 3.55269 15.3271 3.75977 15.3325C4.33297 15.3541 5.4964 14.7427 5.81055 15.4419C6.17254 16.2476 6.62631 17.0935 6.93945 17.9136C6.80068 18.0205 6.60228 18.2042 6.46582 18.3228C6.75731 18.2793 7.38683 18.2513 7.69434 18.228C8.56316 18.1607 9.43331 18.1064 10.3037 18.064C10.3393 17.6316 10.6201 15.4293 10.7783 15.1607C10.8636 15.0161 11.1282 14.9372 11.2812 14.9029C11.6702 14.815 12.0796 14.7719 12.4736 14.7046C12.9204 14.6282 13.3835 14.5192 13.835 14.4829C13.9523 14.4735 14.0868 14.4733 14.1992 14.5132C14.5401 14.6338 14.723 15.8083 14.96 16.1392C15.0281 16.2341 15.1134 16.3086 15.207 16.3736L15.3359 16.4556C15.616 16.406 15.8952 16.3503 16.1729 16.2886C15.3251 16.2899 15.3004 16.1393 15.0332 15.3443C14.7965 14.6403 14.1845 13.6674 14.5889 12.9468C14.8861 12.4172 15.8862 12.3545 16.4395 12.2564C17.2114 12.1174 17.9846 11.9842 18.7588 11.857C19.3341 11.7587 19.9108 11.6666 20.4883 11.5806C21.1426 11.4832 22.0457 11.2613 22.3623 12.0982C22.639 12.83 22.6863 13.703 22.8857 14.4614C23.2894 14.5083 23.3957 14.5976 23.6699 14.8745C23.8628 14.8497 24.5701 14.6668 24.7021 14.7593C24.9373 14.9244 25.0498 15.7658 24.9072 16.02C24.8346 16.1494 24.5099 16.205 24.3691 16.2349C24.5946 17.153 24.5868 18.1163 23.9912 18.8911C24.6702 18.8227 25.2751 18.5753 25.8965 18.3013C27.5457 17.5744 28.5521 17.1594 30.3945 17.273C29.8361 17.0932 29.2351 17.0538 28.6543 17.02C28.6742 16.3973 28.7498 15.8311 28.8623 15.2202C29.0797 15.1936 29.2518 15.1975 29.4678 15.2183C29.2742 15.1363 29.1123 15.0742 28.9141 15.0044C28.9587 14.4574 29.3068 13.3289 29.5049 12.8081C29.6656 12.827 29.8261 12.8388 29.9873 12.8521L29.5508 12.6568C29.6859 12.2124 29.9246 11.6064 30.1406 11.1909C30.188 11.0999 30.2301 11.1109 30.3262 11.0904C30.2953 11.0628 30.2654 11.0386 30.2334 11.0122C30.2611 10.7061 31.1755 9.1477 31.3418 8.80422C30.6412 9.03612 30.0861 9.3582 29.4717 9.74856C29.4307 9.66304 29.417 9.63617 29.3652 9.55813C29.3284 9.62395 29.3442 9.73177 29.3447 9.81887C28.7922 10.2358 28.5442 10.5107 28.1318 11.0425C28.0389 9.64479 28.5257 8.32294 30.0957 8.0757C30.3439 8.03667 30.5809 8.06141 30.8311 8.07961C30.2239 7.83542 29.72 7.67671 29.1123 7.46535C29.145 7.35374 29.1696 7.33687 29.1475 7.23977C29.0506 7.26825 28.9999 7.34492 28.9219 7.42434C28.2091 7.29395 27.9113 7.26331 27.1787 7.36379C28.559 5.77319 30.3774 5.86959 31.5273 7.64797C31.385 7.15665 31.2263 6.66929 31.0225 6.19973C30.9701 6.07916 30.7754 5.67744 30.79 5.57668L30.9111 5.52688L30.9092 5.50637L30.6934 5.4468C30.3192 4.82616 30.2163 4.71324 29.709 4.22121ZM13.1494 16.523C11.7005 15.6642 11.0818 17.723 11.2695 18.7622C10.0415 18.8542 8.40067 18.9943 7.17773 19.0239C7.18787 19.5974 7.18937 20.3707 6.79297 20.8491C6.58059 21.1052 5.97901 21.158 5.64453 21.2632C6.59027 21.1859 7.22874 21.1824 8.18262 21.3364C9.86922 21.6085 11.5452 22.2773 13.2744 22.064C14.3314 21.9335 15.3973 21.3858 16.3535 20.9331C17.9792 20.1639 19.6958 19.4998 21.5146 19.4077L21.6113 19.3452C21.092 18.899 20.8522 18.4958 20.668 17.8433C19.1247 18.1405 17.4851 18.4307 15.9551 18.7593C16.0751 19.4897 16.0116 20.1297 15.7354 20.8169C15.3785 21.046 14.465 21.3818 14.0518 21.5122C14.6016 20.6502 14.6339 19.6824 14.4258 18.6861C14.2631 17.9076 13.8457 16.974 13.1494 16.523ZM22.7363 15.4253C22.5909 15.45 22.4409 15.4707 22.2969 15.5015C22.0833 15.5469 22.0425 15.5215 21.9521 15.7271C21.8508 15.77 20.9333 15.9194 20.7344 15.9546C19.9522 16.0934 19.1713 16.2395 18.3916 16.3921C18.3376 16.3411 18.2735 16.2778 18.2178 16.231C18.0198 16.2667 17.3163 16.3614 17.251 16.481C17.1324 16.6989 17.2016 17.2269 17.6182 17.1548C17.9479 17.1005 18.3987 17.1032 18.4883 16.7261C18.6727 16.638 19.6137 16.4936 19.8945 16.4448C20.5831 16.3249 21.3006 16.1703 21.9863 16.0581C22.0359 16.1548 22.0535 16.2166 22.1475 16.2681C22.2951 16.2846 22.923 16.1856 23.0293 16.0777C23.1647 15.9392 23.0851 15.5534 22.9141 15.4243C22.8255 15.4069 22.8266 15.4109 22.7363 15.4253ZM16.3379 15.1499C16.1247 15.1834 15.6487 15.2161 15.6494 15.52C15.7158 15.7059 15.846 15.7415 16.0254 15.7163C16.2833 15.6767 16.6906 15.6648 16.707 15.3306C16.6305 15.1545 16.5152 15.1237 16.3379 15.1499ZM17.1602 13.0318C17.1056 13.0891 17.0347 13.1466 17.0342 13.231C17.0332 13.4551 17.3911 15.3248 17.498 15.4068C17.5722 15.4637 17.6539 15.4636 17.7432 15.4575C17.807 15.3941 17.8745 15.3405 17.8789 15.2446C17.8883 15.0206 17.5299 13.2186 17.415 13.0991C17.3514 13.0333 17.2725 13.0289 17.1855 13.0308C17.1772 13.0309 17.1685 13.0312 17.1602 13.0318ZM18.1191 12.8657C18.0704 12.9136 17.9733 12.9946 17.9854 13.0689C18.1023 13.7717 18.2454 14.4884 18.4238 15.1782C18.4472 15.268 18.635 15.2851 18.707 15.2857C18.7397 15.2533 18.856 15.1493 18.8447 15.0825C18.7275 14.4099 18.5896 13.5774 18.376 12.937C18.356 12.8767 18.1906 12.8665 18.1191 12.8657ZM19.0645 12.6968C19.0187 12.7419 18.9154 12.8319 18.9268 12.9009C19.0425 13.6016 19.1978 14.3117 19.373 15.0005C19.396 15.0902 19.5629 15.1062 19.6387 15.106C19.6896 15.0583 19.789 14.974 19.7812 14.9136C19.7396 14.5874 19.4373 12.967 19.3154 12.7769C19.2214 12.7087 19.1838 12.7085 19.0645 12.6968ZM20.0146 12.5347C19.9785 12.5698 19.8623 12.672 19.8721 12.7378C19.9724 13.384 20.1367 14.0322 20.2646 14.6743C20.3079 14.8913 20.3834 14.9198 20.5938 14.9273C20.6456 14.868 20.7448 14.7767 20.7207 14.6646C20.5833 14.0202 20.4823 13.1993 20.251 12.5962C20.2333 12.5505 20.0714 12.5348 20.0146 12.5347ZM15.6875 13.1236C14.7547 13.4975 15.1011 14.8276 16.0703 14.6821C16.3117 14.5761 16.475 14.4649 16.5732 14.2017C16.6512 13.987 16.6348 13.7498 16.5293 13.5474C16.357 13.2096 16.049 13.0907 15.6875 13.1236ZM22.0205 14.0982C21.7775 14.1353 21.3341 14.1568 21.3125 14.482C21.3729 14.6711 21.4962 14.7058 21.6777 14.6831C21.9226 14.6407 22.3361 14.6169 22.3281 14.2896C22.2655 14.1674 22.1673 14.0752 22.0205 14.0982ZM21.3203 12.2095C20.8782 12.429 20.7113 12.8778 20.9551 13.3189C21.0482 13.4894 21.2071 13.6149 21.3945 13.6665C21.5074 13.6966 21.593 13.6847 21.707 13.6724C22.5447 13.2965 22.202 12.1078 21.3203 12.2095Z" fill="#BA9B31"/>
<path d="M15.0894 8.25187C15.2023 8.23362 15.3481 8.23895 15.4576 8.27336C15.6127 8.32339 15.7492 8.41889 15.8502 8.5468C16.0137 8.75039 16.2519 9.23302 16.3843 9.48625C16.6651 10.0312 16.9508 10.5741 17.2408 11.1142C17.2124 10.9764 17.1398 10.6936 17.1832 10.5702C17.2506 10.3788 17.8187 10.3482 17.9771 10.412C18.1344 10.603 18.1919 11.0325 18.2066 11.2782C18.211 11.3548 18.2181 11.5253 18.1441 11.5751C17.9983 11.667 12.2424 12.6305 11.5552 12.7489C11.035 12.8386 10.2592 12.8809 9.7984 13.0888C9.63768 13.1614 9.52852 13.3036 9.41559 13.4335L14.4673 12.6249C13.9797 13.0999 14.0455 13.4681 14.1793 14.078L12.1578 14.3954C11.7963 14.4525 11.4364 14.5009 11.0787 14.579C10.4407 14.7189 10.3829 15.2014 10.3062 15.747C10.2962 15.9045 10.2351 16.2357 10.2095 16.4023C10.1391 16.8383 10.0764 17.2762 10.023 17.7148C9.1147 17.7693 8.20677 17.8298 7.29938 17.8974C7.04127 17.2851 6.77448 16.6767 6.49859 16.0722C6.35052 15.7425 6.11778 15.1094 5.83648 14.9052C5.72357 14.8222 5.58949 14.7733 5.44977 14.7636C5.17518 14.7437 3.64918 15.0028 3.28082 15.0556C3.25171 14.9002 3.23457 14.7155 3.22516 14.5566C3.16194 13.4867 3.06257 12.4093 3.0318 11.3388C3.01399 10.7146 3.43343 10.5813 3.93316 10.4267C4.18093 10.35 4.44054 10.2697 4.69293 10.1923L6.71246 9.57512C6.97828 9.49414 7.56537 9.2832 7.81988 9.24992C10.2277 8.93572 12.6776 8.5186 15.0894 8.25187ZM5.10699 10.9032C4.91766 10.9513 3.71647 11.2485 3.70758 11.3964C3.66178 12.1584 3.78116 13.0468 3.83941 13.8193C3.84759 13.9276 4.02492 13.9514 4.11285 13.9384C4.34094 13.8959 5.39781 13.7392 5.52105 13.6181C5.54153 13.5378 5.56264 13.3871 5.5484 13.2782C5.45275 12.5462 5.40625 11.7137 5.23785 11.0038C5.22716 10.9587 5.14614 10.9179 5.10699 10.9032ZM7.44293 10.2099C7.10659 10.3055 6.09334 10.552 5.8902 10.7294C5.75491 11.1364 6.10211 12.6003 6.10602 13.1005C6.11096 13.7047 6.55397 13.4977 6.95172 13.4218C7.3573 13.3574 7.76464 13.2921 8.17047 13.2245C8.63666 13.1469 8.64744 13.0137 8.49664 12.5859C8.23321 11.8386 7.95318 11.0934 7.67047 10.3534C7.63282 10.2564 7.5412 10.2156 7.44293 10.2099ZM15.148 8.97258L11.0308 9.55851C10.2716 9.66641 9.51414 9.77579 8.75445 9.8925C8.22857 9.94023 8.53773 10.4516 8.64508 10.7587C8.77988 11.1443 8.93272 11.568 9.08551 11.9521C9.20211 12.2452 9.39796 12.1906 9.65094 12.1493C11.8099 11.7362 14.0009 11.4239 16.1636 11.0253C16.2405 11.0111 16.2738 10.982 16.3228 10.9257C16.3478 10.8602 16.3581 10.7997 16.3218 10.7343C16.0267 10.2022 15.7812 9.63527 15.4644 9.11711C15.3903 8.9959 15.2883 8.95444 15.148 8.97258Z" fill="#BA9B31"/>
<path d="M21.422 2.8802C22.4417 2.73284 23.3864 3.44287 23.5285 4.46313C23.6709 5.48341 22.9559 6.42468 21.935 6.56165C20.9214 6.69761 19.9884 5.98905 19.8471 4.97608C19.7061 3.96311 20.4097 3.0265 21.422 2.8802Z" fill="#BA9B31"/>
<path d="M17.3516 26.0245C18.3922 25.8015 19.3219 25.5037 20.3095 25.1023C21.1686 24.7527 21.9562 24.3992 22.8452 24.1429C24.7453 23.595 26.4039 24.0055 28.2666 24.3981C29.4163 24.6405 30.6931 24.8976 31.8683 25.0059L31.8134 25.0859C30.7876 25.1023 29.7617 25.0491 28.7431 24.9269C27.2463 24.7546 25.908 24.4801 24.386 24.6106C23.0992 24.7205 22.2254 25.0998 21.0262 25.4948C19.7269 25.9231 18.7144 26.058 17.3516 26.0245Z" fill="#BA9B31"/>
<path d="M4.28557 16.9445C4.45683 16.927 4.58263 16.9259 4.73186 17.0206C5.65624 17.6086 6.1005 20.4111 5.04045 20.9396C4.49663 21.0366 4.17321 20.461 3.99358 20.0392C3.65128 19.235 3.37814 17.4753 4.28557 16.9445ZM4.48577 17.7081C4.35071 17.8003 4.30041 17.8467 4.23967 18.004C4.03201 18.5412 4.234 19.9702 4.84612 20.1564C5.50212 19.7499 5.11607 17.7832 4.48577 17.7081Z" fill="#BA9B31"/>
<path d="M23.3585 12.1577C23.7823 12.1034 24.0009 12.3362 24.1397 12.7133C24.3924 13.4004 24.4982 13.5324 23.7419 13.6545C23.5053 13.6876 23.3072 13.7233 23.0729 13.7709C22.9587 13.2621 22.9014 12.7409 22.7695 12.236L23.3585 12.1577Z" fill="#BA9B31"/>
<path d="M21.6372 1C21.7355 1.01972 21.7405 1.01349 21.8161 1.08361C21.9339 1.31645 21.8857 1.79965 21.8616 2.05718C21.8508 2.17467 21.815 2.19847 21.7272 2.26579C21.6954 2.25773 21.6012 2.23667 21.5782 2.21165C21.4433 2.06408 21.4807 1.57152 21.4917 1.38449C21.5039 1.17708 21.4987 1.11954 21.6372 1Z" fill="#BA9B31"/>
<path d="M18.1111 4.53193C18.3829 4.53434 19.1242 4.425 19.2167 4.70422C19.1935 4.81652 19.1879 4.81927 19.1079 4.90648C18.8524 4.91279 18.0748 5.01807 18.0039 4.72801C18.0261 4.62047 18.0405 4.61232 18.1111 4.53193Z" fill="#BA9B31"/>
<path d="M21.6202 7.15454C21.7199 7.16637 21.721 7.1605 21.8036 7.22408C21.9379 7.43199 21.9329 8.21142 21.7623 8.39221C21.629 8.37456 21.6584 8.39656 21.5614 8.32544C21.4808 8.1833 21.47 7.90807 21.4833 7.74207C21.5021 7.51039 21.4526 7.32367 21.6202 7.15454Z" fill="#BA9B31"/>
<path d="M24.2645 4.53088C24.5283 4.53473 25.2962 4.42458 25.3621 4.72026C25.3361 4.82221 25.3192 4.83052 25.2461 4.90346C24.9765 4.90789 24.2252 5.01521 24.1523 4.72801C24.172 4.62418 24.1956 4.60931 24.2645 4.53088Z" fill="#BA9B31"/>
<path d="M19.7374 6.40576C19.838 6.41776 19.8352 6.41391 19.9283 6.46715C20.097 6.73621 19.4817 7.19187 19.2828 7.36584C18.626 7.2937 19.5875 6.54575 19.7374 6.40576Z" fill="#BA9B31"/>
<path d="M23.496 6.40186C23.7359 6.41906 24.2767 6.95888 24.3183 7.18946C24.3027 7.28417 24.2786 7.29664 24.2108 7.36426C23.9756 7.35066 23.4237 6.80621 23.3916 6.58279C23.4099 6.48602 23.4307 6.47388 23.496 6.40186Z" fill="#BA9B31"/>
<path d="M19.1961 2.05591C19.4272 2.12555 19.9613 2.60961 19.9657 2.86329C19.928 2.96274 19.9012 2.97061 19.8139 3.03045C19.6075 2.94346 19.0665 2.45747 19.0557 2.22182C19.0922 2.12204 19.1108 2.11688 19.1961 2.05591Z" fill="#BA9B31"/>
<path d="M24.0906 2.05591C24.1848 2.07209 24.1882 2.08029 24.2679 2.12835C24.4311 2.39386 23.8216 2.83753 23.6277 3.01629C23.5252 3.0051 23.5252 2.99845 23.4391 2.94795C23.4114 2.90332 23.3884 2.88631 23.392 2.8401C23.4089 2.61596 23.9197 2.21041 24.0906 2.05591Z" fill="#BA9B31"/>
</g>
<defs>
<clipPath id="clip0_2034_6349">
<rect width="28" height="28" fill="white"/>
</clipPath>
</defs>
</svg>
