<svg width="36" height="36" viewBox="0 0 36 36" fill="none" xmlns="http://www.w3.org/2000/svg">
<rect width="36" height="36" rx="4" fill="#BA9B31"/>
<path d="M17.7167 7.45857C18.5502 7.43296 19.3839 7.50662 20.2 7.67801C22.3996 8.14274 24.3898 9.30656 25.8734 10.9956C26.5253 11.7323 27.075 12.5454 27.4955 13.4363C28.4789 15.5241 28.7437 17.8788 28.2486 20.1327C27.6547 22.8643 25.9911 25.2438 23.6298 26.7395C21.2967 28.225 18.4684 28.7212 15.769 28.1184C14.9271 27.9337 14.1224 27.6446 13.3555 27.2505C13.1257 27.1324 13.0813 27.0933 12.8237 27.1593C12.3859 27.2715 11.9491 27.3872 11.5119 27.5018L9.01013 28.1567L8.0665 28.4038C7.9124 28.4432 7.60652 28.5031 7.48438 28.5677C7.54007 28.4465 7.64375 28.0211 7.68733 27.861L8.07132 26.4634L8.69476 24.1945L8.85945 23.5993C8.90178 23.4477 8.95698 23.2725 8.97441 23.1187C8.80748 22.7672 8.63325 22.4802 8.46414 22.0969C7.94322 20.898 7.65184 19.6121 7.60508 18.3058C7.49035 15.5169 8.50441 12.7995 10.4181 10.7675C12.3093 8.73109 14.9388 7.539 17.7167 7.45857ZM22.9977 21.9095C23.2419 21.5745 23.3708 20.9434 23.3344 20.5306C23.326 20.4365 23.2832 20.345 23.1974 20.3002C22.6405 20.0092 22.0619 19.7261 21.4923 19.4609C21.1539 19.3033 20.9974 19.1922 20.6197 19.2098L20.6066 19.2176C20.4424 19.3175 20.2522 19.6163 20.1302 19.7664C19.4317 20.6265 19.5429 20.7203 18.5355 20.2312C17.2925 19.6476 16.2881 18.6654 15.5741 17.5019C15.5254 17.4226 15.3883 17.1993 15.4279 17.1059C15.6323 16.6226 16.3256 16.2476 16.2865 15.6619C16.2779 15.5344 16.1617 15.2884 16.1101 15.1643L15.8582 14.5575L15.5761 13.8789C15.4892 13.6699 15.313 13.1623 15.0784 13.1249C14.9025 13.0968 14.4533 13.0631 14.28 13.0939C14.0213 13.1245 13.8819 13.1909 13.6936 13.3641C12.3655 14.586 12.5589 16.4254 13.4789 17.8138C13.6033 18.0015 13.7338 18.1871 13.8635 18.3724C14.5836 19.4216 15.4566 20.3574 16.4535 21.1484C17.0074 21.5746 17.6083 21.9358 18.2444 22.225C18.3143 22.2561 18.3881 22.2866 18.4597 22.3134C19.0269 22.5257 19.6131 22.7874 20.2134 22.8836C20.5625 22.9387 20.9177 22.9429 21.268 22.896C21.8959 22.8165 22.5994 22.3969 22.9977 21.9095Z" fill="white"/>
</svg>
