<svg width="72" height="72" viewBox="0 0 72 72" fill="none" xmlns="http://www.w3.org/2000/svg">
<path d="M35.8533 12C37.3952 12.1112 57.3221 19.8636 59.8055 20.9395C60.3095 28.7468 59.6434 37.2511 59.8924 45.1416C60.0085 48.8066 59.9717 53.043 59.8181 56.6777C57.7125 57.2443 53.2852 57.7012 50.949 58.0039C46.0176 58.6707 41.0795 59.2837 36.1336 59.8428C35.0859 59.8795 28.7948 59.0555 27.3426 58.8281C22.5834 58.0828 16.702 57.6775 12.115 56.707C11.92 52.6096 12.032 47.7732 12.032 43.626L12.0447 20.9316C19.3392 17.8874 28.3369 14.7515 35.8533 12ZM42.6189 34.2656C42.5795 36.5137 42.6211 40.9891 42.3846 43.1055C40.4862 45.2124 38.0048 46.4649 35.5672 44.4688C34.5963 43.6725 33.742 41.5333 32.9578 41.1221C31.5304 41.904 31.5007 46.7442 26.3513 45.1758C24.6213 44.6482 24.3743 41.9673 23.3142 41.3311C22.887 41.4142 22.6712 41.4071 22.4119 41.8496C21.5551 43.3172 21.1336 44.9359 19.2166 45.2969C17.3391 45.6502 15.2438 45.0457 14.4451 43.1699C13.9493 43.7161 14.2395 51.1925 14.2478 52.6074L21.864 53.3486C26.3184 53.7839 31.2338 54.3282 35.6736 54.5938C37.4083 54.6972 42.1774 54.1244 44.198 53.9307L57.6853 52.5996C57.6895 49.4051 57.6713 46.1808 57.7107 42.9893C55.1402 46.3045 50.7209 46.2296 48.2644 42.8369C48.0529 40.3057 48.0569 37.6555 48.0154 35.1094C46.5424 34.9011 43.9322 34.3835 42.6189 34.2656ZM35.8328 21.5391C28.8889 24.0856 20.9826 26.7412 14.2068 29.4531L14.2771 33.0723L29.3992 27.5293C30.3618 27.1772 35.3637 25.2954 36.1482 25.209L57.7166 33.1104L57.6922 29.4189C55.4743 28.6088 36.5444 21.5214 35.8328 21.5391Z" fill="#282828"/>
</svg>
