<svg width="36" height="36" viewBox="0 0 36 36" fill="none" xmlns="http://www.w3.org/2000/svg">
<path d="M17.9269 6C18.6984 6.05584 28.6597 9.93139 29.9025 10.4697C30.1545 14.3734 29.8219 18.626 29.9464 22.5713C30.0045 24.4037 29.986 26.5216 29.9093 28.3389C28.8565 28.6221 26.6428 28.8506 25.4747 29.002C23.009 29.3353 20.5395 29.6413 18.0665 29.9209C17.5419 29.9391 14.3987 29.5278 13.672 29.4141C11.2924 29.0414 8.35125 28.8387 6.05773 28.3535C5.96023 26.3049 6.01573 23.887 6.01574 21.8135L6.02257 10.4658C9.6698 8.9437 14.1687 7.37576 17.9269 6ZM21.3097 17.1328C21.29 18.2569 21.3108 20.4946 21.1925 21.5527C20.2434 22.6061 19.003 23.2321 17.7843 22.2344C17.2988 21.8363 16.8707 20.7671 16.4786 20.5615C15.7653 20.9531 15.7502 23.372 13.1759 22.5879C12.3109 22.3242 12.1873 20.9843 11.6573 20.666C11.4437 20.7076 11.3358 20.7036 11.2062 20.9248C10.7777 21.6586 10.567 22.4679 9.60851 22.6484C8.66975 22.8251 7.62213 22.5229 7.22277 21.585C6.97486 21.858 7.11997 25.5962 7.12414 26.3037L10.9327 26.6738C13.1598 26.8915 15.6173 27.1641 17.837 27.2969C18.7043 27.3486 21.0882 27.0627 22.0987 26.9658L28.8429 26.2998C28.845 24.7027 28.8359 23.0908 28.8556 21.4951C27.5703 23.1526 25.3601 23.1152 24.1319 21.4189C24.0261 20.1533 24.0287 18.8278 24.0079 17.5547C23.2714 17.4505 21.9663 17.1917 21.3097 17.1328ZM17.9171 10.7695C14.4452 12.0428 10.4915 13.3706 7.10363 14.7266L7.13879 16.5361L14.7003 13.7646C15.1827 13.5882 17.6823 12.6476 18.0743 12.6045L28.8585 16.5557L28.8458 14.71C27.7371 14.305 18.2808 10.7638 17.9171 10.7695Z" fill="#BA9B31"/>
</svg>
