<svg width="36" height="36" viewBox="0 0 36 36" fill="none" xmlns="http://www.w3.org/2000/svg">
<rect width="36" height="36" rx="4" fill="#BA9B31"/>
<path d="M18.1502 7.0026C19.9716 6.97124 21.7313 7.66669 23.0388 8.93522C24.464 10.3092 25.2859 12.1924 25.324 14.1715C25.3516 16.6591 23.9395 19.1096 22.7752 21.2438C21.7383 23.1344 20.668 25.0069 19.5642 26.859L18.9919 27.819C18.8218 28.1106 18.4918 28.7208 18.281 28.9362C18.167 29.0247 18.0244 29.0219 17.9353 28.9118C17.2308 28.0411 16.7288 26.8713 16.1853 25.9128C15.2732 24.3042 14.3511 22.7546 13.4578 21.1413C12.8578 20.0578 12.2764 18.9673 11.7976 17.8268C11.3522 16.75 11.0678 15.5784 11.0085 14.4128C10.9176 12.6011 11.5554 10.828 12.7791 9.48893C14.1121 7.99159 15.994 7.09607 17.9968 7.00651C18.0478 7.00416 18.099 7.00331 18.1502 7.0026ZM17.9851 10.1315C17.9582 10.1324 17.931 10.1341 17.9041 10.1364C16.7804 10.2401 15.8035 10.7118 15.0789 11.5876C14.4543 12.3515 14.1607 13.3337 14.2634 14.3151C14.3777 15.439 14.9304 16.4728 15.8015 17.1921C16.5094 17.78 17.406 18.0928 18.3259 18.0729C19.3335 18.0525 20.3021 17.596 20.9929 16.8678C23.0705 14.6776 21.5588 10.5022 18.5574 10.153C18.3619 10.1303 18.1808 10.1254 17.9851 10.1315Z" fill="white"/>
</svg>
