<svg width="72" height="72" viewBox="0 0 72 72" fill="none" xmlns="http://www.w3.org/2000/svg">
<path d="M36.2525 2.59343C46.0162 2.11751 49.3773 9.29856 49.9859 17.6891C50.0343 18.3941 50.0621 19.1008 50.0699 19.8073C50.0734 20.0267 50.0772 21.0127 50.1148 21.1823C50.3254 22.13 51.0404 22.8588 51.0885 23.9606C51.1342 25.0275 50.1463 25.6817 50.1402 26.7233C50.1334 27.825 50.4545 28.9209 50.5816 30.0524C50.7536 31.5816 50.7234 32.9335 50.7847 34.444C51.9244 35.4713 52.0863 37.7212 52.1295 39.1842C52.4363 39.2889 52.8136 39.5202 53.0797 39.6999C55.7438 41.5033 56.4616 44.7651 56.15 47.7985C55.8993 49.7984 55.4066 51.675 55.0025 53.6706C54.4904 56.1987 54.4932 59.6504 53.0631 61.8259C51.9708 63.488 49.4976 64.4886 47.69 65.1598C43.583 66.6851 39.2385 67.5205 34.9361 68.2907C32.9103 68.6261 30.855 69.0179 28.8394 69.3952C27.9414 69.5631 26.8754 69.0747 26.2125 68.4811C25.1617 67.5397 24.3582 66.2327 23.5142 65.1003C22.6351 63.8918 21.6604 62.9706 20.8746 61.6999C19.4334 59.3693 18.8165 56.5977 17.6939 54.1413C16.695 51.9551 15.5863 50.8311 15.4429 48.2282C15.3148 45.899 16.0478 43.6709 17.8228 42.0925C18.6938 41.318 19.5592 40.7447 20.3609 39.8522C21.5419 38.5375 20.6067 37.8548 20.5338 36.3395C20.2907 31.2864 20.511 25.4375 21.982 20.5846C22.4514 19.0364 23.7206 17.3148 24.1402 15.5651C24.4204 14.3965 24.2012 14.1421 24.3179 13.1051C24.5854 10.7297 25.626 8.20051 27.2174 6.4196C29.6004 3.75297 32.6733 2.80631 36.108 2.60124C36.1561 2.59823 36.2044 2.59562 36.2525 2.59343ZM20.2183 44.194C20.1274 44.672 20.2248 46.0927 20.2681 46.6188C20.6271 50.9801 21.9606 55.4175 24.4342 59.0544C25.4248 60.5105 27.3054 62.5619 28.8385 63.4303C28.6418 63.0685 27.664 62.2002 27.3297 61.8063C23.9168 57.7856 22.1346 52.811 20.9293 47.7477C20.7556 47.0008 20.6045 46.2483 20.4761 45.4919C20.4236 45.1999 20.3048 44.4429 20.2183 44.194ZM51.8775 40.1384C51.7012 41.4743 51.6778 42.8822 51.5347 44.2311C50.9802 49.4474 50.5949 55.0122 48.272 59.7936C48.1687 60.0054 48.0187 60.196 47.9556 60.4225L47.9908 60.4391L48.0933 60.3454C51.9157 55.6499 52.4841 46.5896 51.9957 40.7673C51.984 40.6293 51.9543 40.2329 51.8775 40.1384ZM21.2086 41.3444C21.3259 42.1743 21.7582 43.4673 22.0406 44.2643C23.54 48.496 25.9999 52.4704 29.6236 55.194C33.2712 57.9355 37.5282 58.8574 42.0113 58.2155C43.7384 57.9583 45.4298 57.5018 47.0523 56.8561C47.2117 56.787 47.3712 56.7172 47.5289 56.6442C46.2694 56.8832 45.1954 57.2435 43.8404 57.4518C39.1541 58.1719 34.6506 57.5913 30.6832 54.8561C26.8857 52.238 24.3589 48.4209 22.4322 44.2956C22.2406 43.8855 21.2958 41.4497 21.2086 41.3444ZM49.0474 36.6364C48.6213 42.2672 46.2935 46.84 42.8853 51.2731C42.5171 51.752 42.0901 52.2353 41.7525 52.7301C42.1039 52.4963 42.3889 52.2073 42.7027 51.9294C46.7066 48.3811 50.058 42.1968 49.2017 36.6852L49.0474 36.6364ZM22.9361 30.4821C22.844 30.6337 22.8617 30.7599 22.858 30.944C22.885 31.2494 23.0763 32.0952 23.1451 32.4098C23.4751 33.9335 23.8877 35.4382 24.3824 36.9167C25.9319 41.5909 28.857 47.2695 33.4556 49.5925C35.152 50.4496 37.7346 50.9236 39.566 50.3141C37.5661 50.4058 35.8908 50.2009 34.0982 49.2194C28.0623 45.9144 24.7971 36.6504 22.9361 30.4821ZM24.1285 20.7819C24.0474 21.5242 24.0746 22.1792 24.109 22.9206C24.3399 27.8968 25.8917 32.8925 29.0357 36.8073C30.3943 38.5073 32.0722 39.9257 33.9752 40.9821C34.4518 41.2513 35.0562 41.5792 35.5719 41.7409C35.3935 41.5304 34.7654 41.1644 34.5123 40.9928C28.1493 36.6799 25.2203 29.0545 24.2926 21.6921C24.2694 21.5084 24.2093 20.9348 24.1285 20.7819ZM49.0181 23.4128C48.936 23.8873 48.9163 24.3736 48.8502 24.8503C48.1192 30.1336 44.9864 34.6513 40.9449 37.9997C40.7322 38.1756 40.0897 38.6593 39.9625 38.8219C40.0193 38.8452 39.996 38.8457 40.0308 38.8405C43.7853 37.0579 46.9749 33.527 48.3629 29.6169C48.8992 28.106 49.5308 24.8868 49.0269 23.3639L49.0181 23.4128ZM40.4508 9.81999C39.177 9.11932 37.8843 8.88487 36.439 8.99773C34.5504 9.19357 32.912 10.0232 31.7095 11.5065C31.2884 12.0273 30.9398 12.6034 30.6744 13.2184C30.1537 14.4212 29.8429 15.8847 29.3795 17.1452C28.7544 18.8454 27.9297 20.4874 27.5347 22.2516C27.2402 23.7612 27.2417 25.2856 27.3873 26.8151C27.8791 31.9781 31.7822 35.4964 36.1812 37.6364C36.6066 37.8433 37.3243 37.7948 37.7838 37.7096C38.4468 37.5194 39.0074 37.1336 39.5904 36.7809C41.9219 35.3554 44.0576 33.6645 45.4049 31.2292C46.7278 28.8375 46.9679 26.5517 46.8482 23.9098C46.7298 21.2963 45.7587 19.7692 44.9058 17.4274C43.8391 14.4985 43.5478 11.431 40.4508 9.81999Z" fill="#C52B20"/>
</svg>
