<svg width="26" height="26" viewBox="0 0 26 26" fill="none" xmlns="http://www.w3.org/2000/svg">
<path d="M17.6949 13C17.0969 13 16.6115 12.5147 16.6115 11.9167V7.22224C16.6115 5.23179 14.9909 3.61112 13.0004 3.61112C11.01 3.61112 9.38932 5.23179 9.38932 7.22224V11.9167C9.38932 12.5147 8.90399 13 8.30599 13C7.70799 13 7.22266 12.5147 7.22266 11.9167V7.22224C7.22266 4.03579 9.81399 1.44446 13.0004 1.44446C16.1869 1.44446 18.7782 4.03579 18.7782 7.22224V11.9167C18.7782 12.5147 18.2929 13 17.6949 13Z" fill="white"/>
<path d="M18.4169 10.8334H7.58355C5.39233 10.8334 3.61133 12.6144 3.61133 14.8056V20.5834C3.61133 22.7746 5.39233 24.5556 7.58355 24.5556H18.4169C20.6081 24.5556 22.3891 22.7746 22.3891 20.5834V14.8056C22.3891 12.6144 20.6081 10.8334 18.4169 10.8334ZM14.0836 18.4167C14.0836 19.0147 13.5982 19.5 13.0002 19.5C12.4022 19.5 11.9169 19.0147 11.9169 18.4167V16.9723C11.9169 16.3743 12.4022 15.8889 13.0002 15.8889C13.5982 15.8889 14.0836 16.3743 14.0836 16.9723V18.4167Z" fill="white"/>
</svg>
