<svg width="64" height="64" viewBox="0 0 64 64" fill="none" xmlns="http://www.w3.org/2000/svg">
<path d="M47.0825 38.3773L47.0942 44.014L50.5991 44.0131L50.5952 47.4515C53.934 47.5443 57.7255 47.4605 61.0981 47.4574L61.1099 61.9105C56.425 61.9924 51.5204 61.9185 46.8179 61.9193L3.65381 61.9154L3.67041 47.4672L14.106 47.473C14.1162 46.3192 14.139 45.1655 14.1743 44.0121L18.0063 44.0238C17.9858 42.1373 17.9846 40.2501 18.0024 38.3636L47.0825 38.3773ZM32.2847 48.5482C29.3061 49.0721 28.7063 50.806 28.7222 53.6293C28.7337 55.6276 28.7825 57.6661 28.7798 59.6644H33.188L36.0972 59.6449C36.037 55.4703 37.5442 49.1688 32.2847 48.5482ZM40.0034 40.1459C39.0611 41.1608 38.9207 42.667 39.606 43.8666C40.1478 44.1643 40.2101 44.048 40.9272 44.0258L41.2671 43.9183C41.7826 42.8542 41.7104 40.3387 40.0034 40.1459ZM43.8687 40.1898C43.1222 40.9634 42.6817 43.1764 43.3853 43.9877C44.0377 44.0599 44.382 44.0611 45.0405 44.0463C45.6314 43.56 45.8428 40.3053 43.8687 40.1898ZM32.2261 40.1508C31.4986 40.9259 31.0626 43.1833 31.7661 43.974C32.3923 44.0721 32.7379 44.0526 33.3677 44.0365C33.8565 43.5352 34.158 40.2379 32.2261 40.1508ZM20.4956 40.1635C19.7103 40.8786 19.3834 43.2115 20.0093 43.9789C20.5925 44.0507 20.8692 44.0529 21.4556 44.0424L21.7856 43.934C22.1958 42.6897 22.2676 40.3274 20.4956 40.1635ZM24.4829 40.1361C23.6935 40.8785 23.2503 43.1949 23.9429 43.973C24.5523 44.0606 24.8132 44.0498 25.4224 44.0336L25.7036 43.9095C26.0166 42.6196 26.1949 40.4039 24.4829 40.1361ZM28.3618 40.1254C27.5698 40.8854 27.1713 43.1377 27.8442 43.9681C28.4201 44.0413 28.6954 44.0446 29.2749 44.0365L29.6079 43.9252C30.0248 42.7177 30.0351 40.3836 28.3618 40.1254ZM36.0317 40.1312C35.4228 40.957 34.917 43.1676 35.6255 43.973C36.2512 44.0488 36.5833 44.0444 37.2144 44.0326C37.7241 43.6242 38.1995 40.2596 36.0317 40.1312Z" fill="#CD0B02"/>
<path d="M11.623 24.6368L14.5078 24.6749L14.4854 26.84C13.8457 27.6231 12.5436 29.8885 11.9492 30.1378C9.79826 30.1999 7.40061 30.1474 5.23145 30.1437C4.68477 29.1192 3.71093 27.8096 3.02246 26.8292L3 24.6779L5.80371 24.6456C5.78327 22.0753 5.79754 19.5046 5.84668 16.9347L11.6074 16.9279L11.623 24.6368ZM8.30371 19.6271C7.13625 20.7642 7.63875 23.0664 7.63574 24.6486L9.43164 24.6613L9.78906 24.5118C10.1198 23.3464 10.2195 20.5338 9.10938 19.7491C8.84074 19.6945 8.57611 19.6251 8.30371 19.6271Z" fill="#CD0B02"/>
<path d="M58.7529 16.9042C58.8105 19.4646 58.7427 22.0192 58.8213 24.6053L61.667 24.6298L61.6328 26.8622C60.8371 27.7504 59.7458 29.9619 59.0547 30.1093L52.416 30.118C51.9221 29.1902 50.8341 27.7185 50.1982 26.8085C50.1584 26.1274 50.1579 25.3682 50.1416 24.6796C51.025 24.621 52.0839 24.6434 52.9814 24.6395L52.9844 16.9208C54.887 16.9406 56.8461 16.9114 58.7529 16.9042ZM55.4893 19.6161C54.3831 20.8579 54.8064 22.9169 54.8057 24.6444L56.6436 24.6669L56.9404 24.4833C57.1245 23.363 57.2828 21.1331 56.6348 20.1112C56.3888 19.7234 55.9385 19.6748 55.4893 19.6161Z" fill="#CD0B02"/>
<path d="M52.5604 32.0247C54.5221 31.9143 57.1833 31.9905 59.1983 31.9948C59.2007 33.9941 59.4843 44.272 59.0837 45.679C56.9056 45.6922 54.7277 45.6767 52.5501 45.6327C52.5193 41.0967 52.5227 36.5606 52.5604 32.0247Z" fill="#CD0B02"/>
<path d="M5.46462 32.0195C7.51898 31.9233 9.97332 31.9795 12.0607 31.9815L12.0529 45.6447L5.49834 45.6428C5.39846 41.1845 5.46 36.4878 5.46462 32.0195Z" fill="#CD0B02"/>
<path d="M55.8259 1.97668C56.0967 2.20081 56.2755 2.98105 56.3846 3.34785C57.6628 7.64345 58.9482 10.6515 58.7392 15.1912L56.0243 15.1942L52.9475 15.1856C52.8639 10.7066 54.3138 6.21076 55.8259 1.97668Z" fill="#CD0B02"/>
<path d="M8.6758 1.94922C8.91799 2.17995 9.03103 2.72593 9.13029 3.05023C10.49 7.49295 11.7106 10.482 11.5983 15.1752L8.78763 15.1749L5.8101 15.1981C5.6744 10.8393 7.1691 6.06778 8.6758 1.94922Z" fill="#CD0B02"/>
<path d="M33.0267 10.583C32.1347 11.4236 31.4901 11.7543 31.3285 12.9707L31.4711 13.2939C31.8189 14.0455 32.2787 14.7668 33.0805 15.1045C33.9149 15.2032 34.9 14.209 35.6566 14.5137C35.4406 15.4762 34.0339 16.0074 33.2152 16.2744L33.2416 18.8496C34.1889 19.7753 34.2545 19.8859 34.2982 21.2051C39.973 26.2587 47.0233 27.0096 45.7689 36.498C42.4766 36.6056 38.8742 36.5331 35.557 36.5342L19.5424 36.5088C18.147 27.6731 25.3134 25.8067 31.0248 21.208C31.1304 20.1972 31.3204 19.7169 31.9642 18.9609C32.0486 18.0624 32.0648 17.1123 32.0971 16.207C30.1848 14.9818 29.5297 13.8902 30.6215 11.6953L30.932 11.4053C31.5985 10.8054 31.9193 10.7019 32.9887 10.459L33.0267 10.583Z" fill="#CD0B02"/>
</svg>
