<svg width="56" height="56" viewBox="0 0 56 56" fill="none" xmlns="http://www.w3.org/2000/svg">
<path d="M24.7113 19.6749C25.6736 19.6712 26.511 19.8068 27.4482 19.983C27.5689 20.5211 27.7323 21.2977 27.7549 21.8496C27.7785 21.985 27.8799 22.7424 27.786 22.8068L24.7109 22.808L24.7113 19.6749Z" fill="#282828"/>
<path d="M27.7499 21.8514C27.7736 21.9868 27.8749 22.7442 27.781 22.8086L27.7411 22.7796C27.7092 22.6665 27.723 21.9929 27.7499 21.8514Z" fill="#282828"/>
<path d="M20.1094 24.2783L23.2373 24.2754C23.2541 25.2766 23.2355 26.3059 23.2429 27.3121C22.3864 27.3499 21.3114 27.1663 20.4774 27.0032C20.2554 25.9855 20.1645 25.3172 20.1094 24.2783Z" fill="#282828"/>
<path d="M23.0132 19.7657C23.1042 19.7521 23.1377 19.7396 23.226 19.7679C23.2569 19.8676 23.2429 20.5883 23.2426 20.7284L23.2429 22.808L20.4677 22.8071L20.1094 22.8048C20.1557 21.8495 20.2515 21.1828 20.4345 20.2495C21.3217 20.0447 22.113 19.8805 23.0132 19.7657Z" fill="#282828"/>
<path d="M27.7537 24.2816L27.8183 24.3007C27.8487 24.4892 27.7928 24.9612 27.7712 25.1756C27.717 25.6995 27.6369 26.2204 27.5316 26.7364C26.5575 26.9803 25.6966 27.1222 24.7109 27.2647L24.7147 24.2754C25.7252 24.2882 26.7413 24.268 27.7537 24.2816Z" fill="#282828"/>
<path d="M27.7505 24.2812L27.8151 24.3004C27.8454 24.4888 27.7896 24.9608 27.768 25.1752C27.7215 25.0796 27.7028 24.3936 27.7505 24.2812Z" fill="#282828"/>
<path d="M16.4868 20.5657C17.2659 20.95 18.0587 20.7885 18.8784 20.6218C18.7636 21.2169 18.7075 21.8407 18.6645 22.4447C18.6561 22.5631 18.659 22.6752 18.634 22.792L18.5823 22.812L15.9609 22.8128C16.0154 22.0208 16.2238 21.306 16.4868 20.5657Z" fill="#282828"/>
<path d="M29.3057 24.2756L31.9864 24.2754C31.9447 24.9972 31.7369 25.7287 31.5004 26.4091C31.4284 26.439 30.9671 26.2213 30.7123 26.2048C30.1146 26.1663 29.6629 26.2599 29.0859 26.3697C29.2112 25.6683 29.2604 24.9852 29.3057 24.2756Z" fill="#282828"/>
<path d="M27.0357 28.3595C27.041 28.4779 26.7968 28.984 26.7332 29.1189C26.2618 30.1198 25.6968 30.9108 24.7136 31.4417C24.6845 30.5813 24.7082 29.5998 24.7102 28.7279C25.5164 28.6606 26.2459 28.5162 27.0357 28.3595Z" fill="#282828"/>
<path d="M16.6992 27.0065C16.8382 27.0608 17.3242 27.3822 17.5207 27.4838C18.1269 27.798 18.6417 27.986 19.2836 28.2081C19.6663 29.3032 19.8577 29.7748 20.4565 30.7786C20.2544 30.7185 19.8069 30.4402 19.6272 30.3251C18.3647 29.509 17.3516 28.3608 16.6992 27.0065Z" fill="#282828"/>
<path d="M23.2038 15.6624C23.2716 15.7563 23.2445 17.9626 23.2445 18.2654C22.4908 18.3458 21.7418 18.4656 21.0007 18.6244C20.9852 18.6217 20.9973 18.6253 20.9531 18.6013C20.9696 18.4608 21.1705 18.0467 21.237 17.9109C21.6884 16.9904 22.2705 16.1413 23.2038 15.6624Z" fill="#282828"/>
<path d="M30.0874 27.6934C30.2749 27.6572 30.6324 27.6048 30.7447 27.7851C30.7529 28.0003 30.5236 28.2431 30.393 28.4112C29.7461 29.2435 28.9045 30.009 27.9809 30.5266C27.849 30.6091 27.6317 30.7155 27.4883 30.7907C28.1033 29.7491 28.3815 29.1302 28.7326 27.9663C29.0755 27.8553 29.7341 27.7375 30.0874 27.6934Z" fill="#282828"/>
<path d="M20.9922 28.6067C21.8615 28.7219 22.3861 28.7445 23.2411 28.803L23.2464 31.4181C23.2108 31.4155 23.2144 31.4179 23.172 31.3982C22.1211 30.9162 21.3983 29.6049 20.9922 28.6067Z" fill="#282828"/>
<path d="M27.4961 16.3132C27.7273 16.3857 28.0842 16.6102 28.2928 16.7433C29.5308 17.5323 30.5312 18.6427 31.1871 19.956C31.1092 19.9227 30.968 19.8363 30.893 19.7882C30.1729 19.3268 29.4387 19.0573 28.6333 18.7831C28.3188 17.8134 28.018 17.1731 27.4961 16.3132Z" fill="#282828"/>
<path d="M29.0703 20.5043C29.4145 20.6451 29.7484 20.8103 30.0692 20.9987C30.6693 21.3555 31.6048 22.0915 31.7849 22.8054C31.0039 22.8304 30.0987 22.8081 29.3076 22.8083C29.2903 22.361 29.2539 21.9146 29.1988 21.4703C29.1618 21.1939 29.0823 20.7617 29.0703 20.5043Z" fill="#282828"/>
<path d="M20.3969 16.325L20.4121 16.3281C20.4327 16.3781 20.2268 16.6896 20.1844 16.7656C19.787 17.4784 19.4776 18.242 19.2498 19.0245C18.7779 19.1779 17.7558 19.3617 17.2809 19.3136C17.206 19.2828 17.2345 19.3069 17.1914 19.2402C17.2253 19.1095 17.4758 18.7844 17.5669 18.6634C18.3327 17.647 19.2741 16.9098 20.3969 16.325Z" fill="#282828"/>
<path d="M24.7137 15.6506C25.7859 16.1427 26.4869 17.3459 26.9215 18.3905C26.1192 18.2638 25.5174 18.2266 24.7092 18.2016C24.7032 17.3863 24.6879 16.4591 24.7137 15.6506Z" fill="#282828"/>
<path d="M16.1836 24.2757C16.997 24.2851 17.8237 24.2791 18.6375 24.2754C18.6696 25.016 18.7494 25.7539 18.8764 26.4843L18.8431 26.4733C17.8185 26.1247 16.669 25.281 16.1836 24.2757Z" fill="#282828"/>
<path d="M15.5039 7.79222L18.2881 7.7932H26.8682L31.7168 7.79222C32.3992 7.79139 33.8416 7.75322 34.459 7.843C35.3378 7.97282 36.1646 8.34213 36.8477 8.91039C37.8544 9.74153 38.4828 10.9442 38.5908 12.2453C38.6392 12.8305 38.6121 13.7799 38.6113 14.3869L38.6104 18.1301V30.136L38.6113 39.4455V42.2707C38.6113 42.7476 38.6305 43.4844 38.5762 43.9387C38.4623 44.8794 38.0745 45.7656 37.4619 46.4885C36.5685 47.5348 35.4036 48.104 34.0391 48.2073C33.5255 48.2264 32.9328 48.2141 32.4131 48.2141H29.5049L20.6904 48.2131L16.0908 48.2141C15.3945 48.2149 14.0567 48.2536 13.4385 48.1565C12.5505 48.0163 11.7196 47.6306 11.0391 47.0432C10.0627 46.2096 9.45771 45.022 9.35744 43.7424C9.31299 43.152 9.34025 42.2195 9.34084 41.6096L9.34181 37.717V25.468L9.34084 16.3664V13.6243C9.34099 13.1985 9.3227 12.4664 9.37404 12.0598C9.4941 11.105 9.89323 10.2067 10.5215 9.47777C11.4134 8.44926 12.5836 7.8973 13.9317 7.80101C14.3674 7.75572 15.0517 7.79178 15.5039 7.79222ZM14.669 40.6702C14.2488 40.8055 14.0973 41.2223 14.2412 41.6213C14.2943 41.7708 14.4094 41.8897 14.5567 41.9485C14.7882 42.041 17.9217 41.9927 18.4639 41.9924H30.5869C31.4395 41.9924 32.4434 42.0187 33.2842 41.9866C33.4526 41.935 33.576 41.8712 33.6563 41.7082C33.8708 41.272 33.716 40.6692 33.1582 40.6662C31.9604 40.6601 30.7677 40.6626 29.5723 40.6623H22.625L17.3916 40.6633C16.5447 40.663 15.4928 40.6305 14.669 40.6702ZM31.3457 37.9494H19.3233C17.7753 37.9494 16.19 37.9331 14.6445 37.9534C14.4695 38.0249 14.3406 38.1043 14.2666 38.2854C14.183 38.4901 14.1848 38.7547 14.2774 38.9563C14.3327 39.0768 14.4313 39.1842 14.5596 39.2268C14.8701 39.3297 17.1362 39.2683 17.6738 39.2678H24.2813L30.25 39.2688C31.1448 39.2688 32.4643 39.3081 33.3272 39.26C33.9637 38.9858 33.7902 38.056 33.4317 38.0002C32.8505 37.9101 31.9684 37.9494 31.3457 37.9494ZM29.6953 35.2307H20.666L16.6631 35.2297C16.1135 35.2292 15.1349 35.1986 14.6094 35.2414C13.9534 35.5572 14.1792 36.4664 14.5733 36.5159C15.221 36.5972 16.0926 36.5567 16.7656 36.5559L21.2373 36.5539L29.2412 36.5549H31.834C32.2864 36.5549 32.8667 36.5693 33.3106 36.5432C33.4689 36.482 33.6206 36.3894 33.6865 36.2239C33.763 36.0321 33.7579 35.7171 33.668 35.5344C33.6145 35.4252 33.5125 35.3144 33.3955 35.2737C33.1056 35.1734 30.2238 35.2307 29.6953 35.2307ZM23.544 14.0295C18.2895 14.2707 14.2256 18.7266 14.4678 23.9807C14.7102 29.2347 19.1667 33.2971 24.4209 33.0539C29.6736 32.8106 33.7351 28.356 33.4932 23.1037C33.2509 17.8513 28.7968 13.7886 23.544 14.0295Z" fill="#282828"/>
<path d="M39.2188 10.6508C39.3081 10.6825 39.389 10.7181 39.4762 10.7552L43.3546 12.4145C44.1903 12.7715 45.6374 13.3229 46.3101 13.8251C47.0297 14.3592 47.5875 15.0819 47.9218 15.9133C48.2735 16.7904 48.3653 17.7503 48.1857 18.6781C48.0389 19.4047 47.675 20.1498 47.3805 20.8373L46.3415 23.2668L42.2727 32.7749L39.6425 38.9119L39.6428 20.8448V15.1351L39.6441 13.3216C39.6444 12.1671 39.6382 11.7546 39.2188 10.6508Z" fill="#282828"/>
</svg>
