<svg width="36" height="36" viewBox="0 0 36 36" fill="none" xmlns="http://www.w3.org/2000/svg">
<rect width="36" height="36" rx="4" fill="#BA9B31"/>
<path d="M18.2693 8.0102C18.3295 8.00416 18.391 8.0014 18.4513 8.00046C21.7824 7.94856 21.3653 12.3457 20.9565 14.5444C20.9206 14.7372 20.8735 14.9679 20.879 15.1604L20.88 15.1878C21.0002 15.3669 21.0283 15.4033 21.2533 15.4116C21.4366 15.4184 21.6596 15.3861 21.8446 15.3674C22.1198 15.339 22.3956 15.3157 22.6717 15.2975C24.589 15.1691 30.4254 14.9564 28.6795 18.3974C28.3304 19.0851 28.1875 18.9285 28.6514 19.6494C29.0164 20.2167 29.0003 21.0855 28.4027 21.5062C27.9537 21.8222 27.5981 21.824 27.8422 22.5286C27.876 22.6367 27.9135 22.9152 27.9239 23.0488C27.9439 23.2976 27.9244 23.548 27.8661 23.7907C27.669 24.5906 27.04 24.5866 26.8969 24.8823C26.8038 25.0742 26.8397 25.3863 26.8129 25.6007C26.7902 25.7815 26.7508 25.9646 26.7001 26.1395C26.5463 26.6698 26.265 27.1377 25.7694 27.409C25.2984 27.6286 24.9441 27.5617 24.4469 27.5519C24.1245 27.5483 23.802 27.5471 23.4795 27.5481H19.1064L16.8542 27.5504C16.6754 27.5504 15.8304 27.5619 15.7127 27.5263C15.1731 27.3631 14.4766 26.8651 13.9438 26.6204L13.9449 20.8179C13.9449 19.7703 13.9776 18.5226 13.9375 17.4888C14.5183 17.2156 15.4788 16.3244 15.8907 15.8309C17.8194 13.5202 18.2415 10.9344 18.003 8.0314L18.2693 8.0102Z" fill="white"/>
<path d="M7.70989 16.9313C7.94323 16.914 8.35882 16.9249 8.60298 16.9247L10.3226 16.9244L11.8013 16.9247C12.3003 16.925 13.1724 16.8018 13.3029 17.5211C13.3628 17.8511 13.3328 18.3384 13.3329 18.6823L13.3333 20.8631L13.3332 24.7139C13.3331 25.3745 13.3386 26.0349 13.3254 26.695C13.3167 27.1264 13.0723 27.4007 12.6507 27.4811C11.7516 27.5203 10.6055 27.4891 9.6904 27.4891L8.44322 27.4885C7.92607 27.488 7.14982 27.5943 7.02695 26.8547C6.97994 26.5718 7.00872 26.1495 7.00872 25.853L7.00879 23.8038L7.00923 19.7863C7.00929 19.1082 7.00468 18.4303 7.01461 17.7524C7.02146 17.2857 7.25062 17.0131 7.70989 16.9313Z" fill="white"/>
</svg>
