<svg width="18" height="18" viewBox="0 0 18 18" fill="none" xmlns="http://www.w3.org/2000/svg">
<path d="M15.6008 11.4946L12.6748 10.1956C11.9618 9.8786 11.1238 10.0816 10.6348 10.6896L9.40033 11.8784C8.09333 11.0244 6.97733 9.90746 6.12333 8.59847L7.32695 7.36911C7.93595 6.88111 8.13995 6.04211 7.82395 5.32911L6.52395 2.40111C6.18095 1.62911 5.33896 1.22311 4.51996 1.43411L2.54533 1.94847C1.69933 2.16847 1.15233 2.98847 1.27233 3.85547C2.20633 10.5044 7.50133 15.8004 14.1523 16.7344C14.2323 16.7454 14.3103 16.7504 14.3883 16.7504C15.1623 16.7504 15.8563 16.2284 16.0573 15.4604L16.5668 13.4966C16.7778 12.6796 16.3718 11.8376 15.6008 11.4946Z" fill="#282828"/>
</svg>
