<svg width="40" height="40" viewBox="0 0 40 40" fill="none" xmlns="http://www.w3.org/2000/svg">
<path d="M9.82815 4.00099C9.92631 3.99852 10.0246 4.00067 10.1225 4.00739C10.615 4.04488 11.1131 4.19072 11.5292 4.4634C12.3992 5.03348 13.5387 6.3513 14.3028 7.12033C15.2336 8.05712 16.2521 8.9776 17.1088 9.98193C17.8763 10.8817 18.1897 12.1811 17.6353 13.2879C17.103 14.3503 13.9304 16.861 13.94 17.5495C13.9492 18.2162 16.6786 21.1109 17.3205 21.7868C17.9564 22.4564 21.4568 25.7492 22.2241 25.7056C22.6776 25.6799 23.3163 24.8571 23.6286 24.5381C24.6936 23.4505 25.9287 21.7614 27.5974 21.7678C28.6901 21.772 29.4325 22.3668 30.1706 23.1046L33.2581 26.2089C33.8886 26.841 34.6431 27.5335 35.1727 28.2551C35.4742 28.6658 35.5913 29.3385 35.5993 29.8529C35.6194 31.1407 34.7519 31.9097 33.9229 32.738C30.8849 35.8719 27.679 36.7642 23.5251 35.3433C15.3571 32.5494 8.3763 25.7757 4.86113 17.8882C4.28732 16.6006 3.76049 15.1036 3.63647 13.7046C3.41787 11.2758 4.17807 8.8605 5.74578 7.00302C6.15571 6.50993 6.55951 6.07651 7.00956 5.62553C7.97188 4.66115 8.44133 4.1237 9.82815 4.00099ZM33.68 30.3454C33.8044 30.0117 33.8312 29.7291 33.6861 29.3953C33.4626 28.8808 28.4955 23.8929 28.0582 23.7286C27.7827 23.625 27.419 23.6053 27.1492 23.7348C26.7439 23.9293 26.3989 24.3144 26.09 24.634C25.4175 25.3301 24.0601 26.9423 23.2483 27.353C22.7377 27.6114 22.0029 27.6383 21.4641 27.4607C20.8722 27.2656 20.2926 26.7663 19.8009 26.3889C17.4553 24.5934 15.3388 22.5128 13.4992 20.1944C13.0987 19.6896 12.6475 19.1652 12.3639 18.5832C12.0914 18.0241 12.0754 17.354 12.2783 16.7688C12.6308 15.7522 14.3028 14.3525 15.0802 13.581C15.3983 13.2654 15.7675 12.9435 15.9768 12.5399C16.139 12.227 16.1805 11.9119 16.0316 11.5852C15.7803 11.0338 11.6143 6.89709 10.8972 6.2632C10.7353 6.12009 10.563 5.96586 10.3569 5.89407C10.1524 5.82286 9.91419 5.83319 9.69981 5.83125C8.98658 6.09292 7.29626 7.93572 6.82894 8.56867C6.54328 8.95505 6.29706 9.36953 6.09412 9.80583C5.16687 11.8035 5.25213 13.7772 5.99663 15.8163C8.59542 22.9343 14.7687 29.3719 21.534 32.5903C23.988 33.7576 26.8019 34.7277 29.4445 33.7294C30.8796 33.1873 32.8162 31.5828 33.68 30.3454Z" fill="#BA9B31"/>
</svg>
