<svg width="38" height="38" viewBox="0 0 38 38" fill="none" xmlns="http://www.w3.org/2000/svg">
<path d="M32.9332 24.2663L26.7561 21.524C25.2509 20.8547 23.4818 21.2833 22.4494 22.5669L19.8433 25.0766C17.0841 23.2737 14.7281 20.9157 12.9252 18.1522L15.4662 15.5569C16.7518 14.5267 17.1825 12.7554 16.5154 11.2502L13.7709 5.06889C13.0468 3.43911 11.2693 2.582 9.54029 3.02745L5.37163 4.11332C3.58563 4.57776 2.43085 6.30887 2.68418 8.13921C4.65596 22.1759 15.8343 33.3563 29.8753 35.3281C30.0442 35.3513 30.2088 35.3619 30.3735 35.3619C32.0075 35.3619 33.4726 34.2599 33.8969 32.6386L34.9726 28.4928C35.418 26.768 34.5609 24.9904 32.9332 24.2663Z" fill="#BA9B31"/>
</svg>
