<svg width="52" height="52" viewBox="0 0 52 52" fill="none" xmlns="http://www.w3.org/2000/svg">
<rect width="52" height="52" rx="26" fill="#206235"/>
<path d="M20.6667 28.6667H26C29.6819 28.6667 32.6667 31.6515 32.6667 35.3333V36.6667C32.6667 37.4031 32.0697 38 31.3333 38H15.3333C14.597 38 14 37.4031 14 36.6667V35.3333C14 33.6161 14.6494 32.0507 15.7159 30.8689M23.3333 14C20.3878 14 18 16.3878 18 19.3333C18 22.2789 20.3878 24.6667 23.3333 24.6667C26.2788 24.6667 28.6667 22.2789 28.6667 19.3333C28.6667 18.3619 28.4069 17.4511 27.9532 16.6667M32 24.6667L34 26.6667L38 22.6667" stroke="white" stroke-width="2" stroke-linecap="round" stroke-linejoin="round"/>
</svg>
