<svg width="40" height="40" viewBox="0 0 40 40" fill="none" xmlns="http://www.w3.org/2000/svg">
<path d="M18.4381 2H20.8335L20.8634 2.01044C21.1575 2.10999 21.6541 2.14047 21.9735 2.20517C22.4852 2.30882 22.9939 2.43839 23.491 2.5969C26.7185 3.63643 29.3988 5.91904 30.939 8.93981C33.6306 14.2276 31.9295 19.5985 29.2384 24.4936C27.2643 28.0844 24.8814 31.3328 22.5139 34.6641C22.0768 35.2733 21.6462 35.8872 21.2222 36.5057C20.9685 36.8787 20.7039 37.2979 20.4236 37.6495C20.3225 37.7764 20.067 37.9054 19.9168 38H19.3705C19.2306 37.9163 18.9662 37.7683 18.8704 37.6506C18.567 37.2775 18.2831 36.8312 18.0113 36.4314C17.6039 35.8362 17.1901 35.2454 16.77 34.6592C14.5591 31.5487 12.3299 28.5074 10.4367 25.1844C7.61453 20.231 5.61273 14.7763 8.19285 9.27759C9.67978 6.10098 12.4202 3.68535 15.7584 2.60882C16.243 2.45337 16.7121 2.33627 17.2089 2.23062C17.5607 2.15584 18.1192 2.12464 18.4381 2ZM19.7556 34.9208C23.3158 29.7136 29.0855 22.6504 30.0546 16.3686C30.2476 15.1631 30.2334 13.9334 30.0128 12.7326C29.4964 9.97653 27.906 7.53862 25.5917 5.95547C23.7442 4.68978 21.7184 4.11728 19.4907 4.1258C16.5547 4.20411 13.9754 5.31808 11.9453 7.46033C10.0426 9.49095 9.02292 12.1933 9.10986 14.9747C9.26139 20.5148 14.0897 27.2409 17.2345 31.6655L18.8987 34.0037C19.0341 34.1938 19.4997 34.9433 19.6831 34.9714L19.7556 34.9208Z" fill="#BA9B31"/>
<path d="M19.1939 8.34432C22.6752 8.09545 25.7007 10.712 25.9566 14.1927C26.2125 17.6735 23.6022 20.7043 20.1219 20.9672C16.6317 21.2309 13.5904 18.6114 13.3337 15.1207C13.0771 11.63 15.7027 8.5939 19.1939 8.34432ZM20.0876 18.8428C22.4028 18.5976 24.0793 16.5197 23.8295 14.205C23.5798 11.8904 21.4986 10.2179 19.1844 10.4723C16.8766 10.7259 15.2099 12.8 15.459 15.1083C15.708 17.4165 17.7788 19.0873 20.0876 18.8428Z" fill="#BA9B31"/>
</svg>
