<svg width="72" height="72" viewBox="0 0 72 72" fill="none" xmlns="http://www.w3.org/2000/svg">
<path d="M58.0326 9.0141C59.3412 8.88536 60.8283 9.40999 61.7244 10.3846C64.2585 13.1402 62.5376 17.2171 60.7172 19.8606C59.5412 21.5676 57.9933 22.9093 56.5533 24.3841C55.3506 25.5799 54.1366 26.8631 52.8974 28.011C53.0686 28.6536 53.2134 29.3794 53.3558 30.0332C53.4725 30.5692 53.6374 31.2402 53.7067 31.7724C55.4719 30.577 57.7679 32.0576 57.6157 34.1217C57.5412 35.1354 56.6714 35.8753 56.0031 36.5432C55.6751 36.8716 55.3267 37.2305 54.967 37.5269C55.185 38.332 55.358 39.29 55.5492 40.1112C55.6448 40.5219 55.9078 41.6437 55.9071 41.9939C55.9728 41.9137 56.041 41.8357 56.1117 41.7597C57.6878 40.0923 60.5699 41.1336 60.547 43.4704C60.534 44.754 59.5236 45.5432 58.6834 46.3754L57.2079 47.8463C57.3271 48.2102 57.4536 48.8634 57.5394 49.254L58.0935 51.8L58.7998 55.0474C58.9502 55.7322 59.0915 56.4037 59.229 57.0924C59.4769 58.3334 58.5118 59.2257 57.6849 59.9974C57.2511 60.402 56.8039 60.9501 56.2812 61.237C55.7731 61.5175 55.1741 61.5836 54.6169 61.4205C53.5611 61.1094 53.2964 60.3676 52.8035 59.4897C52.601 59.129 52.4034 58.7623 52.203 58.4002L49.6394 53.7561L41.3605 38.7553C41.158 38.9873 40.8152 39.2759 40.5821 39.4921L39.1344 40.8228L33.1371 46.3114C31.9914 47.3534 30.8407 48.4021 29.698 49.4484C29.6392 49.5022 29.451 49.7047 29.4429 49.7585C29.3366 50.4728 29.3144 51.479 29.2763 52.1937L28.9446 58.3756C28.9241 58.7377 28.8876 60.5511 28.7637 60.7877C28.4034 61.2862 27.0774 62.7445 26.5526 62.908C25.1985 63.3305 24.5507 62.3483 24.2304 61.2366C24.1229 60.864 23.8947 60.3514 23.7558 59.9886L21.9365 55.2193C21.5062 54.1164 20.9632 52.5024 20.4706 51.4762C19.6107 51.1187 18.6543 50.7731 17.7796 50.4394L12.224 48.3157C11.482 48.0263 10.7309 47.7714 9.98973 47.4666C8.84592 46.9966 8.67991 45.6185 9.52693 44.7962C9.79826 44.5328 10.9431 43.2697 11.2281 43.2307C12.1538 43.1041 13.2375 43.0872 14.1804 43.0362L22.2548 42.6084C22.4992 42.402 23.0587 41.7527 23.2965 41.489L25.017 39.6018L30.2557 33.8766L32.0247 31.9394C32.4008 31.5245 32.837 31.0153 33.2386 30.6364L19.1689 22.8605L14.1158 20.0729C13.2426 19.5913 12.3584 19.122 11.5 18.6158C10.6804 18.1323 10.2945 17.0737 10.552 16.1681C10.6249 15.9128 10.744 15.6729 10.9033 15.4604C11.2285 15.0219 11.6734 14.6787 12.0243 14.2915C13.6854 12.4584 14.0601 12.5718 16.3613 13.0706L19.0762 13.6618L22.2961 14.367C22.8636 14.491 23.6193 14.6321 24.1642 14.7947C25.0952 13.9705 25.9311 12.8968 26.8874 12.1064C29.5774 9.88313 32.8099 13.8851 30.0169 16.0744C30.4585 16.12 31.167 16.2956 31.6215 16.3946L34.4632 17.0228C35.8993 15.6748 37.2644 13.3874 39.5011 14.8177C40.0822 15.1971 40.4907 15.7901 40.638 16.4683C40.7737 17.1184 40.6176 17.7397 40.2555 18.2885C40.9158 18.4102 41.6168 18.5745 42.2756 18.7155C42.8072 18.8291 43.4642 18.9586 43.9758 19.1124C45.304 17.7315 46.6515 16.3689 48.0173 15.025C49.0221 14.019 50.0989 12.8896 51.1751 11.9794C53.0359 10.4055 55.5991 9.27373 58.0326 9.0141Z" fill="#2754A5"/>
</svg>
