<svg width="28" height="28" viewBox="0 0 28 28" fill="none" xmlns="http://www.w3.org/2000/svg">
<path d="M24.5833 6.02443C24.5912 6.02296 24.599 6.02146 24.6069 6.01999C25.4927 5.97163 26.3043 5.96576 27 6.54761C26.5457 7.79532 23.2092 9.10009 21.999 9.6039L19.7986 10.5229C20.0619 9.72462 19.5327 9.61803 19.2458 10.1635C17.7208 13.0625 16.5536 16.1811 14.5518 18.8086C13.9881 19.5484 13.3724 20.3039 12.4369 20.5367C12.4951 20.1229 12.8473 18.899 12.9673 18.4433L14.0146 14.4367C14.0993 14.1147 14.56 12.6525 14.4105 12.4724C14.1296 12.4547 11.0433 13.385 10.4952 13.5338C9.30176 13.8886 7.90616 14.1759 6.69439 14.5029C6.02498 14.6835 4.6077 15.0782 3.98732 15.1157C3.84893 15.0461 3.69242 14.9348 3.60117 14.8151C3.21444 14.3076 0.986608 11.0165 1.00006 10.6711C1.41191 10.178 2.85593 11.6475 3.19827 11.8961C3.61626 12.1951 4.17243 12.7718 4.70728 12.7688C6.13109 12.7609 7.8026 12.1148 9.11276 11.6249C11.5126 10.7085 13.8977 9.75406 16.2673 8.76189L18.9986 7.65131C20.7758 6.9346 22.6589 6.20262 24.5833 6.02443Z" fill="#BA9B31"/>
<path d="M9.90878 6.55956C11.4621 6.44373 13.427 7.08931 14.8968 7.55302C15.4062 7.71375 16.012 7.97753 16.5205 8.09953C15.8824 8.34433 15.2336 8.61985 14.6001 8.88009L12.5611 9.71093C11.344 8.87365 10.0391 8.01724 8.8457 7.15876C8.85735 7.14061 8.86957 7.12282 8.88236 7.10542C9.17559 6.70062 9.44108 6.63015 9.90878 6.55956Z" fill="#BA9B31"/>
<path d="M11.6153 18.8015C12.0905 18.89 12.2707 19.3967 11.8422 19.6346C11.5344 19.8055 11.0682 19.9604 10.7313 20.0936L8.52561 20.9658C8.41842 21.0027 8.33921 21.0415 8.2287 21.0193C8.17602 20.9839 8.15799 20.9679 8.12915 20.911C8.10229 20.8581 8.08189 20.7726 8.10435 20.7162C8.15341 20.593 11.3052 18.9125 11.6153 18.8015Z" fill="#BA9B31"/>
<path d="M8.05411 7.50761C8.12493 7.50438 8.18911 7.51588 8.25527 7.54089C8.36171 7.5817 8.4473 7.66361 8.49273 7.76816C8.7045 8.2496 8.20325 8.3849 7.86486 8.51871C7.68215 8.59097 7.49707 8.65973 7.31354 8.72972L5.55638 9.39513C5.46659 9.42978 5.40469 9.46015 5.30813 9.46224C5.15123 9.40187 5.11065 9.28327 5.16357 9.12913C5.30023 8.96637 7.79188 7.60515 8.05411 7.50761Z" fill="#BA9B31"/>
<path d="M12.0229 16.4079C12.2677 16.389 12.4519 16.4602 12.5446 16.7081C12.5785 16.798 12.5734 16.898 12.5304 16.984C12.3807 17.285 11.8033 17.4319 11.498 17.5401L10.1842 18.0043C9.9598 18.071 9.72408 18.1029 9.75819 17.7641C9.89667 17.5894 11.7101 16.5503 12.0229 16.4079Z" fill="#BA9B31"/>
<path d="M9.75073 8.97911C9.95369 8.95974 10.1499 8.9766 10.2607 9.17994C10.4977 9.61451 10.0296 9.83337 9.6885 9.9463C9.19501 10.1097 8.69975 10.2856 8.20815 10.4585C8.00839 10.52 7.69687 10.6119 7.72771 10.253C7.81106 10.0565 9.46008 9.12675 9.75073 8.97911Z" fill="#BA9B31"/>
<path d="M12.6984 13.7958C12.9121 13.8303 13.0921 13.9474 13.1646 14.1614C13.1916 14.2404 13.1857 14.327 13.1482 14.4016C12.9758 14.7529 11.701 15.0681 11.2756 15.204C11.1634 15.2421 11.1279 15.2495 11.0104 15.2657C10.8422 15.2202 10.8095 15.1176 10.8426 14.9618C10.9778 14.7692 12.4149 13.9099 12.6984 13.7958Z" fill="#BA9B31"/>
</svg>
