<svg width="36" height="36" viewBox="0 0 36 36" fill="none" xmlns="http://www.w3.org/2000/svg">
<path d="M5.16967 7.7278C7.10991 7.69823 9.12918 7.72576 11.074 7.72585L22.6423 7.72682L28.3757 7.7278L29.9978 7.72292C30.3619 7.72119 30.8482 7.70945 31.2048 7.75514C31.7278 7.82171 32.2168 8.05251 32.6003 8.41432C33.1349 8.91283 33.4096 9.55044 33.4167 10.2737C33.4282 11.402 33.4216 12.5381 33.4216 13.6663V20.3069L33.4226 23.9671C33.4223 24.3932 33.4484 25.436 33.3923 25.8225C33.3209 26.3475 33.0855 26.8371 32.7204 27.221C32.1748 27.7982 31.5595 28.0009 30.7908 28.0257L12.8884 28.0286L7.54467 28.0296L5.90502 28.0305C5.55249 28.0305 5.10513 28.0476 4.75853 27.9973C3.50031 27.8149 2.58679 26.7251 2.5808 25.4573C2.57548 24.3136 2.57708 23.165 2.57787 22.0188V15.4153L2.57689 11.8167C2.57681 11.3777 2.55209 10.3242 2.60717 9.93483C2.68208 9.41208 2.91389 8.92435 3.27221 8.53639C3.80251 7.96976 4.416 7.7565 5.16967 7.7278ZM8.31518 15.929C6.89251 15.9291 5.4068 15.9078 3.99096 15.9387L3.99486 22.5628L3.99193 24.4846C3.99141 24.843 3.95976 25.3273 4.02514 25.6721C4.23483 26.7757 5.33062 26.6099 6.10717 26.6096L8.03197 26.6077L14.0964 26.6067H30.6951C31.1302 26.6059 31.3491 26.5626 31.6785 26.2512C32.1188 25.7226 32.0098 25.1355 32.0085 24.4778L32.0056 22.5784L32.0027 15.9358C30.0998 15.914 28.1693 15.9281 26.2644 15.928H16.0632L8.31518 15.929ZM10.5603 18.8596C12.1156 18.6333 13.5597 19.7114 13.7849 21.2669C14.01 22.8224 12.9305 24.2656 11.3747 24.4895C9.8212 24.7127 8.38023 23.6356 8.15502 22.0823C7.93012 20.5286 9.00686 19.086 10.5603 18.8596ZM7.53002 18.8567C8.02781 18.7876 8.47271 18.8711 8.94506 19.0139C8.80361 19.1539 8.6212 19.3274 8.48998 19.4739C7.90041 20.1286 7.59831 20.993 7.65307 21.8723C7.7189 22.9493 8.1927 23.658 8.96752 24.3372C8.46537 24.4793 8.2246 24.5196 7.71361 24.5149C7.13616 24.453 6.69805 24.3251 6.21654 23.9739C5.59587 23.5196 5.18442 22.8338 5.07494 22.0725C4.97004 21.3179 5.17026 20.5516 5.6306 19.9446C6.10868 19.3165 6.75622 18.9652 7.53002 18.8567ZM16.3308 20.971C16.821 20.9447 19.5008 20.9092 19.7781 21.0432C19.9324 21.1183 20.0386 21.2635 20.0925 21.4231C20.1607 21.6251 20.1481 21.8461 20.0456 22.0344C19.9423 22.2241 19.7828 22.3159 19.5818 22.3723C19.0954 22.3934 16.4037 22.4559 16.1228 22.3059C15.957 22.2173 15.8399 22.0425 15.7888 21.8645C15.7321 21.6664 15.7592 21.4706 15.863 21.2932C15.9719 21.1077 16.1272 21.0215 16.3308 20.971ZM21.6169 20.971C22.079 20.9438 24.7864 20.9089 25.0437 21.0335C25.2228 21.1214 25.3581 21.2981 25.4148 21.4876C25.4749 21.6892 25.419 21.8722 25.322 22.051C25.2217 22.2356 25.074 22.3133 24.8826 22.3723C24.4088 22.3958 21.7048 22.4516 21.4304 22.3137C21.259 22.2274 21.1293 22.041 21.0779 21.8596C21.0229 21.6654 21.0596 21.4682 21.1579 21.2942C21.263 21.1089 21.4184 21.0257 21.6169 20.971ZM26.9363 20.9719C27.4436 20.9498 30.0825 20.8943 30.3767 21.052C30.5355 21.1378 30.6471 21.2891 30.697 21.4612C30.7527 21.6531 30.73 21.8753 30.6296 22.0491C30.5239 22.2323 30.363 22.3184 30.1648 22.3704C29.6783 22.3966 27.0102 22.4531 26.7185 22.3089C26.5476 22.2242 26.4316 22.0536 26.3816 21.8733C26.3251 21.6735 26.3536 21.4589 26.4597 21.2805C26.5768 21.0879 26.7278 21.0181 26.9363 20.9719ZM8.5183 9.14968C7.39504 9.14962 6.10721 9.11878 4.99682 9.15846C3.73779 9.38766 3.98665 10.7367 3.99682 11.7083L31.1081 11.7102L31.9988 11.7092C32.0164 10.5796 32.2763 9.15018 30.697 9.14968C28.9331 9.14921 27.1671 9.14769 25.4031 9.14772L15.0622 9.1487L8.5183 9.14968Z" fill="#FF7F02"/>
</svg>
