<svg width="48" height="48" viewBox="0 0 48 48" fill="none" xmlns="http://www.w3.org/2000/svg">
<path d="M20.0394 16.6644C20.9712 16.6608 21.7821 16.7921 22.6895 16.9628C22.8064 17.4839 22.9646 18.2359 22.9864 18.7704C23.0094 18.9015 23.1075 19.635 23.0166 19.6973L20.0391 19.6985L20.0394 16.6644Z" fill="#BA9B31"/>
<path d="M22.9795 18.7725C23.0024 18.9036 23.1005 19.637 23.0096 19.6994L22.971 19.6713C22.9401 19.5618 22.9535 18.9095 22.9795 18.7725Z" fill="#BA9B31"/>
<path d="M15.582 21.1219L18.6107 21.1191C18.627 22.0887 18.609 23.0855 18.6162 24.0599C17.7868 24.0965 16.7459 23.9187 15.9384 23.7607C15.7235 22.7752 15.6355 22.128 15.582 21.1219Z" fill="#BA9B31"/>
<path d="M18.3938 16.7522C18.4818 16.739 18.5143 16.7269 18.5998 16.7543C18.6298 16.8508 18.6162 17.5488 18.6159 17.6844L18.6162 19.6984L15.929 19.6975L15.582 19.6952C15.6269 18.7701 15.7197 18.1245 15.8969 17.2207C16.7559 17.0224 17.5221 16.8634 18.3938 16.7522Z" fill="#BA9B31"/>
<path d="M22.9853 21.1251L23.0479 21.1437C23.0773 21.3262 23.0232 21.7832 23.0023 21.9909C22.9498 22.4982 22.8722 23.0027 22.7702 23.5024C21.827 23.7385 20.9935 23.876 20.0391 24.014L20.0427 21.1191C21.0212 21.1316 22.005 21.112 22.9853 21.1251Z" fill="#BA9B31"/>
<path d="M22.98 21.1243L23.0426 21.1428C23.072 21.3253 23.0179 21.7824 22.997 21.99C22.952 21.8974 22.9339 21.2331 22.98 21.1243Z" fill="#BA9B31"/>
<path d="M12.0717 17.5271C12.8261 17.8992 13.5937 17.7428 14.3875 17.5815C14.2763 18.1577 14.222 18.7618 14.1804 19.3468C14.1722 19.4614 14.175 19.57 14.1508 19.6831L14.1007 19.7024L11.5625 19.7032C11.6152 18.9362 11.817 18.244 12.0717 17.5271Z" fill="#BA9B31"/>
<path d="M24.4901 21.1193L27.0858 21.1191C27.0454 21.8182 26.8443 22.5265 26.6153 23.1854C26.5455 23.2143 26.0989 23.0035 25.8521 22.9876C25.2734 22.9503 24.836 23.041 24.2773 23.1473C24.3987 22.468 24.4463 21.8065 24.4901 21.1193Z" fill="#BA9B31"/>
<path d="M22.2897 25.0742C22.2949 25.1888 22.0584 25.679 21.9969 25.8096C21.5404 26.7789 20.9933 27.5449 20.0413 28.059C20.0131 27.2258 20.0361 26.2753 20.038 25.431C20.8187 25.3658 21.5249 25.2259 22.2897 25.0742Z" fill="#BA9B31"/>
<path d="M12.2773 23.7639C12.4119 23.8165 12.8825 24.1278 13.0727 24.2262C13.6597 24.5304 14.1582 24.7125 14.7798 24.9276C15.1503 25.988 15.3357 26.4447 15.9155 27.4168C15.7197 27.3586 15.2865 27.0892 15.1125 26.9776C13.89 26.1874 12.909 25.0754 12.2773 23.7639Z" fill="#BA9B31"/>
<path d="M18.5777 12.7776C18.6433 12.8685 18.6171 15.0051 18.6172 15.2984C17.8874 15.3762 17.1621 15.4923 16.4445 15.646C16.4294 15.6434 16.4412 15.6469 16.3984 15.6236C16.4144 15.4876 16.6089 15.0866 16.6733 14.9551C17.1104 14.0636 17.674 13.2414 18.5777 12.7776Z" fill="#BA9B31"/>
<path d="M25.2432 24.4284C25.4248 24.3934 25.771 24.3426 25.8797 24.5173C25.8877 24.7257 25.6657 24.9608 25.5392 25.1236C24.9128 25.9296 24.0978 26.6709 23.2036 27.1721C23.0758 27.252 22.8654 27.355 22.7266 27.4279C23.3221 26.4192 23.5915 25.8199 23.9315 24.6927C24.2635 24.5853 24.9012 24.4712 25.2432 24.4284Z" fill="#BA9B31"/>
<path d="M16.4375 25.3145C17.2793 25.426 17.7872 25.4479 18.615 25.5045L18.6202 28.0371C18.5857 28.0345 18.5892 28.0368 18.5482 28.0177C17.5306 27.551 16.8307 26.2811 16.4375 25.3145Z" fill="#BA9B31"/>
<path d="M22.7305 13.4089C22.9543 13.4792 23.3 13.6965 23.5019 13.8254C24.7006 14.5895 25.6693 15.6648 26.3045 16.9365C26.229 16.9043 26.0922 16.8207 26.0196 16.774C25.3224 16.3273 24.6115 16.0662 23.8316 15.8007C23.5271 14.8616 23.2358 14.2416 22.7305 13.4089Z" fill="#BA9B31"/>
<path d="M24.2539 17.4675C24.5872 17.6039 24.9104 17.7639 25.2211 17.9463C25.8021 18.2918 26.708 19.0046 26.8824 19.696C26.1262 19.7202 25.2497 19.6986 24.4837 19.6987C24.4669 19.2656 24.4316 18.8333 24.3783 18.4031C24.3425 18.1354 24.2655 17.7168 24.2539 17.4675Z" fill="#BA9B31"/>
<path d="M15.8617 13.4194L15.8764 13.4225C15.8963 13.471 15.697 13.7725 15.6559 13.8462C15.271 14.5364 14.9715 15.2759 14.7509 16.0336C14.294 16.1822 13.3043 16.3602 12.8445 16.3137C12.772 16.2838 12.7995 16.3072 12.7578 16.2425C12.7906 16.1159 13.0332 15.8012 13.1214 15.684C13.863 14.6997 14.7745 13.9858 15.8617 13.4194Z" fill="#BA9B31"/>
<path d="M20.0414 12.7671C21.0795 13.2436 21.7583 14.4088 22.1792 15.4204C21.4023 15.2976 20.8196 15.2616 20.037 15.2375C20.0312 14.4479 20.0164 13.55 20.0414 12.7671Z" fill="#BA9B31"/>
<path d="M11.7812 21.1194C12.5689 21.1285 13.3693 21.1228 14.1574 21.1191C14.1884 21.8364 14.2657 22.5509 14.3886 23.2582L14.3564 23.2476C13.3643 22.91 12.2512 22.093 11.7812 21.1194Z" fill="#BA9B31"/>
<path d="M11.1211 5.15637L13.8164 5.15735H22.124L26.8193 5.15637C27.4803 5.15557 28.878 5.11914 29.4756 5.20618C30.3265 5.33194 31.1267 5.68911 31.7881 6.23938C32.7628 7.04428 33.3719 8.20888 33.4766 9.46887C33.5234 10.0353 33.4959 10.9542 33.4951 11.5421V38.545C33.4951 39.0069 33.5135 39.7203 33.4609 40.1603C33.3507 41.0713 32.976 41.9299 32.3828 42.63C31.5177 43.6433 30.3896 44.1951 29.0684 44.295C28.571 44.3136 27.9964 44.3009 27.4932 44.3009H24.6777L16.1426 44.2999L11.6895 44.3009C11.0152 44.3017 9.7197 44.3393 9.12109 44.2452C8.26116 44.1095 7.45592 43.7361 6.79688 43.1671C5.85166 42.36 5.2661 41.2098 5.16895 39.9708C5.12592 39.3992 5.15274 38.496 5.15332 37.9054L5.1543 34.1359V22.2736L5.15332 13.4601V10.8048C5.15347 10.3926 5.13582 9.68302 5.18555 9.28919C5.30181 8.36443 5.68837 7.49418 6.29688 6.78821C7.16043 5.79229 8.29337 5.25742 9.59863 5.16419C10.0206 5.12035 10.6833 5.15595 11.1211 5.15637ZM10.3135 36.9952C9.90688 37.1263 9.76042 37.53 9.89941 37.9161C9.9508 38.0609 10.0625 38.1766 10.2051 38.2335C10.4294 38.3232 13.4633 38.2758 13.9883 38.2755H20.6768L25.7275 38.2765C26.5529 38.2765 27.5239 38.3018 28.3379 38.2706C28.5012 38.2207 28.6214 38.159 28.6992 38.0011C28.907 37.5787 28.7568 36.9952 28.2168 36.9923C27.0571 36.9864 25.9025 36.9887 24.7451 36.9884H12.9502C12.13 36.9881 11.1112 36.9569 10.3135 36.9952ZM26.459 34.3624H14.8174C13.3185 34.3624 11.7835 34.3468 10.2871 34.3663C10.1177 34.4356 9.99352 34.5125 9.92188 34.6876C9.84087 34.886 9.84183 35.1428 9.93164 35.338C9.98526 35.4546 10.081 35.5585 10.2051 35.5997C10.507 35.6992 12.7002 35.6393 13.2207 35.6388H19.6182L25.3975 35.6398C26.2637 35.6398 27.5414 35.6785 28.377 35.632C28.9932 35.3664 28.8256 34.4653 28.4785 34.4113C27.9159 34.324 27.0619 34.3624 26.459 34.3624ZM24.8652 31.7286H16.1221L12.2461 31.7277C11.7141 31.7271 10.7668 31.698 10.2578 31.7394C9.62265 32.0451 9.84112 32.9249 10.2227 32.9728C10.8497 33.0515 11.6931 33.0126 12.3447 33.0118L16.6748 33.0099L24.4248 33.0109H26.9355C27.3737 33.0109 27.9354 33.0254 28.3652 33.0001C28.5187 32.9409 28.6656 32.851 28.7295 32.6906C28.8036 32.5048 28.799 32.1995 28.7119 32.0226C28.6601 31.9167 28.5606 31.81 28.4473 31.7706C28.1657 31.6736 25.3777 31.7286 24.8652 31.7286ZM18.9062 11.1984C13.8185 11.4319 9.88385 15.7462 10.1182 20.8341C10.3527 25.9223 14.668 29.8569 19.7559 29.6212C24.842 29.3855 28.7743 25.0717 28.54 19.9855C28.3054 14.899 23.9925 10.9651 18.9062 11.1984Z" fill="#BA9B31"/>
<path d="M34.0898 7.92456C34.1764 7.95526 34.2547 7.9898 34.3392 8.02569L38.0945 9.63253C38.9038 9.97826 40.3049 10.5123 40.9563 10.9986C41.653 11.5158 42.1931 12.2157 42.5169 13.0208C42.8574 13.8702 42.9463 14.7997 42.7724 15.6982C42.6302 16.4018 42.2779 17.1234 41.9928 17.7892L40.9867 20.1419L37.047 29.3495L34.5001 35.2926L34.5004 17.7965V12.2672L34.5017 10.511C34.502 9.39301 34.496 8.99348 34.0898 7.92456Z" fill="#BA9B31"/>
</svg>
