<svg width="42" height="32" viewBox="0 0 42 32" fill="none" xmlns="http://www.w3.org/2000/svg">
<path d="M12.3284 14.4314C13.9303 14.4314 15.2537 15.0588 16.2985 16.3137C17.3433 17.4989 17.8657 19.207 17.8657 21.4379C17.8657 22.8322 17.6567 24.1569 17.2388 25.4118C16.8209 26.6667 16.194 27.7821 15.3582 28.7582C14.5224 29.7342 13.4776 30.5359 12.2239 31.1634C10.9701 31.7211 9.50746 32 7.83582 32C6.72139 32 5.67662 31.8606 4.70149 31.5817C3.79602 31.2331 2.99502 30.7102 2.29851 30.0131C1.60199 29.2462 1.04478 28.2353 0.626866 26.9804C0.208955 25.7255 0 24.122 0 22.1699C0 19.3813 0.41791 16.6623 1.25373 14.0131C2.08955 11.3638 3.20398 8.99346 4.59701 6.90196C6.0597 4.81046 7.69652 3.13726 9.50746 1.88235C11.3184 0.627451 13.2338 0 15.2537 0C16.8557 0 17.9005 0.383443 18.3881 1.15033C18.9453 1.8475 19.2239 2.6841 19.2239 3.66013C19.2239 3.939 18.8408 4.42702 18.0746 5.12418C17.3781 5.82135 16.6119 6.65795 15.7761 7.63399C14.9403 8.54031 14.1393 9.58606 13.3731 10.7712C12.6766 11.9564 12.3284 13.1765 12.3284 14.4314ZM35.1045 14.4314C36.7065 14.4314 38.0299 15.0588 39.0746 16.3137C40.1194 17.4989 40.6418 19.207 40.6418 21.4379C40.6418 22.8322 40.4328 24.1569 40.0149 25.4118C39.597 26.6667 38.9701 27.7821 38.1343 28.7582C37.2985 29.7342 36.2537 30.5359 35 31.1634C33.7463 31.7211 32.2836 32 30.6119 32C29.4975 32 28.4527 31.8606 27.4776 31.5817C26.5721 31.2331 25.7711 30.7102 25.0746 30.0131C24.3781 29.2462 23.8209 28.2353 23.403 26.9804C22.9851 25.7255 22.7761 24.122 22.7761 22.1699C22.7761 19.3813 23.194 16.6623 24.0299 14.0131C24.8657 11.3638 25.9801 8.99346 27.3731 6.90196C28.8358 4.81046 30.4726 3.13726 32.2836 1.88235C34.0945 0.627451 36.0099 0 38.0299 0C39.6318 0 40.6766 0.383443 41.1642 1.15033C41.7214 1.8475 42 2.6841 42 3.66013C42 3.939 41.6169 4.42702 40.8507 5.12418C40.1542 5.82135 39.3881 6.65795 38.5522 7.63399C37.7164 8.54031 36.9154 9.58606 36.1493 10.7712C35.4527 11.9564 35.1045 13.1765 35.1045 14.4314Z" fill="#BA9B31"/>
</svg>
