<svg width="32" height="32" viewBox="0 0 32 32" fill="none" xmlns="http://www.w3.org/2000/svg">
<path d="M21.2133 16.4934H27.4667C27.36 22.7201 26.1333 23.7467 22.3067 26.0134C21.8667 26.2801 21.72 26.8401 21.9867 27.2934C22.2533 27.7334 22.8133 27.8801 23.2667 27.6134C27.7733 24.9467 29.3467 23.3201 29.3467 15.5601V8.37342C29.3467 6.09342 27.4933 4.25342 25.2267 4.25342H21.2267C18.88 4.25342 17.1067 6.02675 17.1067 8.37342V12.3734C17.0933 14.7201 18.8667 16.4934 21.2133 16.4934Z" fill="#BA9B30"/>
<path d="M6.78666 16.4934H13.04C12.9333 22.7201 11.7067 23.7467 7.87999 26.0134C7.43999 26.2801 7.29332 26.8401 7.55999 27.2934C7.82666 27.7334 8.38666 27.8801 8.83999 27.6134C13.3467 24.9467 14.92 23.3201 14.92 15.5601V8.37342C14.92 6.09342 13.0667 4.25342 10.8 4.25342H6.79999C4.43999 4.25342 2.66666 6.02675 2.66666 8.37342V12.3734C2.66666 14.7201 4.43999 16.4934 6.78666 16.4934Z" fill="#BA9B30"/>
</svg>
