<svg width="28" height="28" viewBox="0 0 28 28" fill="none" xmlns="http://www.w3.org/2000/svg">
<path d="M13.3537 6.5815C14.1182 6.4693 15.2464 6.616 15.9826 6.85689C17.6278 7.39995 18.9911 8.57207 19.7756 10.1167C20.818 12.1821 20.6555 14.8151 19.3049 16.6987C18.7372 17.491 18.0251 18.0475 17.6174 18.9848C17.3872 19.5143 17.2093 20.0858 17.1506 20.6635C17.1001 21.165 17.1406 21.3859 16.9787 21.8735C16.7655 22.0675 15.1459 21.9945 14.759 21.9917C14.2524 21.9928 11.3134 22.0753 11.091 21.8989C11.0172 21.8403 10.9691 21.7619 10.9465 21.6713C10.8931 21.458 10.8963 21.2123 10.8811 20.9926C10.8484 20.5207 10.7889 20.0864 10.633 19.6372C10.2157 18.4343 9.58305 17.8491 8.84202 16.8794C8.1659 15.9875 7.73875 14.931 7.60472 13.8198C7.38985 12.1011 7.87272 10.368 8.94456 9.00728C10.0724 7.58556 11.5621 6.78771 13.3537 6.5815ZM16.0764 11.3139C15.7938 11.4813 13.6346 13.6403 13.3547 13.977C13.0489 13.6586 12.2005 12.6715 11.8235 12.6547C11.7136 12.6491 11.6061 12.6899 11.5285 12.768C11.129 13.1649 11.6313 13.5389 11.9172 13.8208C12.262 14.1689 12.608 14.5282 12.9651 14.8569C13.2265 15.0973 13.4418 15.1417 13.7073 14.8852C14.5779 14.0442 15.4259 13.1692 16.2932 12.3237C16.6959 11.9311 16.8006 11.3514 16.0764 11.3139Z" fill="#C52B20"/>
<path d="M11.5416 23.0695L14.8086 23.0662C15.4019 23.0648 16.0097 23.0536 16.6023 23.0779C16.7412 23.0862 16.9246 23.1147 17.0041 23.2493C17.2539 23.6737 16.9918 23.9747 16.5689 23.9919C15.5987 24.0192 14.5695 23.9766 13.5912 23.9941C12.8515 23.9906 12.1324 24.0117 11.3916 23.9885C10.9736 23.9754 10.7864 23.5602 11.0192 23.2251C11.1213 23.0781 11.3757 23.0789 11.5416 23.0695Z" fill="#C52B20"/>
<path d="M12.3078 25.0608C13.357 25.0381 14.4709 25.0579 15.5246 25.0565C16.0025 25.0558 16.2193 25.6148 15.7244 25.9643C14.7104 26.0413 13.4599 25.9708 12.4273 25.9636C11.9977 25.9606 11.8314 25.3596 12.3078 25.0608Z" fill="#C52B20"/>
<path d="M6.60224 16.7707C6.80942 16.747 7.04184 16.8911 7.10608 17.0628C7.32922 17.6559 5.38366 18.5387 4.97078 18.744C4.3704 18.795 4.1959 18.1205 4.82821 17.7653C5.41893 17.4333 5.98775 17.0704 6.60224 16.7707Z" fill="#C52B20"/>
<path d="M21.2069 16.77C21.5838 16.7406 23.213 17.7499 23.5223 18.0644C23.7718 18.3184 23.4819 18.5916 23.2754 18.7496C22.9858 18.7629 22.3765 18.4188 22.124 18.2435C21.6027 17.8812 20.2542 17.4739 21.2069 16.77Z" fill="#C52B20"/>
<path d="M8.62057 3.40668C9.19459 3.42034 9.51539 4.29176 9.79385 4.76486C10.1043 5.29154 10.5346 5.74797 9.88148 6.14658C9.32083 6.19229 8.85672 4.97839 8.57528 4.54186C8.26525 4.061 8.10077 3.76869 8.62057 3.40668Z" fill="#C52B20"/>
<path d="M4.73621 7.27077C5.12904 7.23699 6.27373 8.02015 6.67732 8.24003C7.18153 8.51486 7.33414 8.81702 6.85257 9.22251C6.38289 9.29249 4.94785 8.32123 4.52309 8.01978C4.2242 7.80781 4.53052 7.43277 4.73621 7.27077Z" fill="#C52B20"/>
<path d="M23.0543 7.26664C23.586 7.22995 23.8255 7.84849 23.2816 8.18462C22.6779 8.55777 22.0634 8.92182 21.4288 9.2418C21.3672 9.24547 21.3152 9.24718 21.2543 9.23285C21.1181 9.20199 21.0007 9.11656 20.9294 8.9966C20.5879 8.40981 22.6006 7.50497 23.0543 7.26664Z" fill="#C52B20"/>
<path d="M19.16 3.4057C19.4667 3.40759 19.8607 3.6603 19.7303 3.94144C19.502 4.43525 18.7754 5.89521 18.348 6.15448C16.9601 6.20242 18.8689 3.59012 19.16 3.4057Z" fill="#C52B20"/>
<path d="M13.8881 2.00017C14.0021 1.99638 14.3504 2.0559 14.3793 2.18251C14.5549 2.95279 14.4625 3.87556 14.441 4.66923C14.4365 4.82588 14.259 4.9291 14.1443 5.00544C13.9709 5.01576 13.6263 4.96489 13.5981 4.7507C13.4942 3.96426 13.5306 3.09318 13.5792 2.29988C13.5877 2.16265 13.7845 2.06062 13.8881 2.00017Z" fill="#C52B20"/>
<path d="M22.3627 12.5581C22.7581 12.5478 23.1609 12.5396 23.5768 12.5444C23.9648 12.5487 24.987 12.4081 25.0144 12.9911C25.0256 13.2298 24.8789 13.3626 24.6777 13.4664C24.029 13.4889 22.9612 13.5331 22.3196 13.4147C21.9409 13.3449 21.8633 12.7278 22.3627 12.5581Z" fill="#C52B20"/>
<path d="M3.34763 12.5606C3.77684 12.5434 4.21794 12.5465 4.65866 12.5446C5.02958 12.5653 5.73318 12.4393 5.96338 12.8096C6.1208 13.063 5.89617 13.3495 5.676 13.4676C5.0177 13.4754 3.97028 13.542 3.31755 13.4184C2.93995 13.3469 2.8397 12.7574 3.34763 12.5606Z" fill="#C52B20"/>
</svg>
