<svg width="28" height="28" viewBox="0 0 28 28" fill="none" xmlns="http://www.w3.org/2000/svg">
<path d="M13.8569 1.50019C14.5525 0.29094 16.1705 0.0173154 17.4339 0C16.4097 0.575373 16.3288 0.741476 15.602 1.62739C16.2103 1.4722 17.2538 1.41709 17.8699 1.5428C18.9867 1.7707 19.2936 2.14159 19.8818 2.98765C18.7283 2.59847 18.0282 2.75172 17.1046 3.51795C17.7702 3.51427 18.4286 3.65606 19.0337 3.93334C19.9414 4.34396 20.3704 4.94082 20.7074 5.83743C19.9941 5.30719 19.1178 5.19764 18.2987 5.53589C18.9735 6.2332 19.4482 6.9185 19.6686 7.88557C19.7314 8.16119 19.7562 8.43373 19.8026 8.71256C19.0955 8.00968 17.9054 7.35092 16.969 6.99904C17.389 8.554 17.4194 9.41347 17.2903 10.9762C16.2776 9.85133 15.896 9.34913 14.581 8.56543C14.6136 10.424 14.5825 12.3783 14.5827 14.2447L14.5838 18.4861C14.1008 18.4978 13.6129 18.4861 13.1278 18.4965L13.1299 8.56333C11.8813 9.31899 11.381 9.87329 10.4338 10.9727C10.25 9.51817 10.3766 8.39866 10.7454 6.99707C9.73233 7.38389 8.71009 7.96613 7.91319 8.70616C7.96544 8.42797 7.98317 8.16246 8.04915 7.87663C8.27103 6.91529 8.74965 6.2241 9.42234 5.5311C8.61999 5.21543 7.72077 5.29493 7.02734 5.82657C7.53279 4.21422 9.01327 3.53879 10.6004 3.51715C9.70714 2.70548 8.96068 2.64536 7.84338 2.98327C8.12434 2.55601 8.28786 2.28348 8.72489 1.98437C9.67445 1.33455 11.0243 1.41354 12.1032 1.62067C11.751 1.21303 11.5082 0.8139 11.0595 0.483301C10.8624 0.338065 10.4631 0.142981 10.3123 0.0103426C11.5312 -0.0761565 13.1928 0.388559 13.8569 1.50019Z" fill="#1BA793"/>
<path d="M5.1224 16.5758C5.23169 16.5616 5.54568 16.5585 5.65758 16.5619C8.58829 16.6496 11.9031 19.2775 13.8568 21.3342C15.6943 19.2509 20.8984 15.2688 23.7063 16.9387C23.2986 17.1316 22.8945 17.2675 22.4839 17.4408C22.029 17.6328 21.5391 17.8547 21.0932 18.0693C19.1685 19.0014 17.3621 20.1605 15.7128 21.5218C15.4679 21.7252 15.0094 22.095 14.815 22.3205C15.5983 23.1754 16.3543 24.0547 17.082 24.9575C17.3125 24.6988 18.0252 24.0075 18.4255 24.297C19.0185 24.7263 18.1284 25.5249 18.1801 25.8248C18.7239 26.2987 20.7262 24.9809 21.1416 25.814C21.6952 26.9239 20.5648 28.1697 19.2986 27.9366C18.5186 27.8052 17.8141 27.404 17.2588 26.8472C16.99 27.2394 16.6107 27.8985 16.1341 27.9872C15.4758 28.1095 15.3884 27.3252 15.5428 26.8785C15.6766 26.4915 15.8205 26.3228 16.0459 26.0078C15.7744 25.4114 14.3401 23.7843 13.8552 23.261C13.387 23.7934 12.8982 24.2895 12.4749 24.8645C12.2101 25.224 11.8617 25.6014 11.6639 25.999C11.9877 26.4571 12.2971 26.9063 12.2374 27.4944C12.2051 27.812 11.8898 28.0455 11.5833 27.9825C11.072 27.8775 10.7228 27.2407 10.4474 26.8438C9.87486 27.517 8.69465 28.0595 7.75735 27.9382C6.81399 27.8164 5.86936 26.3415 6.76845 25.6346C7.15079 25.3339 7.90949 25.6958 8.31684 25.7878C8.58347 25.8479 9.28833 25.9902 9.53212 25.8435C9.58446 25.6325 9.03889 25.0472 9.10107 24.6524C9.09833 24.5633 9.11271 24.4038 9.19525 24.3432C9.69675 23.9759 10.3498 24.6672 10.6342 24.9508C11.4046 24.0267 12.0931 23.2094 12.9011 22.3124C12.6618 22.0717 12.2747 21.7546 12.007 21.5302C10.3663 20.1725 8.56872 19.0164 6.65281 18.0866C5.73975 17.6465 4.92496 17.33 4 16.9403C4.40378 16.6915 4.65789 16.6106 5.1224 16.5758Z" fill="#1BA793"/>
</svg>
