<svg width="40" height="40" viewBox="0 0 40 40" fill="none" xmlns="http://www.w3.org/2000/svg">
<path d="M15.2043 2.05394C15.1867 2.44276 14.3716 3.14374 14.0647 3.47776C13.4538 4.14694 12.9026 4.86891 12.4172 5.63401C11.3189 7.35002 10.5662 9.26433 10.2014 11.2688C9.30428 15.9891 10.4755 19.9677 13.1243 23.843C13.1151 21.3905 13.1462 18.9379 13.218 16.4866C13.9568 16.4809 14.696 16.4842 15.4348 16.4953C15.4414 17.1164 15.4801 17.7877 15.5041 18.4123L16.3166 18.4377C16.6235 15.3528 19.0914 12.828 22.0491 12.1203C22.4618 12.0216 23.3748 11.9847 23.6038 11.6926C23.5525 11.1061 22.4757 11.1025 22.1252 10.2522C21.5258 8.79606 22.2359 7.84822 23.4924 7.20237C22.5468 8.38072 22.4284 9.86578 24.2043 10.4221C24.8755 10.6324 25.5409 10.2339 26.0959 9.86741C25.7225 10.4387 25.2451 11.1443 24.4934 11.3225C24.2821 11.3725 24.1784 11.2804 23.9905 11.4211C23.8149 12.1244 24.6137 11.8704 25.2385 11.9836C26.3322 12.1914 27.3743 12.6134 28.3039 13.2258C30.2468 14.5125 31.1048 16.1922 31.5559 18.4201C31.8373 18.4017 32.1149 18.4191 32.3967 18.4309C32.4033 17.7823 32.4275 17.1339 32.469 16.4866L34.6174 16.4875C34.6425 19.4838 34.7001 22.4798 34.7893 25.4748C34.8308 26.1159 34.8339 26.821 34.8489 27.468C35.4559 27.0404 37.3154 25.4232 37.6086 25.2893L37.7151 25.3762C37.8684 26.0963 36.5652 28.4304 36.1819 29.0705C33.6836 33.2135 29.6637 36.2151 24.9817 37.4338C20.1863 38.6442 15.1064 37.8974 10.8625 35.3576C6.61628 32.7908 3.57816 28.6256 2.43188 23.7981C2.04509 22.2138 2.07013 21.5038 2.01293 19.9358C1.87885 16.2592 2.78929 13.1288 4.66137 9.96019C6.74871 6.42739 10.9002 3.00407 14.9407 2.01683C15.0794 1.98679 15.0723 1.99567 15.2043 2.05394ZM23.8811 21.6731C23.1497 22.122 21.5065 22.9748 21.2444 23.842C21.1806 24.0534 21.3793 24.4723 21.2424 24.7014C21.0253 24.742 20.9765 24.7461 20.7786 24.8362C20.5958 25.2737 20.6836 28.6366 20.6887 29.3371C21.8795 29.6996 22.8869 30.0125 24.1428 30.1164C25.1591 30.2168 26.1823 30.2342 27.2014 30.1682C27.2045 29.4423 27.3534 25.1158 27.0305 24.7854L26.6077 24.7024C26.4165 23.9109 26.8365 23.4903 25.8606 22.8948C25.4534 22.6463 24.2851 21.7381 23.8811 21.6731ZM30.6565 24.5256C28.7978 25.3437 29.2334 26.5216 29.1955 28.2571C29.1839 28.7942 29.2142 29.3411 29.2034 29.8782C29.8275 29.721 30.3175 29.5884 30.926 29.383C31.6081 29.1411 32.2112 28.9263 32.8772 28.635C32.8907 26.9075 33.2481 24.3095 30.6565 24.5256ZM16.4905 24.5227C15.6543 24.8308 15.404 25.0829 15.0061 25.8938C15.8272 26.7033 16.7537 27.362 17.7346 27.966L18.6213 28.4846C18.7137 26.7815 18.9512 24.3732 16.4905 24.5227ZM28.4289 19.6135L19.8489 19.6174C18.7568 19.6186 16.633 19.6874 15.6038 19.6086C15.5778 19.8418 15.5316 20.0581 15.6213 20.2746C15.8828 20.4521 30.3888 20.2863 32.1975 20.3733C32.2051 20.1315 32.2424 19.8559 32.1477 19.6457C31.8267 19.5795 28.8856 19.6133 28.4289 19.6135Z" fill="#BA9B31"/>
<path d="M33.5016 11.5355C33.6123 11.5834 33.8168 11.7591 33.9264 11.8262C35.6003 12.8488 36.1947 13.9082 34.6118 15.4193C34.6014 15.4292 34.5793 15.8121 34.5769 15.8697C34.4064 15.9776 33.7759 15.9381 33.533 15.9372C33.222 15.9469 32.8025 16.0052 32.5623 15.8429C32.567 15.5334 32.5718 15.4658 32.3147 15.2732C30.2307 13.711 32.1146 12.4698 33.5016 11.5355Z" fill="#BA9B31"/>
<path d="M14.3954 11.5165C15.4269 12.5932 16.5096 12.4226 16.376 14.2937C16.1905 14.5825 15.9723 14.8405 15.7254 15.0783C15.4066 15.3854 15.4996 15.4827 15.4052 15.8843C15.1633 15.9716 14.5585 15.9391 14.2713 15.9372C14.0056 15.9405 13.5112 15.9701 13.2782 15.8975C13.1626 15.5046 13.3564 15.4267 12.9742 15.0636C12.4902 14.6037 12.3861 14.3941 12.2305 13.7424C12.5708 12.579 13.4564 12.1899 14.3954 11.5165Z" fill="#BA9B31"/>
<path d="M30.9084 6.77026C31.0851 6.92813 31.349 7.74116 31.445 8.00192C31.9202 8.06426 32.3975 8.11009 32.8759 8.13916C32.5234 8.45029 32.169 8.78021 31.8205 9.09742C31.9288 9.62658 32.0068 9.93406 32.174 10.4476C31.6565 10.2173 31.4107 10.0472 30.9453 9.73617C30.4974 9.97151 30.1244 10.2159 29.7001 10.4885C29.7904 9.94609 29.8785 9.63638 30.035 9.10986C29.6134 8.74303 29.2773 8.45097 28.8242 8.12395C30.493 8.07284 30.1621 8.21475 30.9084 6.77026Z" fill="#BA9B31"/>
<path d="M16.5576 4.47803C16.7643 4.62656 17.0081 5.28857 17.1385 5.57475C17.6117 5.64614 17.9633 5.69373 18.4434 5.72476C18.159 5.93732 17.7545 6.3479 17.4868 6.60399C17.5832 7.11145 17.6501 7.3956 17.8035 7.88919C17.4109 7.67353 17.0242 7.44732 16.6439 7.21076C16.4942 7.25281 15.7026 7.71808 15.5057 7.82612C15.5763 7.33543 15.6006 7.08069 15.7802 6.60913C15.4427 6.32383 15.1253 6.02555 14.7734 5.7322C15.2594 5.68204 15.6181 5.63755 16.1013 5.54743C16.2695 5.23367 16.4231 4.81484 16.5576 4.47803Z" fill="#BA9B31"/>
<path d="M24.383 8.07605L24.5272 8.12459C24.8318 8.69073 24.8424 8.24865 25.1107 8.55531C25.0084 8.8538 24.8911 9.14613 24.7968 9.44671C24.6205 9.41236 24.615 9.35172 24.4731 9.19758C24.2938 9.30413 24.1602 9.41081 23.9573 9.42379L23.909 9.34104C24.1155 8.61393 23.8517 9.03485 23.6641 8.63198L23.7744 8.4846C24.0942 8.36987 24.174 8.34506 24.383 8.07605Z" fill="#BA9B31"/>
</svg>
