<svg width="36" height="36" viewBox="0 0 36 36" fill="none" xmlns="http://www.w3.org/2000/svg">
<path d="M17.5017 6.43365C19.9177 6.36343 22.2984 7.0252 24.3316 8.33214C24.9112 8.70799 25.3345 9.17131 25.9245 9.53032C26.4399 9.08914 26.8099 8.47626 27.3545 8.12297C27.9177 7.75775 28.5205 8.11409 28.6629 8.7289C28.9491 9.96436 29.1629 11.1904 29.3945 12.4346C29.5636 13.3427 29.9852 14.264 29.8899 15.2009C29.8701 15.3943 29.4716 15.5754 29.3186 15.6471C28.8341 15.6313 28.4453 15.526 27.9798 15.4555C26.8751 15.288 25.883 15.0421 24.807 14.7724C23.9614 14.5604 23.3013 14.5872 22.4476 14.2129C21.9695 13.0186 22.6175 12.7178 23.4091 11.9191C23.5438 11.7832 23.689 11.6489 23.8268 11.5152C19.7364 7.48927 12.2083 9.11467 9.98324 14.4248C6.94941 21.6649 13.6685 28.7858 21.0844 26.1186C24.3021 24.7109 26.028 22.5297 26.7518 19.0754C27.0021 17.8807 29.4328 18.0747 29.3539 19.5441C29.0781 24.6822 24.1948 29.1423 19.1514 29.5237C12.529 30.1074 6.83825 25.2722 6.44755 18.6779C6.27006 15.5471 7.35252 12.4753 9.45364 10.1474C11.4684 7.89547 14.5091 6.59911 17.5017 6.43365Z" fill="#FA0000"/>
<path d="M17.7416 11.7338C19.5302 11.5774 19.4088 13.1198 19.4094 14.34C19.4139 15.251 19.4081 16.1622 19.3919 17.0731C20.0891 17.3409 20.7807 17.6817 21.4708 17.9665C22.3572 18.3324 22.6054 19.225 22.1938 20.0556C21.9996 20.4475 21.6423 20.5706 21.2579 20.6952C20.3328 20.7512 19.5519 20.2818 18.7289 19.9333C18.3079 19.755 17.8659 19.6023 17.4601 19.3916C17.1394 19.2251 16.8272 19.0288 16.7171 18.668C16.4921 17.9307 16.5123 13.7661 16.6223 12.9014C16.6582 12.6201 16.7292 12.3936 16.8627 12.1422C17.2032 11.8953 17.3271 11.8154 17.7416 11.7338Z" fill="#FA0000"/>
</svg>
