<svg width="36" height="36" viewBox="0 0 36 36" fill="none" xmlns="http://www.w3.org/2000/svg">
<path d="M18.25 9C18.3819 9.13814 18.9279 9.991 19.0977 10.2217C20.0192 11.4742 21.2672 13.6426 22.2578 14.7256C23.4767 16.0581 26.6187 17.0727 28.0195 18.3594C30.2591 20.4157 32.5375 23.6949 34.7148 25.6846L14.8799 25.6992L6.28906 25.6943C4.78098 25.6917 2.75647 25.6297 1.28613 25.7188C2.83603 23.4558 5.09772 20.388 6.75879 18.2168C7.57039 18.7996 8.41789 19.3922 9.20605 20.001C10.1265 17.8124 11.8248 15.3193 12.6992 13.1562C13.2998 13.6241 14.1734 14.1719 14.8262 14.6035C15.7909 12.8484 17.1759 10.732 18.25 9ZM15.5596 15.4521C15.6238 16.822 15.7284 18.0309 15.8193 19.3789C15.0457 17.9471 14.9403 17.8034 13.417 17.1592C13.0096 16.5237 12.8963 16.2107 12.708 15.4766C12.0627 17.064 11.0534 18.6065 10.3311 20.1533C9.31106 22.3376 9.78267 22.6289 7.55469 23.6934C6.95659 21.6588 6.86439 22.6207 6.79297 20.1973C6.30268 20.7083 5.83657 21.2471 5.45117 21.8438C4.79051 22.7508 4.08045 23.7682 3.38867 24.6406L12.2305 24.6572C13.8455 24.6572 15.9685 24.7114 17.541 24.6016C17.0191 23.525 16.5418 21.8124 16.9561 20.6045C17.3584 19.4311 18.9181 17.8246 18.4365 16.4688C18.3235 16.1513 17.7262 15.4586 17.5518 15.123C17.1765 14.401 17.3721 13.4111 17.2393 12.7148L15.5596 15.4521Z" fill="#BE7F2C"/>
</svg>
