<svg width="52" height="52" viewBox="0 0 52 52" fill="none" xmlns="http://www.w3.org/2000/svg">
<rect width="52" height="52" rx="26" fill="#1B446D"/>
<path fill-rule="evenodd" clip-rule="evenodd" d="M16.6667 14.6668C16.6667 14.2986 16.9651 14.0002 17.3333 14.0002H32.6667C34.1395 14.0002 35.3333 15.1941 35.3333 16.6668V35.3335C35.3333 36.8063 34.1395 38.0002 32.6667 38.0002H31.3333C30.5969 38.0002 30 38.5971 30 39.3335C30 40.0699 30.5969 40.6668 31.3333 40.6668H32.6667C35.6121 40.6668 38 38.279 38 35.3335V16.6668C38 13.7213 35.6121 11.3335 32.6667 11.3335H17.3333C15.4924 11.3335 14 12.8259 14 14.6668V18.6668C14 19.4032 14.597 20.0002 15.3333 20.0002C16.0697 20.0002 16.6667 19.4032 16.6667 18.6668V14.6668ZM23.3333 15.3335C22.597 15.3335 22 15.9305 22 16.6668C22 17.4032 22.597 18.0002 23.3333 18.0002H28.6667C29.4031 18.0002 30 17.4032 30 16.6668C30 15.9305 29.4031 15.3335 28.6667 15.3335H23.3333ZM16.6667 22.0002C16.6667 21.2638 16.0697 20.6668 15.3333 20.6668C14.597 20.6668 14 21.2638 14 22.0002V37.3335C14 39.1744 15.4924 40.6668 17.3333 40.6668H26C26.7364 40.6668 27.3333 40.0699 27.3333 39.3335C27.3333 38.5971 26.7364 38.0002 26 38.0002H17.3333C16.9651 38.0002 16.6667 37.7016 16.6667 37.3335V22.0002ZM20.6667 34.0002C19.9303 34.0002 19.3333 34.5971 19.3333 35.3335C19.3333 36.0699 19.9303 36.6668 20.6667 36.6668H31.3333C32.0697 36.6668 32.6667 36.0699 32.6667 35.3335C32.6667 34.5971 32.0697 34.0002 31.3333 34.0002H20.6667ZM26.2221 20.1133C26.1093 19.9624 25.8907 19.9624 25.778 20.1133C24.786 21.4412 24.1839 23.2039 24.0343 25.0587C24.02 25.2348 24.1576 25.3832 24.3301 25.3832H27.6699C27.8424 25.3832 27.98 25.2348 27.9657 25.0587C27.8161 23.2039 27.2141 21.4412 26.2221 20.1133ZM24.17 20.1187C24.2225 20.1018 24.2667 20.1606 24.2385 20.2091C23.4065 21.6473 22.9397 23.3587 22.8189 25.0899C22.8075 25.254 22.6756 25.3832 22.5151 25.3832H20.1486C20.0596 25.3832 19.9899 25.3043 20.0012 25.2138C20.3014 22.8071 21.961 20.8333 24.17 20.1187ZM20.0012 26.7866C19.9899 26.696 20.0596 26.6171 20.1486 26.6171H22.5151C22.6756 26.6171 22.8075 26.7463 22.8189 26.9104C22.9397 28.6416 23.4065 30.353 24.2385 31.7912C24.2667 31.8396 24.2225 31.8986 24.17 31.8816C21.961 31.1671 20.3014 29.1932 20.0012 26.7866ZM27.7615 31.7912C27.7333 31.8396 27.7775 31.8986 27.83 31.8816C30.0391 31.1671 31.6987 29.1932 31.9988 26.7866C32.0101 26.696 31.9404 26.6171 31.8515 26.6171H29.4849C29.3244 26.6171 29.1925 26.7463 29.1811 26.9104C29.0604 28.6416 28.5935 30.353 27.7615 31.7912ZM31.9988 25.2138C32.0101 25.3043 31.9404 25.3832 31.8515 25.3832H29.4849C29.3244 25.3832 29.1925 25.254 29.1811 25.0899C29.0604 23.3587 28.5935 21.6473 27.7615 20.2091C27.7333 20.1606 27.7775 20.1018 27.83 20.1187C30.0391 20.8333 31.6987 22.8071 31.9988 25.2138ZM24.3301 26.6171C24.1576 26.6171 24.02 26.7655 24.0343 26.9416C24.1839 28.7964 24.786 30.5591 25.778 31.887C25.8907 32.0379 26.1093 32.0379 26.2221 31.887C27.2141 30.5591 27.8161 28.7964 27.9657 26.9416C27.98 26.7655 27.8424 26.6171 27.6699 26.6171H24.3301Z" fill="white"/>
</svg>
