<svg width="28" height="28" viewBox="0 0 28 28" fill="none" xmlns="http://www.w3.org/2000/svg">
<path d="M23.292 17.9336C20.9769 18.5097 18.574 18.6485 16.208 18.3418C14.8267 18.1506 13.6761 17.6901 12.3506 17.4121C8.78151 16.6634 5.00494 16.6136 1.6416 18.1377C1.12349 18.3591 0.560015 18.6836 0.0722656 18.9678C0.107733 18.0535 0.0866798 17.0717 0.0742188 16.1533C8.7337 11.6237 17.4792 9.10284 27.2881 8.69434C27.5255 8.6816 27.7628 8.66766 28 8.65137L23.292 17.9336ZM10.6992 13.9219C10.4897 13.7564 10.2157 13.6956 9.95605 13.7578C9.49239 13.8691 9.20417 14.3328 9.30957 14.7979C9.415 15.2629 9.87453 15.5565 10.3408 15.457C10.7423 15.3714 11.0295 15.0169 11.0303 14.6064C11.0306 14.3396 10.9086 14.0873 10.6992 13.9219ZM12.9453 13.1328C12.7328 12.9629 12.4524 12.9026 12.1885 12.9688C11.7256 13.0851 11.4426 13.5523 11.5537 14.0166C11.665 14.4808 12.1292 14.7692 12.5947 14.6631C12.9832 14.5744 13.2617 14.2334 13.2715 13.835C13.2782 13.5628 13.1578 13.3029 12.9453 13.1328ZM15.7559 12.7998C15.6336 12.3318 15.1536 12.0529 14.6865 12.1787C14.2246 12.3034 13.9494 12.7773 14.0703 13.2402C14.1914 13.703 14.6632 13.9815 15.127 13.8643C15.5957 13.7455 15.878 13.2677 15.7559 12.7998Z" fill="#BA9B31"/>
<path d="M9.35202 7.02664C9.63115 6.99598 10.2507 6.99855 10.5419 7.00199C13.1623 7.03277 15.7989 7.57014 18.3051 8.3064C18.4738 8.35598 19.0225 8.49786 19.0926 8.62723C18.9919 8.70486 18.7723 8.73121 18.6444 8.74731C17.533 8.88706 16.4414 9.12832 15.3561 9.40903C13.4355 9.9191 11.5451 10.5367 9.6939 11.2589C9.38601 11.378 8.63495 11.6671 8.36135 11.8056C6.6774 12.6585 7.01117 11.9031 6.51605 10.5199C6.27886 9.85719 9.63032 9.60326 9.47962 8.74795C9.01188 7.85433 6.903 9.39321 6.15016 9.16318C6.02477 9.12488 5.88088 8.76081 5.83479 8.65568C5.5187 8.64623 4.64867 8.74941 4.51953 8.45762C4.58869 8.19989 5.1263 7.98446 5.36028 7.88207C6.6442 7.32021 7.96681 7.12456 9.35202 7.02664Z" fill="#BA9B31"/>
<path d="M6.63763 17.4332C8.13121 17.3127 10.401 17.6993 11.8387 18.0791C16.9665 19.4335 21.0937 19.9435 25.9775 17.3788C23.9251 19.1737 22.6116 19.9387 19.8411 20.2196C17.3193 20.2863 15.3514 19.8162 12.9156 19.2379C8.45053 18.1778 4.27731 17.9202 0 19.8951C2.01215 18.4176 4.12697 17.5695 6.63763 17.4332Z" fill="#BA9B31"/>
<path d="M0.207031 20.7273C3.31354 18.5607 6.4813 19.5193 9.84613 20.1776C11.3738 20.4765 12.9945 20.7002 14.5508 20.7554L14.4356 20.9289C12.6932 21.2181 10.9105 21.1543 9.19323 20.7413C7.46876 20.3304 6.27928 19.8348 4.41522 19.8699C2.63738 19.9033 1.83552 20.1866 0.207031 20.7273Z" fill="#BA9B31"/>
<path d="M14.5508 20.7554L15.2879 20.7991L14.4355 20.9288L14.5508 20.7554Z" fill="#BA9B31"/>
</svg>
