<svg width="123" height="16" viewBox="0 0 123 16" fill="none" xmlns="http://www.w3.org/2000/svg">
<path d="M8.43634 0.00178386C8.84639 -0.0302833 8.94899 0.376742 9.10121 0.678485L9.58341 1.6263L10.6719 3.76298C10.879 4.16951 11.0852 4.60122 11.3017 5.00064C12.5099 5.20015 13.7592 5.37145 14.9737 5.55475L16.0323 5.71127C16.2472 5.74263 16.6695 5.77244 16.8494 5.88969C16.9955 5.98485 17.052 6.25684 16.9433 6.41005C16.8369 6.55972 16.6995 6.68331 16.5622 6.81584C16.3672 7.00091 16.1738 7.18758 15.9821 7.37585L14.0317 9.27359C13.7347 9.56159 13.289 9.96779 13.0227 10.2623C13.0697 10.4329 13.1249 10.8286 13.1562 11.0168L13.3954 12.4515L13.7246 14.4129C13.7859 14.7751 13.8504 15.1407 13.9027 15.5043C13.91 15.5774 13.9082 15.7094 13.8735 15.773C13.7743 15.9497 13.5562 16.0521 13.3586 15.9728C13.2017 15.9098 13.044 15.8207 12.8929 15.7415C12.6568 15.6169 12.4191 15.4948 12.1801 15.3754L9.81604 14.1677L9.15024 13.8285C8.95201 13.7253 8.74193 13.609 8.53941 13.5176C8.45656 13.4968 8.18265 13.6597 8.09676 13.7037L7.36743 14.0754L4.80259 15.3863L4.08953 15.754C3.91277 15.8451 3.63099 16.0273 3.43397 15.9912C3.32141 15.9714 3.22187 15.9072 3.1582 15.8134C3.10512 15.7367 3.08411 15.6558 3.09294 15.5641C3.11329 15.3529 3.15792 15.1301 3.19395 14.9205L3.38543 13.7823L3.74153 11.6453C3.81507 11.2031 3.88918 10.6973 3.97985 10.2645C3.87559 10.1424 3.72947 10.0118 3.61188 9.89739L2.92683 9.23174L1.06043 7.41187L0.505129 6.87533C0.373283 6.74873 0.252836 6.62994 0.121338 6.49509C-0.0926453 6.27566 -0.0136913 5.91936 0.280234 5.82499C0.433553 5.77576 0.656112 5.75511 0.82378 5.73052L1.70242 5.60125L4.38659 5.19901C4.80529 5.13566 5.29642 5.075 5.70798 4.99568C5.80383 4.77942 5.96456 4.48307 6.07442 4.26871L6.70393 3.03052L7.65305 1.1586C7.80651 0.857658 7.95888 0.556121 8.11427 0.256189C8.19537 0.0996706 8.27007 0.0498216 8.43634 0.00178386Z" fill="#FEC201"/>
<path d="M35.4363 0.00178386C35.8464 -0.0302833 35.949 0.376742 36.1012 0.678485L36.5834 1.6263L37.6719 3.76298C37.879 4.16951 38.0852 4.60122 38.3017 5.00064C39.5099 5.20015 40.7592 5.37145 41.9737 5.55475L43.0323 5.71127C43.2472 5.74263 43.6695 5.77244 43.8494 5.88969C43.9955 5.98485 44.052 6.25684 43.9433 6.41005C43.8369 6.55972 43.6995 6.68331 43.5622 6.81584C43.3672 7.00091 43.1738 7.18758 42.9821 7.37585L41.0317 9.27359C40.7347 9.56159 40.289 9.96779 40.0227 10.2623C40.0697 10.4329 40.1249 10.8286 40.1562 11.0168L40.3954 12.4515L40.7246 14.4129C40.7859 14.7751 40.8504 15.1407 40.9027 15.5043C40.91 15.5774 40.9082 15.7094 40.8735 15.773C40.7743 15.9497 40.5562 16.0521 40.3586 15.9728C40.2017 15.9098 40.044 15.8207 39.8929 15.7415C39.6568 15.6169 39.4191 15.4948 39.1801 15.3754L36.816 14.1677L36.1502 13.8285C35.952 13.7253 35.7419 13.609 35.5394 13.5176C35.4566 13.4968 35.1827 13.6597 35.0968 13.7037L34.3674 14.0754L31.8026 15.3863L31.0895 15.754C30.9128 15.8451 30.631 16.0273 30.434 15.9912C30.3214 15.9714 30.2219 15.9072 30.1582 15.8134C30.1051 15.7367 30.0841 15.6558 30.0929 15.5641C30.1133 15.3529 30.1579 15.1301 30.1939 14.9205L30.3854 13.7823L30.7415 11.6453C30.8151 11.2031 30.8892 10.6973 30.9799 10.2645C30.8756 10.1424 30.7295 10.0118 30.6119 9.89739L29.9268 9.23174L28.0604 7.41187L27.5051 6.87533C27.3733 6.74873 27.2528 6.62994 27.1213 6.49509C26.9074 6.27566 26.9863 5.91936 27.2802 5.82499C27.4336 5.77576 27.6561 5.75511 27.8238 5.73052L28.7024 5.60125L31.3866 5.19901C31.8053 5.13566 32.2964 5.075 32.708 4.99568C32.8038 4.77942 32.9646 4.48307 33.0744 4.26871L33.7039 3.03052L34.6531 1.1586C34.8065 0.857658 34.9589 0.556121 35.1143 0.256189C35.1954 0.0996706 35.2701 0.0498216 35.4363 0.00178386Z" fill="#FEC201"/>
<path d="M62.4363 0.00178386C62.8464 -0.0302833 62.949 0.376742 63.1012 0.678485L63.5834 1.6263L64.6719 3.76298C64.879 4.16951 65.0852 4.60122 65.3017 5.00064C66.5099 5.20015 67.7592 5.37145 68.9737 5.55475L70.0323 5.71127C70.2472 5.74263 70.6695 5.77244 70.8494 5.88969C70.9955 5.98485 71.052 6.25684 70.9433 6.41005C70.8369 6.55972 70.6995 6.68331 70.5622 6.81584C70.3672 7.00091 70.1738 7.18758 69.9821 7.37585L68.0317 9.27359C67.7347 9.56159 67.289 9.96779 67.0227 10.2623C67.0697 10.4329 67.1249 10.8286 67.1562 11.0168L67.3954 12.4515L67.7246 14.4129C67.7859 14.7751 67.8504 15.1407 67.9027 15.5043C67.91 15.5774 67.9082 15.7094 67.8735 15.773C67.7743 15.9497 67.5562 16.0521 67.3586 15.9728C67.2017 15.9098 67.044 15.8207 66.8929 15.7415C66.6568 15.6169 66.4191 15.4948 66.1801 15.3754L63.816 14.1677L63.1502 13.8285C62.952 13.7253 62.7419 13.609 62.5394 13.5176C62.4566 13.4968 62.1827 13.6597 62.0968 13.7037L61.3674 14.0754L58.8026 15.3863L58.0895 15.754C57.9128 15.8451 57.631 16.0273 57.434 15.9912C57.3214 15.9714 57.2219 15.9072 57.1582 15.8134C57.1051 15.7367 57.0841 15.6558 57.0929 15.5641C57.1133 15.3529 57.1579 15.1301 57.1939 14.9205L57.3854 13.7823L57.7415 11.6453C57.8151 11.2031 57.8892 10.6973 57.9799 10.2645C57.8756 10.1424 57.7295 10.0118 57.6119 9.89739L56.9268 9.23174L55.0604 7.41187L54.5051 6.87533C54.3733 6.74873 54.2528 6.62994 54.1213 6.49509C53.9074 6.27566 53.9863 5.91936 54.2802 5.82499C54.4336 5.77576 54.6561 5.75511 54.8238 5.73052L55.7024 5.60125L58.3866 5.19901C58.8053 5.13566 59.2964 5.075 59.708 4.99568C59.8038 4.77942 59.9646 4.48307 60.0744 4.26871L60.7039 3.03052L61.6531 1.1586C61.8065 0.857658 61.9589 0.556121 62.1143 0.256189C62.1954 0.0996706 62.2701 0.0498216 62.4363 0.00178386Z" fill="#FEC201"/>
<path d="M88.9401 0.00178386C89.326 -0.0302833 89.4226 0.376742 89.5658 0.678485L90.0197 1.6263L91.0442 3.76298C91.239 4.16951 91.4332 4.60122 91.6369 5.00064C92.774 5.20015 93.9498 5.37145 95.0929 5.55475L96.0892 5.71127C96.2914 5.74263 96.689 5.77244 96.8583 5.88969C96.9957 5.98485 97.049 6.25684 96.9466 6.41005C96.8464 6.55972 96.7172 6.68331 96.5879 6.81584C96.4044 7.00091 96.2224 7.18758 96.042 7.37585L94.2063 9.27359C93.9268 9.56159 93.5073 9.96779 93.2566 10.2623C93.3009 10.4329 93.3529 10.8286 93.3823 11.0168L93.6074 12.4515L93.9173 14.4129C93.975 14.7751 94.0357 15.1407 94.0849 15.5043C94.0918 15.5774 94.09 15.7094 94.0575 15.773C93.9641 15.9497 93.7588 16.0521 93.5728 15.9728C93.4251 15.9098 93.2767 15.8207 93.1345 15.7415C92.9122 15.6169 92.6886 15.4948 92.4636 15.3754L90.2386 14.1677L89.612 13.8285C89.4254 13.7253 89.2277 13.609 89.0371 13.5176C88.9591 13.4968 88.7013 13.6597 88.6205 13.7037L87.9341 14.0754L85.5201 15.3863L84.849 15.754C84.6826 15.8451 84.4174 16.0273 84.232 15.9912C84.126 15.9714 84.0323 15.9072 83.9724 15.8134C83.9225 15.7367 83.9027 15.6558 83.911 15.5641C83.9302 15.3529 83.9722 15.1301 84.0061 14.9205L84.1863 13.7823L84.5214 11.6453C84.5907 11.2031 84.6604 10.6973 84.7457 10.2645C84.6476 10.1424 84.5101 10.0118 84.3994 9.89739L83.7547 9.23174L81.9981 7.41187L81.4754 6.87533C81.3513 6.74873 81.238 6.62994 81.1142 6.49509C80.9128 6.27566 80.9871 5.91936 81.2637 5.82499C81.408 5.77576 81.6175 5.75511 81.7753 5.73052L82.6023 5.60125L85.1286 5.19901C85.5226 5.13566 85.9849 5.075 86.3722 4.99568C86.4624 4.77942 86.6137 4.48307 86.7171 4.26871L87.3096 3.03052L88.2029 1.1586C88.3473 0.857658 88.4907 0.556121 88.637 0.256189C88.7133 0.0996706 88.7836 0.0498216 88.9401 0.00178386Z" fill="#FEC201"/>
<path d="M114.94 0.00178386C115.326 -0.0302833 115.423 0.376742 115.566 0.678485L116.02 1.6263L117.044 3.76298C117.239 4.16951 117.433 4.60122 117.637 5.00064C118.774 5.20015 119.95 5.37145 121.093 5.55475L122.089 5.71127C122.291 5.74263 122.689 5.77244 122.858 5.88969C122.996 5.98485 123.049 6.25684 122.947 6.41005C122.846 6.55972 122.717 6.68331 122.588 6.81584C122.404 7.00091 122.222 7.18758 122.042 7.37585L120.206 9.27359C119.927 9.56159 119.507 9.96779 119.257 10.2623C119.301 10.4329 119.353 10.8286 119.382 11.0168L119.607 12.4515L119.917 14.4129C119.975 14.7751 120.036 15.1407 120.085 15.5043C120.092 15.5774 120.09 15.7094 120.057 15.773C119.964 15.9497 119.759 16.0521 119.573 15.9728C119.425 15.9098 119.277 15.8207 119.134 15.7415C118.912 15.6169 118.689 15.4948 118.464 15.3754L116.239 14.1677L115.612 13.8285C115.425 13.7253 115.228 13.609 115.037 13.5176C114.959 13.4968 114.701 13.6597 114.62 13.7037L113.934 14.0754L111.52 15.3863L110.849 15.754C110.683 15.8451 110.417 16.0273 110.232 15.9912C110.126 15.9714 110.032 15.9072 109.972 15.8134C109.922 15.7367 109.903 15.6558 109.911 15.5641C109.93 15.3529 109.972 15.1301 110.006 14.9205L110.186 13.7823L110.521 11.6453C110.591 11.2031 110.66 10.6973 110.746 10.2645C110.648 10.1424 110.51 10.0118 110.399 9.89739L109.755 9.23174L107.998 7.41187L107.475 6.87533C107.351 6.74873 107.238 6.62994 107.114 6.49509C106.913 6.27566 106.987 5.91936 107.264 5.82499C107.408 5.77576 107.618 5.75511 107.775 5.73052L108.602 5.60125L111.129 5.19901C111.523 5.13566 111.985 5.075 112.372 4.99568C112.462 4.77942 112.614 4.48307 112.717 4.26871L113.31 3.03052L114.203 1.1586C114.347 0.857658 114.491 0.556121 114.637 0.256189C114.713 0.0996706 114.784 0.0498216 114.94 0.00178386Z" fill="#FEC201"/>
</svg>
