<svg width="16" height="16" viewBox="0 0 16 16" fill="none" xmlns="http://www.w3.org/2000/svg">
<path d="M14.6668 6.73337C14.7335 6.40004 14.4668 6.00004 14.1335 6.00004L10.3335 5.46671L8.60016 2.00004C8.5335 1.86671 8.46683 1.80004 8.3335 1.73337C8.00016 1.53337 7.60016 1.66671 7.40016 2.00004L5.7335 5.46671L1.9335 6.00004C1.7335 6.00004 1.60016 6.06671 1.5335 6.20004C1.26683 6.46671 1.26683 6.86671 1.5335 7.13337L4.26683 9.80004L3.60016 13.6C3.60016 13.7334 3.60016 13.8667 3.66683 14C3.86683 14.3334 4.26683 14.4667 4.60016 14.2667L8.00016 12.4667L11.4002 14.2667C11.4668 14.3334 11.6002 14.3334 11.7335 14.3334C11.8002 14.3334 11.8002 14.3334 11.8668 14.3334C12.2002 14.2667 12.4668 13.9334 12.4002 13.5334L11.7335 9.73337L14.4668 7.06671C14.6002 7.00004 14.6668 6.86671 14.6668 6.73337Z" fill="#FFC300"/>
</svg>
