<svg width="48" height="48" viewBox="0 0 48 48" fill="none" xmlns="http://www.w3.org/2000/svg">
<path d="M23.5692 4.00566C27.573 3.89913 31.47 5.29997 34.483 7.92876C37.41 10.4499 39.5366 14.4192 39.8145 18.2814C41.4561 18.5672 41.9738 19.4062 41.9843 20.992L41.9888 26.7853C41.9893 27.9231 42.0488 29.1579 41.8884 30.2832C41.8199 30.7618 41.663 30.9889 41.3242 31.3342C40.65 32.0209 39.812 31.9692 38.9239 31.9632C38.0579 36.5379 36.0136 41.3323 31.0684 42.6913C30.6222 42.8138 30.1647 42.9134 29.7151 43.0308C29.3418 43.5182 28.7733 44.0354 28.1237 43.9981C25.8311 43.8652 25.8321 40.4611 28.2354 40.5383C28.8636 40.5582 29.2495 40.8818 29.6527 41.3278C30.6491 41.0894 31.6861 40.8031 32.5498 40.2396C35.5091 38.3086 36.4652 35.1731 37.2107 31.98C36.4579 31.9689 35.3618 31.9328 34.6463 32.0003L34.6462 18.3153L35.6138 18.3112L36.4697 18.32C36.1218 16.1167 35.4805 14.3222 34.1483 12.4995C32.1761 9.79968 29.2038 7.99556 25.891 7.4875C22.6078 6.99377 19.2618 7.81336 16.5828 9.76757C13.6911 11.8897 12.0737 14.8117 11.5378 18.3139C12.131 18.3036 12.7696 18.319 13.3664 18.3222L13.3611 31.9667L9.9047 31.9712C8.74902 31.972 7.22508 32.1672 6.46468 31.0993C5.8714 30.2661 6.01492 29.1127 6.01602 28.1212L6.01802 25.181L6.01717 22.1904C6.01747 21.5045 5.99184 20.8212 6.08639 20.1405C6.23681 19.0577 7.14113 18.3947 8.19321 18.304C8.3196 15.1362 10.1796 11.3322 12.3514 9.06267C15.408 5.86872 19.1749 4.17546 23.5692 4.00566Z" fill="#BA9B31"/>
</svg>
