<svg width="40" height="40" viewBox="0 0 40 40" fill="none" xmlns="http://www.w3.org/2000/svg">
<path d="M19.641 3.27378C22.9775 3.18466 26.225 4.35653 28.7358 6.55565C31.175 8.6647 32.9472 11.9853 33.1787 15.2162C34.5467 15.4552 34.9782 16.1572 34.9869 17.4837L34.9907 22.3302C34.9911 23.282 35.0407 24.3149 34.907 25.2563C34.8499 25.6566 34.7192 25.8467 34.4368 26.1356C33.875 26.71 33.1766 26.6668 32.4366 26.6617C31.7149 30.4887 30.0114 34.4995 25.8903 35.6364C25.5185 35.7388 25.1372 35.8221 24.7626 35.9204C24.4515 36.3281 23.9777 36.7608 23.4364 36.7295C21.5259 36.6183 21.5268 33.7707 23.5295 33.8352C24.053 33.8519 24.3746 34.1226 24.7106 34.4957C25.5409 34.2963 26.405 34.0568 27.1248 33.5854C29.5909 31.97 30.3877 29.347 31.0089 26.6758C30.3816 26.6665 29.4682 26.6362 28.8719 26.6928L28.8719 15.2446L29.6781 15.2411L30.3914 15.2484C30.1015 13.4053 29.5671 11.9041 28.457 10.3793C26.8134 8.12078 24.3365 6.61154 21.5759 6.18652C18.8398 5.77349 16.0515 6.45912 13.819 8.09392C11.4093 9.86922 10.0614 12.3136 9.61482 15.2434C10.1091 15.2347 10.6414 15.2476 11.1386 15.2503L11.1343 26.6646L8.25392 26.6684C7.29085 26.6691 6.0209 26.8324 5.38724 25.939C4.89283 25.242 5.01244 24.2771 5.01335 23.4477L5.01502 20.988L5.01431 18.4863C5.01456 17.9124 4.9932 17.3408 5.07199 16.7714C5.19734 15.8656 5.95094 15.311 6.82768 15.2351C6.933 12.585 8.48296 9.40285 10.2929 7.50423C12.84 4.83232 15.9791 3.41583 19.641 3.27378Z" fill="#282828"/>
</svg>
