<svg width="28" height="28" viewBox="0 0 28 28" fill="none" xmlns="http://www.w3.org/2000/svg">
<path d="M13.7607 3.00311C15.985 2.94452 18.15 3.71498 19.8239 5.16082C21.45 6.54743 22.6315 8.73057 22.7858 10.8548C23.6978 11.0119 23.9855 11.4734 23.9913 12.3456L23.9938 15.5319C23.9941 16.1577 24.0271 16.8368 23.938 17.4557C23.8999 17.719 23.8128 17.8439 23.6245 18.0338C23.25 18.4115 22.7844 18.3831 22.2911 18.3798C21.8099 20.8958 20.6742 23.5328 17.9269 24.2802C17.679 24.3476 17.4248 24.4024 17.1751 24.467C16.9677 24.735 16.6518 25.0195 16.2909 24.999C15.0173 24.9258 15.0178 23.0536 16.353 23.0961C16.702 23.107 16.9164 23.285 17.1404 23.5303C17.6939 23.3992 18.27 23.2417 18.7499 22.9318C20.3939 21.8697 20.9251 20.1452 21.3393 18.389C20.921 18.3829 20.3121 18.363 19.9146 18.4002L19.9146 10.8734L20.4521 10.8712L20.9276 10.876C20.7343 9.66416 20.378 8.67723 19.638 7.6747C18.5423 6.18982 16.891 5.19756 15.0506 4.91812C13.2265 4.64657 11.3677 5.09735 9.87933 6.17216C8.27285 7.33936 7.37428 8.94643 7.07655 10.8727C7.40609 10.867 7.7609 10.8755 8.09242 10.8772L8.08951 18.3817L6.16928 18.3842C5.52723 18.3846 4.6806 18.492 4.25816 17.9046C3.92856 17.4463 4.00829 16.812 4.0089 16.2666L4.01001 14.6495L4.00954 13.0047C4.00971 12.6275 3.99547 12.2516 4.04799 11.8773C4.13156 11.2817 4.63396 10.9171 5.21845 10.8672C5.28867 9.12489 6.32198 7.03273 7.52858 5.78447C9.22665 4.02779 11.3194 3.0965 13.7607 3.00311Z" fill="white"/>
</svg>
