<svg width="64" height="64" viewBox="0 0 64 64" fill="none" xmlns="http://www.w3.org/2000/svg">
<rect width="64" height="64" rx="32" fill="#D90B05"/>
<path d="M17 32.0082C17.0014 32.0029 17.0029 31.9976 17.0042 31.9923C17.0418 31.8405 17.0441 31.6726 17.059 31.5169C17.0726 31.3754 17.0947 31.2349 17.1173 31.0947C17.2826 30.068 17.6851 28.8382 18.6017 28.2634C18.81 28.1328 19.0543 28.0248 19.2979 27.9881C19.6094 27.9411 20.5608 28.0281 20.7467 27.937C20.8277 27.8973 20.8519 27.8296 20.8722 27.7457C20.9282 27.5144 20.9363 27.2646 20.9724 27.0287C21.035 26.6333 21.1214 26.2421 21.2312 25.8575C21.9634 23.2791 23.6082 21.0667 25.8494 19.6453C27.3986 18.6613 29.1712 18.0993 30.9965 18.0134C31.3464 17.9936 31.7163 18.0091 32.0671 18.0027C33.0655 17.9843 33.9986 18.058 34.9744 18.2953C37.7224 18.9689 40.0965 20.719 41.5788 23.1637C42.2977 24.344 42.7833 25.6552 43.0084 27.0241C43.0514 27.2807 43.0796 27.6148 43.1605 27.8505C43.22 28.0234 43.8093 27.9681 43.9714 27.9734C44.2405 27.9821 44.513 27.9509 44.7806 28.0056C45.3383 28.1331 45.8158 28.5654 46.125 29.034C46.6246 29.7907 46.8242 30.679 46.9285 31.5694C46.9534 31.7809 46.9629 32.2472 47 32.4141V35.3603L46.9962 35.3782C46.9514 35.6001 46.9407 35.8472 46.8966 36.0802C46.7371 36.9219 46.3517 37.728 45.6334 38.2154C45.4161 38.3628 45.0715 38.5312 44.8139 38.5709C44.3776 38.6383 43.8734 38.5778 43.429 38.6066C43.3928 38.609 43.2844 38.6322 43.2746 38.6566C43.1775 38.9007 43.0697 39.4764 43.0079 39.7165C42.4282 41.9847 41.3215 44.3996 39.0677 45.3641C37.9142 45.858 36.7697 45.7395 35.5521 45.75C34.7918 45.7566 35.0037 45.6178 34.5811 46.1926C34.5233 46.2704 34.4602 46.3439 34.3919 46.4125C34.1586 46.6459 33.8255 46.8407 33.5091 46.927C33.3806 46.9611 33.2492 46.9821 33.1168 46.99C32.849 47.0075 32.4167 46.9972 32.1399 46.9947C31.7171 46.991 31.0887 47.0258 30.6934 46.9441C30.1905 46.8397 29.7488 46.5373 29.4649 46.1029C29.1709 45.6507 29.066 45.0983 29.1732 44.5675C29.2836 44.0436 29.5937 43.5854 30.0357 43.2929C30.2446 43.1561 30.5008 43.0537 30.7456 43.0094C31.1322 42.9396 31.5671 42.9759 31.9591 42.9758C32.3916 42.9758 33.026 42.9338 33.4404 43.0268C33.9884 43.1497 34.3914 43.4711 34.6925 43.945C34.741 44.0214 34.8198 44.1785 34.8973 44.2245C34.9979 44.2843 37.0354 44.2563 37.2715 44.2444C37.4618 44.2349 37.66 44.2161 37.8471 44.1767C38.2609 44.0895 38.6416 43.9371 38.999 43.7075C40.5438 42.7159 41.3136 40.6427 41.6877 38.911C41.7043 38.8347 41.732 38.727 41.6935 38.6551C41.4408 38.4681 40.4854 38.8766 39.8485 38.108C39.6935 37.9214 39.5907 37.6962 39.5504 37.4555C39.513 37.2205 39.5294 36.4304 39.5297 36.158L39.5302 33.6093L39.53 30.67L39.5289 29.7431C39.5287 29.5744 39.5224 29.3485 39.5397 29.187C39.5668 28.9464 39.6564 28.7176 39.7991 28.5237C40.0102 28.2342 40.3275 28.0436 40.6791 27.9952C40.9405 27.9578 41.0668 27.9975 41.016 27.654C40.6648 25.2837 39.4389 23.1726 37.515 21.7682C36.2719 20.844 34.8017 20.2866 33.2662 20.1573C32.8247 20.118 32.4542 20.1223 32.0164 20.1196C31.3629 20.1154 30.7834 20.1261 30.1329 20.235C27.8587 20.6056 25.8268 21.8896 24.4948 23.7979C23.7886 24.8097 23.2991 25.9606 23.0579 27.1764C23.0313 27.3153 22.9163 27.8273 23.041 27.9214C23.0828 27.9529 23.2382 27.9848 23.3003 27.9927C23.952 28.0758 24.4543 28.6576 24.4663 29.322C24.4745 29.7772 24.4703 30.2336 24.4703 30.6892L24.4701 33.5315L24.4697 36.0513C24.4697 36.4017 24.4905 36.9881 24.4651 37.3119C24.4494 37.529 24.3839 37.739 24.2738 37.9257C23.8168 38.7042 23.0526 38.6017 22.2921 38.6005H20.8585L19.8984 38.6011C19.3408 38.6013 18.9915 38.6083 18.4871 38.3055C17.6188 37.7843 17.2019 36.8402 17.063 35.8608C17.0432 35.7171 17.0379 35.5461 17 35.407V32.0082Z" fill="white"/>
</svg>
