<svg width="36" height="36" viewBox="0 0 36 36" fill="none" xmlns="http://www.w3.org/2000/svg">
<path d="M17.7607 7.00311C19.985 6.94452 22.15 7.71498 23.8239 9.16082C25.45 10.5474 26.6315 12.7306 26.7858 14.8548C27.6978 15.0119 27.9855 15.4734 27.9913 16.3456L27.9938 19.5319C27.9941 20.1577 28.0271 20.8368 27.938 21.4557C27.8999 21.719 27.8128 21.8439 27.6245 22.0338C27.25 22.4115 26.7844 22.3831 26.2911 22.3798C25.8099 24.8958 24.6742 27.5328 21.9269 28.2802C21.679 28.3476 21.4248 28.4024 21.1751 28.467C20.9677 28.735 20.6518 29.0195 20.2909 28.999C19.0173 28.9258 19.0178 27.0536 20.353 27.0961C20.702 27.107 20.9164 27.285 21.1404 27.5303C21.6939 27.3992 22.27 27.2417 22.7499 26.9318C24.3939 25.8697 24.9251 24.1452 25.3393 22.389C24.921 22.3829 24.3121 22.363 23.9146 22.4002L23.9146 14.8734L24.4521 14.8712L24.9276 14.876C24.7343 13.6642 24.378 12.6772 23.638 11.6747C22.5423 10.1898 20.891 9.19756 19.0506 8.91812C17.2265 8.64657 15.3677 9.09735 13.8793 10.1722C12.2729 11.3394 11.3743 12.9464 11.0765 14.8727C11.4061 14.867 11.7609 14.8755 12.0924 14.8772L12.0895 22.3817L10.1693 22.3842C9.52723 22.3846 8.6806 22.492 8.25816 21.9046C7.92856 21.4463 8.00829 20.812 8.0089 20.2666L8.01001 18.6495L8.00954 17.0047C8.00971 16.6275 7.99547 16.2516 8.04799 15.8773C8.13156 15.2817 8.63396 14.9171 9.21845 14.8672C9.28867 13.1249 10.322 11.0327 11.5286 9.78447C13.2267 8.02779 15.3194 7.0965 17.7607 7.00311Z" fill="#7E0DFE"/>
</svg>
