<svg width="56" height="56" viewBox="0 0 56 56" fill="none" xmlns="http://www.w3.org/2000/svg">
<path d="M35.6922 7.32522C38.6137 7.38535 41.9048 6.70442 44.1053 8.93264C46.0872 10.9398 45.6122 14.1509 45.6121 16.7715L45.6072 25.4385V38.8926C45.6096 41.1075 45.7255 43.5596 45.491 45.7363C45.2862 47.6369 43.0599 49.7418 41.1336 49.8819C39.4369 50.0052 37.6732 49.9597 35.9725 49.958L27.3289 49.96H19.7762C17.3888 49.9597 14.9249 50.3402 12.9754 48.749C11.8861 47.8666 11.2006 46.5808 11.074 45.1846C10.9393 43.8024 11.0293 40.6399 11.0311 39.1621L11.032 27.5576L11.0311 17.1485C11.0312 15.9601 10.9587 13.0276 11.0936 11.9307C11.2215 10.9496 11.6197 10.0232 12.243 9.2549C13.2365 8.05467 14.4839 7.50171 16.0066 7.36037C16.8897 7.2537 19.893 7.33604 20.9627 7.3301C20.5981 7.66046 20.194 8.02334 19.8553 8.37795C17.6947 10.6232 16.5193 13.6379 16.5906 16.7529C16.6708 19.9175 18.0254 22.916 20.3475 25.0674C22.6045 27.1722 25.6048 28.2949 28.6893 28.1905C31.8418 28.1039 34.8231 26.7362 36.9441 24.4024C39.0529 22.1235 40.1681 19.0984 40.0428 15.9961C39.8945 12.3071 38.3156 9.75777 35.6922 7.32522ZM21.1814 43.917C19.9309 43.9164 17.8934 43.8556 16.7156 43.9453C15.9687 44.6351 16.1253 45.3849 17.2264 45.417C18.4067 45.4513 19.5764 45.4441 20.7566 45.4444H27.1912L35.2352 45.4434C36.7352 45.4428 38.4785 45.4802 39.9598 45.4131C40.3719 45.1603 40.4913 44.6663 40.2439 44.2324C40.1184 44.0123 39.8237 43.9631 39.5975 43.9434C38.4388 43.8766 37.2478 43.9099 36.0877 43.9141L29.7039 43.9229L21.1814 43.917ZM19.2244 39.5137C18.4245 39.5128 16.2277 39.2084 16.202 40.419C16.4638 41.3273 18.341 41.0534 19.1287 41.0567L33.2859 41.0557L37.6902 41.0576C38.4688 41.0586 40.3421 41.3819 40.4217 40.2373C40.4878 39.2847 38.2996 39.5052 37.6844 39.5127L23.5731 39.5156L19.2244 39.5137ZM21.1814 35.0059C19.9309 35.0053 17.8934 34.9435 16.7156 35.0332C15.9685 35.723 16.1253 36.4728 17.2264 36.5049C18.4067 36.5392 19.5764 36.532 20.7566 36.5322L27.1912 36.5332L35.2352 36.5313C36.7352 36.5307 38.4785 36.5681 39.9598 36.501C40.3719 36.2482 40.4913 35.7542 40.2439 35.3203C40.1184 35.1004 39.8236 35.052 39.5975 35.0322C38.4388 34.9655 37.2478 34.9977 36.0877 35.002L29.7039 35.0108L21.1814 35.0059ZM19.2244 30.6026C18.4245 30.6017 16.228 30.2965 16.202 31.5069C16.4638 32.4152 18.341 32.1422 19.1287 32.1455L33.2859 32.1436L37.6902 32.1465C38.4688 32.1475 40.3421 32.4697 40.4217 31.3252C40.4874 30.3729 38.2995 30.5931 37.6844 30.6006L23.5731 30.6035L19.2244 30.6026Z" fill="#282828"/>
<path d="M27.1315 6.08322C32.8614 5.35802 38.093 9.41825 38.8131 15.1487C39.533 20.8792 35.4682 26.1077 29.737 26.8225C24.0135 27.536 18.7943 23.4777 18.0748 17.7551C17.3557 12.032 21.409 6.80772 27.1315 6.08322ZM28.2379 9.75412C27.6381 10.3725 23.8206 14.786 23.6247 15.302L23.6481 15.4826C24.0141 15.7305 25.8469 15.6574 26.3278 15.6242C26.3279 18.0237 26.2636 20.7924 26.3532 23.1574C27.0842 23.1953 27.8165 23.2121 28.5485 23.2082C29.1026 23.2025 29.7036 23.2077 30.2516 23.1604C30.279 20.6474 30.2855 18.1343 30.2711 15.6213C30.8273 15.6402 32.526 15.7135 32.9782 15.5119C33.0063 15.4438 33.027 15.439 32.9967 15.3674C32.7168 14.7065 29.097 10.4286 28.3961 9.79904L28.2379 9.75412Z" fill="#282828"/>
</svg>
