<svg width="40" height="40" viewBox="0 0 40 40" fill="none" xmlns="http://www.w3.org/2000/svg">
<path d="M20.092 2.00512C21.7784 1.88676 21.411 3.84843 21.4064 4.99236L21.405 8.45069C21.9555 7.83296 22.6199 7.19604 23.2246 6.58972C23.6952 6.11779 24.9082 4.71925 25.5372 4.68788C26.1761 4.656 27.037 5.59497 26.4531 6.321C25.956 6.93902 25.3484 7.5048 24.7814 8.07019C23.6357 9.16064 22.5507 10.3785 21.3997 11.4519L21.4026 18.153L27.1953 14.7968C27.1991 14.7528 27.2042 14.7088 27.2106 14.6651C27.2455 14.4248 27.4419 13.7673 27.5128 13.489C27.7761 12.4516 28.0513 11.4172 28.3385 10.3861C28.5591 9.57826 28.7555 8.73066 29.0128 7.93597C29.1627 7.47297 29.7078 7.19818 30.1888 7.28438C30.4611 7.33055 30.7015 7.48911 30.8517 7.72145C31.1496 8.18073 31.0063 8.62905 30.8913 9.11943C30.5603 10.5312 30.0858 11.9089 29.7667 13.3229C30.7472 12.7395 31.7311 12.1619 32.7184 11.5903C33.1838 11.3195 34.1891 10.7029 34.6614 10.5583C34.8449 10.5023 35.0406 10.5012 35.2248 10.5548C35.476 10.6255 35.6883 10.7943 35.8141 11.0234C36.3664 12.029 35.3086 12.5993 34.5913 12.9979C33.2923 13.7198 32.0214 14.5039 30.7175 15.2174C32.1341 15.3283 33.9455 16.1079 35.3715 16.3871C35.7076 16.4529 36.0306 16.6688 36.1878 16.986C36.3181 17.2429 36.3362 17.5426 36.2379 17.8135C35.8727 18.7936 34.7467 18.4512 33.9759 18.2387C32.5241 17.8386 31.0765 17.4347 29.6175 17.0606C29.1772 16.9477 28.6504 16.8181 28.2357 16.6423C27.6333 17.0556 26.7198 17.5456 26.0665 17.924C24.8586 18.6336 23.6424 19.329 22.4183 20.01L26.0419 22.1003C26.7064 22.4838 27.6027 22.9698 28.2091 23.4066C29.5239 22.9697 31.0802 22.597 32.4234 22.2377C33.218 22.0251 34.6226 21.5725 35.3839 21.4798C36.4377 21.9303 36.7638 22.9731 35.5783 23.5504C35.0844 23.791 34.3543 23.9429 33.812 24.0875C32.793 24.3669 31.7681 24.6239 30.738 24.8584C32.2668 25.6381 33.7687 26.6114 35.272 27.4483C35.5682 27.6132 35.8866 27.9169 35.9422 28.2874C36.0551 29.0406 35.3737 29.7534 34.5931 29.4721C33.9 29.1707 33.1196 28.6959 32.4683 28.2987C31.5958 27.7668 30.5575 27.2713 29.7351 26.6836L30.2857 28.6703C30.4544 29.2815 30.6222 29.906 30.7842 30.5176C31.0856 31.6556 31.3784 32.4733 29.919 32.814C29.6158 32.6939 29.4504 32.5985 29.1652 32.435C28.8561 31.9015 27.3404 26.1043 27.1829 25.2505C25.3699 24.1278 23.1254 23.0085 21.4044 21.8758L21.4083 28.5724C22.9268 30.1616 24.5456 31.6746 26.0721 33.2589C26.6038 33.8108 26.9544 34.4948 26.2331 35.0833C26.0044 35.2705 25.7083 35.3538 25.4158 35.3134C24.8753 35.2438 21.8624 32.1627 21.4048 31.5608C21.4002 32.523 21.5535 36.743 21.3023 37.3307C21.1403 37.71 20.7757 37.8625 20.4172 38C19.402 37.9243 19.2099 37.2855 19.2251 36.3841C19.252 34.7972 19.1614 33.1557 19.2438 31.575C18.3672 32.4854 17.4496 33.3672 16.566 34.2718C16.2307 34.615 15.8708 34.981 15.4891 35.2685C15.3935 35.2842 15.2975 35.2969 15.2011 35.3066C14.2865 35.393 13.6132 34.4185 14.2311 33.6463C14.7609 32.9844 15.4243 32.3757 16.0266 31.7752C17.1021 30.7109 18.1703 29.6393 19.2312 28.5604L19.228 21.8828C18.499 22.3122 13.7198 24.9041 13.4831 25.3341C13.1052 26.0206 12.6542 28.3023 12.4219 29.1736C12.1486 30.1986 11.9377 31.4286 11.4747 32.3764L11.4462 32.4337C11.3596 32.4885 11.2717 32.5412 11.1825 32.5917C10.8684 32.7672 10.5455 32.7763 10.2061 32.6717C9.36364 32.42 9.56584 31.3796 9.76826 30.7421C10.1891 29.4166 10.4626 27.993 10.8771 26.6748C10.8505 26.6938 10.8239 26.7126 10.7971 26.7313C9.43995 27.6752 7.50374 28.6444 6.05038 29.4597C5.41311 29.8171 4.44747 29.1709 4.57268 28.3881C4.69761 27.6072 6.12686 26.9836 6.77025 26.6149L9.80583 24.8787C8.24105 24.4225 6.63046 24.0993 5.08407 23.5844C4.43396 23.3678 4.15398 22.7275 4.44971 22.1095C4.64659 21.698 4.87385 21.6243 5.27405 21.4696C5.92545 21.5763 7.24345 21.9714 7.91554 22.1631C9.25261 22.5445 11.0892 22.927 12.3707 23.4092C12.8881 23.0387 13.9109 22.4823 14.4797 22.1536L18.1921 20.019C16.2504 18.9121 14.3145 17.7951 12.3844 16.668C11.9584 16.8449 10.4664 17.1912 9.9505 17.3321C8.77638 17.6526 7.56542 17.991 6.38985 18.3029C5.90975 18.4047 5.17502 18.6094 4.74191 18.3108C4.13166 17.8709 4.23849 16.7576 4.96318 16.4865C5.21108 16.3885 5.48051 16.309 5.74091 16.2479C7.08589 15.9326 8.46596 15.4262 9.82579 15.1979C8.97853 14.6693 4.82524 12.5547 4.60184 11.8498C4.51246 11.5677 4.6029 11.2339 4.74281 10.9836C4.87581 10.7457 5.07252 10.5915 5.33674 10.5192C5.53417 10.4653 5.7722 10.478 5.96515 10.5423C6.58139 10.7476 7.1839 11.1747 7.74744 11.5035L10.8356 13.3163C10.5543 12.1962 10.2849 11.085 9.95375 9.97749C9.79916 9.46046 9.46591 8.45654 9.64176 7.95655C9.74051 7.68215 9.9491 7.46167 10.2171 7.34831C11.6172 6.76583 11.8447 8.78897 12.0982 9.66384C12.5909 11.3639 12.9297 13.1498 13.4967 14.824C13.8778 15.1107 14.8183 15.6073 15.2628 15.8694C16.5725 16.6415 17.9319 17.3671 19.2201 18.174L19.2255 11.4424C19.1811 11.4084 19.1375 11.3734 19.0948 11.3373C17.8578 10.2974 16.6473 8.75562 15.4108 7.65983C15.0108 7.3053 14.5904 6.83769 14.2311 6.41777C13.613 5.69528 14.3483 4.54 15.2498 4.70964C15.7197 4.81709 16.6538 5.84401 17.032 6.22446C17.7654 6.95893 18.4926 7.69947 19.2137 8.44597C19.239 7.29372 19.0467 3.26511 19.4127 2.47998C19.5348 2.21812 19.8436 2.10622 20.092 2.00512Z" fill="#BA9B31"/>
</svg>
