<svg width="36" height="36" viewBox="0 0 36 36" fill="none" xmlns="http://www.w3.org/2000/svg">
<path d="M9.04404 8.96749C10.4023 8.68422 12.2816 8.46605 13.7011 8.24271L15.7675 7.917C16.2193 7.84412 16.9539 7.69872 17.3806 7.71558C17.9415 7.7377 18.6577 7.86612 19.2282 7.93315C20.6281 8.11105 22.031 8.26483 23.4361 8.39453L23.4762 8.40455C23.8754 8.50171 26.2026 8.66567 26.3387 8.77537C26.4187 8.92931 26.3642 11.4539 26.4225 11.9033C26.533 12.1741 26.9224 12.871 26.4976 12.9612C26.4657 12.968 26.4221 12.9876 26.3893 12.9984C26.3942 13.6434 26.3694 14.3155 26.3816 14.9511C26.3763 15.2706 26.3371 16.879 26.3792 17.1437C26.3835 18.4492 26.3419 19.9485 26.3924 21.2309C24.8603 21.8315 23.3391 22.5118 21.8139 23.1302C21.2613 23.3543 20.194 23.8455 19.6509 23.9899C19.2736 24.0042 16.743 23.5414 16.2288 23.454L9.04529 22.2723C8.99653 20.6856 9.03218 18.8326 9.04368 17.2326C8.5727 17.335 8.10453 17.4496 7.6396 17.5765C5.56436 18.145 2.6736 19.2206 1.55819 21.1773C3.77383 24.5589 11.3704 25.8895 15.2304 25.9287C15.2277 25.6276 15.2337 25.3163 15.2354 25.0143C16.3283 25.5958 17.6296 26.4661 18.6775 26.9788C18.3008 27.1556 17.5106 27.6485 17.1232 27.8776C16.6906 28.1334 15.555 28.7323 15.2314 29.0213L15.2312 28.0904C14.2654 27.9618 13.2599 27.9286 12.279 27.7863C9.36594 27.3572 6.34697 26.7501 3.75572 25.2892C2.59604 24.6173 1.27212 23.5471 1.29929 22.0719C1.31724 21.0964 1.14162 19.7029 1.68885 18.8754C3.17491 16.6283 6.59506 15.7468 9.01732 15.1098C9.02513 14.8097 9.09885 13.7917 8.95445 13.5819C8.67948 13.4623 8.58661 13.374 8.60039 13.0556C8.61265 12.7717 8.65171 12.5272 8.96583 12.5273C9.07273 11.5515 9.03719 9.97808 9.04404 8.96749ZM25.2165 9.00424C24.6015 8.82586 23.5884 8.73374 22.9193 8.64171C21.5567 8.53805 20.1817 8.33407 18.8239 8.17279C18.378 8.11983 17.9193 8.01377 17.4713 7.99762C17.1591 7.98636 10.5457 9.01033 10.4618 9.07459C10.4553 9.0796 10.4503 9.08629 10.4445 9.09214L10.4649 9.14459C11.191 9.25077 11.9084 9.318 12.6325 9.41064L17.6651 10.0338C18.0027 10.0724 19.2908 10.2719 19.5517 10.2269C19.9143 10.1159 20.839 9.94855 21.2576 9.85663C22.5756 9.56486 23.8952 9.2807 25.2165 9.00424Z" fill="#282828"/>
<path d="M17.3832 7.7154C17.944 7.73755 18.6605 7.86615 19.2308 7.93318C20.6306 8.11106 22.0338 8.26443 23.4388 8.39411L23.4789 8.40486C23.879 8.50201 26.2044 8.6653 26.3412 8.77497C26.4212 8.92887 26.367 11.4525 26.4251 11.9029C26.5357 12.1737 26.9242 12.8713 26.4994 12.9615C26.4677 12.9683 26.4245 12.9879 26.3919 12.9986C24.8724 13.4059 23.3401 13.9302 21.8285 14.3658C21.2753 14.5252 19.9059 14.998 19.4115 15.0064C18.1951 14.7826 16.5152 14.604 15.2582 14.4312C13.1938 14.1475 11.0197 13.8005 8.9564 13.5816C8.68173 13.4621 8.5891 13.3734 8.60288 13.0552C8.61516 12.7715 8.65415 12.5269 8.96811 12.5269C9.07496 11.5511 9.03939 9.97782 9.04624 8.96736C10.4045 8.68408 12.284 8.46608 13.7035 8.24275L15.7699 7.91657C16.2218 7.84368 16.9565 7.69854 17.3832 7.7154ZM17.474 7.99763C17.1618 7.98637 10.5491 9.01038 10.4642 9.07478C10.4577 9.07979 10.4524 9.08651 10.4466 9.09236L10.4671 9.14509C11.1932 9.25127 11.911 9.31808 12.6351 9.41071L17.6673 10.0338C18.0037 10.0722 19.2838 10.2702 19.5511 10.2271H19.5521C19.9147 10.1161 20.8396 9.94892 21.2582 9.857C22.5761 9.56523 23.8959 9.28093 25.2171 9.00446C24.6022 8.82612 23.5893 8.73418 22.9203 8.64216V8.64118C21.5581 8.5375 20.1837 8.33365 18.8265 8.17243C18.3807 8.11948 17.9219 8.01383 17.474 7.99763Z" fill="#282828"/>
<path d="M26.422 11.9033C26.5326 12.1741 26.922 12.8711 26.4971 12.9613C26.4653 12.968 26.4216 12.9877 26.3888 12.9984C24.8693 13.4057 23.3375 13.9303 21.8259 14.366C21.2727 14.5253 19.9027 14.9982 19.4085 15.0064C18.1921 14.7826 16.5125 14.6036 15.2554 14.4309C13.191 14.1472 11.0173 13.8008 8.95401 13.5819C8.67904 13.4623 8.58617 13.374 8.59995 13.0557C8.61221 12.7718 8.65127 12.5273 8.96539 12.5273C11.4412 12.9576 14.0308 13.2375 16.5247 13.5995C17.1367 13.6883 19.1045 14.0162 19.6027 13.9804C20.701 13.7222 22.2209 13.1867 23.3401 12.8679C24.0617 12.6623 25.7961 12.1677 26.422 11.9033Z" fill="white"/>
<path d="M26.3885 12.9989C26.3935 13.6439 26.3687 14.316 26.3808 14.9516C26.3756 15.2711 26.3363 16.8794 26.3784 17.1442C26.3827 18.4497 26.3411 19.949 26.3917 21.2314C24.8596 21.8319 23.3383 22.5123 21.8132 23.1307C21.2606 23.3548 20.1933 23.846 19.6501 23.9904C19.6159 22.9936 19.6419 21.854 19.6411 20.8468C19.6411 19.5362 19.6184 18.2257 19.573 16.9158C19.5587 16.4452 19.6028 15.4343 19.5381 15.065L19.4082 15.0068C19.9024 14.9986 21.2724 14.5258 21.8256 14.3664C23.3372 13.9308 24.869 13.4062 26.3885 12.9989Z" fill="#282828"/>
<path d="M26.382 14.951C26.5617 15.0564 27.6774 15.2544 27.9841 15.3495C30.2947 16.0657 33.526 16.9558 34.5993 19.3648C34.8077 19.8381 34.6614 21.1 34.6963 21.6393C34.7308 22.172 34.74 22.81 34.4655 23.278C33.3649 25.1542 30.7062 26.1762 28.7389 26.7652C26.884 27.3066 24.9842 27.6798 23.0624 27.8804C22.2694 27.9639 20.9997 28.0111 20.2949 28.117C20.2923 27.4232 20.2806 26.7015 20.3065 26.0108C21.2148 25.8785 22.1162 25.8854 23.0412 25.7722C25.9292 25.4185 28.7093 24.8987 31.3808 23.6697C31.9028 23.4296 34.4134 22.0422 34.4355 21.119C34.4439 20.7602 33.295 19.7558 32.9813 19.5622C31.2956 18.4054 29.2997 17.7679 27.3285 17.2973C27.1542 17.2559 26.5256 17.083 26.3796 17.1437C26.3375 16.8789 26.3768 15.2706 26.382 14.951Z" fill="#282828"/>
</svg>
