<svg width="52" height="52" viewBox="0 0 52 52" fill="none" xmlns="http://www.w3.org/2000/svg">
<rect width="52" height="52" rx="26" fill="#C52B20"/>
<path fill-rule="evenodd" clip-rule="evenodd" d="M23.3333 11.3335C22.597 11.3335 22 11.9305 22 12.6668C22 13.4032 22.597 14.0002 23.3333 14.0002H24.6667V16.7401C22.3523 16.9962 20.2356 17.9108 18.5098 19.291L17.6095 18.3907C17.0888 17.87 16.2446 17.87 15.7239 18.3907C15.2032 18.9114 15.2032 19.7556 15.7239 20.2763L16.6242 21.1766C14.9829 23.2289 14 25.834 14 28.6668C14 29.4032 14.597 30.0002 15.3333 30.0002C16.0697 30.0002 16.6667 29.4032 16.6667 28.6668C16.6667 26.0891 17.7099 23.7576 19.4003 22.0672C21.0908 20.3767 23.4223 19.3335 26 19.3335C28.5777 19.3335 30.9092 20.3767 32.5996 22.0672C34.2901 23.7576 35.3333 26.0891 35.3333 28.6668C35.3333 32.1791 33.3939 35.2402 30.5211 36.8343C29.8772 37.1916 29.6448 38.0032 30.0021 38.6471C30.3595 39.291 31.1711 39.5234 31.8149 39.166C35.5007 37.1208 38 33.1867 38 28.6668C38 25.834 37.0171 23.2289 35.3759 21.1766L36.2761 20.2763C36.7968 19.7556 36.7968 18.9114 36.2761 18.3907C35.7555 17.87 34.9112 17.87 34.3905 18.3907L33.4901 19.291C31.7644 17.9108 29.6476 16.9962 27.3333 16.7401V14.0002H28.6667C29.4031 14.0002 30 13.4032 30 12.6668C30 11.9305 29.4031 11.3335 28.6667 11.3335H26H23.3333ZM17.8325 33.1879C17.4752 32.544 16.6636 32.3116 16.0197 32.669C15.3758 33.0263 15.1435 33.8379 15.5008 34.4818C17.546 38.1675 21.4802 40.6668 26 40.6668C26.7364 40.6668 27.3333 40.0699 27.3333 39.3335C27.3333 38.5971 26.7364 38.0002 26 38.0002C22.4877 38.0002 19.4266 36.0607 17.8325 33.1879ZM28.2291 22.0106C27.7391 21.9288 27.3333 22.3393 27.3333 22.8361V26.434C27.3333 26.9308 27.736 27.3335 28.2328 27.3335H31.8307C32.3275 27.3335 32.738 26.9278 32.6563 26.4378C32.2783 24.1748 30.492 22.3886 28.2291 22.0106Z" fill="white"/>
</svg>
