<svg width="64" height="64" viewBox="0 0 64 64" fill="none" xmlns="http://www.w3.org/2000/svg">
<path d="M30.5218 15.043C32.2692 14.7866 34.8468 15.1223 36.5296 15.6729C40.2899 16.9142 43.4063 19.5926 45.1995 23.1231C47.5825 27.8442 47.2108 33.8634 44.1234 38.169C42.8258 39.9799 41.1978 41.2513 40.2659 43.3936C39.7398 44.6037 39.3337 45.9101 39.1995 47.2305C39.0841 48.3768 39.177 48.8823 38.807 49.9971C38.3198 50.4405 34.618 50.2722 33.7337 50.2657C32.5787 50.2681 25.8585 50.4571 25.3499 50.0538C25.181 49.9199 25.0697 49.7424 25.0179 49.5352C24.8958 49.0474 24.9033 48.4856 24.8685 47.9834C24.7938 46.9046 24.6584 45.9118 24.3021 44.8848C23.3482 42.1351 21.9023 40.7969 20.2083 38.5801C18.663 36.5416 17.6876 34.1287 17.3812 31.5889C16.8898 27.6603 17.9916 23.6983 20.4417 20.5879C23.02 17.3378 26.4262 15.5142 30.5218 15.043ZM36.7435 25.8594C36.0977 26.2417 31.1583 31.1817 30.5218 31.9483C29.8224 31.2202 27.8832 28.9608 27.0218 28.9239C26.7708 28.9111 26.5262 29.006 26.349 29.1846C25.4359 30.0917 26.5841 30.9446 27.2376 31.5889C28.026 32.385 28.8158 33.2085 29.6322 33.96C30.2296 34.5095 30.7216 34.6097 31.3284 34.0235C33.3185 32.1012 35.2572 30.1018 37.2396 28.169C38.1604 27.2716 38.3992 25.9449 36.7435 25.8594Z" fill="#C52B20"/>
<path d="M26.3806 52.7304L33.848 52.7226C35.2042 52.7194 36.5934 52.6939 37.9479 52.7494C38.2653 52.7684 38.6845 52.8335 38.8661 53.1412C39.4373 54.1112 38.8381 54.7992 37.8715 54.8385C35.654 54.9011 33.3015 54.8037 31.0652 54.8435C29.3747 54.8357 27.7308 54.8839 26.0377 54.8308C25.0821 54.8009 24.6544 53.852 25.1865 53.0859C25.4199 52.7499 26.0012 52.7518 26.3806 52.7304Z" fill="#C52B20"/>
<path d="M28.1285 57.2817C30.5269 57.2298 33.0729 57.2752 35.4814 57.2718C36.5736 57.2703 37.0692 58.5481 35.938 59.3469C33.6203 59.523 30.762 59.3619 28.4018 59.3454C27.4199 59.3385 27.0397 57.9648 28.1285 57.2817Z" fill="#C52B20"/>
<path d="M15.0889 38.333C15.5624 38.2787 16.0937 38.6082 16.2405 39.0005C16.7506 40.3563 12.3035 42.374 11.3598 42.8434C9.98754 42.9601 9.58867 41.4182 11.0339 40.6063C12.3842 39.8475 13.6843 39.0181 15.0889 38.333Z" fill="#C52B20"/>
<path d="M48.4755 38.3315C49.3369 38.2642 53.0609 40.5711 53.7678 41.2901C54.3381 41.8706 53.6753 42.4952 53.2035 42.8562C52.5415 42.8866 51.1488 42.1001 50.5717 41.6995C49.3802 40.8714 46.2979 39.9403 48.4755 38.3315Z" fill="#C52B20"/>
<path d="M19.6993 7.78674C21.0113 7.81797 21.7446 9.80979 22.3811 10.8912C23.0906 12.095 24.0742 13.1383 22.5814 14.0494C21.2999 14.1539 20.239 11.3792 19.5958 10.3815C18.8871 9.28235 18.5112 8.61419 19.6993 7.78674Z" fill="#C52B20"/>
<path d="M10.8238 16.6189C11.7217 16.5417 14.3381 18.3318 15.2606 18.8344C16.4131 19.4626 16.7619 20.1532 15.6612 21.08C14.5876 21.24 11.3076 19.02 10.3367 18.331C9.6535 17.8465 10.3537 16.9892 10.8238 16.6189Z" fill="#C52B20"/>
<path d="M52.6947 16.6095C53.91 16.5256 54.4573 17.9394 53.214 18.7077C51.8341 19.5606 50.4296 20.3927 48.9792 21.1241C48.8383 21.1325 48.7195 21.1364 48.5803 21.1037C48.2689 21.0331 48.0007 20.8379 47.8378 20.5637C47.057 19.2224 51.6576 17.1542 52.6947 16.6095Z" fill="#C52B20"/>
<path d="M43.7937 7.78442C44.4947 7.78875 45.3951 8.36635 45.0972 9.00896C44.5753 10.1377 42.9145 13.4747 41.9376 14.0674C38.7653 14.1769 43.1283 8.20596 43.7937 7.78442Z" fill="#C52B20"/>
<path d="M31.7463 4.5718C32.0069 4.56314 32.8029 4.69918 32.8691 4.98858C33.2705 6.74922 33.0592 8.85841 33.01 10.6725C32.9998 11.0306 32.5941 11.2665 32.3319 11.441C31.9356 11.4646 31.148 11.3483 31.0835 10.8587C30.8459 9.06116 30.9291 7.0701 31.0402 5.25684C31.0598 4.94318 31.5096 4.70996 31.7463 4.5718Z" fill="#C52B20"/>
<path d="M51.1127 28.7042C52.0166 28.6808 52.9373 28.6621 53.8879 28.6729C54.7747 28.6829 57.1111 28.3613 57.1739 29.6939C57.1993 30.2395 56.8641 30.5431 56.4042 30.7805C54.9215 30.8317 52.4808 30.9329 51.0143 30.6623C50.1486 30.5027 49.9713 29.0921 51.1127 28.7042Z" fill="#C52B20"/>
<path d="M7.65103 28.7099C8.63209 28.6707 9.6403 28.6777 10.6477 28.6733C11.4955 28.7207 13.1037 28.4326 13.6299 29.2791C13.9897 29.8581 13.4763 30.5131 12.973 30.783C11.4683 30.8009 9.07424 30.9531 7.58228 30.6706C6.71919 30.5072 6.49005 29.1597 7.65103 28.7099Z" fill="#C52B20"/>
</svg>
