<svg width="64" height="64" viewBox="0 0 64 64" fill="none" xmlns="http://www.w3.org/2000/svg">
<rect width="64" height="64" rx="32" fill="#0B4826"/>
<path d="M32.4015 16C32.8124 16.2845 34.3963 16.9231 34.9523 17.1699L41.8712 20.2705C42.9726 20.7596 44.1362 21.1898 45.1867 21.7764C45.3526 21.8718 45.2897 23.4062 45.2882 23.6279C45.2835 24.4973 45.2837 25.3669 45.2882 26.2363C45.3004 30.1875 45.5104 33.6675 43.9396 37.418C42.2034 41.5633 39.0981 45.2401 34.923 47.0898C34.6044 47.2296 34.282 47.3612 33.9562 47.4834C33.6952 47.5787 32.7059 47.8868 32.5568 48H31.7531C31.613 47.8997 30.7304 47.6153 30.5099 47.5361C30.0676 47.3812 29.6325 47.2056 29.2072 47.0088C23.8078 44.4891 19.7687 38.6139 19.175 32.7021C18.9486 30.448 19.0203 28.0619 19.0197 25.7881L19.008 23.3936C19.0052 22.9778 18.9736 22.1655 19.0539 21.8057C19.8944 21.306 21.3925 20.7368 22.3185 20.3232L29.3449 17.1816C29.8156 16.9701 31.608 16.2498 31.9484 16H32.4015ZM32.1496 18.7588C31.6479 18.8424 29.3741 19.9399 28.7961 20.1963C28.0942 20.5076 27.1883 20.8897 26.4777 21.208C24.7632 21.9929 23.0403 22.76 21.3097 23.5088C21.2617 23.9262 21.2788 24.5797 21.2785 25.0156L21.2726 27.5645C21.263 28.8148 21.2673 30.0671 21.296 31.3174C21.3756 34.7743 22.6678 37.8686 24.8058 40.5664C26.2988 42.4184 28.2395 43.8597 30.4435 44.7549C30.8596 44.9232 31.469 45.1601 31.9035 45.21C32.0025 45.2212 32.1026 45.2259 32.2023 45.2256C32.6835 45.2043 33.1733 45.0196 33.6232 44.8506C35.6448 44.0808 37.4577 42.8474 38.9152 41.249C40.6633 39.3505 41.9139 37.0484 42.5558 34.5488C43.1081 32.4489 43.0624 30.5069 43.0334 28.3525C43.0131 26.8503 43.088 25.2857 43.0226 23.791C43.0191 23.6951 43.0112 23.5991 42.9992 23.5039L35.7257 20.2832C35.1989 20.0484 32.5893 18.8104 32.1496 18.7588Z" fill="white"/>
<path d="M36.2484 27.04C36.6499 27.1345 37.0234 27.4734 37.2394 27.8193C37.008 28.4334 36.1986 29.387 35.7842 29.9419L33.3305 33.224L31.6262 35.5124C31.3764 35.8485 31.0363 36.4657 30.7081 36.7079C30.6163 36.7757 30.4643 36.8465 30.3472 36.8199C30.0014 36.7414 28.8573 34.9116 28.6038 34.5246C28.1783 33.8532 27.2683 32.7364 26.9998 32.0431C27.1463 31.7639 27.5098 31.3814 27.84 31.3522C28.1279 31.3348 28.4826 31.6318 28.6923 31.8147C29.2254 32.2799 29.8307 32.6815 30.3648 33.1402C30.9074 32.6229 31.3079 32.1545 31.8095 31.6238L34.7896 28.4632C35.1304 28.1053 35.8433 27.1987 36.2484 27.04Z" fill="white"/>
</svg>
