<svg width="48" height="48" viewBox="0 0 48 48" fill="none" xmlns="http://www.w3.org/2000/svg">
<path d="M20.0374 16.6644C20.9693 16.6608 21.7801 16.7921 22.6875 16.9628C22.8045 17.4839 22.9626 18.2359 22.9845 18.7704C23.0074 18.9015 23.1056 19.635 23.0146 19.6973L20.0371 19.6985L20.0374 16.6644Z" fill="#BA9B31"/>
<path d="M22.9775 18.7725C23.0005 18.9036 23.0986 19.637 23.0077 19.6994L22.969 19.6713C22.9381 19.5618 22.9515 18.9095 22.9775 18.7725Z" fill="#BA9B31"/>
<path d="M15.582 21.122L18.6107 21.1193C18.627 22.0888 18.609 23.0856 18.6162 24.06C17.7868 24.0966 16.7459 23.9188 15.9384 23.7609C15.7235 22.7754 15.6355 22.1281 15.582 21.122Z" fill="#BA9B31"/>
<path d="M18.3938 16.7523C18.4818 16.7391 18.5143 16.727 18.5998 16.7544C18.6298 16.851 18.6162 17.5489 18.6159 17.6845L18.6162 19.6985L15.929 19.6976L15.582 19.6954C15.6269 18.7703 15.7197 18.1246 15.8969 17.2208C16.7559 17.0225 17.5221 16.8635 18.3938 16.7523Z" fill="#BA9B31"/>
<path d="M22.9834 21.1252L23.046 21.1438C23.0753 21.3263 23.0212 21.7834 23.0004 21.991C22.9478 22.4983 22.8703 23.0028 22.7683 23.5025C21.8251 23.7387 20.9915 23.8761 20.0371 24.0141L20.0408 21.1193C21.0192 21.1317 22.0031 21.1122 22.9834 21.1252Z" fill="#BA9B31"/>
<path d="M22.9781 21.1245L23.0407 21.1431C23.07 21.3256 23.016 21.7826 22.9951 21.9903C22.95 21.8976 22.932 21.2333 22.9781 21.1245Z" fill="#BA9B31"/>
<path d="M12.0717 17.5272C12.8261 17.8994 13.5937 17.743 14.3875 17.5816C14.2763 18.1578 14.222 18.7619 14.1804 19.3469C14.1722 19.4615 14.175 19.5701 14.1508 19.6832L14.1007 19.7025L11.5625 19.7033C11.6152 18.9364 11.817 18.2441 12.0717 17.5272Z" fill="#BA9B31"/>
<path d="M24.4862 21.1194L27.0819 21.1193C27.0415 21.8183 26.8403 22.5266 26.6114 23.1855C26.5416 23.2145 26.0949 23.0037 25.8482 22.9877C25.2694 22.9504 24.8321 23.0411 24.2734 23.1474C24.3948 22.4681 24.4424 21.8067 24.4862 21.1194Z" fill="#BA9B31"/>
<path d="M22.2878 25.0742C22.2929 25.1888 22.0565 25.679 21.9949 25.8096C21.5385 26.7789 20.9913 27.5449 20.0393 28.059C20.0111 27.2258 20.0341 26.2753 20.0361 25.431C20.8167 25.3658 21.523 25.2259 22.2878 25.0742Z" fill="#BA9B31"/>
<path d="M12.2734 23.764C12.408 23.8166 12.8786 24.1279 13.0688 24.2263C13.6558 24.5305 14.1543 24.7126 14.7759 24.9277C15.1464 25.9881 15.3318 26.4448 15.9116 27.4169C15.7158 27.3587 15.2826 27.0893 15.1086 26.9778C13.8861 26.1875 12.9051 25.0755 12.2734 23.764Z" fill="#BA9B31"/>
<path d="M18.5738 12.7776C18.6394 12.8685 18.6132 15.0051 18.6133 15.2984C17.8835 15.3762 17.1582 15.4923 16.4406 15.646C16.4255 15.6434 16.4373 15.6469 16.3945 15.6236C16.4105 15.4876 16.605 15.0866 16.6694 14.9551C17.1064 14.0636 17.6701 13.2414 18.5738 12.7776Z" fill="#BA9B31"/>
<path d="M25.2393 24.4287C25.4209 24.3936 25.7671 24.3429 25.8758 24.5175C25.8838 24.7259 25.6618 24.9611 25.5353 25.1239C24.9089 25.9298 24.0939 26.6711 23.1997 27.1724C23.0719 27.2522 22.8615 27.3553 22.7227 27.4282C23.3182 26.4195 23.5876 25.8201 23.9276 24.6929C24.2596 24.5855 24.8973 24.4714 25.2393 24.4287Z" fill="#BA9B31"/>
<path d="M16.4375 25.3146C17.2793 25.4261 17.7872 25.448 18.615 25.5047L18.6202 28.0372C18.5857 28.0346 18.5892 28.0369 18.5482 28.0179C17.5306 27.5511 16.8307 26.2813 16.4375 25.3146Z" fill="#BA9B31"/>
<path d="M22.7305 13.4091C22.9543 13.4793 23.3 13.6966 23.5019 13.8255C24.7006 14.5896 25.6693 15.665 26.3045 16.9367C26.229 16.9044 26.0922 16.8208 26.0196 16.7742C25.3224 16.3274 24.6115 16.0664 23.8316 15.8008C23.5271 14.8618 23.2358 14.2417 22.7305 13.4091Z" fill="#BA9B31"/>
<path d="M24.252 17.4675C24.5852 17.6039 24.9085 17.7639 25.2191 17.9463C25.8002 18.2918 26.706 19.0046 26.8804 19.696C26.1242 19.7202 25.2477 19.6986 24.4817 19.6987C24.465 19.2656 24.4297 18.8333 24.3764 18.4031C24.3406 18.1354 24.2635 17.7168 24.252 17.4675Z" fill="#BA9B31"/>
<path d="M15.8578 13.4196L15.8724 13.4226C15.8924 13.4711 15.6931 13.7727 15.652 13.8463C15.2671 14.5365 14.9676 15.276 14.747 16.0338C14.2901 16.1824 13.3004 16.3603 12.8406 16.3138C12.7681 16.2839 12.7956 16.3073 12.7539 16.2426C12.7867 16.1161 13.0292 15.8013 13.1175 15.6841C13.859 14.6998 14.7706 13.986 15.8578 13.4196Z" fill="#BA9B31"/>
<path d="M20.0394 12.7671C21.0776 13.2436 21.7563 14.4088 22.1772 15.4204C21.4003 15.2976 20.8177 15.2616 20.035 15.2375C20.0292 14.4479 20.0145 13.55 20.0394 12.7671Z" fill="#BA9B31"/>
<path d="M11.7793 21.1195C12.5669 21.1287 13.3673 21.1229 14.1554 21.1193C14.1865 21.8365 14.2637 22.551 14.3867 23.2583L14.3544 23.2477C13.3623 22.9102 12.2493 22.0931 11.7793 21.1195Z" fill="#BA9B31"/>
<path d="M11.1191 5.15609L13.8145 5.15706H22.1221L26.8174 5.15609C27.4783 5.15529 28.8761 5.11886 29.4736 5.20589C30.3245 5.33165 31.1248 5.68883 31.7861 6.2391C32.761 7.04405 33.37 8.20941 33.4746 9.46956C33.5214 10.0362 33.4939 10.9551 33.4932 11.5428V38.5457C33.4932 39.0075 33.5115 39.7201 33.459 40.16C33.3487 41.071 32.974 41.9306 32.3809 42.6307C31.5158 43.6437 30.3875 44.1948 29.0664 44.2948C28.569 44.3133 27.9945 44.3006 27.4912 44.3006H11.6875C11.0133 44.3014 9.71775 44.339 9.11914 44.245C8.25923 44.1092 7.45396 43.7358 6.79492 43.1668C5.84973 42.3596 5.26406 41.2096 5.16699 39.9705C5.12396 39.3987 5.1508 38.4957 5.15137 37.9051L5.15234 34.1356V22.2733L5.15137 13.4598V10.8045C5.15152 10.3922 5.13383 9.68267 5.18359 9.2889C5.29988 8.36419 5.68645 7.49386 6.29492 6.78792C7.15845 5.79214 8.29151 5.25811 9.59668 5.16488C10.0187 5.12103 10.6813 5.15566 11.1191 5.15609ZM12.9482 36.9881C12.1281 36.9879 11.1093 36.9566 10.3115 36.995C9.90467 37.1261 9.75814 37.5305 9.89746 37.9168C9.94885 38.0616 10.0605 38.1773 10.2031 38.2342C10.4291 38.3237 13.4616 38.2755 13.9863 38.2752L20.6748 38.2762H25.7256C26.5509 38.2762 27.5219 38.3015 28.3359 38.2703C28.4992 38.2204 28.6195 38.1587 28.6973 38.0008C28.9048 37.5784 28.7548 36.9949 28.2148 36.992C27.0551 36.9861 25.9005 36.9884 24.7432 36.9881H12.9482ZM26.457 34.3631L23.3984 34.3621H14.8154C13.3166 34.3621 11.7816 34.3465 10.2852 34.366C10.1156 34.4353 9.99156 34.5129 9.91992 34.6883C9.83904 34.8866 9.83994 35.1426 9.92969 35.3377C9.98329 35.4544 10.079 35.5582 10.2031 35.5994C10.5046 35.699 12.6982 35.639 13.2188 35.6385L19.6162 35.6395H25.3955C26.2618 35.6395 27.5394 35.6783 28.375 35.6317C28.9913 35.3661 28.8237 34.4649 28.4766 34.411C27.9139 34.3237 27.06 34.3631 26.457 34.3631ZM24.8633 31.7284H16.1201L12.2441 31.7274C11.7121 31.7269 10.7648 31.6977 10.2559 31.7391C9.6207 32.0448 9.83917 32.9256 10.2207 32.9735C10.8478 33.0522 11.6912 33.0123 12.3428 33.0116L16.6729 33.0096L24.4229 33.0106H26.9336C27.3717 33.0106 27.9334 33.0251 28.3633 32.9998C28.5166 32.9406 28.6636 32.8514 28.7275 32.6912C28.8017 32.5057 28.7968 32.2003 28.71 32.0233C28.6582 31.9174 28.5586 31.8098 28.4453 31.7703C28.1631 31.6734 25.3756 31.7283 24.8633 31.7284ZM18.9043 11.1981C13.8165 11.4316 9.88167 15.7467 10.1162 20.8348C10.3509 25.9229 14.6661 29.8566 19.7539 29.6209C24.8401 29.3852 28.7725 25.0715 28.5381 19.9852C28.3034 14.8988 23.9905 10.9648 18.9043 11.1981Z" fill="#BA9B31"/>
<path d="M34.0879 7.92456C34.1744 7.95526 34.2527 7.9898 34.3372 8.02569L38.0925 9.63253C38.9018 9.97826 40.303 10.5123 40.9544 10.9986C41.6511 11.5158 42.1912 12.2157 42.515 13.0208C42.8555 13.8702 42.9443 14.7997 42.7705 15.6982C42.6283 16.4018 42.2759 17.1234 41.9908 17.7892L40.9847 20.1419L37.045 29.3495L34.4982 35.2926L34.4985 17.7965V12.2672L34.4997 10.511C34.5 9.39301 34.4941 8.99348 34.0879 7.92456Z" fill="#BA9B31"/>
</svg>
