<svg width="72" height="72" viewBox="0 0 72 72" fill="none" xmlns="http://www.w3.org/2000/svg">
<path d="M26.4861 2.57153C27.5123 2.91992 28.7596 3.25419 29.8087 3.56289L35.6194 5.275L52.7304 10.3158L58.9376 12.1443L60.7865 12.6894C61.8797 13.0134 62.6852 13.1786 63.236 14.2927C63.7927 15.4192 63.7038 16.3697 63.0588 17.452C64.1366 17.9951 64.4109 19.1029 64.44 20.2068C64.6695 20.569 64.7548 20.8692 64.829 21.2947C65.626 21.7822 66.116 22.3791 66.3605 23.2903C66.6662 24.4291 66.1562 25.2563 65.6972 26.2558L64.6051 28.6339L62.6862 32.8234C62.2733 33.7254 61.8591 34.6682 61.4125 35.5488L61.3848 35.5668C60.7692 36.9662 60.138 38.3588 59.4914 39.7441L55.0315 49.4403C54.3911 50.8322 53.614 52.4052 53.022 53.7961C52.9681 54.1005 52.3891 55.2969 52.2289 55.6463L50.6497 59.0895L48.0436 64.777C47.7851 65.3419 47.5239 65.911 47.2676 66.4723C46.8456 67.3951 46.516 68.2999 45.6442 68.903C45.145 69.2482 44.6877 69.3273 44.1016 69.4287H43.9963C43.0434 69.2652 42.5413 68.9485 41.6874 68.5258L38.9673 67.1784L31.9724 63.711L5.1811 50.4344L5.14258 50.4328V49.661C5.22632 49.5609 5.58443 48.7205 5.6695 48.5332L7.17177 45.2228L14.0178 30.2413C14.1158 29.8848 14.3704 29.3586 14.5275 29.0135L15.3589 27.185L18.4496 20.3382L23.7904 8.50993L25.5232 4.67212C25.8075 4.04236 26.1715 3.17042 26.4861 2.57153ZM7.85007 50.9005L7.83516 51.0937C7.96713 51.1526 8.25815 51.2902 8.38257 51.3261C8.75718 51.4906 9.13534 51.6468 9.51676 51.7946C10.2284 52.1849 12.3645 52.9671 13.1693 53.3839C13.1769 53.4091 13.1845 53.4343 13.192 53.4598L13.1538 53.6059C13.5274 53.7827 14.3713 54.1328 14.6689 54.3084C15.2128 54.5074 16.3746 55.0821 16.9334 55.3364L21.5246 57.4187L35.9237 63.9588L39.7878 65.7123C40.3713 65.979 41.3866 66.4824 41.9636 66.6812C42.2935 66.7979 42.641 66.8574 42.9911 66.8564C44.0306 66.8472 45.0224 66.2909 45.467 65.3314C45.8988 64.3982 46.3114 63.4538 46.7308 62.5146L49.1956 56.9951L56.7954 39.9837L62.099 28.1106L63.6701 24.5954C64.0631 23.7173 64.7639 22.4399 64.7593 21.4992C64.71 20.9469 64.6273 20.6367 64.3452 20.1713C64.5204 19.0795 63.9107 18.0834 63.0291 17.4922L49.9596 46.4221L46.0832 55.0128L44.9257 57.5825C44.3484 58.8639 44.0273 59.859 42.5887 60.4101C42.0316 60.6196 41.4288 60.6755 40.843 60.5719C40.182 60.4549 38.5737 59.9328 37.8699 59.7243L32.2733 58.0741L13.5265 52.553L9.45851 51.3543C9.25168 51.2931 7.98437 50.9064 7.85007 50.9005ZM18.5785 38.0793C18.4046 38.2744 16.6302 42.2144 16.6224 42.4566C17.1728 42.6734 17.7621 42.8322 18.3312 42.9993L20.6888 43.691L28.1579 45.8942L35.8988 48.1746L38.4959 48.9408C38.9921 49.0866 39.6077 49.286 40.1026 49.39C40.3154 49.1903 41.9996 45.43 42.0859 45.0185C41.3311 44.722 39.7868 44.3183 38.9666 44.0767L32.9445 42.3037L23.4018 39.4924C21.8751 39.0433 20.0948 38.4647 18.5785 38.0793ZM37.2513 17.0742C34.818 17.2859 32.7142 18.0207 30.7333 19.4749C27.9502 21.5182 26.099 24.8593 26.4222 28.3651C26.6399 30.5643 27.7197 32.5878 29.4255 33.9928C31.5223 35.7191 34.1171 36.3755 36.7945 36.2405C40.0209 35.9845 43.1454 34.5727 45.2454 32.0577C50.956 25.2195 46.0025 16.5215 37.2513 17.0742Z" fill="#54A453"/>
<path d="M64.7598 21.4998L64.7896 21.4044C64.8733 21.3837 64.9109 21.4061 64.9861 21.4571C66.0066 22.1492 66.6241 23.4735 66.2865 24.6901C66.1658 25.1235 65.9357 25.5771 65.7461 25.9903L64.9834 27.6501L62.0747 34.0078C61.9688 34.2447 61.3928 35.4141 61.3852 35.5674C60.7697 36.9668 60.1385 38.3594 59.4918 39.7447L55.0319 49.441C54.3915 50.8329 53.6145 52.4059 53.0225 53.7968C52.9218 53.9324 52.6027 54.6624 52.5178 54.85L51.6037 56.8476L48.2801 64.0987C47.7476 65.2595 47.2216 66.4468 46.6682 67.5981C46.3609 68.2371 45.7604 68.7128 45.0772 68.918C44.4855 69.0933 43.8533 69.0727 43.2743 68.8599C42.8824 68.717 42.4031 68.4611 42.0203 68.2698L40.0344 67.2787L31.9663 63.2733L17.9656 56.3194L12.9044 53.801C12.1409 53.4202 11.327 53.0394 10.5785 52.6435L10.4681 52.5497L10.5346 52.5226L10.6409 52.4689C10.4525 52.365 9.43838 51.977 9.4082 51.8344L9.51726 51.7952C10.2289 52.1855 12.365 52.9678 13.1698 53.3846C13.1774 53.4097 13.1849 53.4349 13.1925 53.4604L13.1543 53.6065C13.5279 53.7834 14.3718 54.1335 14.6694 54.309C15.2133 54.5081 16.3751 55.0828 16.9339 55.3371L21.5251 57.4194L35.9242 63.9595L39.7883 65.7129C40.3718 65.9796 41.3871 66.483 41.9641 66.6818C42.294 66.7985 42.6415 66.858 42.9916 66.857C44.0311 66.8479 45.0229 66.2915 45.4675 65.3321C45.8993 64.3988 46.3119 63.4544 46.7313 62.5153L49.1961 56.9957L56.7959 39.9844L62.0995 28.1112L63.6706 24.5961C64.0635 23.7179 64.7644 22.4406 64.7598 21.4998Z" fill="#54A453"/>
<path d="M10.6414 52.4675C11.4368 52.8232 12.3647 53.2815 13.1548 53.6051C13.5284 53.782 14.3723 54.1321 14.67 54.3076C14.4285 54.3488 12.5792 53.426 12.1678 53.2602C11.6787 53.0634 11.0411 52.7303 10.5352 52.5211L10.6414 52.4675Z" fill="#19261B"/>
<path d="M26.4867 2.57153C27.5128 2.91992 28.7601 3.25419 29.8093 3.56289L35.6199 5.275L52.7309 10.3158L58.9381 12.1443L60.7871 12.6894C61.8802 13.0134 62.6857 13.1786 63.2365 14.2927C63.7932 15.4192 63.7043 16.3697 63.0593 17.452C64.1371 17.9951 64.4114 19.1029 64.4405 20.2068C64.67 20.569 64.7553 20.8692 64.8295 21.2947C65.6265 21.7822 66.1165 22.3791 66.361 23.2903C66.6667 24.4291 66.1567 25.2563 65.6978 26.2558L64.6056 28.6339L62.6867 32.8234C62.2738 33.7254 61.8596 34.6682 61.4131 35.5488L61.3853 35.5668C61.3928 35.4135 61.9688 34.244 62.0747 34.0072L64.9835 27.6494L65.7461 25.9897C65.9357 25.5765 66.1659 25.1228 66.2865 24.6894C66.6242 23.4728 66.0067 22.1486 64.9861 21.4564C64.9109 21.4054 64.8733 21.383 64.7896 21.4038L64.7599 21.4992C64.7105 20.9469 64.6278 20.6367 64.3457 20.1713C64.5209 19.0795 63.9112 18.0834 63.0296 17.4922L49.9601 46.4221L46.0838 55.0128L44.9262 57.5825C44.3489 58.8639 44.0279 59.859 42.5892 60.4101C42.0322 60.6196 41.4293 60.6755 40.8435 60.5719C40.1825 60.4549 38.5742 59.9328 37.8704 59.7243L32.2738 58.0741L13.527 52.553L9.45905 51.3543C9.25222 51.2931 7.98491 50.9064 7.8506 50.9005L7.8357 51.0937C7.96766 51.1526 8.25868 51.2902 8.38311 51.3261C8.75771 51.4906 9.13587 51.6468 9.5173 51.7946L9.40825 51.8338C9.43842 51.9763 10.4525 52.3644 10.641 52.4683L10.5347 52.5219L10.4682 52.549L10.5785 52.6429C11.327 53.0387 12.141 53.4196 12.9044 53.8004L17.9656 56.3187L31.9664 63.2727L40.0345 67.2781L42.0204 68.2692C42.4032 68.4604 42.8824 68.7164 43.2744 68.8592C43.8533 69.072 44.4855 69.0926 45.0772 68.9174C45.7604 68.7121 46.361 68.2365 46.6682 67.5974C47.2217 66.4461 47.7477 65.2589 48.2802 64.0981L51.6038 56.847L52.5178 54.8494C52.6028 54.6617 52.9218 53.9318 53.0225 53.7961C52.9686 54.1005 52.3897 55.2969 52.2295 55.6463L50.6502 59.0895L48.0442 64.777C47.7856 65.3419 47.5244 65.911 47.2681 66.4723C46.8461 67.3951 46.5166 68.2999 45.6447 68.903C45.1455 69.2482 44.6882 69.3273 44.1021 69.4287H43.9968C43.0439 69.2652 42.5418 68.9485 41.6879 68.5258L38.9678 67.1784L31.9729 63.711L5.18164 50.4344C5.30128 49.6812 4.95058 49.5129 5.94531 49.8466C6.19474 49.9303 6.49712 50.0101 6.7531 50.0856L9.74145 50.9662L31.3442 57.3305L37.6338 59.1852L39.4598 59.7256C39.8514 59.8413 40.3607 60.0074 40.754 60.0675C41.4375 60.1662 42.1348 60.0486 42.7477 59.7305C43.8847 59.1447 44.1668 58.2637 44.6575 57.1706C44.8804 56.6741 45.107 56.1723 45.3309 55.6758L47.7634 50.2879L55.3615 33.4629L60.7851 21.4546L62.364 17.9569C62.655 17.3171 63.0129 16.5843 63.2463 15.9369C63.4274 15.3508 63.364 14.6951 63.0848 14.1621C62.5631 13.1664 61.5903 12.9908 60.5978 12.6983L58.5095 12.0848L51.6247 10.0561L34.5884 5.03588C31.9158 4.24613 29.1693 3.47673 26.5149 2.64977L17.4648 22.6882L15.1024 27.9199L14.4635 29.3416C14.3591 29.573 14.1549 30.0455 14.0184 30.2413C14.1163 29.8848 14.371 29.3586 14.5281 29.0135L15.3595 27.185L18.4501 20.3382L23.7909 8.50993L25.5237 4.67212C25.808 4.04236 26.1721 3.17042 26.4867 2.57153Z" fill="black"/>
<path d="M8.38281 51.3262C8.75742 51.4906 9.13557 51.6469 9.517 51.7946L9.40795 51.8338C9.43812 51.9764 10.4522 52.3644 10.6407 52.4683L10.5344 52.5219L10.4679 52.5491L10.5783 52.6429C9.98172 52.4602 8.92302 51.8302 8.42015 51.4612C8.42015 51.4612 8.38679 51.3406 8.38281 51.3262Z" fill="#34693C"/>
<path d="M27.9371 24.4678C28.1417 24.4884 29.0109 24.7636 29.2486 24.8347L31.7134 25.5594C31.6013 25.9213 31.4233 26.323 31.2983 26.6875C31.0476 27.4186 30.791 28.2447 30.6676 29.0071C30.6464 29.1456 30.6479 29.1781 30.5873 29.3007C30.4784 29.3423 29.842 29.3284 29.674 29.3389C29.1152 29.3737 28.1773 29.4079 27.6591 29.5711C27.1731 28.0084 27.3063 25.9733 27.9371 24.4678Z" fill="#54A453"/>
<path d="M32.1305 19.5808C32.2183 19.6227 32.375 19.7815 32.449 19.8552C32.8611 20.266 33.3176 20.6155 33.7846 20.9608C33.9239 21.0638 34.0619 21.1149 34.1803 21.2444C34.1906 21.3552 34.0709 21.5064 34.0018 21.591C33.2086 22.5624 32.6923 23.6661 32.0856 24.7484C31.7948 24.6184 31.1391 24.4453 30.8 24.3423C30.0246 24.1274 29.0687 23.7983 28.3037 23.6256C29.325 21.7811 30.3627 20.7289 32.1305 19.5808Z" fill="#54A453"/>
<path d="M41.9862 28.5859C43.1908 28.9669 44.5432 29.3501 45.7609 29.6975C45.1591 30.9269 44.0427 32.1768 42.9734 33.0172C42.7018 33.2289 42.3108 33.5095 42.0198 33.6879C41.2879 32.9918 40.7319 32.5503 39.8623 32.0165C40.5096 31.1372 41.1205 30.2635 41.6066 29.2841C41.7211 29.0538 41.8502 28.8009 41.9862 28.5859Z" fill="#54A453"/>
<path d="M46.2286 23.9074L46.3675 23.885C46.4198 23.9053 46.4708 23.9128 46.4872 23.9801C46.9059 25.6943 46.7095 27.2135 46.1407 28.8623L43.5608 28.1051C43.2136 28.0234 42.7026 27.8581 42.3535 27.748C42.5228 27.274 42.7118 26.8322 42.8762 26.3465C43.1469 25.5461 43.3005 24.8453 43.4722 24.0252C44.497 24.0809 45.2185 24.0077 46.2286 23.9074Z" fill="#54A453"/>
<path d="M32.6095 25.8438C32.8749 25.8774 33.4186 26.0699 33.703 26.1484C34.5881 26.3928 35.5059 26.7126 36.3957 26.9251C36.1121 27.7032 35.4798 29.0022 35.1196 29.788L35.0169 30.002C34.1308 29.6986 32.5051 29.4739 31.5635 29.4063C31.7822 28.0855 32.094 27.0886 32.6095 25.8438Z" fill="#54A453"/>
<path d="M35.0084 21.7183C36.161 22.232 36.8698 22.6897 38.1682 23.0488L36.783 26.1205C36.596 26.0493 36.4694 26.0132 36.276 25.9613C35.3059 25.6726 33.9696 25.236 33.0049 25.0085C33.4505 23.9144 34.3122 22.6682 35.0084 21.7183Z" fill="#54A453"/>
<path d="M37.3171 27.2051C38.1612 27.5049 39.0916 27.7094 39.9471 27.9902C40.2995 28.1059 40.7408 28.2379 41.0984 28.3069C40.46 29.4584 40.1975 30.0093 39.4021 31.1371C39.2867 31.3071 39.2102 31.4028 39.0775 31.5594C38.749 31.4191 38.373 31.2127 38.0337 31.0584C37.3529 30.7482 36.6519 30.4843 35.9355 30.2686C36.0272 29.9552 36.3383 29.299 36.4944 28.9619C36.7492 28.4119 37.0295 27.7234 37.3171 27.2051Z" fill="#54A453"/>
<path d="M39.0711 23.3215C40.0161 23.6326 41.5463 23.8714 42.5303 23.9624C42.3453 24.7047 41.8693 26.8614 41.4574 27.4314C41.3433 27.4704 41.3705 27.4547 41.2309 27.4186L37.6768 26.3749C37.8484 25.9172 38.158 25.2894 38.3617 24.8292C38.5532 24.3968 38.8455 23.708 39.0711 23.3215Z" fill="#54A453"/>
<path d="M35.5705 31.0718C35.7092 31.1408 35.9179 31.2174 36.0681 31.2649C36.9106 31.5318 37.6733 31.9373 38.478 32.2829C37.7525 33.1249 36.9004 33.849 35.9523 34.4292C35.1163 34.8788 34.6888 35.0484 33.7344 35.0759C34.1589 34.1939 34.5423 33.2458 34.9625 32.3581C35.1572 31.9469 35.3447 31.4582 35.5705 31.0718Z" fill="#54A453"/>
<path d="M41.2205 18.512C42.6732 19.3543 42.7242 21.6101 42.636 23.0868C42.1227 23.0351 41.6115 22.9627 41.1041 22.87C40.5373 22.7638 39.9747 22.637 39.417 22.4898C40.0103 21.1604 40.6118 19.8344 41.2205 18.512Z" fill="#54A453"/>
<path d="M39.9709 18.2471L40.3436 18.2217C39.7676 19.5366 39.1301 20.9257 38.526 22.2281C38.4005 22.1675 38.2439 22.1158 38.1102 22.0695C37.6497 21.9099 37.2086 21.7268 36.762 21.531C36.3872 21.3751 35.9879 21.1665 35.6211 20.9836C36.769 19.7234 38.2262 18.4707 39.9709 18.2471Z" fill="#54A453"/>
<path d="M31.4208 30.2883C32.5658 30.3266 33.5534 30.6079 34.6547 30.8126L33.3879 33.6326C33.1948 34.0237 33.0459 34.426 32.846 34.8181C31.3572 33.7708 31.3786 31.92 31.4208 30.2883Z" fill="#54A453"/>
<path d="M39.2698 32.7427C39.8915 33.1281 40.6405 33.6768 41.1416 34.2044C40.7732 34.3363 40.3642 34.5445 39.9755 34.6879C39.2194 34.9668 38.5823 35.1198 37.7962 35.2565C37.2047 35.3376 36.6094 35.3866 36.0127 35.404C36.3678 35.1755 36.7217 34.9817 37.0759 34.7368C37.9216 34.1519 38.5709 33.487 39.2698 32.7427Z" fill="#54A453"/>
<path d="M43.2334 19.4695C44.2762 20.0249 45.6894 21.7535 46.1055 22.8836C46.1389 22.9745 46.1317 22.9543 46.0967 23.0265L45.9718 23.0629C45.1124 23.1552 44.4603 23.1787 43.5972 23.1662C43.7002 21.8717 43.6662 20.7423 43.2403 19.5223C43.238 19.5047 43.2357 19.4871 43.2334 19.4695Z" fill="#54A453"/>
<path d="M30.3186 30.2199C30.3984 30.2106 30.37 30.2097 30.4475 30.2277C30.47 30.27 30.4409 31.3853 30.4426 31.5596C30.4509 32.4027 30.6112 33.0683 30.8543 33.8693C30.3925 33.5484 29.9592 33.1882 29.5594 32.7926C28.7462 31.9276 28.4403 31.416 27.9316 30.3691C28.7921 30.2276 29.4577 30.2275 30.3186 30.2199Z" fill="#54A453"/>
<path d="M37.6372 17.9243C37.7384 17.9114 37.954 17.908 38.0645 17.9026C37.7536 18.1155 37.3969 18.2962 37.0828 18.5134C36.2503 19.0889 35.5179 19.7536 34.8588 20.518C34.6072 20.3855 34.2471 20.1161 34.025 19.9421C33.7094 19.7173 33.2934 19.3547 33.043 19.0729C34.4792 18.3515 36.0429 18.0177 37.6372 17.9243Z" fill="#54A453"/>
<path d="M18.0035 17.3076C18.083 17.522 17.7697 17.9403 17.6348 18.1087C17.65 17.9489 17.9114 17.5343 18.0035 17.3076Z" fill="black" fill-opacity="0.752941"/>
</svg>
