<svg width="36" height="36" viewBox="0 0 36 36" fill="none" xmlns="http://www.w3.org/2000/svg">
<path d="M15.0276 12.4982C15.7265 12.4956 16.3346 12.594 17.0152 12.722C17.1029 13.1128 17.2215 13.6769 17.2379 14.0777C17.2551 14.1761 17.3287 14.7262 17.2605 14.7729L15.0273 14.7738L15.0276 12.4982Z" fill="#1BA793"/>
<path d="M17.2331 14.0793C17.2503 14.1777 17.3239 14.7278 17.2557 14.7745L17.2268 14.7534C17.2036 14.6713 17.2136 14.1821 17.2331 14.0793Z" fill="#1BA793"/>
<path d="M11.6865 15.8414L13.958 15.8394C13.9703 16.5665 13.9568 17.3141 13.9621 18.0449C13.3401 18.0723 12.5594 17.939 11.9538 17.8206C11.7926 17.0814 11.7266 16.596 11.6865 15.8414Z" fill="#1BA793"/>
<path d="M13.7954 12.5641C13.8614 12.5542 13.8857 12.5452 13.9499 12.5657C13.9723 12.6381 13.9621 13.1616 13.9619 13.2633L13.9621 14.7738L11.9468 14.7731L11.6865 14.7714C11.7202 14.0776 11.7898 13.5934 11.9226 12.9155C12.5669 12.7668 13.1416 12.6475 13.7954 12.5641Z" fill="#1BA793"/>
<path d="M17.237 15.8438L17.284 15.8577C17.306 15.9946 17.2654 16.3374 17.2498 16.4931C17.2104 16.8737 17.1522 17.252 17.0757 17.6268C16.3683 17.8039 15.7432 17.907 15.0273 18.0105L15.0301 15.8394C15.7639 15.8487 16.5018 15.834 17.237 15.8438Z" fill="#1BA793"/>
<path d="M17.2336 15.8433L17.2805 15.8572C17.3025 15.994 17.262 16.3368 17.2463 16.4926C17.2125 16.4231 17.199 15.9249 17.2336 15.8433Z" fill="#1BA793"/>
<path d="M9.05326 13.1454C9.61906 13.4245 10.1948 13.3072 10.7901 13.1862C10.7068 13.6183 10.666 14.0714 10.6348 14.5101C10.6287 14.5961 10.6307 14.6776 10.6126 14.7624L10.575 14.7769L8.67139 14.7774C8.71091 14.2022 8.86228 13.6831 9.05326 13.1454Z" fill="#1BA793"/>
<path d="M18.3651 15.8395L20.3119 15.8394C20.2816 16.3636 20.1307 16.8949 19.959 17.3891C19.9067 17.4107 19.5717 17.2526 19.3866 17.2407C18.9526 17.2127 18.6246 17.2807 18.2056 17.3604C18.2966 16.851 18.3323 16.3549 18.3651 15.8395Z" fill="#1BA793"/>
<path d="M16.7163 18.8057C16.7202 18.8916 16.5428 19.2593 16.4967 19.3572C16.1543 20.0842 15.744 20.6587 15.03 21.0443C15.0088 20.4193 15.0261 19.7065 15.0275 19.0732C15.613 19.0243 16.1427 18.9194 16.7163 18.8057Z" fill="#1BA793"/>
<path d="M9.20557 17.823C9.30652 17.8624 9.65941 18.0959 9.80211 18.1697C10.2424 18.3979 10.6162 18.5344 11.0824 18.6957C11.3603 19.4911 11.4993 19.8336 11.9342 20.5627C11.7874 20.519 11.4624 20.3169 11.3319 20.2333C10.4151 19.6406 9.67933 18.8066 9.20557 17.823Z" fill="#1BA793"/>
<path d="M13.9313 9.58313C13.9805 9.65134 13.9609 11.2538 13.9609 11.4737C13.4136 11.5321 12.8697 11.6191 12.3314 11.7345C12.3201 11.7325 12.329 11.7351 12.2969 11.7177C12.3089 11.6157 12.4547 11.3149 12.5031 11.2163C12.8308 10.5477 13.2536 9.93101 13.9313 9.58313Z" fill="#1BA793"/>
<path d="M18.93 18.3214C19.0662 18.2952 19.3258 18.2571 19.4073 18.3881C19.4133 18.5444 19.2468 18.7207 19.152 18.8428C18.6822 19.4473 18.0709 20.0033 17.4002 20.3792C17.3044 20.4391 17.1466 20.5164 17.0425 20.5711C17.4891 19.8146 17.6912 19.365 17.9462 18.5196C18.1952 18.4391 18.6735 18.3535 18.93 18.3214Z" fill="#1BA793"/>
<path d="M12.3281 18.9858C12.9595 19.0695 13.3404 19.0859 13.9613 19.1284L13.9651 21.0278C13.9393 21.0259 13.9419 21.0276 13.9111 21.0133C13.148 20.6633 12.623 19.7109 12.3281 18.9858Z" fill="#1BA793"/>
<path d="M17.0479 10.0568C17.2157 10.1094 17.475 10.2725 17.6264 10.3691C18.5254 10.9422 19.252 11.7487 19.7283 12.7025C19.6717 12.6783 19.5692 12.6156 19.5147 12.5806C18.9918 12.2455 18.4586 12.0497 17.8737 11.8506C17.6453 11.1463 17.4269 10.6812 17.0479 10.0568Z" fill="#1BA793"/>
<path d="M18.1895 13.1006C18.4394 13.2029 18.6819 13.3229 18.9148 13.4597C19.3506 13.7188 20.03 14.2534 20.1608 14.7719C19.5936 14.7901 18.9363 14.7739 18.3618 14.774C18.3492 14.4491 18.3227 14.1249 18.2828 13.8022C18.2559 13.6015 18.1981 13.2875 18.1895 13.1006Z" fill="#1BA793"/>
<path d="M11.8938 10.0646L11.9048 10.0669C11.9198 10.1032 11.7703 10.3294 11.7395 10.3846C11.4508 10.9023 11.2262 11.4569 11.0608 12.0252C10.718 12.1367 9.97582 12.2702 9.63094 12.2352C9.57654 12.2128 9.59721 12.2304 9.56592 12.1819C9.59053 12.087 9.77242 11.8509 9.83862 11.763C10.3948 11.0248 11.0784 10.4894 11.8938 10.0646Z" fill="#1BA793"/>
<path d="M15.0301 9.57532C15.8087 9.93269 16.3177 10.8066 16.6334 11.5653C16.0507 11.4732 15.6137 11.4462 15.0268 11.4281C15.0224 10.836 15.0113 10.1625 15.0301 9.57532Z" fill="#1BA793"/>
<path d="M8.83496 15.8395C9.42567 15.8464 10.026 15.8421 10.6171 15.8394C10.6404 16.3773 10.6983 16.9132 10.7905 17.4437L10.7663 17.4357C10.0222 17.1825 9.18745 16.5697 8.83496 15.8395Z" fill="#1BA793"/>
<path d="M8.3396 3.86659L10.3611 3.86756H20.113C20.6087 3.86697 21.657 3.8394 22.1052 3.90467C22.7435 3.99897 23.3435 4.26731 23.8396 4.68006C24.5706 5.28378 25.0278 6.15692 25.1062 7.10194C25.1413 7.52682 25.1214 8.21575 25.1208 8.65663L25.1199 11.3754V26.8578L25.1208 28.9086C25.1208 29.255 25.1339 29.7905 25.0945 30.1205C25.0118 30.8037 24.7307 31.448 24.2859 31.973C23.637 32.7328 22.7904 33.1461 21.7996 33.2211C21.4266 33.235 20.9962 33.226 20.6189 33.226H18.5076L12.1062 33.225H8.76538C8.25961 33.2256 7.28846 33.2545 6.8396 33.184C6.19466 33.0821 5.59071 32.8021 5.09644 32.3754C4.38748 31.77 3.94856 30.9072 3.87573 29.9779C3.84346 29.5492 3.86358 28.8721 3.86401 28.4291V8.10292C3.86412 7.79364 3.85015 7.26139 3.88745 6.9662C3.97471 6.27279 4.26515 5.62057 4.72144 5.0912C5.36901 4.34434 6.21825 3.94345 7.19702 3.87342C7.51349 3.84049 8.01114 3.86627 8.3396 3.86659ZM9.71167 27.7416C9.09659 27.7414 8.33241 27.7177 7.73413 27.7465C7.42899 27.8448 7.3191 28.1481 7.42358 28.4379C7.46213 28.5461 7.54549 28.6325 7.6521 28.6752C7.82026 28.7424 10.0963 28.7066 10.49 28.7064H15.5066L19.2947 28.7074C19.9137 28.7074 20.6422 28.7269 21.2527 28.7035C21.3752 28.666 21.4649 28.6188 21.5232 28.5004C21.6787 28.1837 21.5664 27.746 21.1619 27.7435C20.292 27.7391 19.4255 27.7408 18.5574 27.7406L13.5115 27.7416H9.71167ZM19.8425 25.7719H11.1121C9.98796 25.7719 8.83687 25.7601 7.7146 25.7748C7.58743 25.8268 7.49393 25.8844 7.44019 26.016C7.37946 26.1647 7.38065 26.3569 7.448 26.5033C7.48818 26.5907 7.55915 26.6687 7.6521 26.6996C7.8773 26.7743 9.52287 26.7293 9.91382 26.7289L14.7126 26.7299H19.0466C19.6965 26.7299 20.6553 26.759 21.282 26.724C21.7442 26.5248 21.6176 25.8484 21.3572 25.808C20.9351 25.7426 20.2946 25.7719 19.8425 25.7719ZM18.6472 23.7963H12.0906L9.18335 23.7953C8.78433 23.7949 8.07386 23.773 7.69214 23.8041C7.21577 24.0334 7.37962 24.6939 7.66577 24.7299C8.13616 24.7889 8.76881 24.7597 9.25757 24.7592L12.5046 24.7572L18.3181 24.7582H20.2C20.5285 24.7582 20.9508 24.7693 21.2732 24.7504C21.3882 24.7059 21.4978 24.6382 21.5457 24.518C21.6013 24.3787 21.5982 24.1497 21.533 24.017C21.4942 23.9376 21.4197 23.8571 21.3347 23.8275C21.1242 23.7547 19.0309 23.7963 18.6472 23.7963ZM14.1785 8.39881C10.3626 8.57397 7.41175 11.8103 7.58765 15.6264C7.7638 19.4421 10.9996 22.3927 14.8152 22.2162C18.6299 22.0394 21.5798 18.8035 21.4041 14.9887C21.2279 11.1739 17.9931 8.22385 14.1785 8.39881Z" fill="#1BA793"/>
<path d="M25.5664 5.94336C25.6313 5.96639 25.69 5.99229 25.7534 6.0192L28.5699 7.22434C29.1768 7.48363 30.2277 7.88416 30.7163 8.24887C31.2388 8.6368 31.6439 9.1617 31.8867 9.76555C32.1421 10.4026 32.2087 11.0997 32.0783 11.7736C31.9717 12.3013 31.7074 12.8425 31.4936 13.3418L30.7391 15.1064L27.7842 22.0121L25.8741 26.4694L25.8743 13.3473V9.20034L25.8753 7.88317C25.8755 7.0447 25.871 6.74505 25.5664 5.94336Z" fill="#1BA793"/>
</svg>
