<svg width="64" height="64" viewBox="0 0 64 64" fill="none" xmlns="http://www.w3.org/2000/svg">
<path d="M49.2322 9.54255C50.2926 9.56545 50.4105 9.73013 50.4207 10.773L50.4226 47.8717L50.4314 56.8355C50.4322 57.8594 50.5052 60.8312 50.3015 61.6724C49.8647 61.9258 49.675 61.9302 49.1668 61.9351C47.0095 61.9563 44.8503 61.9459 42.6931 61.9449L30.5212 61.94L19.9343 61.9459C18.0944 61.9466 16.2518 61.9569 14.4119 61.9351C13.6358 61.926 13.0381 61.9464 13.0212 60.9927C12.9876 59.0678 13.0038 57.1409 13.0046 55.2154V44.0699L13.0056 9.53572L39.8308 9.53181L46.4832 9.53083C47.3998 9.52957 48.3164 9.52277 49.2322 9.54255ZM38.4314 55.1392C37.7656 55.0156 34.4581 55.0453 33.5847 55.0621C30.7524 55.1164 27.6561 54.9788 24.8591 55.1021C24.743 55.3949 24.6624 55.5371 24.7019 55.8492C24.7962 56.0028 24.8407 56.1224 25.03 56.1724C25.7765 56.3686 37.4321 56.3201 38.533 56.1754C38.8475 55.7468 38.8909 55.472 38.4314 55.1392ZM41.1414 50.1138C34.5809 50.2682 27.8896 49.96 21.3435 50.1431C20.9969 50.4963 20.8363 50.8312 21.2781 51.1949C21.8529 51.3439 27.2335 51.3161 28.238 51.2984C32.7758 51.2186 37.5355 51.4 42.0447 51.2799C42.4621 51.0044 42.5154 50.7539 42.2654 50.3209C42.0045 50.1201 41.4696 50.1061 41.1414 50.1138ZM43.4353 30.9078C42.691 24.437 36.8417 19.7945 30.3709 20.5386C23.9006 21.2831 19.2579 27.1318 20.0017 33.6021C20.7459 40.0725 26.5949 44.7148 33.0652 43.9713C39.536 43.2274 44.1792 37.3786 43.4353 30.9078ZM35.8445 38.2633C35.4304 39.4454 35.0367 40.2629 34.3298 41.2867C33.686 42.0835 33.2647 42.4573 32.3044 42.8248L32.3084 38.2593L35.8445 38.2633ZM31.1326 38.2574C31.1427 39.7581 31.14 41.2597 31.1257 42.7603C29.5568 42.8603 28.0235 39.4571 27.6043 38.2681C28.7557 38.2423 29.9761 38.2598 31.1326 38.2574ZM22.95 38.2467C24.0837 38.2655 25.2473 38.2569 26.3835 38.2613C26.6469 39.2513 27.0806 40.0953 27.5222 41.0133C27.4053 41.3904 27.3972 41.5796 27.4334 41.981C27.7632 42.1004 28.1775 42.2868 28.5095 42.4244C28.5104 42.4255 28.5116 42.4263 28.5125 42.4273C28.18 42.2896 27.7641 42.1027 27.4334 41.983C25.6203 41.1797 24.0669 39.8854 22.95 38.2467ZM37.0437 38.2642C38.1833 38.2456 39.3655 38.2628 40.5085 38.2633C39.4465 39.6437 38.8657 40.2334 37.4353 41.2144C36.6391 41.7242 35.8886 42.0252 35.0125 42.3687C36.019 40.9263 36.5438 39.9402 37.0437 38.2642ZM37.9021 32.8267C39.2992 32.7915 40.9592 32.8128 42.3513 32.8443C42.1594 34.4875 41.9995 35.2563 41.3523 36.7672C41.2969 36.8931 41.2525 36.9298 41.1619 37.0289C40.6148 37.1649 38.0471 37.0922 37.3757 37.0836C37.7224 35.725 37.8238 34.2236 37.9021 32.8267ZM36.7283 32.8258C36.7055 34.1168 36.5113 35.5491 36.2488 36.8043L36.1736 36.9986C35.8193 37.1672 32.9131 37.09 32.3025 37.0855L32.2957 32.816L36.7283 32.8258ZM25.532 32.8209C25.6355 34.4439 25.7334 35.4759 26.0388 37.0797C24.7974 37.1052 23.4783 37.0838 22.2302 37.0855C21.542 35.5959 21.2118 34.4409 21.1091 32.814L25.532 32.8209ZM31.1277 32.8199L31.1462 37.0875H27.2537C26.9288 35.6896 26.7481 34.2616 26.7136 32.8267C28.1435 32.7935 29.6886 32.8215 31.1277 32.8199ZM41.2019 27.4127C41.9686 29.1469 42.1041 29.8113 42.365 31.6597C40.8779 31.683 39.39 31.686 37.9021 31.6695C37.8213 30.0585 37.7038 29.0047 37.3875 27.4224L41.2019 27.4127ZM32.3171 27.4107C33.5273 27.4529 34.9504 27.4168 36.1765 27.4166C36.5081 28.8083 36.6901 30.2315 36.7205 31.6617C35.2442 31.6826 33.768 31.6848 32.2917 31.6666C32.2934 30.2481 32.302 28.8291 32.3171 27.4107ZM26.0418 27.4205C25.7599 28.8304 25.7008 30.2069 25.4812 31.6011C25.469 31.6716 25.1268 31.6713 25.0476 31.6773C23.7254 31.6849 22.404 31.6786 21.0818 31.6588C21.2821 29.8742 21.5069 29.0507 22.2332 27.4176L26.0418 27.4205ZM31.1335 27.4195C31.1243 28.1156 31.2434 31.2343 31.0623 31.6334L30.8562 31.6734L26.6951 31.6695C26.7574 30.2367 26.9437 28.8115 27.2517 27.4107L31.1335 27.4195ZM35.0212 22.1705C37.0607 22.5681 39.275 24.6199 40.4939 26.2496C39.43 26.291 38.1323 26.2535 37.0515 26.2506C36.6231 24.6837 35.9436 23.4888 35.0212 22.1705ZM28.5349 22.1119C28.1009 22.613 27.8913 22.9248 27.5271 23.483C27.055 24.4101 26.6807 25.2717 26.3777 26.2672L22.9177 26.2554C24.3426 24.4287 25.3324 23.5231 27.4382 22.523V22.522C27.45 22.8044 27.448 23.2234 27.5261 23.481C27.8899 22.9235 28.0992 22.6119 28.532 22.1119H28.5349ZM32.3142 21.6998C34.1558 22.2235 35.2943 24.5784 35.8289 26.2545L32.3005 26.2564C32.2955 24.7377 32.2999 23.2184 32.3142 21.6998ZM31.0437 21.7828C31.2295 22.1109 31.1427 25.5609 31.1511 26.2525L27.8679 26.2554L27.7136 26.2271L27.6716 26.0865C28.2751 24.263 29.1238 22.6594 30.8884 21.7525L31.0437 21.7828Z" fill="#015524"/>
<path d="M40.9231 1.99696C44.5366 1.42787 43.7563 6.08976 43.7454 8.35955L18.0339 8.3577C16.9986 8.36124 15.9338 8.38051 14.9019 8.3258C17.7713 7.7435 21.0633 6.84336 23.9546 6.13791L40.9231 1.99696Z" fill="#015524"/>
</svg>
