<svg width="40" height="40" viewBox="0 0 40 40" fill="none" xmlns="http://www.w3.org/2000/svg">
<path d="M19.5305 2.43088C20.9196 2.38818 22.309 2.51095 23.6692 2.7966C27.3352 3.57115 30.6522 5.51086 33.1249 8.32597C34.2114 9.55382 35.1276 10.9089 35.8284 12.3938C37.4674 15.8735 37.9088 19.7978 37.0837 23.5545C36.0938 28.107 33.3212 32.0728 29.3856 34.5658C25.4971 37.0416 20.7833 37.8686 16.2843 36.8639C14.8811 36.5561 13.5399 36.0742 12.2618 35.4174C11.8788 35.2205 11.8048 35.1555 11.3754 35.2654C10.6458 35.4523 9.91775 35.6453 9.18918 35.8363L5.01949 36.9277L3.44678 37.3396C3.18994 37.4053 2.68014 37.5051 2.47656 37.6127C2.56939 37.4107 2.74219 36.7018 2.81482 36.435L3.4548 34.1057L4.49387 30.324L4.76836 29.332C4.83891 29.0795 4.9309 28.7875 4.95996 28.5311C4.68174 27.9453 4.39135 27.467 4.10951 26.8281C3.24131 24.8299 2.75566 22.6867 2.67773 20.5096C2.48652 15.8615 4.17662 11.3323 7.36613 7.94572C10.5181 4.55173 14.9005 2.56492 19.5305 2.43088ZM28.3321 26.5158C28.7391 25.9574 28.954 24.9057 28.8932 24.2176C28.8794 24.0607 28.8079 23.9082 28.6649 23.8336C27.7368 23.3486 26.7725 22.8768 25.8231 22.4348C25.259 22.1721 24.9983 21.9869 24.3688 22.0162L24.3469 22.0293C24.0733 22.1957 23.7563 22.6937 23.553 22.9439C22.3887 24.3773 22.5741 24.5338 20.8952 23.7186C18.8235 22.7459 17.1495 21.109 15.9594 19.1697C15.8783 19.0375 15.6498 18.6655 15.7157 18.5097C16.0564 17.7042 17.2119 17.0793 17.1467 16.103C17.1325 15.8905 16.9387 15.4806 16.8527 15.2738L16.4329 14.2624L15.9628 13.1313C15.8179 12.7831 15.5243 11.9371 15.1333 11.8747C14.8402 11.8279 14.0915 11.7718 13.8026 11.8231C13.3715 11.874 13.1391 11.9848 12.8253 12.2734C10.6118 14.3099 10.9341 17.3756 12.4675 19.6896C12.6748 20.0023 12.8922 20.3117 13.1085 20.6205C14.3085 22.3693 15.7635 23.9289 17.4252 25.2473C18.3482 25.9576 19.3498 26.5596 20.41 27.0416C20.5264 27.0934 20.6495 27.1443 20.7688 27.1889C21.7141 27.5428 22.6911 27.9789 23.6917 28.1393C24.2735 28.2311 24.8655 28.2381 25.4493 28.16C26.4958 28.0273 27.6682 27.3281 28.3321 26.5158Z" fill="#BA9B31"/>
</svg>
