<svg width="40" height="40" viewBox="0 0 40 40" fill="none" xmlns="http://www.w3.org/2000/svg">
<path d="M15.96 1.66699C16.0668 1.73183 16.7317 1.91888 16.8965 1.96777L19.3311 2.68652C19.5731 2.75845 20.1811 2.91903 20.3789 2.99902C20.6868 2.87891 21.2284 2.74106 21.5654 2.6416L23.8818 1.95703C24.0071 1.92008 24.7134 1.72268 24.791 1.66699H24.8877C25.4715 2.47013 26.1027 3.24741 26.709 4.03418C26.9452 4.34068 27.5007 5.13917 27.7686 5.3584C27.8821 5.45112 31.7474 6.86287 32.1465 6.93262C32.266 8.39382 32.2578 10.138 32.3145 11.5771C32.3229 11.6809 34.6903 15.197 34.9082 15.4678V1.66699H34.9092V15.624C34.5887 16.0284 34.2046 16.6495 33.9014 17.0947C33.3753 17.8672 32.7882 18.6842 32.2969 19.4736C32.302 20.0443 32.2951 20.6151 32.2773 21.1855C32.2409 22.1307 32.1682 23.171 32.1689 24.1104C30.9987 24.5523 29.8152 24.9527 28.6416 25.3848C28.5718 25.4105 28.5144 25.4301 28.4414 25.4453C28.8712 26.2669 29.2873 27.2171 29.6787 28.0625L31.8281 32.6309C32.163 33.3363 32.5371 34.1915 32.8896 34.8701C32.5441 34.7193 31.9024 34.5322 31.5146 34.4004L28.8047 33.4727C28.3995 33.3352 27.8184 33.1596 27.4434 32.9805C27.2564 33.3905 27.0873 33.8645 26.9229 34.29C26.5937 35.1336 26.2717 35.9804 25.9561 36.8291C25.902 36.9709 25.6185 37.6877 25.4736 38.0811L25.3887 38.333L25.2988 38.332C25.2922 38.3036 25.2855 38.275 25.2773 38.2471C25.2358 38.1081 24.9629 37.5587 24.8818 37.3867L24.1172 35.7422L21.2676 29.6885C21.1547 29.4442 20.6634 28.2244 20.4736 28.1328C20.4024 28.0984 20.3331 28.1053 20.2607 28.1299C20.1035 28.2466 19.4962 29.6682 19.3643 29.9482L17.1123 34.7227L16.0391 37.0156C15.9076 37.2938 15.5132 38.0832 15.4463 38.332L15.4453 38.333L15.3516 38.3311L15.2646 38.0645C14.8838 36.9977 13.3792 33.1346 13.2979 32.9971C12.7601 33.2067 12.1667 33.3987 11.6172 33.5859L9.16602 34.4229C8.76815 34.5581 8.24064 34.7082 7.86914 34.8574L10.96 28.29L11.8516 26.3672C11.974 26.1075 12.1631 25.679 12.3086 25.4473C12.0469 25.3789 11.5215 25.1706 11.2422 25.0693L9.78711 24.5527C9.41001 24.4159 8.97048 24.2427 8.5918 24.125C8.50327 22.5718 8.45495 21.0166 8.44727 19.4609C8.00737 18.7297 7.35259 17.8686 6.87402 17.1445C6.70237 16.8848 6.34008 16.3244 6.06641 15.9375L5.83203 15.626V15.4697C6.69264 14.2599 7.62725 12.8578 8.44629 11.6182C8.45884 10.0606 8.50684 8.50355 8.59082 6.94824C9.59443 6.62633 10.6235 6.22433 11.6221 5.87695C11.8133 5.81044 12.8776 5.44382 12.9678 5.3623C13.1997 5.14917 13.7354 4.42613 13.9502 4.14746L15.8643 1.66699H15.96ZM20.1299 5.12012C14.4243 5.26913 9.92076 10.017 10.0732 15.7227C10.2259 21.4282 14.9763 25.9295 20.6816 25.7734C26.3817 25.6173 30.8776 20.8712 30.7256 15.1709C30.5731 9.47048 25.8302 4.9717 20.1299 5.12012ZM20.0273 6.60156C24.9113 6.39706 29.0376 10.1892 29.2451 15.0732C29.4523 19.957 25.6627 24.0853 20.7793 24.2959C15.8916 24.5062 11.7596 20.7121 11.5518 15.8242C11.3443 10.9364 15.1395 6.80665 20.0273 6.60156ZM20.3262 10.1436C19.9563 10.5593 19.3384 13.2416 18.9385 14.041C18.0516 14.0478 17.1643 14.0493 16.2773 14.0459C15.8939 14.0457 15.5055 14.0354 15.125 14.0479C14.9799 14.0631 14.8035 14.1243 14.8027 14.2979C14.8024 14.385 14.8969 14.4808 14.9619 14.5293C15.6921 15.0735 16.4427 15.599 17.1748 16.1416C17.4202 16.3234 17.857 16.5928 18.04 16.8164C17.7974 17.8266 17.4025 18.8041 17.1104 19.8008C17.0462 20.0198 16.7614 20.5614 16.9199 20.7344C17.1364 20.97 17.4523 20.6483 17.6406 20.5254C18.4175 19.9343 19.2329 19.3804 20.0107 18.7891C20.1278 18.6999 20.3638 18.5188 20.5117 18.5791C20.88 18.8012 21.2229 19.0831 21.5693 19.3379C21.9468 19.6155 22.3353 19.8771 22.7109 20.1572C22.9691 20.3498 23.2381 20.5961 23.5195 20.751C23.6086 20.7999 23.7191 20.846 23.8223 20.8203C23.8815 20.8055 23.9262 20.7576 23.9521 20.7041C23.9757 20.6556 23.9852 20.6071 23.9785 20.5537C23.9455 20.2914 23.806 19.9885 23.7207 19.7354C23.5998 19.3769 22.7642 17.0177 22.8369 16.8184C22.8649 16.7437 22.9508 16.6706 23.0098 16.6211C23.2974 16.3795 23.626 16.1701 23.9316 15.9502C24.3457 15.6523 24.7517 15.342 25.167 15.0459C25.4275 14.8602 25.8048 14.6615 26 14.4092C26.0447 14.3514 26.0623 14.2842 26.0352 14.2139C26.0087 14.1457 25.9386 14.1057 25.873 14.082C25.6089 13.9868 25.023 14.0457 24.7188 14.0459L22.9697 14.0469C22.637 14.0468 22.2288 14.0561 21.9014 14.0352C21.754 13.7498 21.6241 13.3092 21.5205 12.9912L20.9199 11.1074C20.8446 10.8751 20.7134 10.3017 20.4951 10.1543C20.4785 10.1431 20.3565 10.1432 20.3262 10.1436Z" fill="#BA9B31"/>
</svg>
