<svg width="18" height="18" viewBox="0 0 18 18" fill="none" xmlns="http://www.w3.org/2000/svg">
<path d="M8.78949 1.09381C9.4146 1.0746 10.0399 1.12984 10.6519 1.25838C12.3016 1.60693 13.7943 2.4798 14.907 3.7466C15.3959 4.29914 15.8082 4.90893 16.1236 5.57714C16.8611 7.14297 17.0598 8.90895 16.6884 10.5994C16.243 12.6481 14.9953 14.4327 13.2243 15.5545C11.4745 16.6686 9.35325 17.0408 7.32872 16.5887C6.69727 16.4501 6.09373 16.2333 5.51858 15.9377C5.34624 15.8491 5.31293 15.8199 5.1197 15.8694C4.79137 15.9535 4.46377 16.0403 4.13591 16.1263L2.25955 16.6174L1.55183 16.8028C1.43625 16.8323 1.20684 16.8772 1.11523 16.9256C1.15701 16.8347 1.23477 16.5157 1.26745 16.3956L1.55544 15.3475L2.02302 13.6457L2.14654 13.1993C2.17829 13.0857 2.21969 12.9543 2.23276 12.8389C2.10756 12.5753 1.97689 12.3601 1.85006 12.0726C1.45937 11.1734 1.24083 10.2089 1.20576 9.22922C1.11972 7.13757 1.88026 5.09947 3.31554 3.57549C4.73394 2.0482 6.70602 1.15413 8.78949 1.09381ZM12.7502 11.932C12.9334 11.6808 13.0301 11.2075 13.0027 10.8978C12.9965 10.8272 12.9643 10.7586 12.9 10.725C12.4823 10.5068 12.0484 10.2945 11.6212 10.0956C11.3674 9.97734 11.25 9.89402 10.9667 9.90721L10.9569 9.9131C10.8338 9.98798 10.6911 10.2121 10.5996 10.3247C10.0757 10.9697 10.1591 11.0401 9.40361 10.6733C8.47134 10.2356 7.71804 9.49895 7.18252 8.62629C7.14602 8.5668 7.04321 8.39938 7.07286 8.32927C7.22616 7.9668 7.74615 7.6856 7.71681 7.24627C7.71042 7.15066 7.62321 6.96619 7.58451 6.87314L7.39557 6.41801L7.18402 5.90902C7.11883 5.75232 6.9867 5.37162 6.81077 5.34352C6.67885 5.32245 6.34194 5.2972 6.21194 5.32031C6.01795 5.34323 5.91337 5.39307 5.77218 5.52296C4.77611 6.43937 4.92111 7.81895 5.61117 8.86025C5.70443 9.00097 5.80229 9.14019 5.8996 9.27914C6.43962 10.0661 7.09437 10.7679 7.84211 11.3612C8.25749 11.6808 8.70818 11.9517 9.18529 12.1686C9.23767 12.1919 9.29305 12.2149 9.34675 12.2349C9.77214 12.3942 10.2118 12.5904 10.662 12.6626C10.9239 12.7039 11.1903 12.7071 11.453 12.6719C11.9239 12.6122 12.4515 12.2976 12.7502 11.932Z" fill="#2D9D3E"/>
</svg>
