<svg width="20" height="20" viewBox="0 0 20 20" fill="none" xmlns="http://www.w3.org/2000/svg">
<path d="M9.76523 1.21544C10.4598 1.19409 11.1545 1.25548 11.8346 1.3983C13.6676 1.78557 15.3261 2.75543 16.5624 4.16299C17.1057 4.77691 17.5638 5.45446 17.9142 6.19691C18.7337 7.93673 18.9544 9.89892 18.5418 11.7772C18.0469 14.0535 16.6606 16.0364 14.6928 17.2829C12.7486 18.5208 10.3916 18.9343 8.14216 18.4319C7.44055 18.278 6.76994 18.0371 6.13089 17.7087C5.93939 17.6103 5.90238 17.5777 5.68769 17.6327C5.32288 17.7262 4.95888 17.8227 4.59459 17.9182L2.50975 18.4639L1.72339 18.6698C1.59497 18.7026 1.34007 18.7525 1.23828 18.8063C1.2847 18.7054 1.37109 18.3509 1.40741 18.2175L1.7274 17.0528L2.24693 15.162L2.38418 14.666C2.41945 14.5397 2.46545 14.3937 2.47998 14.2655C2.34087 13.9727 2.19567 13.7335 2.05476 13.4141C1.62065 12.4149 1.37783 11.3434 1.33887 10.2548C1.24326 7.93073 2.08831 5.66617 3.68307 3.97286C5.25906 2.27587 7.45026 1.28246 9.76523 1.21544ZM14.166 13.2579C14.3696 12.9787 14.477 12.4528 14.4466 12.1088C14.4397 12.0304 14.4039 11.9541 14.3324 11.9168C13.8684 11.6743 13.3863 11.4384 12.9116 11.2174C12.6295 11.086 12.4991 10.9935 12.1844 11.0081L12.1735 11.0146C12.0366 11.0979 11.8782 11.3469 11.7765 11.472C11.1944 12.1887 11.287 12.2669 10.4476 11.8593C9.41173 11.3729 8.57474 10.5545 7.97971 9.58486C7.93915 9.51876 7.82492 9.33274 7.85786 9.25484C8.0282 8.8521 8.60597 8.53965 8.57336 8.05151C8.56626 7.94527 8.46936 7.74031 8.42637 7.63691L8.21643 7.13122L7.98138 6.56567C7.90894 6.39156 7.76213 5.96856 7.56665 5.93734C7.42008 5.91393 7.04573 5.88588 6.90129 5.91155C6.68574 5.93702 6.56954 5.99239 6.41266 6.13672C5.30592 7.15495 5.46703 8.68782 6.23376 9.84482C6.33739 10.0012 6.44612 10.1559 6.55425 10.3103C7.15427 11.1847 7.88177 11.9645 8.71259 12.6236C9.17412 12.9788 9.67488 13.2798 10.205 13.5208C10.2632 13.5467 10.3247 13.5722 10.3844 13.5944C10.8571 13.7714 11.3455 13.9895 11.8458 14.0696C12.1367 14.1155 12.4327 14.119 12.7246 14.08C13.2479 14.0137 13.8341 13.6641 14.166 13.2579Z" fill="white"/>
</svg>
