<svg width="40" height="40" viewBox="0 0 40 40" fill="none" xmlns="http://www.w3.org/2000/svg">
<path d="M12.0392 33.76C14.4392 35.2 17.3192 36 20.1992 36C28.9992 36 36.1992 28.8 36.1992 20C36.1992 11.2 28.9992 4 20.1992 4C11.3992 4 4.19922 11.2 4.19922 20C4.19922 22.88 4.99922 25.6 6.27922 28L4.90392 33.2896C4.59237 34.4878 5.70149 35.5707 6.892 35.2306L12.0392 33.76Z" stroke="#54A453" stroke-width="1.5" stroke-miterlimit="10" stroke-linecap="round" stroke-linejoin="round"/>
<path d="M28.1992 25.064C28.1992 25.352 28.135 25.648 27.9989 25.936C27.8627 26.224 27.6865 26.496 27.4542 26.752C27.0614 27.184 26.6289 27.496 26.1402 27.696C25.6595 27.896 25.1386 28 24.5777 28C23.7606 28 22.8872 27.808 21.9658 27.416C21.0446 27.024 20.1231 26.496 19.2097 25.832C18.2883 25.16 17.415 24.416 16.5818 23.592C15.7566 22.76 15.0114 21.888 14.3464 20.976C13.6895 20.064 13.1607 19.152 12.7761 18.248C12.3915 17.336 12.1992 16.464 12.1992 15.632C12.1992 15.088 12.2954 14.568 12.4876 14.088C12.6799 13.6 12.9844 13.152 13.409 12.752C13.9218 12.248 14.4827 12 15.0755 12C15.2999 12 15.5242 12.048 15.7245 12.144C15.9328 12.24 16.1171 12.384 16.2613 12.592L18.1201 15.208C18.2643 15.408 18.3685 15.592 18.4406 15.768C18.5126 15.936 18.5528 16.104 18.5528 16.256C18.5528 16.448 18.4966 16.64 18.3845 16.824C18.2803 17.008 18.1281 17.2 17.9358 17.392L17.3269 18.024C17.2389 18.112 17.1987 18.216 17.1987 18.344C17.1987 18.408 17.2067 18.464 17.2227 18.528C17.2469 18.592 17.2709 18.64 17.2869 18.688C17.431 18.952 17.6794 19.296 18.0319 19.712C18.3925 20.128 18.777 20.552 19.1937 20.976C19.6264 21.4 20.043 21.792 20.4677 22.152C20.8842 22.504 21.2287 22.744 21.5011 22.888C21.5413 22.904 21.5893 22.928 21.6454 22.952C21.7094 22.976 21.7736 22.984 21.8456 22.984C21.982 22.984 22.086 22.936 22.1742 22.848L22.783 22.248C22.9834 22.048 23.1758 21.896 23.3599 21.8C23.5443 21.688 23.7285 21.632 23.9288 21.632C24.081 21.632 24.2414 21.664 24.4175 21.736C24.5939 21.808 24.7781 21.912 24.9784 22.048L27.6303 23.928C27.8387 24.072 27.9829 24.24 28.071 24.44C28.1512 24.64 28.1992 24.84 28.1992 25.064Z" fill="#54A453"/>
</svg>
