<svg width="56" height="56" viewBox="0 0 56 56" fill="none" xmlns="http://www.w3.org/2000/svg">
<path d="M23.2881 38.6339C24.2428 38.5507 24.7024 39.8057 23.8203 40.2276C23.1835 40.5322 22.4905 40.7673 21.8311 41.0303L17.5312 42.7579C17.2248 42.845 17.0037 42.9791 16.7461 42.7647C16.6654 42.5515 16.656 42.5225 16.6787 42.294C16.8626 41.9955 22.5695 38.9816 23.2881 38.6339ZM48.6758 14.0401C50.243 13.8942 51.7634 14.1172 53 15.1319C51.6856 17.29 48.5039 18.6903 46.2627 19.7081C43.929 20.7677 41.4931 21.6902 39.1328 22.6993C39.5776 21.3066 38.6615 20.9223 38.0781 21.963C37.4904 23.0114 36.9147 24.2597 36.3848 25.3575C34.7897 28.6622 33.291 31.9988 31.3936 35.1495C30.1401 37.201 28.1867 40.2087 26.1475 41.4913C25.7444 41.7448 25.3622 41.8476 24.9082 41.9542C25.1397 41.369 25.414 40.2079 25.583 39.5714C26.0162 37.9692 26.43 36.3615 26.8232 34.7491C27.4529 32.2479 28.1517 29.7475 28.8096 27.253C28.8668 27.036 28.9272 26.7141 28.8818 26.4971C28.5275 26.3263 22.1121 28.2673 21.1768 28.5196C18.8488 29.1573 16.4033 29.7698 14.0908 30.3116C12.9825 30.5713 8.85151 31.9941 8.19922 31.1768C7.48569 30.2829 3.02035 23.7137 3 23.0186C4.28059 21.7992 8.24395 27.0542 10.0996 27.0342C13.0311 27.0018 15.522 25.9352 18.2354 24.961C23.5625 23.0484 28.7289 20.7587 33.9873 18.6758C38.7483 16.7843 43.5053 14.4793 48.6758 14.0401ZM24.1729 34.0333C24.9623 34.0035 25.4017 34.4989 25.124 35.2657C24.786 35.7065 21.4762 36.7866 20.7031 37.0635C20.4304 37.1542 20.1452 37.2422 19.915 37.0255C19.8287 36.8535 19.8262 36.831 19.8496 36.6397C20.0581 36.2631 23.6544 34.2582 24.1729 34.0333ZM25.334 29.0889C26.5843 28.9996 26.6677 30.2531 25.8848 30.629C25.0679 31.021 23.8452 31.361 22.9609 31.6563C22.786 31.7145 22.3782 31.864 22.2051 31.8223C21.9687 31.7652 21.8584 31.4782 21.9238 31.2403C22.2335 30.8192 24.8143 29.328 25.334 29.0889ZM19.9316 19.6993C20.075 19.6926 20.2029 19.7092 20.3369 19.7598C20.5349 19.8346 20.7237 19.9793 20.8096 20.1768C20.9139 20.4172 20.9276 20.7413 20.8203 20.9835C20.6207 21.4335 17.4749 22.3649 16.8584 22.5762C16.4204 22.7495 15.8271 22.8884 15.957 22.1426C16.1008 21.8635 19.4852 19.9104 19.9316 19.6993ZM20.2227 15.1192C22.4192 14.7751 27.6478 16.2986 29.8564 17.0684C30.7213 17.3699 31.9661 17.8757 32.793 18.0723C31.8472 18.3948 30.1531 19.1358 29.1895 19.5294C28.0448 20.0163 26.3377 20.7676 25.2031 21.1524C23.0784 19.7452 20.9936 18.2185 18.8682 16.8057C18.7595 16.7335 18.2517 16.3841 18.2441 16.2735C18.1893 15.4678 19.6303 15.1834 20.2227 15.1192ZM16.6904 16.9297C17.0754 16.9986 17.3248 17.1509 17.4717 17.5313C17.5432 17.7221 17.5349 17.9339 17.4482 18.1182C17.2093 18.6347 15.5629 19.109 14.9902 19.3233L11.709 20.585C11.5543 20.636 11.474 20.6469 11.3174 20.671C11.0363 20.5534 10.9012 20.3384 11.0088 20.0352C11.3381 19.6642 15.4435 17.543 16.123 17.1251C16.2505 17.0469 16.5325 16.964 16.6904 16.9297Z" fill="#282828"/>
</svg>
