<svg width="36" height="36" viewBox="0 0 36 36" fill="none" xmlns="http://www.w3.org/2000/svg">
<rect width="36" height="36" rx="4" fill="#BA9B31"/>
<path d="M26.9787 20.3877L26.9797 24.7227L26.9806 26.1084C26.981 26.3678 26.9899 26.6853 26.9728 26.9404C26.8506 27.1278 26.5357 27.4861 26.381 27.6719L25.2814 28.9932C24.7124 28.3372 24.138 27.6276 23.5803 26.958C23.1987 27.4295 22.796 27.903 22.4074 28.3701L21.884 29C21.7587 28.8182 21.4472 28.467 21.3 28.29L20.1887 26.959C19.6438 27.636 19.0526 28.328 18.4933 28.9971C17.9885 28.3447 17.3341 27.5994 16.798 26.9561C16.245 27.6373 15.6667 28.3194 15.1056 28.9961L13.4064 26.959L11.7101 28.998C11.5702 28.8098 11.3501 28.5611 11.1974 28.3779C10.799 27.9049 10.4044 27.4288 10.0138 26.9492C9.98451 26.1684 10.0109 25.2211 10.0109 24.4238V19.4609L10.0138 7.00098L26.9787 7V20.3877ZM21.9142 19.7129C20.519 19.7515 19.4202 20.9163 19.4621 22.3115C19.504 23.707 20.6711 24.8032 22.0666 24.7578C23.4567 24.7124 24.5488 23.5505 24.507 22.1602C24.4651 20.7697 23.3049 19.6746 21.9142 19.7129ZM21.8596 20.9258C22.564 20.8834 23.1705 21.418 23.2179 22.1221C23.2652 22.8264 22.7353 23.4372 22.0314 23.4893C21.3207 23.5417 20.7031 23.005 20.6554 22.2939C20.6078 21.5831 21.1484 20.9687 21.8596 20.9258ZM13.7785 20.2744C13.1125 20.2744 12.373 20.2585 11.714 20.2764C11.7108 20.828 11.7105 21.3802 11.7131 21.9316H15.2502C15.917 21.9315 16.6389 21.9474 17.298 21.9297L17.3469 21.9229C17.3782 21.8721 17.3638 20.4576 17.3635 20.2764L13.7785 20.2744ZM15.2463 16.9541L12.965 16.9551C12.5615 16.9551 12.113 16.9462 11.7131 16.959V18.6074C14.247 18.6375 16.7905 18.5911 19.3254 18.6104C19.7997 18.6138 20.2807 18.6148 20.7551 18.6094C20.7566 18.0626 20.7619 17.5045 20.7541 16.958C18.9269 16.9386 17.0764 16.954 15.2463 16.9541ZM16.7736 13.6387H13.4562C12.9018 13.6387 12.2576 13.6228 11.7131 13.6436V15.292C15.4824 15.3417 19.2684 15.2619 23.0392 15.2959C23.5938 15.3009 24.1577 15.3003 24.7121 15.2939C24.7284 14.7602 24.717 14.1798 24.716 13.6426C22.0915 13.6087 19.4023 13.6386 16.7736 13.6387ZM22.8898 10.3223H19.7404L11.7961 10.3232L11.7326 10.3291C11.6928 10.3878 11.7124 11.8046 11.7131 11.9775L24.6496 11.9785L24.7013 11.9717C24.7353 11.8974 24.7167 10.5177 24.716 10.3271C24.1165 10.3142 23.4914 10.3223 22.8898 10.3223Z" fill="white"/>
</svg>
