<svg width="36" height="36" viewBox="0 0 36 36" fill="none" xmlns="http://www.w3.org/2000/svg">
<path d="M29.9458 23.0576C26.9693 23.7983 23.8803 23.9764 20.8384 23.582C19.0624 23.3363 17.5836 22.7442 15.8794 22.3867C11.2905 21.424 6.43429 21.3598 2.10986 23.3193C1.44364 23.604 0.719446 24.0224 0.0922852 24.3877C0.13791 23.2121 0.111239 21.9503 0.0952148 20.7695C11.2289 14.9457 22.4721 11.7039 35.0835 11.1787C35.3889 11.1623 35.6944 11.144 35.9995 11.123L29.9458 23.0576ZM13.7554 17.8994C13.4859 17.6865 13.1332 17.6093 12.7993 17.6895C12.2036 17.8327 11.8331 18.4278 11.9683 19.0254C12.1037 19.6232 12.695 20.0017 13.2944 19.874C13.8106 19.7639 14.1801 19.308 14.1812 18.7803C14.1818 18.4369 14.0248 18.1123 13.7554 17.8994ZM16.6431 16.8857C16.3698 16.6671 16.0098 16.5887 15.6704 16.6738C15.0753 16.8234 14.7114 17.4237 14.854 18.0205C14.9969 18.6175 15.5934 18.9887 16.1919 18.8525C16.6914 18.7387 17.0502 18.3003 17.063 17.7881C17.0716 17.4382 16.9163 17.1044 16.6431 16.8857ZM20.2573 16.4561C20.1 15.8546 19.4827 15.4965 18.8823 15.6582C18.2883 15.8183 17.9349 16.4272 18.0903 17.0225C18.2459 17.6178 18.8523 17.9763 19.4487 17.8252C20.0516 17.6725 20.4146 17.0577 20.2573 16.4561Z" fill="#00819E"/>
<path d="M12.0228 9.03425C12.3816 8.99483 13.1783 8.99813 13.5527 9.00256C16.9217 9.04213 20.3117 9.73304 23.5339 10.6797C23.7507 10.7434 24.4562 10.9258 24.5464 11.0922C24.4169 11.192 24.1345 11.2258 23.9701 11.2465C22.5412 11.4262 21.1377 11.7364 19.7423 12.0973C17.273 12.7531 14.8425 13.5472 12.4623 14.4758C12.0665 14.6289 11.1008 15.0005 10.7491 15.1787C8.58397 16.2752 9.0131 15.304 8.37653 13.5256C8.07157 12.6735 12.3806 12.347 12.1868 11.2474C11.5854 10.0984 8.87402 12.077 7.90609 11.7812C7.74488 11.732 7.55987 11.2639 7.50061 11.1287C7.09422 11.1166 5.97561 11.2492 5.80957 10.8741C5.89849 10.5427 6.5897 10.2657 6.89054 10.1341C8.54129 9.4117 10.2418 9.16015 12.0228 9.03425Z" fill="#00819E"/>
<path d="M8.5341 22.4142C10.4544 22.2592 13.3727 22.7563 15.2212 23.2446C21.8141 24.986 27.1205 25.6416 33.3996 22.3442C30.7609 24.652 29.072 25.6356 25.51 25.9967C22.2677 26.0824 19.7375 25.478 16.6058 24.7345C10.865 23.3714 5.4994 23.0403 0 25.5794C2.58705 23.6798 5.3061 22.5894 8.5341 22.4142Z" fill="#00819E"/>
<path d="M0.265137 26.6493C4.25922 23.8637 8.33206 25.0962 12.6583 25.9426C14.6224 26.3269 16.7061 26.6146 18.7072 26.6855L18.559 26.9085C16.3188 27.2804 14.0267 27.1984 11.8188 26.6674C9.60164 26.139 8.07232 25.5019 5.67567 25.547C3.38987 25.5899 2.35891 25.9542 0.265137 26.6493Z" fill="#00819E"/>
<path d="M18.7072 26.6855L19.6549 26.7417L18.5591 26.9086L18.7072 26.6855Z" fill="#00819E"/>
</svg>
