<?xml version="1.0" encoding="utf-8"?>
<!-- Generator: Adobe Illustrator 24.3.0, SVG Export Plug-In . SVG Version: 6.00 Build 0)  -->
<svg version="1.1" id="Layer_1" xmlns="http://www.w3.org/2000/svg" xmlns:xlink="http://www.w3.org/1999/xlink" x="0px" y="0px"
	 viewBox="0 0 800 800" style="enable-background:new 0 0 800 800;" xml:space="preserve">
<style type="text/css">
	.st0{fill:#FFFFFF;}
</style>
<g>
	<path class="st0" d="M400,0C179.1,0,0,179.1,0,400s179.1,400,400,400s400-179.1,400-400S620.9,0,400,0z M649.7,649.5
		c-32.5,32.5-70.2,58-112.2,75.6c-43.4,18.4-89.7,27.7-137.5,27.7c-47.7,0-93.9-9.4-137.5-27.7c-42-17.8-79.8-43.3-112.2-75.6
		c-32.5-32.5-58-70.2-75.6-112.2C56.2,493.9,46.9,447.7,46.9,400s9.4-93.9,27.7-137.5c17.8-42,43.3-79.8,75.6-112.2
		c32.7-32.5,70.3-58,112.3-75.8c43.6-18.3,89.8-27.7,137.5-27.7s93.9,9.4,137.5,27.7c42,17.8,79.8,43.3,112.2,75.6
		c32.5,32.5,58,70.2,75.6,112.2C743.7,305.8,753,352,753,399.8c0,47.7-9.4,93.9-27.7,137.5C707.5,579.4,682,617.2,649.7,649.5z"/>
	<path class="st0" d="M531.1,259.7H268.9c0,0-68.9,0-68.9,68.9v143c0,0,0,68.9,68.9,68.9h262.2c0,0,68.9,0,68.9-68.9v-143
		C600,328.6,600,259.7,531.1,259.7z M346.7,477V323.1l130.9,77L346.7,477z"/>
</g>
</svg>
