<svg width="200" height="64" viewBox="0 0 200 64" fill="none" xmlns="http://www.w3.org/2000/svg">
<path d="M34.7006 45.0227C34.7006 45.5892 34.2484 46.0495 33.6831 46.0495H8.04805C4.64935 46.0495 1.89366 43.2949 1.89366 39.8959V8.35621C1.89366 4.95015 4.64935 2.18848 8.04805 2.18848H34.3402L23.5294 5.86363C23.5153 5.87071 23.5012 5.87779 23.487 5.87779L23.0701 6.01941V6.03358C19.1839 7.44982 16.3999 11.1675 16.3999 15.5507C16.3999 17.8167 17.1489 19.8986 18.3996 21.591V21.5981L34.5169 44.4492C34.6299 44.612 34.7006 44.8174 34.7006 45.0227Z" fill="#BA9B30"/>
<path d="M51.7576 25.0034V56.5361C51.7576 59.9421 49.0019 62.6897 45.6032 62.6897H19.3181L30.136 59.0145C30.1431 59.0145 30.1643 59.0074 30.1784 59.0003L30.5882 58.8587L30.5953 58.8516C34.4745 57.4283 37.2584 53.7107 37.2584 49.3274C37.2584 47.0614 36.5094 44.9795 35.2588 43.2871L35.2659 43.2801L19.1415 20.4361C19.0355 20.2661 18.9648 20.0749 18.9648 19.8625C18.9648 19.3031 19.4241 18.8428 19.9823 18.8428H45.6032C49.0019 18.8357 51.7576 21.5974 51.7576 25.0034Z" fill="#282828"/>
<path d="M59.2404 22.6171V21.8665L62.307 21.5337V22.3197C62.307 23.8564 63.0913 24.7911 64.3491 24.7911C65.6068 24.7911 66.3911 24.0051 66.3911 22.7729C66.3911 21.4487 65.847 20.4857 63.4729 18.2268C60.3215 15.2456 59.4171 13.6169 59.4171 11.3014C59.4171 8.17147 61.2189 6.125 64.2572 6.125C67.2885 6.125 69.0973 8.17147 69.0973 11.3368V11.882L66.0307 12.2148V11.6129C66.0307 9.98426 65.4019 9.1416 64.2855 9.1416C63.1761 9.1416 62.5402 9.83556 62.5402 11.1597C62.5402 12.4839 63.2044 13.447 65.4513 15.7059C68.5179 18.7791 69.5072 20.3158 69.5072 22.6313C69.5072 25.6408 67.4015 27.8077 64.3703 27.8077C61.3461 27.8006 59.2404 25.6337 59.2404 22.6171Z" fill="#282828"/>
<path d="M79.251 22.8303H75.8241L75.1316 27.4968H71.9449L75.4284 6.41602H79.6962L83.1797 27.4968H79.9364L79.251 22.8303ZM78.8341 19.757L77.5411 10.9338L76.248 19.757H78.8341Z" fill="#282828"/>
<path d="M86.4017 6.41602H89.5884V27.4968H86.4017V6.41602Z" fill="#282828"/>
<path d="M93.8209 6.41602H102.717V9.42553H97.0076V15.6003H101.516V18.6099H97.0076V27.4968H93.8209V6.41602Z" fill="#282828"/>
<path d="M105.663 22.8015V11.1175C105.663 8.16463 107.677 6.11816 110.652 6.11816C113.627 6.11816 115.64 8.16463 115.64 11.1175V13.5888H112.517V11.1175C112.517 9.88537 111.768 9.12768 110.687 9.12768C109.606 9.12768 108.857 9.87829 108.857 11.1175V22.8015C108.857 24.0336 109.606 24.7913 110.687 24.7913C111.768 24.7913 112.517 24.0407 112.517 22.8015V19.792H115.64V22.8015C115.64 25.7544 113.627 27.8008 110.652 27.8008C107.677 27.8008 105.663 25.7544 105.663 22.8015Z" fill="#282828"/>
<path d="M119.152 22.7094V11.2096C119.152 8.17172 121.194 6.11816 124.261 6.11816C127.327 6.11816 129.369 8.16463 129.369 11.2096V22.7165C129.369 25.7615 127.327 27.8079 124.261 27.8079C121.194 27.8079 119.152 25.7544 119.152 22.7094ZM126.183 22.7094V11.2096C126.183 9.88537 125.434 9.13476 124.261 9.13476C123.088 9.13476 122.339 9.88537 122.339 11.2096V22.7165C122.339 24.0407 123.088 24.7913 124.261 24.7913C125.434 24.7913 126.183 24.0336 126.183 22.7094Z" fill="#282828"/>
<path d="M58.7246 37.9551H65.7764V40.044H63.3528V52.5919H61.1411V40.044H58.7175V37.9551H58.7246Z" fill="#282828"/>
<path d="M72.9694 52.5919L71.3655 46.5446H70.2208V52.5849H68.0092V37.9551H71.4715C73.5771 37.9551 74.9338 39.3359 74.9338 41.4461V43.0536C74.9338 44.4131 74.3685 45.4612 73.4075 46.0418L75.2659 52.5849H72.9694V52.5919ZM70.2208 44.4556H71.3655C72.2205 44.4556 72.7221 43.9529 72.7221 43.096V41.4036C72.7221 40.5468 72.2205 40.044 71.3655 40.044H70.2208V44.4556Z" fill="#282828"/>
<path d="M81.9643 49.3488H79.5831L79.1026 52.5919H76.891L79.3146 37.9551H82.2752L84.6988 52.5919H82.4448L81.9643 49.3488ZM81.6746 47.2173L80.7773 41.0921L79.8799 47.2173H81.6746Z" fill="#282828"/>
<path d="M93.5665 37.9551L91.1429 52.5919H88.1823L85.7587 37.9551H88.0127L89.6803 49.455L91.3478 37.9551H93.5665Z" fill="#282828"/>
<path d="M95.7993 37.9551H102.081V40.044H98.011V44.1228H101.247V46.2118H98.011V50.4959H102.081V52.5849H95.7993V37.9551Z" fill="#282828"/>
<path d="M104.455 37.9551H106.667V50.503H110.609V52.5919H104.455V37.9551Z" fill="#282828"/>
<path d="M123.837 52.5917L123.208 51.565C122.417 52.4005 121.498 52.7971 120.452 52.7971C118.636 52.7971 117.195 51.6074 117.195 49.1149C117.195 47.38 117.901 46.2895 119.138 44.9936L118.827 44.4908C118.283 43.5915 117.661 42.4231 117.661 41.0423C117.661 39.1374 118.933 37.7354 120.897 37.7354C122.756 37.7354 124.006 38.9675 124.006 40.8936C124.006 42.4585 123.526 43.2162 121.731 45.1777L123.13 47.3516C123.3 46.7639 123.441 46.077 123.611 45.2627H125.822C125.448 46.9976 125.031 48.3997 124.508 49.5043L126.486 52.5776H123.837V52.5917ZM122.19 49.915L120.269 46.8418C119.682 47.5712 119.414 48.1377 119.414 49.0157C119.414 50.2903 120.064 50.7081 120.876 50.7081C121.378 50.7081 121.795 50.5169 122.19 49.915ZM119.795 41.0494C119.795 41.7008 120.021 42.4939 120.65 43.4924C121.547 42.5931 121.986 41.9628 121.986 41.0494C121.986 40.1925 121.611 39.7323 120.919 39.7323C120.212 39.7323 119.795 40.2563 119.795 41.0494Z" fill="#282828"/>
<path d="M132.853 37.9551H139.905V40.044H137.488V52.5919H135.276V40.044H132.86V37.9551H132.853Z" fill="#282828"/>
<path d="M141.947 49.2643V41.2767C141.947 39.1665 143.367 37.7432 145.494 37.7432C147.621 37.7432 149.041 39.1665 149.041 41.2767V49.2643C149.041 51.3745 147.621 52.7978 145.494 52.7978C143.367 52.7978 141.947 51.3745 141.947 49.2643ZM146.829 49.2643V41.2767C146.829 40.3561 146.306 39.8321 145.494 39.8321C144.681 39.8321 144.158 40.3561 144.158 41.2767V49.2643C144.158 50.1849 144.681 50.7089 145.494 50.7089C146.306 50.7089 146.829 50.1849 146.829 49.2643Z" fill="#282828"/>
<path d="M151.712 49.37V37.9551H153.923V49.37C153.923 50.2268 154.446 50.7083 155.153 50.7083C155.859 50.7083 156.382 50.2268 156.382 49.37V37.9551H158.551V49.37C158.551 51.4165 157.174 52.7973 155.153 52.7973C153.132 52.7973 151.712 51.4165 151.712 49.37Z" fill="#282828"/>
<path d="M166.38 52.5919L164.777 46.5517H163.632V52.5919H161.42V37.9551H164.883C166.988 37.9551 168.345 39.3359 168.345 41.4461V43.0536C168.345 44.4131 167.78 45.4612 166.819 46.0418L168.677 52.5849H166.38V52.5919ZM163.625 44.4556H164.769C165.624 44.4556 166.126 43.9529 166.126 43.096V41.4036C166.126 40.5468 165.624 40.044 164.769 40.044H163.625V44.4556Z" fill="#282828"/>
<path d="M171.016 37.9551H173.227V52.5919H171.016V37.9551Z" fill="#282828"/>
<path d="M175.665 49.2006V48.6766L177.792 48.45V48.9952C177.792 50.0645 178.336 50.7089 179.212 50.7089C180.088 50.7089 180.632 50.1636 180.632 49.3068C180.632 48.3862 180.258 47.7206 178.612 46.1486C176.421 44.0808 175.792 42.9479 175.792 41.3404C175.792 39.1665 177.043 37.7432 179.149 37.7432C181.254 37.7432 182.505 39.1665 182.505 41.3617V41.737L180.378 41.9706V41.5529C180.378 40.4269 179.94 39.8392 179.17 39.8392C178.4 39.8392 177.962 40.3207 177.962 41.2413C177.962 42.1618 178.421 42.8275 179.982 44.3995C182.109 46.5309 182.802 47.6002 182.802 49.2076C182.802 51.2966 181.339 52.8049 179.233 52.8049C177.128 52.7978 175.665 51.2966 175.665 49.2006Z" fill="#282828"/>
<path d="M195.259 37.9551V52.5919H193.047V42.5508L190.984 52.5849H189.437L187.373 42.5508V52.5849H185.204V37.9551H188.334L190.256 47.3023L192.093 37.9551H195.259Z" fill="#282828"/>
</svg>
